G04 #@! TF.GenerationSoftware,KiCad,Pcbnew,(5.0.0-rc2-dev-444-g2974a2c10)*
G04 #@! TF.CreationDate,2018-10-05T22:12:32-07:00*
G04 #@! TF.ProjectId,retro meter v03,726574726F206D65746572207630332E,v03*
G04 #@! TF.SameCoordinates,Original*
G04 #@! TF.FileFunction,Soldermask,Bot*
G04 #@! TF.FilePolarity,Negative*
%FSLAX46Y46*%
G04 Gerber Fmt 4.6, Leading zero omitted, Abs format (unit mm)*
G04 Created by KiCad (PCBNEW (5.0.0-rc2-dev-444-g2974a2c10)) date 10/05/18 22:12:32*
%MOMM*%
%LPD*%
G01*
G04 APERTURE LIST*
%ADD10C,3.400000*%
%ADD11C,2.900000*%
%ADD12C,2.100000*%
%ADD13O,2.100000X2.100000*%
%ADD14R,2.100000X2.100000*%
%ADD15C,2.000000*%
%ADD16O,2.000000X2.000000*%
%ADD17R,1.900000X3.800000*%
G04 APERTURE END LIST*
D10*
X105404800Y-95245000D03*
X105404800Y-113025000D03*
D11*
X151124800Y-113025000D03*
X151124800Y-95245000D03*
D12*
X147314800Y-93975000D03*
X144774800Y-93975000D03*
X142234800Y-93975000D03*
X139694800Y-93975000D03*
X137154800Y-93975000D03*
X134614800Y-93975000D03*
X132074800Y-93975000D03*
X129534800Y-93975000D03*
X126994800Y-93975000D03*
X124454800Y-93975000D03*
X121914800Y-93975000D03*
X119374800Y-93975000D03*
X147314800Y-114295000D03*
X144774800Y-114295000D03*
X142234800Y-114295000D03*
X139694800Y-114295000D03*
X137154800Y-114295000D03*
X134614800Y-114295000D03*
X132074800Y-114295000D03*
X129534800Y-114295000D03*
X126994800Y-114295000D03*
X124454800Y-114295000D03*
X121914800Y-114295000D03*
X119374800Y-114295000D03*
X116834800Y-114295000D03*
X114294800Y-114295000D03*
X111754800Y-114295000D03*
X109214800Y-114295000D03*
D13*
X105918000Y-102108000D03*
D14*
X105918000Y-99568000D03*
X114604800Y-94135000D03*
D13*
X112064800Y-94135000D03*
X150495000Y-108331000D03*
D14*
X150495000Y-105791000D03*
D13*
X150622000Y-99314000D03*
X148082000Y-99314000D03*
D14*
X145542000Y-99314000D03*
D13*
X105918000Y-108331000D03*
D14*
X105918000Y-105791000D03*
X145415000Y-105791000D03*
D13*
X145415000Y-108331000D03*
X147955000Y-108331000D03*
D14*
X147955000Y-105791000D03*
D15*
X114046000Y-106426000D03*
D16*
X114046000Y-108966000D03*
D17*
X142240000Y-101854000D03*
X133223000Y-101854000D03*
M02*
