G04 #@! TF.GenerationSoftware,KiCad,Pcbnew,(5.0.0-rc2-dev-444-g2974a2c10)*
G04 #@! TF.CreationDate,2018-10-05T22:12:32-07:00*
G04 #@! TF.ProjectId,retro meter v03,726574726F206D65746572207630332E,v03*
G04 #@! TF.SameCoordinates,Original*
G04 #@! TF.FileFunction,Copper,L1,Top,Signal*
G04 #@! TF.FilePolarity,Positive*
%FSLAX46Y46*%
G04 Gerber Fmt 4.6, Leading zero omitted, Abs format (unit mm)*
G04 Created by KiCad (PCBNEW (5.0.0-rc2-dev-444-g2974a2c10)) date 10/05/18 22:12:32*
%MOMM*%
%LPD*%
G01*
G04 APERTURE LIST*
%ADD10C,3.000000*%
%ADD11C,1.700000*%
%ADD12R,1.500000X1.300000*%
%ADD13R,1.300000X1.500000*%
%ADD14R,1.550000X0.600000*%
%ADD15O,1.700000X1.700000*%
%ADD16R,1.700000X1.700000*%
%ADD17C,1.600000*%
%ADD18O,1.600000X1.600000*%
%ADD19R,0.700000X1.300000*%
%ADD20R,1.300000X0.700000*%
%ADD21R,0.920000X0.520000*%
%ADD22R,1.000000X1.250000*%
%ADD23R,1.250000X1.000000*%
%ADD24C,0.685800*%
%ADD25C,1.016000*%
%ADD26C,0.254000*%
%ADD27C,0.152400*%
G04 APERTURE END LIST*
D10*
X105404800Y-95245000D03*
X105404800Y-113025000D03*
D11*
X147314800Y-93975000D03*
X144774800Y-93975000D03*
X142234800Y-93975000D03*
X139694800Y-93975000D03*
X137154800Y-93975000D03*
X134614800Y-93975000D03*
X132074800Y-93975000D03*
X129534800Y-93975000D03*
X126994800Y-93975000D03*
X124454800Y-93975000D03*
X121914800Y-93975000D03*
X119374800Y-93975000D03*
X147314800Y-114295000D03*
X144774800Y-114295000D03*
X142234800Y-114295000D03*
X139694800Y-114295000D03*
X137154800Y-114295000D03*
X134614800Y-114295000D03*
X132074800Y-114295000D03*
X129534800Y-114295000D03*
X126994800Y-114295000D03*
X124454800Y-114295000D03*
X121914800Y-114295000D03*
X119374800Y-114295000D03*
X116834800Y-114295000D03*
X114294800Y-114295000D03*
X111754800Y-114295000D03*
X109214800Y-114295000D03*
D12*
X138985000Y-108585000D03*
X141685000Y-108585000D03*
D13*
X109728000Y-105838000D03*
X109728000Y-108538000D03*
D14*
X125763000Y-101473000D03*
X125763000Y-102743000D03*
X125763000Y-104013000D03*
X125763000Y-105283000D03*
X120363000Y-105283000D03*
X120363000Y-104013000D03*
X120363000Y-102743000D03*
X120363000Y-101473000D03*
D15*
X105918000Y-102108000D03*
D16*
X105918000Y-99568000D03*
X114604800Y-94135000D03*
D15*
X112064800Y-94135000D03*
X150495000Y-108331000D03*
D16*
X150495000Y-105791000D03*
D15*
X150622000Y-99314000D03*
X148082000Y-99314000D03*
D16*
X145542000Y-99314000D03*
D15*
X105918000Y-108331000D03*
D16*
X105918000Y-105791000D03*
X145415000Y-105791000D03*
D15*
X145415000Y-108331000D03*
X147955000Y-108331000D03*
D16*
X147955000Y-105791000D03*
D12*
X138985000Y-105664000D03*
X141685000Y-105664000D03*
X141685000Y-102870000D03*
X138985000Y-102870000D03*
D17*
X114046000Y-106426000D03*
D18*
X114046000Y-108966000D03*
D12*
X114634000Y-97790000D03*
X111934000Y-97790000D03*
D19*
X117160000Y-110236000D03*
X119060000Y-110236000D03*
X117160000Y-107696000D03*
X119060000Y-107696000D03*
X109794000Y-100330000D03*
X111694000Y-100330000D03*
X109794000Y-102616000D03*
X111694000Y-102616000D03*
D20*
X116586000Y-101031000D03*
X116586000Y-102931000D03*
D19*
X120076000Y-98552000D03*
X118176000Y-98552000D03*
X122240000Y-98552000D03*
X124140000Y-98552000D03*
X126304000Y-98552000D03*
X128204000Y-98552000D03*
D21*
X135788400Y-108778000D03*
X135788400Y-110678000D03*
X133350000Y-110678000D03*
X133350000Y-109728000D03*
X133350000Y-108778000D03*
X133350000Y-103825000D03*
X133350000Y-104775000D03*
X133350000Y-105725000D03*
X135788400Y-105725000D03*
X135788400Y-103825000D03*
X135788400Y-98872000D03*
X135788400Y-100772000D03*
X133350000Y-100772000D03*
X133350000Y-99822000D03*
X133350000Y-98872000D03*
D22*
X121428000Y-110236000D03*
X123428000Y-110236000D03*
X128000000Y-110236000D03*
X126000000Y-110236000D03*
D23*
X114046000Y-102781000D03*
X114046000Y-100781000D03*
D19*
X123124000Y-107696000D03*
X121224000Y-107696000D03*
X125034000Y-107696000D03*
X126934000Y-107696000D03*
D24*
X122555000Y-102235000D03*
X140335000Y-111125000D03*
X139065000Y-99060000D03*
X135890000Y-95885000D03*
X125222000Y-99949000D03*
X129108200Y-101269800D03*
D25*
X130175000Y-98425000D03*
X130175000Y-111125000D03*
D24*
X131445000Y-109855000D03*
X127990600Y-102743000D03*
X131445000Y-99695000D03*
X131445000Y-104775000D03*
D26*
X126934000Y-107696000D02*
X126934000Y-108900000D01*
X126934000Y-108900000D02*
X126868000Y-108966000D01*
X126868000Y-108966000D02*
X124714000Y-108966000D01*
X124714000Y-108966000D02*
X124714000Y-110236000D01*
X124714000Y-110236000D02*
X123428000Y-110236000D01*
X128331000Y-98425000D02*
X128204000Y-98552000D01*
X130175000Y-98425000D02*
X128331000Y-98425000D01*
X128204000Y-98852000D02*
X128270000Y-98918000D01*
X128204000Y-98552000D02*
X128204000Y-98852000D01*
X128270000Y-98918000D02*
X128270000Y-100965000D01*
X127762000Y-101473000D02*
X125763000Y-101473000D01*
X128270000Y-100965000D02*
X127762000Y-101473000D01*
X135788400Y-108264000D02*
X134839400Y-107315000D01*
X135788400Y-108778000D02*
X135788400Y-108264000D01*
X134839400Y-107315000D02*
X130810000Y-107315000D01*
X130810000Y-107315000D02*
X130175000Y-106680000D01*
X130175000Y-111125000D02*
X130175000Y-106680000D01*
X135788400Y-103311000D02*
X134712400Y-102235000D01*
X135788400Y-103825000D02*
X135788400Y-103311000D01*
X134712400Y-102235000D02*
X130810000Y-102235000D01*
X130810000Y-102235000D02*
X130175000Y-101600000D01*
X130175000Y-106680000D02*
X130175000Y-101600000D01*
X130175000Y-101600000D02*
X130175000Y-98425000D01*
X135788400Y-98872000D02*
X135788400Y-98323400D01*
X135788400Y-98323400D02*
X134620000Y-97155000D01*
X134620000Y-97155000D02*
X130810000Y-97155000D01*
X130810000Y-97155000D02*
X130175000Y-97790000D01*
X130175000Y-97790000D02*
X130175000Y-98425000D01*
X111754800Y-112400200D02*
X111754800Y-114295000D01*
X112395000Y-111760000D02*
X111754800Y-112400200D01*
X130175000Y-111125000D02*
X129540000Y-111760000D01*
X116540000Y-111760000D02*
X116332000Y-111760000D01*
X117160000Y-111140000D02*
X116540000Y-111760000D01*
X117160000Y-110236000D02*
X117160000Y-111140000D01*
X116332000Y-111760000D02*
X112395000Y-111760000D01*
X120783000Y-111760000D02*
X120650000Y-111760000D01*
X121428000Y-111115000D02*
X120783000Y-111760000D01*
X121428000Y-110236000D02*
X121428000Y-111115000D01*
X120650000Y-111760000D02*
X116332000Y-111760000D01*
X125355000Y-111760000D02*
X125222000Y-111760000D01*
X126000000Y-111115000D02*
X125355000Y-111760000D01*
X126000000Y-110236000D02*
X126000000Y-111115000D01*
X129540000Y-111760000D02*
X125222000Y-111760000D01*
X125222000Y-111760000D02*
X120650000Y-111760000D01*
X121428000Y-107900000D02*
X121224000Y-107696000D01*
X121428000Y-110236000D02*
X121428000Y-107900000D01*
D27*
X109794000Y-102616000D02*
X109794000Y-100330000D01*
X105918000Y-99568000D02*
X107823000Y-99568000D01*
X107823000Y-99568000D02*
X108585000Y-100330000D01*
X108585000Y-100330000D02*
X109794000Y-100330000D01*
X113618000Y-108538000D02*
X114046000Y-108966000D01*
X109728000Y-108538000D02*
X113618000Y-108538000D01*
X150495000Y-104788600D02*
X150495000Y-105791000D01*
X149211400Y-103505000D02*
X150495000Y-104788600D01*
X147751066Y-103505000D02*
X149211400Y-103505000D01*
X141685000Y-102870000D02*
X147116066Y-102870000D01*
X147116066Y-102870000D02*
X147751066Y-103505000D01*
X116774000Y-102743000D02*
X116586000Y-102931000D01*
X120363000Y-102743000D02*
X116774000Y-102743000D01*
X114196000Y-102931000D02*
X114046000Y-102781000D01*
X116586000Y-102931000D02*
X114196000Y-102931000D01*
X111859000Y-102781000D02*
X111694000Y-102616000D01*
X114046000Y-102781000D02*
X111859000Y-102781000D01*
X117028000Y-101473000D02*
X116586000Y-101031000D01*
X120363000Y-101473000D02*
X117028000Y-101473000D01*
X117673600Y-98552000D02*
X118176000Y-98552000D01*
X116586000Y-99639600D02*
X117673600Y-98552000D01*
X116586000Y-101031000D02*
X116586000Y-99639600D01*
X114296000Y-101031000D02*
X114046000Y-100781000D01*
X116586000Y-101031000D02*
X114296000Y-101031000D01*
X133223000Y-109855000D02*
X133350000Y-109728000D01*
X131445000Y-109855000D02*
X133223000Y-109855000D01*
X109681000Y-105791000D02*
X109728000Y-105838000D01*
X105918000Y-105791000D02*
X109681000Y-105791000D01*
X113458000Y-105838000D02*
X114046000Y-106426000D01*
X109728000Y-105838000D02*
X113458000Y-105838000D01*
X144399000Y-105791000D02*
X145415000Y-105791000D01*
X143510000Y-106680000D02*
X144399000Y-105791000D01*
X141685000Y-108585000D02*
X142875000Y-108585000D01*
X142875000Y-108585000D02*
X143510000Y-107950000D01*
X143510000Y-107950000D02*
X143510000Y-106680000D01*
X141685000Y-105664000D02*
X142621000Y-105664000D01*
X142621000Y-105664000D02*
X143510000Y-104775000D01*
X143510000Y-104775000D02*
X143510000Y-104140000D01*
X147955000Y-104788600D02*
X146685000Y-103518600D01*
X147955000Y-105791000D02*
X147955000Y-104788600D01*
X146685000Y-103518600D02*
X144158600Y-103518600D01*
X143537200Y-104140000D02*
X143510000Y-104140000D01*
X144158600Y-103518600D02*
X143537200Y-104140000D01*
X124140000Y-98552000D02*
X124140000Y-102174000D01*
X124709000Y-102743000D02*
X124140000Y-102174000D01*
X125763000Y-102743000D02*
X124709000Y-102743000D01*
X127505667Y-102743000D02*
X125763000Y-102743000D01*
X127990600Y-102743000D02*
X127505667Y-102743000D01*
X137160000Y-93980200D02*
X137154800Y-93975000D01*
X133223000Y-99695000D02*
X133350000Y-99822000D01*
X131445000Y-99695000D02*
X133223000Y-99695000D01*
X131445000Y-104775000D02*
X133350000Y-104775000D01*
X122240000Y-99380000D02*
X122240000Y-98552000D01*
X122240000Y-98552000D02*
X120076000Y-98552000D01*
X124835600Y-104013000D02*
X123698000Y-102875400D01*
X125763000Y-104013000D02*
X124835600Y-104013000D01*
X123698000Y-102875400D02*
X123698000Y-100838000D01*
X123698000Y-100838000D02*
X122240000Y-99380000D01*
X138985000Y-109935000D02*
X138985000Y-108585000D01*
X138430000Y-110490000D02*
X138985000Y-109935000D01*
X136588800Y-110490000D02*
X138430000Y-110490000D01*
X135788400Y-110678000D02*
X136400800Y-110678000D01*
X136400800Y-110678000D02*
X136588800Y-110490000D01*
X138924000Y-105725000D02*
X138985000Y-105664000D01*
X135788400Y-105725000D02*
X138924000Y-105725000D01*
X138985000Y-102870000D02*
X138985000Y-101520000D01*
X136400800Y-100772000D02*
X135788400Y-100772000D01*
X136593800Y-100965000D02*
X136400800Y-100772000D01*
X138430000Y-100965000D02*
X136593800Y-100965000D01*
X138985000Y-101520000D02*
X138430000Y-100965000D01*
X126304000Y-97216000D02*
X126304000Y-98552000D01*
X125730000Y-96642000D02*
X126304000Y-97216000D01*
X114813000Y-96642000D02*
X125730000Y-96642000D01*
X114634000Y-97790000D02*
X114634000Y-96821000D01*
X114634000Y-96821000D02*
X114813000Y-96642000D01*
X119060000Y-107696000D02*
X119060000Y-110236000D01*
X121793000Y-104013000D02*
X120363000Y-104013000D01*
X119060000Y-106893600D02*
X119527600Y-106426000D01*
X119060000Y-107696000D02*
X119060000Y-106893600D01*
X119527600Y-106426000D02*
X122360266Y-106426000D01*
X122360266Y-106426000D02*
X122555000Y-106231266D01*
X122555000Y-106231266D02*
X122555000Y-104775000D01*
X122555000Y-104775000D02*
X121793000Y-104013000D01*
X123124000Y-107696000D02*
X125034000Y-107696000D01*
X125763000Y-106139000D02*
X125763000Y-105283000D01*
X125034000Y-107696000D02*
X125034000Y-106868000D01*
X125034000Y-106868000D02*
X125763000Y-106139000D01*
D26*
G36*
X110623314Y-93778108D02*
X110743981Y-94008000D01*
X111937800Y-94008000D01*
X111937800Y-93988000D01*
X112191800Y-93988000D01*
X112191800Y-94008000D01*
X112211800Y-94008000D01*
X112211800Y-94262000D01*
X112191800Y-94262000D01*
X112191800Y-95455155D01*
X112421690Y-95576476D01*
X112831724Y-95406645D01*
X113136061Y-95129292D01*
X113156643Y-95232765D01*
X113296991Y-95442809D01*
X113507035Y-95583157D01*
X113754800Y-95632440D01*
X115454800Y-95632440D01*
X115702565Y-95583157D01*
X115912609Y-95442809D01*
X116052957Y-95232765D01*
X116102240Y-94985000D01*
X116102240Y-93472000D01*
X117975797Y-93472000D01*
X117889800Y-93679615D01*
X117889800Y-94270385D01*
X118115878Y-94816185D01*
X118533615Y-95233922D01*
X119079415Y-95460000D01*
X119670185Y-95460000D01*
X120215985Y-95233922D01*
X120633722Y-94816185D01*
X120644800Y-94789440D01*
X120655878Y-94816185D01*
X121073615Y-95233922D01*
X121619415Y-95460000D01*
X122210185Y-95460000D01*
X122755985Y-95233922D01*
X123173722Y-94816185D01*
X123184800Y-94789440D01*
X123195878Y-94816185D01*
X123613615Y-95233922D01*
X124159415Y-95460000D01*
X124750185Y-95460000D01*
X125295985Y-95233922D01*
X125713722Y-94816185D01*
X125724800Y-94789440D01*
X125735878Y-94816185D01*
X126153615Y-95233922D01*
X126699415Y-95460000D01*
X127290185Y-95460000D01*
X127835985Y-95233922D01*
X128253722Y-94816185D01*
X128264800Y-94789440D01*
X128275878Y-94816185D01*
X128693615Y-95233922D01*
X129239415Y-95460000D01*
X129830185Y-95460000D01*
X130375985Y-95233922D01*
X130793722Y-94816185D01*
X130804800Y-94789440D01*
X130815878Y-94816185D01*
X131233615Y-95233922D01*
X131779415Y-95460000D01*
X132370185Y-95460000D01*
X132915985Y-95233922D01*
X133333722Y-94816185D01*
X133344800Y-94789440D01*
X133355878Y-94816185D01*
X133773615Y-95233922D01*
X134319415Y-95460000D01*
X134910185Y-95460000D01*
X135455985Y-95233922D01*
X135873722Y-94816185D01*
X135884800Y-94789440D01*
X135895878Y-94816185D01*
X136313615Y-95233922D01*
X136859415Y-95460000D01*
X137450185Y-95460000D01*
X137995985Y-95233922D01*
X138413722Y-94816185D01*
X138424800Y-94789440D01*
X138435878Y-94816185D01*
X138853615Y-95233922D01*
X139399415Y-95460000D01*
X139990185Y-95460000D01*
X140535985Y-95233922D01*
X140953722Y-94816185D01*
X140964800Y-94789440D01*
X140975878Y-94816185D01*
X141393615Y-95233922D01*
X141939415Y-95460000D01*
X142530185Y-95460000D01*
X143075985Y-95233922D01*
X143493722Y-94816185D01*
X143504800Y-94789440D01*
X143515878Y-94816185D01*
X143933615Y-95233922D01*
X144479415Y-95460000D01*
X145070185Y-95460000D01*
X145615985Y-95233922D01*
X146033722Y-94816185D01*
X146044800Y-94789440D01*
X146055878Y-94816185D01*
X146473615Y-95233922D01*
X147019415Y-95460000D01*
X147610185Y-95460000D01*
X148155985Y-95233922D01*
X148573722Y-94816185D01*
X148799800Y-94270385D01*
X148799800Y-93679615D01*
X148713803Y-93472000D01*
X149098000Y-93472000D01*
X149098000Y-97155000D01*
X149107667Y-97203601D01*
X149135197Y-97244803D01*
X149176399Y-97272333D01*
X149225000Y-97282000D01*
X152908000Y-97282000D01*
X152908000Y-110998000D01*
X149225000Y-110998000D01*
X149176399Y-111007667D01*
X149135197Y-111035197D01*
X149107667Y-111076399D01*
X149098000Y-111125000D01*
X149098000Y-114808000D01*
X148709661Y-114808000D01*
X148799800Y-114590385D01*
X148799800Y-113999615D01*
X148573722Y-113453815D01*
X148155985Y-113036078D01*
X147610185Y-112810000D01*
X147019415Y-112810000D01*
X146473615Y-113036078D01*
X146055878Y-113453815D01*
X146044800Y-113480560D01*
X146033722Y-113453815D01*
X145615985Y-113036078D01*
X145070185Y-112810000D01*
X144479415Y-112810000D01*
X143933615Y-113036078D01*
X143515878Y-113453815D01*
X143504800Y-113480560D01*
X143493722Y-113453815D01*
X143075985Y-113036078D01*
X142530185Y-112810000D01*
X141939415Y-112810000D01*
X141393615Y-113036078D01*
X140975878Y-113453815D01*
X140964800Y-113480560D01*
X140953722Y-113453815D01*
X140535985Y-113036078D01*
X139990185Y-112810000D01*
X139399415Y-112810000D01*
X138853615Y-113036078D01*
X138435878Y-113453815D01*
X138424800Y-113480560D01*
X138413722Y-113453815D01*
X137995985Y-113036078D01*
X137450185Y-112810000D01*
X136859415Y-112810000D01*
X136313615Y-113036078D01*
X135895878Y-113453815D01*
X135884800Y-113480560D01*
X135873722Y-113453815D01*
X135455985Y-113036078D01*
X134910185Y-112810000D01*
X134319415Y-112810000D01*
X133773615Y-113036078D01*
X133355878Y-113453815D01*
X133344800Y-113480560D01*
X133333722Y-113453815D01*
X132915985Y-113036078D01*
X132370185Y-112810000D01*
X131779415Y-112810000D01*
X131233615Y-113036078D01*
X130815878Y-113453815D01*
X130804800Y-113480560D01*
X130793722Y-113453815D01*
X130375985Y-113036078D01*
X129830185Y-112810000D01*
X129239415Y-112810000D01*
X128693615Y-113036078D01*
X128275878Y-113453815D01*
X128264800Y-113480560D01*
X128253722Y-113453815D01*
X127835985Y-113036078D01*
X127290185Y-112810000D01*
X126699415Y-112810000D01*
X126153615Y-113036078D01*
X125735878Y-113453815D01*
X125724800Y-113480560D01*
X125713722Y-113453815D01*
X125295985Y-113036078D01*
X124750185Y-112810000D01*
X124159415Y-112810000D01*
X123613615Y-113036078D01*
X123195878Y-113453815D01*
X123184800Y-113480560D01*
X123173722Y-113453815D01*
X122755985Y-113036078D01*
X122210185Y-112810000D01*
X121619415Y-112810000D01*
X121073615Y-113036078D01*
X120655878Y-113453815D01*
X120644800Y-113480560D01*
X120633722Y-113453815D01*
X120215985Y-113036078D01*
X119670185Y-112810000D01*
X119079415Y-112810000D01*
X118533615Y-113036078D01*
X118115878Y-113453815D01*
X118096645Y-113500247D01*
X117878758Y-113430647D01*
X117014405Y-114295000D01*
X117028548Y-114309143D01*
X116848943Y-114488748D01*
X116834800Y-114474605D01*
X116820658Y-114488748D01*
X116641053Y-114309143D01*
X116655195Y-114295000D01*
X115790842Y-113430647D01*
X115572955Y-113500247D01*
X115553722Y-113453815D01*
X115350949Y-113251042D01*
X115970447Y-113251042D01*
X116834800Y-114115395D01*
X117699153Y-113251042D01*
X117618880Y-112999741D01*
X117063521Y-112798282D01*
X116473342Y-112824685D01*
X116050720Y-112999741D01*
X115970447Y-113251042D01*
X115350949Y-113251042D01*
X115135985Y-113036078D01*
X114590185Y-112810000D01*
X113999415Y-112810000D01*
X113453615Y-113036078D01*
X113035878Y-113453815D01*
X113024800Y-113480560D01*
X113013722Y-113453815D01*
X112595985Y-113036078D01*
X112516800Y-113003278D01*
X112516800Y-112715830D01*
X112710631Y-112522000D01*
X116464957Y-112522000D01*
X116540000Y-112536927D01*
X116615043Y-112522000D01*
X120707957Y-112522000D01*
X120783000Y-112536927D01*
X120858043Y-112522000D01*
X125279957Y-112522000D01*
X125355000Y-112536927D01*
X125430043Y-112522000D01*
X129464957Y-112522000D01*
X129540000Y-112536927D01*
X129615043Y-112522000D01*
X129615048Y-112522000D01*
X129837317Y-112477788D01*
X130089371Y-112309371D01*
X130117014Y-112268000D01*
X130402357Y-112268000D01*
X130822458Y-112093989D01*
X131143989Y-111772458D01*
X131318000Y-111352357D01*
X131318000Y-110963750D01*
X132255000Y-110963750D01*
X132255000Y-111064310D01*
X132351673Y-111297699D01*
X132530302Y-111476327D01*
X132763691Y-111573000D01*
X133064250Y-111573000D01*
X133223000Y-111414250D01*
X133223000Y-110805000D01*
X133477000Y-110805000D01*
X133477000Y-111414250D01*
X133635750Y-111573000D01*
X133936309Y-111573000D01*
X134169698Y-111476327D01*
X134348327Y-111297699D01*
X134445000Y-111064310D01*
X134445000Y-110963750D01*
X134286250Y-110805000D01*
X133477000Y-110805000D01*
X133223000Y-110805000D01*
X132413750Y-110805000D01*
X132255000Y-110963750D01*
X131318000Y-110963750D01*
X131318000Y-110897643D01*
X131291183Y-110832900D01*
X131639516Y-110832900D01*
X131998936Y-110684023D01*
X132116759Y-110566200D01*
X132612367Y-110566200D01*
X132642235Y-110586157D01*
X132890000Y-110635440D01*
X133810000Y-110635440D01*
X134057765Y-110586157D01*
X134110381Y-110551000D01*
X134286250Y-110551000D01*
X134445000Y-110392250D01*
X134445000Y-110291690D01*
X134412594Y-110213456D01*
X134457440Y-109988000D01*
X134457440Y-109468000D01*
X134412594Y-109242544D01*
X134445000Y-109164310D01*
X134445000Y-109063750D01*
X134286250Y-108905000D01*
X134110381Y-108905000D01*
X134057765Y-108869843D01*
X133810000Y-108820560D01*
X132890000Y-108820560D01*
X132642235Y-108869843D01*
X132589619Y-108905000D01*
X132413750Y-108905000D01*
X132255000Y-109063750D01*
X132255000Y-109143800D01*
X132116759Y-109143800D01*
X131998936Y-109025977D01*
X131639516Y-108877100D01*
X131250484Y-108877100D01*
X130937000Y-109006950D01*
X130937000Y-108077000D01*
X132432974Y-108077000D01*
X132351673Y-108158301D01*
X132255000Y-108391690D01*
X132255000Y-108492250D01*
X132413750Y-108651000D01*
X133223000Y-108651000D01*
X133223000Y-108631000D01*
X133477000Y-108631000D01*
X133477000Y-108651000D01*
X134286250Y-108651000D01*
X134445000Y-108492250D01*
X134445000Y-108391690D01*
X134348327Y-108158301D01*
X134267026Y-108077000D01*
X134523770Y-108077000D01*
X134728047Y-108281277D01*
X134680960Y-108518000D01*
X134680960Y-109038000D01*
X134730243Y-109285765D01*
X134870591Y-109495809D01*
X135080635Y-109636157D01*
X135328400Y-109685440D01*
X136248400Y-109685440D01*
X136496165Y-109636157D01*
X136706209Y-109495809D01*
X136846557Y-109285765D01*
X136895840Y-109038000D01*
X136895840Y-108518000D01*
X136846557Y-108270235D01*
X136706209Y-108060191D01*
X136496165Y-107919843D01*
X136471630Y-107914963D01*
X136337771Y-107714629D01*
X136274149Y-107672118D01*
X135431283Y-106829253D01*
X135388771Y-106765629D01*
X135136717Y-106597212D01*
X134914448Y-106553000D01*
X134914443Y-106553000D01*
X134839400Y-106538073D01*
X134764357Y-106553000D01*
X134098061Y-106553000D01*
X134169698Y-106523327D01*
X134348327Y-106344699D01*
X134445000Y-106111310D01*
X134445000Y-106010750D01*
X134286250Y-105852000D01*
X133477000Y-105852000D01*
X133477000Y-105872000D01*
X133223000Y-105872000D01*
X133223000Y-105852000D01*
X132413750Y-105852000D01*
X132255000Y-106010750D01*
X132255000Y-106111310D01*
X132351673Y-106344699D01*
X132530302Y-106523327D01*
X132601939Y-106553000D01*
X131125631Y-106553000D01*
X130937000Y-106364370D01*
X130937000Y-105623050D01*
X131250484Y-105752900D01*
X131639516Y-105752900D01*
X131998936Y-105604023D01*
X132116759Y-105486200D01*
X132301950Y-105486200D01*
X132413750Y-105598000D01*
X132589619Y-105598000D01*
X132642235Y-105633157D01*
X132890000Y-105682440D01*
X133810000Y-105682440D01*
X134057765Y-105633157D01*
X134110381Y-105598000D01*
X134286250Y-105598000D01*
X134445000Y-105439250D01*
X134445000Y-105338690D01*
X134412594Y-105260456D01*
X134457440Y-105035000D01*
X134457440Y-104515000D01*
X134412594Y-104289544D01*
X134445000Y-104211310D01*
X134445000Y-104110750D01*
X134286250Y-103952000D01*
X134110381Y-103952000D01*
X134057765Y-103916843D01*
X133810000Y-103867560D01*
X132890000Y-103867560D01*
X132642235Y-103916843D01*
X132589619Y-103952000D01*
X132413750Y-103952000D01*
X132301950Y-104063800D01*
X132116759Y-104063800D01*
X131998936Y-103945977D01*
X131639516Y-103797100D01*
X131250484Y-103797100D01*
X130937000Y-103926950D01*
X130937000Y-102997000D01*
X132601939Y-102997000D01*
X132530302Y-103026673D01*
X132351673Y-103205301D01*
X132255000Y-103438690D01*
X132255000Y-103539250D01*
X132413750Y-103698000D01*
X133223000Y-103698000D01*
X133223000Y-103678000D01*
X133477000Y-103678000D01*
X133477000Y-103698000D01*
X134286250Y-103698000D01*
X134445000Y-103539250D01*
X134445000Y-103438690D01*
X134348327Y-103205301D01*
X134169698Y-103026673D01*
X134098061Y-102997000D01*
X134396770Y-102997000D01*
X134728047Y-103328277D01*
X134680960Y-103565000D01*
X134680960Y-104085000D01*
X134730243Y-104332765D01*
X134870591Y-104542809D01*
X135080635Y-104683157D01*
X135328400Y-104732440D01*
X136248400Y-104732440D01*
X136496165Y-104683157D01*
X136706209Y-104542809D01*
X136846557Y-104332765D01*
X136895840Y-104085000D01*
X136895840Y-103565000D01*
X136846557Y-103317235D01*
X136706209Y-103107191D01*
X136496165Y-102966843D01*
X136471630Y-102961963D01*
X136337771Y-102761629D01*
X136274149Y-102719118D01*
X135304283Y-101749253D01*
X135261771Y-101685629D01*
X135220340Y-101657946D01*
X135328400Y-101679440D01*
X136248400Y-101679440D01*
X136394221Y-101650435D01*
X136523754Y-101676200D01*
X136523758Y-101676200D01*
X136593799Y-101690132D01*
X136663841Y-101676200D01*
X137905885Y-101676200D01*
X137777191Y-101762191D01*
X137636843Y-101972235D01*
X137587560Y-102220000D01*
X137587560Y-103520000D01*
X137636843Y-103767765D01*
X137777191Y-103977809D01*
X137987235Y-104118157D01*
X138235000Y-104167440D01*
X139735000Y-104167440D01*
X139982765Y-104118157D01*
X140192809Y-103977809D01*
X140333157Y-103767765D01*
X140335000Y-103758500D01*
X140336843Y-103767765D01*
X140477191Y-103977809D01*
X140687235Y-104118157D01*
X140935000Y-104167440D01*
X142435000Y-104167440D01*
X142682765Y-104118157D01*
X142805528Y-104036129D01*
X142784867Y-104140000D01*
X142798800Y-104210046D01*
X142798800Y-104480411D01*
X142791028Y-104488183D01*
X142682765Y-104415843D01*
X142435000Y-104366560D01*
X140935000Y-104366560D01*
X140687235Y-104415843D01*
X140477191Y-104556191D01*
X140336843Y-104766235D01*
X140335000Y-104775500D01*
X140333157Y-104766235D01*
X140192809Y-104556191D01*
X139982765Y-104415843D01*
X139735000Y-104366560D01*
X138235000Y-104366560D01*
X137987235Y-104415843D01*
X137777191Y-104556191D01*
X137636843Y-104766235D01*
X137587600Y-105013800D01*
X136710625Y-105013800D01*
X136706209Y-105007191D01*
X136496165Y-104866843D01*
X136248400Y-104817560D01*
X135328400Y-104817560D01*
X135080635Y-104866843D01*
X134870591Y-105007191D01*
X134730243Y-105217235D01*
X134680960Y-105465000D01*
X134680960Y-105985000D01*
X134730243Y-106232765D01*
X134870591Y-106442809D01*
X135080635Y-106583157D01*
X135328400Y-106632440D01*
X136248400Y-106632440D01*
X136496165Y-106583157D01*
X136706209Y-106442809D01*
X136710625Y-106436200D01*
X137611867Y-106436200D01*
X137636843Y-106561765D01*
X137777191Y-106771809D01*
X137987235Y-106912157D01*
X138235000Y-106961440D01*
X139735000Y-106961440D01*
X139982765Y-106912157D01*
X140192809Y-106771809D01*
X140333157Y-106561765D01*
X140335000Y-106552500D01*
X140336843Y-106561765D01*
X140477191Y-106771809D01*
X140687235Y-106912157D01*
X140935000Y-106961440D01*
X142435000Y-106961440D01*
X142682765Y-106912157D01*
X142798801Y-106834624D01*
X142798800Y-107414376D01*
X142682765Y-107336843D01*
X142435000Y-107287560D01*
X140935000Y-107287560D01*
X140687235Y-107336843D01*
X140477191Y-107477191D01*
X140336843Y-107687235D01*
X140335000Y-107696500D01*
X140333157Y-107687235D01*
X140192809Y-107477191D01*
X139982765Y-107336843D01*
X139735000Y-107287560D01*
X138235000Y-107287560D01*
X137987235Y-107336843D01*
X137777191Y-107477191D01*
X137636843Y-107687235D01*
X137587560Y-107935000D01*
X137587560Y-109235000D01*
X137636843Y-109482765D01*
X137777191Y-109692809D01*
X137905885Y-109778800D01*
X136658841Y-109778800D01*
X136588799Y-109764868D01*
X136518758Y-109778800D01*
X136518754Y-109778800D01*
X136404290Y-109801568D01*
X136248400Y-109770560D01*
X135328400Y-109770560D01*
X135080635Y-109819843D01*
X134870591Y-109960191D01*
X134730243Y-110170235D01*
X134680960Y-110418000D01*
X134680960Y-110938000D01*
X134730243Y-111185765D01*
X134870591Y-111395809D01*
X135080635Y-111536157D01*
X135328400Y-111585440D01*
X136248400Y-111585440D01*
X136496165Y-111536157D01*
X136706209Y-111395809D01*
X136786512Y-111275628D01*
X136897901Y-111201200D01*
X138359959Y-111201200D01*
X138430000Y-111215132D01*
X138500041Y-111201200D01*
X138500046Y-111201200D01*
X138707496Y-111159936D01*
X138942746Y-111002746D01*
X138982424Y-110943364D01*
X139438368Y-110487420D01*
X139497745Y-110447746D01*
X139537420Y-110388369D01*
X139537424Y-110388365D01*
X139646824Y-110224636D01*
X139654936Y-110212496D01*
X139696200Y-110005046D01*
X139696200Y-110005042D01*
X139710132Y-109935000D01*
X139699677Y-109882440D01*
X139735000Y-109882440D01*
X139982765Y-109833157D01*
X140192809Y-109692809D01*
X140333157Y-109482765D01*
X140335000Y-109473500D01*
X140336843Y-109482765D01*
X140477191Y-109692809D01*
X140687235Y-109833157D01*
X140935000Y-109882440D01*
X142435000Y-109882440D01*
X142682765Y-109833157D01*
X142892809Y-109692809D01*
X143033157Y-109482765D01*
X143075425Y-109270266D01*
X143152496Y-109254936D01*
X143387746Y-109097746D01*
X143427424Y-109038364D01*
X143963369Y-108502420D01*
X144022745Y-108462746D01*
X144025915Y-108458002D01*
X144094844Y-108458002D01*
X143973524Y-108687890D01*
X144143355Y-109097924D01*
X144533642Y-109526183D01*
X145058108Y-109772486D01*
X145288000Y-109651819D01*
X145288000Y-108458000D01*
X145542000Y-108458000D01*
X145542000Y-109651819D01*
X145771892Y-109772486D01*
X146296358Y-109526183D01*
X146685000Y-109099729D01*
X147073642Y-109526183D01*
X147598108Y-109772486D01*
X147828000Y-109651819D01*
X147828000Y-108458000D01*
X148082000Y-108458000D01*
X148082000Y-109651819D01*
X148311892Y-109772486D01*
X148836358Y-109526183D01*
X149225000Y-109099729D01*
X149613642Y-109526183D01*
X150138108Y-109772486D01*
X150368000Y-109651819D01*
X150368000Y-108458000D01*
X150622000Y-108458000D01*
X150622000Y-109651819D01*
X150851892Y-109772486D01*
X151376358Y-109526183D01*
X151766645Y-109097924D01*
X151936476Y-108687890D01*
X151815155Y-108458000D01*
X150622000Y-108458000D01*
X150368000Y-108458000D01*
X148082000Y-108458000D01*
X147828000Y-108458000D01*
X145542000Y-108458000D01*
X145288000Y-108458000D01*
X145268000Y-108458000D01*
X145268000Y-108204000D01*
X145288000Y-108204000D01*
X145288000Y-108184000D01*
X145542000Y-108184000D01*
X145542000Y-108204000D01*
X147828000Y-108204000D01*
X147828000Y-108184000D01*
X148082000Y-108184000D01*
X148082000Y-108204000D01*
X150368000Y-108204000D01*
X150368000Y-108184000D01*
X150622000Y-108184000D01*
X150622000Y-108204000D01*
X151815155Y-108204000D01*
X151936476Y-107974110D01*
X151766645Y-107564076D01*
X151489292Y-107259739D01*
X151592765Y-107239157D01*
X151802809Y-107098809D01*
X151943157Y-106888765D01*
X151992440Y-106641000D01*
X151992440Y-104941000D01*
X151943157Y-104693235D01*
X151802809Y-104483191D01*
X151592765Y-104342843D01*
X151345000Y-104293560D01*
X151019576Y-104293560D01*
X151007745Y-104275854D01*
X150948369Y-104236180D01*
X149763823Y-103051635D01*
X149724146Y-102992254D01*
X149488896Y-102835064D01*
X149281446Y-102793800D01*
X149281441Y-102793800D01*
X149211400Y-102779868D01*
X149141359Y-102793800D01*
X148045655Y-102793800D01*
X147668490Y-102416636D01*
X147628812Y-102357254D01*
X147393562Y-102200064D01*
X147186112Y-102158800D01*
X147186107Y-102158800D01*
X147116066Y-102144868D01*
X147046025Y-102158800D01*
X143070267Y-102158800D01*
X143033157Y-101972235D01*
X142892809Y-101762191D01*
X142682765Y-101621843D01*
X142435000Y-101572560D01*
X140935000Y-101572560D01*
X140687235Y-101621843D01*
X140477191Y-101762191D01*
X140336843Y-101972235D01*
X140335000Y-101981500D01*
X140333157Y-101972235D01*
X140192809Y-101762191D01*
X139982765Y-101621843D01*
X139735000Y-101572560D01*
X139699677Y-101572560D01*
X139710132Y-101520000D01*
X139696200Y-101449958D01*
X139696200Y-101449954D01*
X139654936Y-101242504D01*
X139598679Y-101158310D01*
X139537424Y-101066635D01*
X139537422Y-101066633D01*
X139497746Y-101007254D01*
X139438366Y-100967578D01*
X138982424Y-100511636D01*
X138942746Y-100452254D01*
X138707496Y-100295064D01*
X138500046Y-100253800D01*
X138500041Y-100253800D01*
X138430000Y-100239868D01*
X138359959Y-100253800D01*
X136905384Y-100253800D01*
X136786512Y-100174372D01*
X136706209Y-100054191D01*
X136496165Y-99913843D01*
X136248400Y-99864560D01*
X135328400Y-99864560D01*
X135080635Y-99913843D01*
X134870591Y-100054191D01*
X134730243Y-100264235D01*
X134680960Y-100512000D01*
X134680960Y-101032000D01*
X134730243Y-101279765D01*
X134870382Y-101489497D01*
X134787448Y-101473000D01*
X134787443Y-101473000D01*
X134712400Y-101458073D01*
X134637357Y-101473000D01*
X134267026Y-101473000D01*
X134348327Y-101391699D01*
X134445000Y-101158310D01*
X134445000Y-101057750D01*
X134286250Y-100899000D01*
X133477000Y-100899000D01*
X133477000Y-100919000D01*
X133223000Y-100919000D01*
X133223000Y-100899000D01*
X132413750Y-100899000D01*
X132255000Y-101057750D01*
X132255000Y-101158310D01*
X132351673Y-101391699D01*
X132432974Y-101473000D01*
X131125631Y-101473000D01*
X130937000Y-101284370D01*
X130937000Y-100543050D01*
X131250484Y-100672900D01*
X131639516Y-100672900D01*
X131998936Y-100524023D01*
X132116759Y-100406200D01*
X132255000Y-100406200D01*
X132255000Y-100486250D01*
X132413750Y-100645000D01*
X132589619Y-100645000D01*
X132642235Y-100680157D01*
X132890000Y-100729440D01*
X133810000Y-100729440D01*
X134057765Y-100680157D01*
X134110381Y-100645000D01*
X134286250Y-100645000D01*
X134445000Y-100486250D01*
X134445000Y-100385690D01*
X134412594Y-100307456D01*
X134457440Y-100082000D01*
X134457440Y-99562000D01*
X134412594Y-99336544D01*
X134445000Y-99258310D01*
X134445000Y-99157750D01*
X134286250Y-98999000D01*
X134110381Y-98999000D01*
X134057765Y-98963843D01*
X133810000Y-98914560D01*
X132890000Y-98914560D01*
X132642235Y-98963843D01*
X132612367Y-98983800D01*
X132116759Y-98983800D01*
X131998936Y-98865977D01*
X131639516Y-98717100D01*
X131291183Y-98717100D01*
X131318000Y-98652357D01*
X131318000Y-98485690D01*
X132255000Y-98485690D01*
X132255000Y-98586250D01*
X132413750Y-98745000D01*
X133223000Y-98745000D01*
X133223000Y-98135750D01*
X133477000Y-98135750D01*
X133477000Y-98745000D01*
X134286250Y-98745000D01*
X134445000Y-98586250D01*
X134445000Y-98485690D01*
X134348327Y-98252301D01*
X134169698Y-98073673D01*
X133936309Y-97977000D01*
X133635750Y-97977000D01*
X133477000Y-98135750D01*
X133223000Y-98135750D01*
X133064250Y-97977000D01*
X132763691Y-97977000D01*
X132530302Y-98073673D01*
X132351673Y-98252301D01*
X132255000Y-98485690D01*
X131318000Y-98485690D01*
X131318000Y-98197643D01*
X131201754Y-97917000D01*
X134304370Y-97917000D01*
X134738799Y-98351430D01*
X134730243Y-98364235D01*
X134680960Y-98612000D01*
X134680960Y-99132000D01*
X134730243Y-99379765D01*
X134870591Y-99589809D01*
X135080635Y-99730157D01*
X135328400Y-99779440D01*
X136248400Y-99779440D01*
X136496165Y-99730157D01*
X136706209Y-99589809D01*
X136846557Y-99379765D01*
X136895840Y-99132000D01*
X136895840Y-98612000D01*
X136866402Y-98464000D01*
X144044560Y-98464000D01*
X144044560Y-100164000D01*
X144093843Y-100411765D01*
X144234191Y-100621809D01*
X144444235Y-100762157D01*
X144692000Y-100811440D01*
X146392000Y-100811440D01*
X146639765Y-100762157D01*
X146849809Y-100621809D01*
X146990157Y-100411765D01*
X146999184Y-100366381D01*
X147011375Y-100384625D01*
X147502582Y-100712839D01*
X147935744Y-100799000D01*
X148228256Y-100799000D01*
X148661418Y-100712839D01*
X149152625Y-100384625D01*
X149365843Y-100065522D01*
X149426817Y-100195358D01*
X149855076Y-100585645D01*
X150265110Y-100755476D01*
X150495000Y-100634155D01*
X150495000Y-99441000D01*
X150749000Y-99441000D01*
X150749000Y-100634155D01*
X150978890Y-100755476D01*
X151388924Y-100585645D01*
X151817183Y-100195358D01*
X152063486Y-99670892D01*
X151942819Y-99441000D01*
X150749000Y-99441000D01*
X150495000Y-99441000D01*
X150475000Y-99441000D01*
X150475000Y-99187000D01*
X150495000Y-99187000D01*
X150495000Y-97993845D01*
X150749000Y-97993845D01*
X150749000Y-99187000D01*
X151942819Y-99187000D01*
X152063486Y-98957108D01*
X151817183Y-98432642D01*
X151388924Y-98042355D01*
X150978890Y-97872524D01*
X150749000Y-97993845D01*
X150495000Y-97993845D01*
X150265110Y-97872524D01*
X149855076Y-98042355D01*
X149426817Y-98432642D01*
X149365843Y-98562478D01*
X149152625Y-98243375D01*
X148661418Y-97915161D01*
X148228256Y-97829000D01*
X147935744Y-97829000D01*
X147502582Y-97915161D01*
X147011375Y-98243375D01*
X146999184Y-98261619D01*
X146990157Y-98216235D01*
X146849809Y-98006191D01*
X146639765Y-97865843D01*
X146392000Y-97816560D01*
X144692000Y-97816560D01*
X144444235Y-97865843D01*
X144234191Y-98006191D01*
X144093843Y-98216235D01*
X144044560Y-98464000D01*
X136866402Y-98464000D01*
X136846557Y-98364235D01*
X136706209Y-98154191D01*
X136499497Y-98016070D01*
X136337771Y-97774029D01*
X136274149Y-97731518D01*
X135211883Y-96669253D01*
X135169371Y-96605629D01*
X134917317Y-96437212D01*
X134695048Y-96393000D01*
X134695043Y-96393000D01*
X134620000Y-96378073D01*
X134544957Y-96393000D01*
X130885047Y-96393000D01*
X130810000Y-96378072D01*
X130734953Y-96393000D01*
X130734952Y-96393000D01*
X130512683Y-96437212D01*
X130432383Y-96490867D01*
X130356092Y-96541843D01*
X130260629Y-96605629D01*
X130218118Y-96669251D01*
X129689253Y-97198117D01*
X129625629Y-97240629D01*
X129457212Y-97492684D01*
X129448855Y-97534698D01*
X129320553Y-97663000D01*
X129153900Y-97663000D01*
X129152157Y-97654235D01*
X129011809Y-97444191D01*
X128801765Y-97303843D01*
X128554000Y-97254560D01*
X127854000Y-97254560D01*
X127606235Y-97303843D01*
X127396191Y-97444191D01*
X127255843Y-97654235D01*
X127254000Y-97663500D01*
X127252157Y-97654235D01*
X127111809Y-97444191D01*
X127015200Y-97379638D01*
X127015200Y-97286042D01*
X127029132Y-97216000D01*
X127015200Y-97145958D01*
X127015200Y-97145954D01*
X126973936Y-96938504D01*
X126943020Y-96892235D01*
X126856424Y-96762635D01*
X126856420Y-96762631D01*
X126816745Y-96703254D01*
X126757368Y-96663580D01*
X126282424Y-96188636D01*
X126242746Y-96129254D01*
X126007496Y-95972064D01*
X125800046Y-95930800D01*
X125800041Y-95930800D01*
X125730000Y-95916868D01*
X125659959Y-95930800D01*
X114883041Y-95930800D01*
X114812999Y-95916868D01*
X114742958Y-95930800D01*
X114742954Y-95930800D01*
X114535504Y-95972064D01*
X114300254Y-96129254D01*
X114260576Y-96188636D01*
X114180634Y-96268578D01*
X114121255Y-96308254D01*
X114081579Y-96367633D01*
X114081576Y-96367636D01*
X113998105Y-96492560D01*
X113884000Y-96492560D01*
X113636235Y-96541843D01*
X113426191Y-96682191D01*
X113285843Y-96892235D01*
X113280279Y-96920209D01*
X113222327Y-96780301D01*
X113043698Y-96601673D01*
X112810309Y-96505000D01*
X112219750Y-96505000D01*
X112061000Y-96663750D01*
X112061000Y-97663000D01*
X112081000Y-97663000D01*
X112081000Y-97917000D01*
X112061000Y-97917000D01*
X112061000Y-98916250D01*
X112203497Y-99058747D01*
X112170309Y-99045000D01*
X111979750Y-99045000D01*
X111821000Y-99203750D01*
X111821000Y-100203000D01*
X112520250Y-100203000D01*
X112679000Y-100044250D01*
X112679000Y-99553690D01*
X112582327Y-99320301D01*
X112403698Y-99141673D01*
X112242735Y-99075000D01*
X112810309Y-99075000D01*
X113043698Y-98978327D01*
X113222327Y-98799699D01*
X113280279Y-98659791D01*
X113285843Y-98687765D01*
X113426191Y-98897809D01*
X113636235Y-99038157D01*
X113884000Y-99087440D01*
X115384000Y-99087440D01*
X115631765Y-99038157D01*
X115841809Y-98897809D01*
X115982157Y-98687765D01*
X116031440Y-98440000D01*
X116031440Y-97353200D01*
X117504368Y-97353200D01*
X117368191Y-97444191D01*
X117227843Y-97654235D01*
X117178560Y-97902000D01*
X117178560Y-98027423D01*
X117160854Y-98039254D01*
X117121178Y-98098633D01*
X116132634Y-99087178D01*
X116073255Y-99126854D01*
X116033579Y-99186233D01*
X116033576Y-99186236D01*
X115916065Y-99362104D01*
X115860868Y-99639600D01*
X115874801Y-99709646D01*
X115874801Y-100045733D01*
X115688235Y-100082843D01*
X115478191Y-100223191D01*
X115413638Y-100319800D01*
X115318440Y-100319800D01*
X115318440Y-100281000D01*
X115269157Y-100033235D01*
X115128809Y-99823191D01*
X114918765Y-99682843D01*
X114671000Y-99633560D01*
X113421000Y-99633560D01*
X113173235Y-99682843D01*
X112963191Y-99823191D01*
X112822843Y-100033235D01*
X112773560Y-100281000D01*
X112773560Y-101281000D01*
X112822843Y-101528765D01*
X112963191Y-101738809D01*
X113026334Y-101781000D01*
X112963191Y-101823191D01*
X112822843Y-102033235D01*
X112815570Y-102069800D01*
X112691440Y-102069800D01*
X112691440Y-101966000D01*
X112642157Y-101718235D01*
X112501809Y-101508191D01*
X112449072Y-101472953D01*
X112582327Y-101339699D01*
X112679000Y-101106310D01*
X112679000Y-100615750D01*
X112520250Y-100457000D01*
X111821000Y-100457000D01*
X111821000Y-100477000D01*
X111567000Y-100477000D01*
X111567000Y-100457000D01*
X111547000Y-100457000D01*
X111547000Y-100203000D01*
X111567000Y-100203000D01*
X111567000Y-99203750D01*
X111438250Y-99075000D01*
X111648250Y-99075000D01*
X111807000Y-98916250D01*
X111807000Y-97917000D01*
X110707750Y-97917000D01*
X110549000Y-98075750D01*
X110549000Y-98566310D01*
X110645673Y-98799699D01*
X110824302Y-98978327D01*
X111057691Y-99075000D01*
X111145265Y-99075000D01*
X110984302Y-99141673D01*
X110805673Y-99320301D01*
X110747721Y-99460209D01*
X110742157Y-99432235D01*
X110601809Y-99222191D01*
X110391765Y-99081843D01*
X110144000Y-99032560D01*
X109444000Y-99032560D01*
X109196235Y-99081843D01*
X108986191Y-99222191D01*
X108845843Y-99432235D01*
X108820489Y-99559700D01*
X108375424Y-99114636D01*
X108335746Y-99055254D01*
X108100496Y-98898064D01*
X107893046Y-98856800D01*
X107893041Y-98856800D01*
X107823000Y-98842868D01*
X107752959Y-98856800D01*
X107415440Y-98856800D01*
X107415440Y-98718000D01*
X107366157Y-98470235D01*
X107225809Y-98260191D01*
X107015765Y-98119843D01*
X106768000Y-98070560D01*
X105068000Y-98070560D01*
X104820235Y-98119843D01*
X104610191Y-98260191D01*
X104469843Y-98470235D01*
X104420560Y-98718000D01*
X104420560Y-100418000D01*
X104469843Y-100665765D01*
X104610191Y-100875809D01*
X104820235Y-101016157D01*
X104923708Y-101036739D01*
X104646355Y-101341076D01*
X104476524Y-101751110D01*
X104597845Y-101981000D01*
X105791000Y-101981000D01*
X105791000Y-101961000D01*
X106045000Y-101961000D01*
X106045000Y-101981000D01*
X107238155Y-101981000D01*
X107359476Y-101751110D01*
X107189645Y-101341076D01*
X106912292Y-101036739D01*
X107015765Y-101016157D01*
X107225809Y-100875809D01*
X107366157Y-100665765D01*
X107415440Y-100418000D01*
X107415440Y-100279200D01*
X107528412Y-100279200D01*
X108032578Y-100783367D01*
X108072254Y-100842746D01*
X108131633Y-100882422D01*
X108131635Y-100882424D01*
X108247336Y-100959733D01*
X108307504Y-100999936D01*
X108514954Y-101041200D01*
X108514958Y-101041200D01*
X108585000Y-101055132D01*
X108655042Y-101041200D01*
X108808733Y-101041200D01*
X108845843Y-101227765D01*
X108986191Y-101437809D01*
X109038858Y-101473000D01*
X108986191Y-101508191D01*
X108845843Y-101718235D01*
X108796560Y-101966000D01*
X108796560Y-103266000D01*
X108845843Y-103513765D01*
X108986191Y-103723809D01*
X109196235Y-103864157D01*
X109444000Y-103913440D01*
X110144000Y-103913440D01*
X110391765Y-103864157D01*
X110601809Y-103723809D01*
X110742157Y-103513765D01*
X110744000Y-103504500D01*
X110745843Y-103513765D01*
X110886191Y-103723809D01*
X111096235Y-103864157D01*
X111344000Y-103913440D01*
X112044000Y-103913440D01*
X112291765Y-103864157D01*
X112501809Y-103723809D01*
X112642157Y-103513765D01*
X112646446Y-103492200D01*
X112815570Y-103492200D01*
X112822843Y-103528765D01*
X112963191Y-103738809D01*
X113173235Y-103879157D01*
X113421000Y-103928440D01*
X114671000Y-103928440D01*
X114918765Y-103879157D01*
X115128809Y-103738809D01*
X115193362Y-103642200D01*
X115413638Y-103642200D01*
X115478191Y-103738809D01*
X115688235Y-103879157D01*
X115936000Y-103928440D01*
X117236000Y-103928440D01*
X117483765Y-103879157D01*
X117693809Y-103738809D01*
X117834157Y-103528765D01*
X117848989Y-103454200D01*
X118997216Y-103454200D01*
X118989843Y-103465235D01*
X118940560Y-103713000D01*
X118940560Y-104313000D01*
X118989843Y-104560765D01*
X119042768Y-104639972D01*
X118953000Y-104856690D01*
X118953000Y-104997250D01*
X119111750Y-105156000D01*
X120236000Y-105156000D01*
X120236000Y-105136000D01*
X120490000Y-105136000D01*
X120490000Y-105156000D01*
X121614250Y-105156000D01*
X121772231Y-104998019D01*
X121843801Y-105069589D01*
X121843800Y-105714800D01*
X121770726Y-105714800D01*
X121773000Y-105709310D01*
X121773000Y-105568750D01*
X121614250Y-105410000D01*
X120490000Y-105410000D01*
X120490000Y-105430000D01*
X120236000Y-105430000D01*
X120236000Y-105410000D01*
X119111750Y-105410000D01*
X118953000Y-105568750D01*
X118953000Y-105709310D01*
X119032573Y-105901415D01*
X119014854Y-105913254D01*
X118975178Y-105972634D01*
X118606634Y-106341178D01*
X118547255Y-106380854D01*
X118508665Y-106438608D01*
X118462235Y-106447843D01*
X118252191Y-106588191D01*
X118111843Y-106798235D01*
X118106279Y-106826209D01*
X118048327Y-106686301D01*
X117869698Y-106507673D01*
X117636309Y-106411000D01*
X117445750Y-106411000D01*
X117287000Y-106569750D01*
X117287000Y-107569000D01*
X117307000Y-107569000D01*
X117307000Y-107823000D01*
X117287000Y-107823000D01*
X117287000Y-107843000D01*
X117033000Y-107843000D01*
X117033000Y-107823000D01*
X116333750Y-107823000D01*
X116175000Y-107981750D01*
X116175000Y-108472310D01*
X116271673Y-108705699D01*
X116450302Y-108884327D01*
X116655449Y-108969302D01*
X116562235Y-108987843D01*
X116352191Y-109128191D01*
X116211843Y-109338235D01*
X116162560Y-109586000D01*
X116162560Y-110886000D01*
X116184838Y-110998000D01*
X112470047Y-110998000D01*
X112395000Y-110983072D01*
X112319953Y-110998000D01*
X112319952Y-110998000D01*
X112097683Y-111042212D01*
X111845629Y-111210629D01*
X111803118Y-111274251D01*
X111269053Y-111808317D01*
X111205429Y-111850829D01*
X111037012Y-112102884D01*
X110992800Y-112325153D01*
X110992800Y-112325157D01*
X110977873Y-112400200D01*
X110992800Y-112475244D01*
X110992800Y-113003278D01*
X110913615Y-113036078D01*
X110495878Y-113453815D01*
X110484800Y-113480560D01*
X110473722Y-113453815D01*
X110055985Y-113036078D01*
X109510185Y-112810000D01*
X108919415Y-112810000D01*
X108373615Y-113036078D01*
X108077000Y-113332693D01*
X108077000Y-110490000D01*
X108067333Y-110441399D01*
X108039803Y-110400197D01*
X107998601Y-110372667D01*
X107950000Y-110363000D01*
X103632000Y-110363000D01*
X103632000Y-108687890D01*
X104476524Y-108687890D01*
X104646355Y-109097924D01*
X105036642Y-109526183D01*
X105561108Y-109772486D01*
X105791000Y-109651819D01*
X105791000Y-108458000D01*
X106045000Y-108458000D01*
X106045000Y-109651819D01*
X106274892Y-109772486D01*
X106799358Y-109526183D01*
X107189645Y-109097924D01*
X107359476Y-108687890D01*
X107238155Y-108458000D01*
X106045000Y-108458000D01*
X105791000Y-108458000D01*
X104597845Y-108458000D01*
X104476524Y-108687890D01*
X103632000Y-108687890D01*
X103632000Y-104941000D01*
X104420560Y-104941000D01*
X104420560Y-106641000D01*
X104469843Y-106888765D01*
X104610191Y-107098809D01*
X104820235Y-107239157D01*
X104923708Y-107259739D01*
X104646355Y-107564076D01*
X104476524Y-107974110D01*
X104597845Y-108204000D01*
X105791000Y-108204000D01*
X105791000Y-108184000D01*
X106045000Y-108184000D01*
X106045000Y-108204000D01*
X107238155Y-108204000D01*
X107359476Y-107974110D01*
X107189645Y-107564076D01*
X106912292Y-107259739D01*
X107015765Y-107239157D01*
X107225809Y-107098809D01*
X107366157Y-106888765D01*
X107415440Y-106641000D01*
X107415440Y-106502200D01*
X108430560Y-106502200D01*
X108430560Y-106588000D01*
X108479843Y-106835765D01*
X108620191Y-107045809D01*
X108830235Y-107186157D01*
X108839500Y-107188000D01*
X108830235Y-107189843D01*
X108620191Y-107330191D01*
X108479843Y-107540235D01*
X108430560Y-107788000D01*
X108430560Y-109288000D01*
X108479843Y-109535765D01*
X108620191Y-109745809D01*
X108830235Y-109886157D01*
X109078000Y-109935440D01*
X110378000Y-109935440D01*
X110625765Y-109886157D01*
X110835809Y-109745809D01*
X110976157Y-109535765D01*
X111025440Y-109288000D01*
X111025440Y-109249200D01*
X112639219Y-109249200D01*
X112694260Y-109525909D01*
X113011423Y-110000577D01*
X113486091Y-110317740D01*
X113904667Y-110401000D01*
X114187333Y-110401000D01*
X114605909Y-110317740D01*
X115080577Y-110000577D01*
X115397740Y-109525909D01*
X115509113Y-108966000D01*
X115397740Y-108406091D01*
X115080577Y-107931423D01*
X114728832Y-107696394D01*
X114858862Y-107642534D01*
X115262534Y-107238862D01*
X115394739Y-106919690D01*
X116175000Y-106919690D01*
X116175000Y-107410250D01*
X116333750Y-107569000D01*
X117033000Y-107569000D01*
X117033000Y-106569750D01*
X116874250Y-106411000D01*
X116683691Y-106411000D01*
X116450302Y-106507673D01*
X116271673Y-106686301D01*
X116175000Y-106919690D01*
X115394739Y-106919690D01*
X115481000Y-106711439D01*
X115481000Y-106140561D01*
X115262534Y-105613138D01*
X114858862Y-105209466D01*
X114331439Y-104991000D01*
X113760561Y-104991000D01*
X113463638Y-105113990D01*
X113458000Y-105112868D01*
X113387959Y-105126800D01*
X111025440Y-105126800D01*
X111025440Y-105088000D01*
X110976157Y-104840235D01*
X110835809Y-104630191D01*
X110625765Y-104489843D01*
X110378000Y-104440560D01*
X109078000Y-104440560D01*
X108830235Y-104489843D01*
X108620191Y-104630191D01*
X108479843Y-104840235D01*
X108432191Y-105079800D01*
X107415440Y-105079800D01*
X107415440Y-104941000D01*
X107366157Y-104693235D01*
X107225809Y-104483191D01*
X107015765Y-104342843D01*
X106768000Y-104293560D01*
X105068000Y-104293560D01*
X104820235Y-104342843D01*
X104610191Y-104483191D01*
X104469843Y-104693235D01*
X104420560Y-104941000D01*
X103632000Y-104941000D01*
X103632000Y-102464890D01*
X104476524Y-102464890D01*
X104646355Y-102874924D01*
X105036642Y-103303183D01*
X105561108Y-103549486D01*
X105791000Y-103428819D01*
X105791000Y-102235000D01*
X106045000Y-102235000D01*
X106045000Y-103428819D01*
X106274892Y-103549486D01*
X106799358Y-103303183D01*
X107189645Y-102874924D01*
X107359476Y-102464890D01*
X107238155Y-102235000D01*
X106045000Y-102235000D01*
X105791000Y-102235000D01*
X104597845Y-102235000D01*
X104476524Y-102464890D01*
X103632000Y-102464890D01*
X103632000Y-97917000D01*
X107950000Y-97917000D01*
X107998601Y-97907333D01*
X108039803Y-97879803D01*
X108067333Y-97838601D01*
X108077000Y-97790000D01*
X108077000Y-97013690D01*
X110549000Y-97013690D01*
X110549000Y-97504250D01*
X110707750Y-97663000D01*
X111807000Y-97663000D01*
X111807000Y-96663750D01*
X111648250Y-96505000D01*
X111057691Y-96505000D01*
X110824302Y-96601673D01*
X110645673Y-96780301D01*
X110549000Y-97013690D01*
X108077000Y-97013690D01*
X108077000Y-94491892D01*
X110623314Y-94491892D01*
X110869617Y-95016358D01*
X111297876Y-95406645D01*
X111707910Y-95576476D01*
X111937800Y-95455155D01*
X111937800Y-94262000D01*
X110743981Y-94262000D01*
X110623314Y-94491892D01*
X108077000Y-94491892D01*
X108077000Y-93472000D01*
X110767070Y-93472000D01*
X110623314Y-93778108D01*
X110623314Y-93778108D01*
G37*
X110623314Y-93778108D02*
X110743981Y-94008000D01*
X111937800Y-94008000D01*
X111937800Y-93988000D01*
X112191800Y-93988000D01*
X112191800Y-94008000D01*
X112211800Y-94008000D01*
X112211800Y-94262000D01*
X112191800Y-94262000D01*
X112191800Y-95455155D01*
X112421690Y-95576476D01*
X112831724Y-95406645D01*
X113136061Y-95129292D01*
X113156643Y-95232765D01*
X113296991Y-95442809D01*
X113507035Y-95583157D01*
X113754800Y-95632440D01*
X115454800Y-95632440D01*
X115702565Y-95583157D01*
X115912609Y-95442809D01*
X116052957Y-95232765D01*
X116102240Y-94985000D01*
X116102240Y-93472000D01*
X117975797Y-93472000D01*
X117889800Y-93679615D01*
X117889800Y-94270385D01*
X118115878Y-94816185D01*
X118533615Y-95233922D01*
X119079415Y-95460000D01*
X119670185Y-95460000D01*
X120215985Y-95233922D01*
X120633722Y-94816185D01*
X120644800Y-94789440D01*
X120655878Y-94816185D01*
X121073615Y-95233922D01*
X121619415Y-95460000D01*
X122210185Y-95460000D01*
X122755985Y-95233922D01*
X123173722Y-94816185D01*
X123184800Y-94789440D01*
X123195878Y-94816185D01*
X123613615Y-95233922D01*
X124159415Y-95460000D01*
X124750185Y-95460000D01*
X125295985Y-95233922D01*
X125713722Y-94816185D01*
X125724800Y-94789440D01*
X125735878Y-94816185D01*
X126153615Y-95233922D01*
X126699415Y-95460000D01*
X127290185Y-95460000D01*
X127835985Y-95233922D01*
X128253722Y-94816185D01*
X128264800Y-94789440D01*
X128275878Y-94816185D01*
X128693615Y-95233922D01*
X129239415Y-95460000D01*
X129830185Y-95460000D01*
X130375985Y-95233922D01*
X130793722Y-94816185D01*
X130804800Y-94789440D01*
X130815878Y-94816185D01*
X131233615Y-95233922D01*
X131779415Y-95460000D01*
X132370185Y-95460000D01*
X132915985Y-95233922D01*
X133333722Y-94816185D01*
X133344800Y-94789440D01*
X133355878Y-94816185D01*
X133773615Y-95233922D01*
X134319415Y-95460000D01*
X134910185Y-95460000D01*
X135455985Y-95233922D01*
X135873722Y-94816185D01*
X135884800Y-94789440D01*
X135895878Y-94816185D01*
X136313615Y-95233922D01*
X136859415Y-95460000D01*
X137450185Y-95460000D01*
X137995985Y-95233922D01*
X138413722Y-94816185D01*
X138424800Y-94789440D01*
X138435878Y-94816185D01*
X138853615Y-95233922D01*
X139399415Y-95460000D01*
X139990185Y-95460000D01*
X140535985Y-95233922D01*
X140953722Y-94816185D01*
X140964800Y-94789440D01*
X140975878Y-94816185D01*
X141393615Y-95233922D01*
X141939415Y-95460000D01*
X142530185Y-95460000D01*
X143075985Y-95233922D01*
X143493722Y-94816185D01*
X143504800Y-94789440D01*
X143515878Y-94816185D01*
X143933615Y-95233922D01*
X144479415Y-95460000D01*
X145070185Y-95460000D01*
X145615985Y-95233922D01*
X146033722Y-94816185D01*
X146044800Y-94789440D01*
X146055878Y-94816185D01*
X146473615Y-95233922D01*
X147019415Y-95460000D01*
X147610185Y-95460000D01*
X148155985Y-95233922D01*
X148573722Y-94816185D01*
X148799800Y-94270385D01*
X148799800Y-93679615D01*
X148713803Y-93472000D01*
X149098000Y-93472000D01*
X149098000Y-97155000D01*
X149107667Y-97203601D01*
X149135197Y-97244803D01*
X149176399Y-97272333D01*
X149225000Y-97282000D01*
X152908000Y-97282000D01*
X152908000Y-110998000D01*
X149225000Y-110998000D01*
X149176399Y-111007667D01*
X149135197Y-111035197D01*
X149107667Y-111076399D01*
X149098000Y-111125000D01*
X149098000Y-114808000D01*
X148709661Y-114808000D01*
X148799800Y-114590385D01*
X148799800Y-113999615D01*
X148573722Y-113453815D01*
X148155985Y-113036078D01*
X147610185Y-112810000D01*
X147019415Y-112810000D01*
X146473615Y-113036078D01*
X146055878Y-113453815D01*
X146044800Y-113480560D01*
X146033722Y-113453815D01*
X145615985Y-113036078D01*
X145070185Y-112810000D01*
X144479415Y-112810000D01*
X143933615Y-113036078D01*
X143515878Y-113453815D01*
X143504800Y-113480560D01*
X143493722Y-113453815D01*
X143075985Y-113036078D01*
X142530185Y-112810000D01*
X141939415Y-112810000D01*
X141393615Y-113036078D01*
X140975878Y-113453815D01*
X140964800Y-113480560D01*
X140953722Y-113453815D01*
X140535985Y-113036078D01*
X139990185Y-112810000D01*
X139399415Y-112810000D01*
X138853615Y-113036078D01*
X138435878Y-113453815D01*
X138424800Y-113480560D01*
X138413722Y-113453815D01*
X137995985Y-113036078D01*
X137450185Y-112810000D01*
X136859415Y-112810000D01*
X136313615Y-113036078D01*
X135895878Y-113453815D01*
X135884800Y-113480560D01*
X135873722Y-113453815D01*
X135455985Y-113036078D01*
X134910185Y-112810000D01*
X134319415Y-112810000D01*
X133773615Y-113036078D01*
X133355878Y-113453815D01*
X133344800Y-113480560D01*
X133333722Y-113453815D01*
X132915985Y-113036078D01*
X132370185Y-112810000D01*
X131779415Y-112810000D01*
X131233615Y-113036078D01*
X130815878Y-113453815D01*
X130804800Y-113480560D01*
X130793722Y-113453815D01*
X130375985Y-113036078D01*
X129830185Y-112810000D01*
X129239415Y-112810000D01*
X128693615Y-113036078D01*
X128275878Y-113453815D01*
X128264800Y-113480560D01*
X128253722Y-113453815D01*
X127835985Y-113036078D01*
X127290185Y-112810000D01*
X126699415Y-112810000D01*
X126153615Y-113036078D01*
X125735878Y-113453815D01*
X125724800Y-113480560D01*
X125713722Y-113453815D01*
X125295985Y-113036078D01*
X124750185Y-112810000D01*
X124159415Y-112810000D01*
X123613615Y-113036078D01*
X123195878Y-113453815D01*
X123184800Y-113480560D01*
X123173722Y-113453815D01*
X122755985Y-113036078D01*
X122210185Y-112810000D01*
X121619415Y-112810000D01*
X121073615Y-113036078D01*
X120655878Y-113453815D01*
X120644800Y-113480560D01*
X120633722Y-113453815D01*
X120215985Y-113036078D01*
X119670185Y-112810000D01*
X119079415Y-112810000D01*
X118533615Y-113036078D01*
X118115878Y-113453815D01*
X118096645Y-113500247D01*
X117878758Y-113430647D01*
X117014405Y-114295000D01*
X117028548Y-114309143D01*
X116848943Y-114488748D01*
X116834800Y-114474605D01*
X116820658Y-114488748D01*
X116641053Y-114309143D01*
X116655195Y-114295000D01*
X115790842Y-113430647D01*
X115572955Y-113500247D01*
X115553722Y-113453815D01*
X115350949Y-113251042D01*
X115970447Y-113251042D01*
X116834800Y-114115395D01*
X117699153Y-113251042D01*
X117618880Y-112999741D01*
X117063521Y-112798282D01*
X116473342Y-112824685D01*
X116050720Y-112999741D01*
X115970447Y-113251042D01*
X115350949Y-113251042D01*
X115135985Y-113036078D01*
X114590185Y-112810000D01*
X113999415Y-112810000D01*
X113453615Y-113036078D01*
X113035878Y-113453815D01*
X113024800Y-113480560D01*
X113013722Y-113453815D01*
X112595985Y-113036078D01*
X112516800Y-113003278D01*
X112516800Y-112715830D01*
X112710631Y-112522000D01*
X116464957Y-112522000D01*
X116540000Y-112536927D01*
X116615043Y-112522000D01*
X120707957Y-112522000D01*
X120783000Y-112536927D01*
X120858043Y-112522000D01*
X125279957Y-112522000D01*
X125355000Y-112536927D01*
X125430043Y-112522000D01*
X129464957Y-112522000D01*
X129540000Y-112536927D01*
X129615043Y-112522000D01*
X129615048Y-112522000D01*
X129837317Y-112477788D01*
X130089371Y-112309371D01*
X130117014Y-112268000D01*
X130402357Y-112268000D01*
X130822458Y-112093989D01*
X131143989Y-111772458D01*
X131318000Y-111352357D01*
X131318000Y-110963750D01*
X132255000Y-110963750D01*
X132255000Y-111064310D01*
X132351673Y-111297699D01*
X132530302Y-111476327D01*
X132763691Y-111573000D01*
X133064250Y-111573000D01*
X133223000Y-111414250D01*
X133223000Y-110805000D01*
X133477000Y-110805000D01*
X133477000Y-111414250D01*
X133635750Y-111573000D01*
X133936309Y-111573000D01*
X134169698Y-111476327D01*
X134348327Y-111297699D01*
X134445000Y-111064310D01*
X134445000Y-110963750D01*
X134286250Y-110805000D01*
X133477000Y-110805000D01*
X133223000Y-110805000D01*
X132413750Y-110805000D01*
X132255000Y-110963750D01*
X131318000Y-110963750D01*
X131318000Y-110897643D01*
X131291183Y-110832900D01*
X131639516Y-110832900D01*
X131998936Y-110684023D01*
X132116759Y-110566200D01*
X132612367Y-110566200D01*
X132642235Y-110586157D01*
X132890000Y-110635440D01*
X133810000Y-110635440D01*
X134057765Y-110586157D01*
X134110381Y-110551000D01*
X134286250Y-110551000D01*
X134445000Y-110392250D01*
X134445000Y-110291690D01*
X134412594Y-110213456D01*
X134457440Y-109988000D01*
X134457440Y-109468000D01*
X134412594Y-109242544D01*
X134445000Y-109164310D01*
X134445000Y-109063750D01*
X134286250Y-108905000D01*
X134110381Y-108905000D01*
X134057765Y-108869843D01*
X133810000Y-108820560D01*
X132890000Y-108820560D01*
X132642235Y-108869843D01*
X132589619Y-108905000D01*
X132413750Y-108905000D01*
X132255000Y-109063750D01*
X132255000Y-109143800D01*
X132116759Y-109143800D01*
X131998936Y-109025977D01*
X131639516Y-108877100D01*
X131250484Y-108877100D01*
X130937000Y-109006950D01*
X130937000Y-108077000D01*
X132432974Y-108077000D01*
X132351673Y-108158301D01*
X132255000Y-108391690D01*
X132255000Y-108492250D01*
X132413750Y-108651000D01*
X133223000Y-108651000D01*
X133223000Y-108631000D01*
X133477000Y-108631000D01*
X133477000Y-108651000D01*
X134286250Y-108651000D01*
X134445000Y-108492250D01*
X134445000Y-108391690D01*
X134348327Y-108158301D01*
X134267026Y-108077000D01*
X134523770Y-108077000D01*
X134728047Y-108281277D01*
X134680960Y-108518000D01*
X134680960Y-109038000D01*
X134730243Y-109285765D01*
X134870591Y-109495809D01*
X135080635Y-109636157D01*
X135328400Y-109685440D01*
X136248400Y-109685440D01*
X136496165Y-109636157D01*
X136706209Y-109495809D01*
X136846557Y-109285765D01*
X136895840Y-109038000D01*
X136895840Y-108518000D01*
X136846557Y-108270235D01*
X136706209Y-108060191D01*
X136496165Y-107919843D01*
X136471630Y-107914963D01*
X136337771Y-107714629D01*
X136274149Y-107672118D01*
X135431283Y-106829253D01*
X135388771Y-106765629D01*
X135136717Y-106597212D01*
X134914448Y-106553000D01*
X134914443Y-106553000D01*
X134839400Y-106538073D01*
X134764357Y-106553000D01*
X134098061Y-106553000D01*
X134169698Y-106523327D01*
X134348327Y-106344699D01*
X134445000Y-106111310D01*
X134445000Y-106010750D01*
X134286250Y-105852000D01*
X133477000Y-105852000D01*
X133477000Y-105872000D01*
X133223000Y-105872000D01*
X133223000Y-105852000D01*
X132413750Y-105852000D01*
X132255000Y-106010750D01*
X132255000Y-106111310D01*
X132351673Y-106344699D01*
X132530302Y-106523327D01*
X132601939Y-106553000D01*
X131125631Y-106553000D01*
X130937000Y-106364370D01*
X130937000Y-105623050D01*
X131250484Y-105752900D01*
X131639516Y-105752900D01*
X131998936Y-105604023D01*
X132116759Y-105486200D01*
X132301950Y-105486200D01*
X132413750Y-105598000D01*
X132589619Y-105598000D01*
X132642235Y-105633157D01*
X132890000Y-105682440D01*
X133810000Y-105682440D01*
X134057765Y-105633157D01*
X134110381Y-105598000D01*
X134286250Y-105598000D01*
X134445000Y-105439250D01*
X134445000Y-105338690D01*
X134412594Y-105260456D01*
X134457440Y-105035000D01*
X134457440Y-104515000D01*
X134412594Y-104289544D01*
X134445000Y-104211310D01*
X134445000Y-104110750D01*
X134286250Y-103952000D01*
X134110381Y-103952000D01*
X134057765Y-103916843D01*
X133810000Y-103867560D01*
X132890000Y-103867560D01*
X132642235Y-103916843D01*
X132589619Y-103952000D01*
X132413750Y-103952000D01*
X132301950Y-104063800D01*
X132116759Y-104063800D01*
X131998936Y-103945977D01*
X131639516Y-103797100D01*
X131250484Y-103797100D01*
X130937000Y-103926950D01*
X130937000Y-102997000D01*
X132601939Y-102997000D01*
X132530302Y-103026673D01*
X132351673Y-103205301D01*
X132255000Y-103438690D01*
X132255000Y-103539250D01*
X132413750Y-103698000D01*
X133223000Y-103698000D01*
X133223000Y-103678000D01*
X133477000Y-103678000D01*
X133477000Y-103698000D01*
X134286250Y-103698000D01*
X134445000Y-103539250D01*
X134445000Y-103438690D01*
X134348327Y-103205301D01*
X134169698Y-103026673D01*
X134098061Y-102997000D01*
X134396770Y-102997000D01*
X134728047Y-103328277D01*
X134680960Y-103565000D01*
X134680960Y-104085000D01*
X134730243Y-104332765D01*
X134870591Y-104542809D01*
X135080635Y-104683157D01*
X135328400Y-104732440D01*
X136248400Y-104732440D01*
X136496165Y-104683157D01*
X136706209Y-104542809D01*
X136846557Y-104332765D01*
X136895840Y-104085000D01*
X136895840Y-103565000D01*
X136846557Y-103317235D01*
X136706209Y-103107191D01*
X136496165Y-102966843D01*
X136471630Y-102961963D01*
X136337771Y-102761629D01*
X136274149Y-102719118D01*
X135304283Y-101749253D01*
X135261771Y-101685629D01*
X135220340Y-101657946D01*
X135328400Y-101679440D01*
X136248400Y-101679440D01*
X136394221Y-101650435D01*
X136523754Y-101676200D01*
X136523758Y-101676200D01*
X136593799Y-101690132D01*
X136663841Y-101676200D01*
X137905885Y-101676200D01*
X137777191Y-101762191D01*
X137636843Y-101972235D01*
X137587560Y-102220000D01*
X137587560Y-103520000D01*
X137636843Y-103767765D01*
X137777191Y-103977809D01*
X137987235Y-104118157D01*
X138235000Y-104167440D01*
X139735000Y-104167440D01*
X139982765Y-104118157D01*
X140192809Y-103977809D01*
X140333157Y-103767765D01*
X140335000Y-103758500D01*
X140336843Y-103767765D01*
X140477191Y-103977809D01*
X140687235Y-104118157D01*
X140935000Y-104167440D01*
X142435000Y-104167440D01*
X142682765Y-104118157D01*
X142805528Y-104036129D01*
X142784867Y-104140000D01*
X142798800Y-104210046D01*
X142798800Y-104480411D01*
X142791028Y-104488183D01*
X142682765Y-104415843D01*
X142435000Y-104366560D01*
X140935000Y-104366560D01*
X140687235Y-104415843D01*
X140477191Y-104556191D01*
X140336843Y-104766235D01*
X140335000Y-104775500D01*
X140333157Y-104766235D01*
X140192809Y-104556191D01*
X139982765Y-104415843D01*
X139735000Y-104366560D01*
X138235000Y-104366560D01*
X137987235Y-104415843D01*
X137777191Y-104556191D01*
X137636843Y-104766235D01*
X137587600Y-105013800D01*
X136710625Y-105013800D01*
X136706209Y-105007191D01*
X136496165Y-104866843D01*
X136248400Y-104817560D01*
X135328400Y-104817560D01*
X135080635Y-104866843D01*
X134870591Y-105007191D01*
X134730243Y-105217235D01*
X134680960Y-105465000D01*
X134680960Y-105985000D01*
X134730243Y-106232765D01*
X134870591Y-106442809D01*
X135080635Y-106583157D01*
X135328400Y-106632440D01*
X136248400Y-106632440D01*
X136496165Y-106583157D01*
X136706209Y-106442809D01*
X136710625Y-106436200D01*
X137611867Y-106436200D01*
X137636843Y-106561765D01*
X137777191Y-106771809D01*
X137987235Y-106912157D01*
X138235000Y-106961440D01*
X139735000Y-106961440D01*
X139982765Y-106912157D01*
X140192809Y-106771809D01*
X140333157Y-106561765D01*
X140335000Y-106552500D01*
X140336843Y-106561765D01*
X140477191Y-106771809D01*
X140687235Y-106912157D01*
X140935000Y-106961440D01*
X142435000Y-106961440D01*
X142682765Y-106912157D01*
X142798801Y-106834624D01*
X142798800Y-107414376D01*
X142682765Y-107336843D01*
X142435000Y-107287560D01*
X140935000Y-107287560D01*
X140687235Y-107336843D01*
X140477191Y-107477191D01*
X140336843Y-107687235D01*
X140335000Y-107696500D01*
X140333157Y-107687235D01*
X140192809Y-107477191D01*
X139982765Y-107336843D01*
X139735000Y-107287560D01*
X138235000Y-107287560D01*
X137987235Y-107336843D01*
X137777191Y-107477191D01*
X137636843Y-107687235D01*
X137587560Y-107935000D01*
X137587560Y-109235000D01*
X137636843Y-109482765D01*
X137777191Y-109692809D01*
X137905885Y-109778800D01*
X136658841Y-109778800D01*
X136588799Y-109764868D01*
X136518758Y-109778800D01*
X136518754Y-109778800D01*
X136404290Y-109801568D01*
X136248400Y-109770560D01*
X135328400Y-109770560D01*
X135080635Y-109819843D01*
X134870591Y-109960191D01*
X134730243Y-110170235D01*
X134680960Y-110418000D01*
X134680960Y-110938000D01*
X134730243Y-111185765D01*
X134870591Y-111395809D01*
X135080635Y-111536157D01*
X135328400Y-111585440D01*
X136248400Y-111585440D01*
X136496165Y-111536157D01*
X136706209Y-111395809D01*
X136786512Y-111275628D01*
X136897901Y-111201200D01*
X138359959Y-111201200D01*
X138430000Y-111215132D01*
X138500041Y-111201200D01*
X138500046Y-111201200D01*
X138707496Y-111159936D01*
X138942746Y-111002746D01*
X138982424Y-110943364D01*
X139438368Y-110487420D01*
X139497745Y-110447746D01*
X139537420Y-110388369D01*
X139537424Y-110388365D01*
X139646824Y-110224636D01*
X139654936Y-110212496D01*
X139696200Y-110005046D01*
X139696200Y-110005042D01*
X139710132Y-109935000D01*
X139699677Y-109882440D01*
X139735000Y-109882440D01*
X139982765Y-109833157D01*
X140192809Y-109692809D01*
X140333157Y-109482765D01*
X140335000Y-109473500D01*
X140336843Y-109482765D01*
X140477191Y-109692809D01*
X140687235Y-109833157D01*
X140935000Y-109882440D01*
X142435000Y-109882440D01*
X142682765Y-109833157D01*
X142892809Y-109692809D01*
X143033157Y-109482765D01*
X143075425Y-109270266D01*
X143152496Y-109254936D01*
X143387746Y-109097746D01*
X143427424Y-109038364D01*
X143963369Y-108502420D01*
X144022745Y-108462746D01*
X144025915Y-108458002D01*
X144094844Y-108458002D01*
X143973524Y-108687890D01*
X144143355Y-109097924D01*
X144533642Y-109526183D01*
X145058108Y-109772486D01*
X145288000Y-109651819D01*
X145288000Y-108458000D01*
X145542000Y-108458000D01*
X145542000Y-109651819D01*
X145771892Y-109772486D01*
X146296358Y-109526183D01*
X146685000Y-109099729D01*
X147073642Y-109526183D01*
X147598108Y-109772486D01*
X147828000Y-109651819D01*
X147828000Y-108458000D01*
X148082000Y-108458000D01*
X148082000Y-109651819D01*
X148311892Y-109772486D01*
X148836358Y-109526183D01*
X149225000Y-109099729D01*
X149613642Y-109526183D01*
X150138108Y-109772486D01*
X150368000Y-109651819D01*
X150368000Y-108458000D01*
X150622000Y-108458000D01*
X150622000Y-109651819D01*
X150851892Y-109772486D01*
X151376358Y-109526183D01*
X151766645Y-109097924D01*
X151936476Y-108687890D01*
X151815155Y-108458000D01*
X150622000Y-108458000D01*
X150368000Y-108458000D01*
X148082000Y-108458000D01*
X147828000Y-108458000D01*
X145542000Y-108458000D01*
X145288000Y-108458000D01*
X145268000Y-108458000D01*
X145268000Y-108204000D01*
X145288000Y-108204000D01*
X145288000Y-108184000D01*
X145542000Y-108184000D01*
X145542000Y-108204000D01*
X147828000Y-108204000D01*
X147828000Y-108184000D01*
X148082000Y-108184000D01*
X148082000Y-108204000D01*
X150368000Y-108204000D01*
X150368000Y-108184000D01*
X150622000Y-108184000D01*
X150622000Y-108204000D01*
X151815155Y-108204000D01*
X151936476Y-107974110D01*
X151766645Y-107564076D01*
X151489292Y-107259739D01*
X151592765Y-107239157D01*
X151802809Y-107098809D01*
X151943157Y-106888765D01*
X151992440Y-106641000D01*
X151992440Y-104941000D01*
X151943157Y-104693235D01*
X151802809Y-104483191D01*
X151592765Y-104342843D01*
X151345000Y-104293560D01*
X151019576Y-104293560D01*
X151007745Y-104275854D01*
X150948369Y-104236180D01*
X149763823Y-103051635D01*
X149724146Y-102992254D01*
X149488896Y-102835064D01*
X149281446Y-102793800D01*
X149281441Y-102793800D01*
X149211400Y-102779868D01*
X149141359Y-102793800D01*
X148045655Y-102793800D01*
X147668490Y-102416636D01*
X147628812Y-102357254D01*
X147393562Y-102200064D01*
X147186112Y-102158800D01*
X147186107Y-102158800D01*
X147116066Y-102144868D01*
X147046025Y-102158800D01*
X143070267Y-102158800D01*
X143033157Y-101972235D01*
X142892809Y-101762191D01*
X142682765Y-101621843D01*
X142435000Y-101572560D01*
X140935000Y-101572560D01*
X140687235Y-101621843D01*
X140477191Y-101762191D01*
X140336843Y-101972235D01*
X140335000Y-101981500D01*
X140333157Y-101972235D01*
X140192809Y-101762191D01*
X139982765Y-101621843D01*
X139735000Y-101572560D01*
X139699677Y-101572560D01*
X139710132Y-101520000D01*
X139696200Y-101449958D01*
X139696200Y-101449954D01*
X139654936Y-101242504D01*
X139598679Y-101158310D01*
X139537424Y-101066635D01*
X139537422Y-101066633D01*
X139497746Y-101007254D01*
X139438366Y-100967578D01*
X138982424Y-100511636D01*
X138942746Y-100452254D01*
X138707496Y-100295064D01*
X138500046Y-100253800D01*
X138500041Y-100253800D01*
X138430000Y-100239868D01*
X138359959Y-100253800D01*
X136905384Y-100253800D01*
X136786512Y-100174372D01*
X136706209Y-100054191D01*
X136496165Y-99913843D01*
X136248400Y-99864560D01*
X135328400Y-99864560D01*
X135080635Y-99913843D01*
X134870591Y-100054191D01*
X134730243Y-100264235D01*
X134680960Y-100512000D01*
X134680960Y-101032000D01*
X134730243Y-101279765D01*
X134870382Y-101489497D01*
X134787448Y-101473000D01*
X134787443Y-101473000D01*
X134712400Y-101458073D01*
X134637357Y-101473000D01*
X134267026Y-101473000D01*
X134348327Y-101391699D01*
X134445000Y-101158310D01*
X134445000Y-101057750D01*
X134286250Y-100899000D01*
X133477000Y-100899000D01*
X133477000Y-100919000D01*
X133223000Y-100919000D01*
X133223000Y-100899000D01*
X132413750Y-100899000D01*
X132255000Y-101057750D01*
X132255000Y-101158310D01*
X132351673Y-101391699D01*
X132432974Y-101473000D01*
X131125631Y-101473000D01*
X130937000Y-101284370D01*
X130937000Y-100543050D01*
X131250484Y-100672900D01*
X131639516Y-100672900D01*
X131998936Y-100524023D01*
X132116759Y-100406200D01*
X132255000Y-100406200D01*
X132255000Y-100486250D01*
X132413750Y-100645000D01*
X132589619Y-100645000D01*
X132642235Y-100680157D01*
X132890000Y-100729440D01*
X133810000Y-100729440D01*
X134057765Y-100680157D01*
X134110381Y-100645000D01*
X134286250Y-100645000D01*
X134445000Y-100486250D01*
X134445000Y-100385690D01*
X134412594Y-100307456D01*
X134457440Y-100082000D01*
X134457440Y-99562000D01*
X134412594Y-99336544D01*
X134445000Y-99258310D01*
X134445000Y-99157750D01*
X134286250Y-98999000D01*
X134110381Y-98999000D01*
X134057765Y-98963843D01*
X133810000Y-98914560D01*
X132890000Y-98914560D01*
X132642235Y-98963843D01*
X132612367Y-98983800D01*
X132116759Y-98983800D01*
X131998936Y-98865977D01*
X131639516Y-98717100D01*
X131291183Y-98717100D01*
X131318000Y-98652357D01*
X131318000Y-98485690D01*
X132255000Y-98485690D01*
X132255000Y-98586250D01*
X132413750Y-98745000D01*
X133223000Y-98745000D01*
X133223000Y-98135750D01*
X133477000Y-98135750D01*
X133477000Y-98745000D01*
X134286250Y-98745000D01*
X134445000Y-98586250D01*
X134445000Y-98485690D01*
X134348327Y-98252301D01*
X134169698Y-98073673D01*
X133936309Y-97977000D01*
X133635750Y-97977000D01*
X133477000Y-98135750D01*
X133223000Y-98135750D01*
X133064250Y-97977000D01*
X132763691Y-97977000D01*
X132530302Y-98073673D01*
X132351673Y-98252301D01*
X132255000Y-98485690D01*
X131318000Y-98485690D01*
X131318000Y-98197643D01*
X131201754Y-97917000D01*
X134304370Y-97917000D01*
X134738799Y-98351430D01*
X134730243Y-98364235D01*
X134680960Y-98612000D01*
X134680960Y-99132000D01*
X134730243Y-99379765D01*
X134870591Y-99589809D01*
X135080635Y-99730157D01*
X135328400Y-99779440D01*
X136248400Y-99779440D01*
X136496165Y-99730157D01*
X136706209Y-99589809D01*
X136846557Y-99379765D01*
X136895840Y-99132000D01*
X136895840Y-98612000D01*
X136866402Y-98464000D01*
X144044560Y-98464000D01*
X144044560Y-100164000D01*
X144093843Y-100411765D01*
X144234191Y-100621809D01*
X144444235Y-100762157D01*
X144692000Y-100811440D01*
X146392000Y-100811440D01*
X146639765Y-100762157D01*
X146849809Y-100621809D01*
X146990157Y-100411765D01*
X146999184Y-100366381D01*
X147011375Y-100384625D01*
X147502582Y-100712839D01*
X147935744Y-100799000D01*
X148228256Y-100799000D01*
X148661418Y-100712839D01*
X149152625Y-100384625D01*
X149365843Y-100065522D01*
X149426817Y-100195358D01*
X149855076Y-100585645D01*
X150265110Y-100755476D01*
X150495000Y-100634155D01*
X150495000Y-99441000D01*
X150749000Y-99441000D01*
X150749000Y-100634155D01*
X150978890Y-100755476D01*
X151388924Y-100585645D01*
X151817183Y-100195358D01*
X152063486Y-99670892D01*
X151942819Y-99441000D01*
X150749000Y-99441000D01*
X150495000Y-99441000D01*
X150475000Y-99441000D01*
X150475000Y-99187000D01*
X150495000Y-99187000D01*
X150495000Y-97993845D01*
X150749000Y-97993845D01*
X150749000Y-99187000D01*
X151942819Y-99187000D01*
X152063486Y-98957108D01*
X151817183Y-98432642D01*
X151388924Y-98042355D01*
X150978890Y-97872524D01*
X150749000Y-97993845D01*
X150495000Y-97993845D01*
X150265110Y-97872524D01*
X149855076Y-98042355D01*
X149426817Y-98432642D01*
X149365843Y-98562478D01*
X149152625Y-98243375D01*
X148661418Y-97915161D01*
X148228256Y-97829000D01*
X147935744Y-97829000D01*
X147502582Y-97915161D01*
X147011375Y-98243375D01*
X146999184Y-98261619D01*
X146990157Y-98216235D01*
X146849809Y-98006191D01*
X146639765Y-97865843D01*
X146392000Y-97816560D01*
X144692000Y-97816560D01*
X144444235Y-97865843D01*
X144234191Y-98006191D01*
X144093843Y-98216235D01*
X144044560Y-98464000D01*
X136866402Y-98464000D01*
X136846557Y-98364235D01*
X136706209Y-98154191D01*
X136499497Y-98016070D01*
X136337771Y-97774029D01*
X136274149Y-97731518D01*
X135211883Y-96669253D01*
X135169371Y-96605629D01*
X134917317Y-96437212D01*
X134695048Y-96393000D01*
X134695043Y-96393000D01*
X134620000Y-96378073D01*
X134544957Y-96393000D01*
X130885047Y-96393000D01*
X130810000Y-96378072D01*
X130734953Y-96393000D01*
X130734952Y-96393000D01*
X130512683Y-96437212D01*
X130432383Y-96490867D01*
X130356092Y-96541843D01*
X130260629Y-96605629D01*
X130218118Y-96669251D01*
X129689253Y-97198117D01*
X129625629Y-97240629D01*
X129457212Y-97492684D01*
X129448855Y-97534698D01*
X129320553Y-97663000D01*
X129153900Y-97663000D01*
X129152157Y-97654235D01*
X129011809Y-97444191D01*
X128801765Y-97303843D01*
X128554000Y-97254560D01*
X127854000Y-97254560D01*
X127606235Y-97303843D01*
X127396191Y-97444191D01*
X127255843Y-97654235D01*
X127254000Y-97663500D01*
X127252157Y-97654235D01*
X127111809Y-97444191D01*
X127015200Y-97379638D01*
X127015200Y-97286042D01*
X127029132Y-97216000D01*
X127015200Y-97145958D01*
X127015200Y-97145954D01*
X126973936Y-96938504D01*
X126943020Y-96892235D01*
X126856424Y-96762635D01*
X126856420Y-96762631D01*
X126816745Y-96703254D01*
X126757368Y-96663580D01*
X126282424Y-96188636D01*
X126242746Y-96129254D01*
X126007496Y-95972064D01*
X125800046Y-95930800D01*
X125800041Y-95930800D01*
X125730000Y-95916868D01*
X125659959Y-95930800D01*
X114883041Y-95930800D01*
X114812999Y-95916868D01*
X114742958Y-95930800D01*
X114742954Y-95930800D01*
X114535504Y-95972064D01*
X114300254Y-96129254D01*
X114260576Y-96188636D01*
X114180634Y-96268578D01*
X114121255Y-96308254D01*
X114081579Y-96367633D01*
X114081576Y-96367636D01*
X113998105Y-96492560D01*
X113884000Y-96492560D01*
X113636235Y-96541843D01*
X113426191Y-96682191D01*
X113285843Y-96892235D01*
X113280279Y-96920209D01*
X113222327Y-96780301D01*
X113043698Y-96601673D01*
X112810309Y-96505000D01*
X112219750Y-96505000D01*
X112061000Y-96663750D01*
X112061000Y-97663000D01*
X112081000Y-97663000D01*
X112081000Y-97917000D01*
X112061000Y-97917000D01*
X112061000Y-98916250D01*
X112203497Y-99058747D01*
X112170309Y-99045000D01*
X111979750Y-99045000D01*
X111821000Y-99203750D01*
X111821000Y-100203000D01*
X112520250Y-100203000D01*
X112679000Y-100044250D01*
X112679000Y-99553690D01*
X112582327Y-99320301D01*
X112403698Y-99141673D01*
X112242735Y-99075000D01*
X112810309Y-99075000D01*
X113043698Y-98978327D01*
X113222327Y-98799699D01*
X113280279Y-98659791D01*
X113285843Y-98687765D01*
X113426191Y-98897809D01*
X113636235Y-99038157D01*
X113884000Y-99087440D01*
X115384000Y-99087440D01*
X115631765Y-99038157D01*
X115841809Y-98897809D01*
X115982157Y-98687765D01*
X116031440Y-98440000D01*
X116031440Y-97353200D01*
X117504368Y-97353200D01*
X117368191Y-97444191D01*
X117227843Y-97654235D01*
X117178560Y-97902000D01*
X117178560Y-98027423D01*
X117160854Y-98039254D01*
X117121178Y-98098633D01*
X116132634Y-99087178D01*
X116073255Y-99126854D01*
X116033579Y-99186233D01*
X116033576Y-99186236D01*
X115916065Y-99362104D01*
X115860868Y-99639600D01*
X115874801Y-99709646D01*
X115874801Y-100045733D01*
X115688235Y-100082843D01*
X115478191Y-100223191D01*
X115413638Y-100319800D01*
X115318440Y-100319800D01*
X115318440Y-100281000D01*
X115269157Y-100033235D01*
X115128809Y-99823191D01*
X114918765Y-99682843D01*
X114671000Y-99633560D01*
X113421000Y-99633560D01*
X113173235Y-99682843D01*
X112963191Y-99823191D01*
X112822843Y-100033235D01*
X112773560Y-100281000D01*
X112773560Y-101281000D01*
X112822843Y-101528765D01*
X112963191Y-101738809D01*
X113026334Y-101781000D01*
X112963191Y-101823191D01*
X112822843Y-102033235D01*
X112815570Y-102069800D01*
X112691440Y-102069800D01*
X112691440Y-101966000D01*
X112642157Y-101718235D01*
X112501809Y-101508191D01*
X112449072Y-101472953D01*
X112582327Y-101339699D01*
X112679000Y-101106310D01*
X112679000Y-100615750D01*
X112520250Y-100457000D01*
X111821000Y-100457000D01*
X111821000Y-100477000D01*
X111567000Y-100477000D01*
X111567000Y-100457000D01*
X111547000Y-100457000D01*
X111547000Y-100203000D01*
X111567000Y-100203000D01*
X111567000Y-99203750D01*
X111438250Y-99075000D01*
X111648250Y-99075000D01*
X111807000Y-98916250D01*
X111807000Y-97917000D01*
X110707750Y-97917000D01*
X110549000Y-98075750D01*
X110549000Y-98566310D01*
X110645673Y-98799699D01*
X110824302Y-98978327D01*
X111057691Y-99075000D01*
X111145265Y-99075000D01*
X110984302Y-99141673D01*
X110805673Y-99320301D01*
X110747721Y-99460209D01*
X110742157Y-99432235D01*
X110601809Y-99222191D01*
X110391765Y-99081843D01*
X110144000Y-99032560D01*
X109444000Y-99032560D01*
X109196235Y-99081843D01*
X108986191Y-99222191D01*
X108845843Y-99432235D01*
X108820489Y-99559700D01*
X108375424Y-99114636D01*
X108335746Y-99055254D01*
X108100496Y-98898064D01*
X107893046Y-98856800D01*
X107893041Y-98856800D01*
X107823000Y-98842868D01*
X107752959Y-98856800D01*
X107415440Y-98856800D01*
X107415440Y-98718000D01*
X107366157Y-98470235D01*
X107225809Y-98260191D01*
X107015765Y-98119843D01*
X106768000Y-98070560D01*
X105068000Y-98070560D01*
X104820235Y-98119843D01*
X104610191Y-98260191D01*
X104469843Y-98470235D01*
X104420560Y-98718000D01*
X104420560Y-100418000D01*
X104469843Y-100665765D01*
X104610191Y-100875809D01*
X104820235Y-101016157D01*
X104923708Y-101036739D01*
X104646355Y-101341076D01*
X104476524Y-101751110D01*
X104597845Y-101981000D01*
X105791000Y-101981000D01*
X105791000Y-101961000D01*
X106045000Y-101961000D01*
X106045000Y-101981000D01*
X107238155Y-101981000D01*
X107359476Y-101751110D01*
X107189645Y-101341076D01*
X106912292Y-101036739D01*
X107015765Y-101016157D01*
X107225809Y-100875809D01*
X107366157Y-100665765D01*
X107415440Y-100418000D01*
X107415440Y-100279200D01*
X107528412Y-100279200D01*
X108032578Y-100783367D01*
X108072254Y-100842746D01*
X108131633Y-100882422D01*
X108131635Y-100882424D01*
X108247336Y-100959733D01*
X108307504Y-100999936D01*
X108514954Y-101041200D01*
X108514958Y-101041200D01*
X108585000Y-101055132D01*
X108655042Y-101041200D01*
X108808733Y-101041200D01*
X108845843Y-101227765D01*
X108986191Y-101437809D01*
X109038858Y-101473000D01*
X108986191Y-101508191D01*
X108845843Y-101718235D01*
X108796560Y-101966000D01*
X108796560Y-103266000D01*
X108845843Y-103513765D01*
X108986191Y-103723809D01*
X109196235Y-103864157D01*
X109444000Y-103913440D01*
X110144000Y-103913440D01*
X110391765Y-103864157D01*
X110601809Y-103723809D01*
X110742157Y-103513765D01*
X110744000Y-103504500D01*
X110745843Y-103513765D01*
X110886191Y-103723809D01*
X111096235Y-103864157D01*
X111344000Y-103913440D01*
X112044000Y-103913440D01*
X112291765Y-103864157D01*
X112501809Y-103723809D01*
X112642157Y-103513765D01*
X112646446Y-103492200D01*
X112815570Y-103492200D01*
X112822843Y-103528765D01*
X112963191Y-103738809D01*
X113173235Y-103879157D01*
X113421000Y-103928440D01*
X114671000Y-103928440D01*
X114918765Y-103879157D01*
X115128809Y-103738809D01*
X115193362Y-103642200D01*
X115413638Y-103642200D01*
X115478191Y-103738809D01*
X115688235Y-103879157D01*
X115936000Y-103928440D01*
X117236000Y-103928440D01*
X117483765Y-103879157D01*
X117693809Y-103738809D01*
X117834157Y-103528765D01*
X117848989Y-103454200D01*
X118997216Y-103454200D01*
X118989843Y-103465235D01*
X118940560Y-103713000D01*
X118940560Y-104313000D01*
X118989843Y-104560765D01*
X119042768Y-104639972D01*
X118953000Y-104856690D01*
X118953000Y-104997250D01*
X119111750Y-105156000D01*
X120236000Y-105156000D01*
X120236000Y-105136000D01*
X120490000Y-105136000D01*
X120490000Y-105156000D01*
X121614250Y-105156000D01*
X121772231Y-104998019D01*
X121843801Y-105069589D01*
X121843800Y-105714800D01*
X121770726Y-105714800D01*
X121773000Y-105709310D01*
X121773000Y-105568750D01*
X121614250Y-105410000D01*
X120490000Y-105410000D01*
X120490000Y-105430000D01*
X120236000Y-105430000D01*
X120236000Y-105410000D01*
X119111750Y-105410000D01*
X118953000Y-105568750D01*
X118953000Y-105709310D01*
X119032573Y-105901415D01*
X119014854Y-105913254D01*
X118975178Y-105972634D01*
X118606634Y-106341178D01*
X118547255Y-106380854D01*
X118508665Y-106438608D01*
X118462235Y-106447843D01*
X118252191Y-106588191D01*
X118111843Y-106798235D01*
X118106279Y-106826209D01*
X118048327Y-106686301D01*
X117869698Y-106507673D01*
X117636309Y-106411000D01*
X117445750Y-106411000D01*
X117287000Y-106569750D01*
X117287000Y-107569000D01*
X117307000Y-107569000D01*
X117307000Y-107823000D01*
X117287000Y-107823000D01*
X117287000Y-107843000D01*
X117033000Y-107843000D01*
X117033000Y-107823000D01*
X116333750Y-107823000D01*
X116175000Y-107981750D01*
X116175000Y-108472310D01*
X116271673Y-108705699D01*
X116450302Y-108884327D01*
X116655449Y-108969302D01*
X116562235Y-108987843D01*
X116352191Y-109128191D01*
X116211843Y-109338235D01*
X116162560Y-109586000D01*
X116162560Y-110886000D01*
X116184838Y-110998000D01*
X112470047Y-110998000D01*
X112395000Y-110983072D01*
X112319953Y-110998000D01*
X112319952Y-110998000D01*
X112097683Y-111042212D01*
X111845629Y-111210629D01*
X111803118Y-111274251D01*
X111269053Y-111808317D01*
X111205429Y-111850829D01*
X111037012Y-112102884D01*
X110992800Y-112325153D01*
X110992800Y-112325157D01*
X110977873Y-112400200D01*
X110992800Y-112475244D01*
X110992800Y-113003278D01*
X110913615Y-113036078D01*
X110495878Y-113453815D01*
X110484800Y-113480560D01*
X110473722Y-113453815D01*
X110055985Y-113036078D01*
X109510185Y-112810000D01*
X108919415Y-112810000D01*
X108373615Y-113036078D01*
X108077000Y-113332693D01*
X108077000Y-110490000D01*
X108067333Y-110441399D01*
X108039803Y-110400197D01*
X107998601Y-110372667D01*
X107950000Y-110363000D01*
X103632000Y-110363000D01*
X103632000Y-108687890D01*
X104476524Y-108687890D01*
X104646355Y-109097924D01*
X105036642Y-109526183D01*
X105561108Y-109772486D01*
X105791000Y-109651819D01*
X105791000Y-108458000D01*
X106045000Y-108458000D01*
X106045000Y-109651819D01*
X106274892Y-109772486D01*
X106799358Y-109526183D01*
X107189645Y-109097924D01*
X107359476Y-108687890D01*
X107238155Y-108458000D01*
X106045000Y-108458000D01*
X105791000Y-108458000D01*
X104597845Y-108458000D01*
X104476524Y-108687890D01*
X103632000Y-108687890D01*
X103632000Y-104941000D01*
X104420560Y-104941000D01*
X104420560Y-106641000D01*
X104469843Y-106888765D01*
X104610191Y-107098809D01*
X104820235Y-107239157D01*
X104923708Y-107259739D01*
X104646355Y-107564076D01*
X104476524Y-107974110D01*
X104597845Y-108204000D01*
X105791000Y-108204000D01*
X105791000Y-108184000D01*
X106045000Y-108184000D01*
X106045000Y-108204000D01*
X107238155Y-108204000D01*
X107359476Y-107974110D01*
X107189645Y-107564076D01*
X106912292Y-107259739D01*
X107015765Y-107239157D01*
X107225809Y-107098809D01*
X107366157Y-106888765D01*
X107415440Y-106641000D01*
X107415440Y-106502200D01*
X108430560Y-106502200D01*
X108430560Y-106588000D01*
X108479843Y-106835765D01*
X108620191Y-107045809D01*
X108830235Y-107186157D01*
X108839500Y-107188000D01*
X108830235Y-107189843D01*
X108620191Y-107330191D01*
X108479843Y-107540235D01*
X108430560Y-107788000D01*
X108430560Y-109288000D01*
X108479843Y-109535765D01*
X108620191Y-109745809D01*
X108830235Y-109886157D01*
X109078000Y-109935440D01*
X110378000Y-109935440D01*
X110625765Y-109886157D01*
X110835809Y-109745809D01*
X110976157Y-109535765D01*
X111025440Y-109288000D01*
X111025440Y-109249200D01*
X112639219Y-109249200D01*
X112694260Y-109525909D01*
X113011423Y-110000577D01*
X113486091Y-110317740D01*
X113904667Y-110401000D01*
X114187333Y-110401000D01*
X114605909Y-110317740D01*
X115080577Y-110000577D01*
X115397740Y-109525909D01*
X115509113Y-108966000D01*
X115397740Y-108406091D01*
X115080577Y-107931423D01*
X114728832Y-107696394D01*
X114858862Y-107642534D01*
X115262534Y-107238862D01*
X115394739Y-106919690D01*
X116175000Y-106919690D01*
X116175000Y-107410250D01*
X116333750Y-107569000D01*
X117033000Y-107569000D01*
X117033000Y-106569750D01*
X116874250Y-106411000D01*
X116683691Y-106411000D01*
X116450302Y-106507673D01*
X116271673Y-106686301D01*
X116175000Y-106919690D01*
X115394739Y-106919690D01*
X115481000Y-106711439D01*
X115481000Y-106140561D01*
X115262534Y-105613138D01*
X114858862Y-105209466D01*
X114331439Y-104991000D01*
X113760561Y-104991000D01*
X113463638Y-105113990D01*
X113458000Y-105112868D01*
X113387959Y-105126800D01*
X111025440Y-105126800D01*
X111025440Y-105088000D01*
X110976157Y-104840235D01*
X110835809Y-104630191D01*
X110625765Y-104489843D01*
X110378000Y-104440560D01*
X109078000Y-104440560D01*
X108830235Y-104489843D01*
X108620191Y-104630191D01*
X108479843Y-104840235D01*
X108432191Y-105079800D01*
X107415440Y-105079800D01*
X107415440Y-104941000D01*
X107366157Y-104693235D01*
X107225809Y-104483191D01*
X107015765Y-104342843D01*
X106768000Y-104293560D01*
X105068000Y-104293560D01*
X104820235Y-104342843D01*
X104610191Y-104483191D01*
X104469843Y-104693235D01*
X104420560Y-104941000D01*
X103632000Y-104941000D01*
X103632000Y-102464890D01*
X104476524Y-102464890D01*
X104646355Y-102874924D01*
X105036642Y-103303183D01*
X105561108Y-103549486D01*
X105791000Y-103428819D01*
X105791000Y-102235000D01*
X106045000Y-102235000D01*
X106045000Y-103428819D01*
X106274892Y-103549486D01*
X106799358Y-103303183D01*
X107189645Y-102874924D01*
X107359476Y-102464890D01*
X107238155Y-102235000D01*
X106045000Y-102235000D01*
X105791000Y-102235000D01*
X104597845Y-102235000D01*
X104476524Y-102464890D01*
X103632000Y-102464890D01*
X103632000Y-97917000D01*
X107950000Y-97917000D01*
X107998601Y-97907333D01*
X108039803Y-97879803D01*
X108067333Y-97838601D01*
X108077000Y-97790000D01*
X108077000Y-97013690D01*
X110549000Y-97013690D01*
X110549000Y-97504250D01*
X110707750Y-97663000D01*
X111807000Y-97663000D01*
X111807000Y-96663750D01*
X111648250Y-96505000D01*
X111057691Y-96505000D01*
X110824302Y-96601673D01*
X110645673Y-96780301D01*
X110549000Y-97013690D01*
X108077000Y-97013690D01*
X108077000Y-94491892D01*
X110623314Y-94491892D01*
X110869617Y-95016358D01*
X111297876Y-95406645D01*
X111707910Y-95576476D01*
X111937800Y-95455155D01*
X111937800Y-94262000D01*
X110743981Y-94262000D01*
X110623314Y-94491892D01*
X108077000Y-94491892D01*
X108077000Y-93472000D01*
X110767070Y-93472000D01*
X110623314Y-93778108D01*
G36*
X124085843Y-108593765D02*
X124226191Y-108803809D01*
X124436235Y-108944157D01*
X124684000Y-108993440D01*
X125349782Y-108993440D01*
X125252235Y-109012843D01*
X125042191Y-109153191D01*
X124901843Y-109363235D01*
X124852560Y-109611000D01*
X124852560Y-110861000D01*
X124879811Y-110998000D01*
X124558572Y-110998000D01*
X124563000Y-110987310D01*
X124563000Y-110521750D01*
X124404250Y-110363000D01*
X123555000Y-110363000D01*
X123555000Y-110383000D01*
X123301000Y-110383000D01*
X123301000Y-110363000D01*
X123281000Y-110363000D01*
X123281000Y-110109000D01*
X123301000Y-110109000D01*
X123301000Y-110089000D01*
X123555000Y-110089000D01*
X123555000Y-110109000D01*
X124404250Y-110109000D01*
X124563000Y-109950250D01*
X124563000Y-109484690D01*
X124466327Y-109251301D01*
X124287698Y-109072673D01*
X124054309Y-108976000D01*
X123713750Y-108976000D01*
X123555002Y-109134748D01*
X123555002Y-108977328D01*
X123721765Y-108944157D01*
X123931809Y-108803809D01*
X124072157Y-108593765D01*
X124079000Y-108559363D01*
X124085843Y-108593765D01*
X124085843Y-108593765D01*
G37*
X124085843Y-108593765D02*
X124226191Y-108803809D01*
X124436235Y-108944157D01*
X124684000Y-108993440D01*
X125349782Y-108993440D01*
X125252235Y-109012843D01*
X125042191Y-109153191D01*
X124901843Y-109363235D01*
X124852560Y-109611000D01*
X124852560Y-110861000D01*
X124879811Y-110998000D01*
X124558572Y-110998000D01*
X124563000Y-110987310D01*
X124563000Y-110521750D01*
X124404250Y-110363000D01*
X123555000Y-110363000D01*
X123555000Y-110383000D01*
X123301000Y-110383000D01*
X123301000Y-110363000D01*
X123281000Y-110363000D01*
X123281000Y-110109000D01*
X123301000Y-110109000D01*
X123301000Y-110089000D01*
X123555000Y-110089000D01*
X123555000Y-110109000D01*
X124404250Y-110109000D01*
X124563000Y-109950250D01*
X124563000Y-109484690D01*
X124466327Y-109251301D01*
X124287698Y-109072673D01*
X124054309Y-108976000D01*
X123713750Y-108976000D01*
X123555002Y-109134748D01*
X123555002Y-108977328D01*
X123721765Y-108944157D01*
X123931809Y-108803809D01*
X124072157Y-108593765D01*
X124079000Y-108559363D01*
X124085843Y-108593765D01*
G36*
X129413001Y-99279448D02*
X129413000Y-101524957D01*
X129398073Y-101600000D01*
X129413000Y-101675043D01*
X129413000Y-101675047D01*
X129413001Y-101675052D01*
X129413000Y-106604957D01*
X129398073Y-106680000D01*
X129413000Y-106755043D01*
X129413000Y-106755047D01*
X129413001Y-106755052D01*
X129413000Y-110270553D01*
X129206011Y-110477542D01*
X129135000Y-110648978D01*
X129135000Y-110521750D01*
X128976250Y-110363000D01*
X128127000Y-110363000D01*
X128127000Y-110383000D01*
X127873000Y-110383000D01*
X127873000Y-110363000D01*
X127853000Y-110363000D01*
X127853000Y-110109000D01*
X127873000Y-110109000D01*
X127873000Y-109134750D01*
X128127000Y-109134750D01*
X128127000Y-110109000D01*
X128976250Y-110109000D01*
X129135000Y-109950250D01*
X129135000Y-109484690D01*
X129038327Y-109251301D01*
X128859698Y-109072673D01*
X128626309Y-108976000D01*
X128285750Y-108976000D01*
X128127000Y-109134750D01*
X127873000Y-109134750D01*
X127714250Y-108976000D01*
X127422380Y-108976000D01*
X127643698Y-108884327D01*
X127822327Y-108705699D01*
X127919000Y-108472310D01*
X127919000Y-107981750D01*
X127760250Y-107823000D01*
X127061000Y-107823000D01*
X127061000Y-108822250D01*
X127219750Y-108981000D01*
X127361620Y-108981000D01*
X127140302Y-109072673D01*
X126998654Y-109214320D01*
X126957809Y-109153191D01*
X126747765Y-109012843D01*
X126587678Y-108981000D01*
X126648250Y-108981000D01*
X126807000Y-108822250D01*
X126807000Y-107823000D01*
X126787000Y-107823000D01*
X126787000Y-107569000D01*
X126807000Y-107569000D01*
X126807000Y-106569750D01*
X127061000Y-106569750D01*
X127061000Y-107569000D01*
X127760250Y-107569000D01*
X127919000Y-107410250D01*
X127919000Y-106919690D01*
X127822327Y-106686301D01*
X127643698Y-106507673D01*
X127410309Y-106411000D01*
X127219750Y-106411000D01*
X127061000Y-106569750D01*
X126807000Y-106569750D01*
X126648250Y-106411000D01*
X126457691Y-106411000D01*
X126428540Y-106423075D01*
X126432936Y-106416496D01*
X126469945Y-106230440D01*
X126538000Y-106230440D01*
X126785765Y-106181157D01*
X126995809Y-106040809D01*
X127136157Y-105830765D01*
X127185440Y-105583000D01*
X127185440Y-104983000D01*
X127136157Y-104735235D01*
X127077868Y-104648000D01*
X127136157Y-104560765D01*
X127185440Y-104313000D01*
X127185440Y-103713000D01*
X127136157Y-103465235D01*
X127128784Y-103454200D01*
X127318841Y-103454200D01*
X127436664Y-103572023D01*
X127796084Y-103720900D01*
X128185116Y-103720900D01*
X128544536Y-103572023D01*
X128819623Y-103296936D01*
X128968500Y-102937516D01*
X128968500Y-102548484D01*
X128819623Y-102189064D01*
X128544536Y-101913977D01*
X128441381Y-101871249D01*
X128755746Y-101556884D01*
X128819371Y-101514371D01*
X128960816Y-101302683D01*
X128987787Y-101262319D01*
X128987787Y-101262318D01*
X128987788Y-101262317D01*
X129032000Y-101040048D01*
X129032000Y-101040044D01*
X129046927Y-100965001D01*
X129032000Y-100889958D01*
X129032000Y-99629591D01*
X129152157Y-99449765D01*
X129201440Y-99202000D01*
X129201440Y-99187000D01*
X129320553Y-99187000D01*
X129413001Y-99279448D01*
X129413001Y-99279448D01*
G37*
X129413001Y-99279448D02*
X129413000Y-101524957D01*
X129398073Y-101600000D01*
X129413000Y-101675043D01*
X129413000Y-101675047D01*
X129413001Y-101675052D01*
X129413000Y-106604957D01*
X129398073Y-106680000D01*
X129413000Y-106755043D01*
X129413000Y-106755047D01*
X129413001Y-106755052D01*
X129413000Y-110270553D01*
X129206011Y-110477542D01*
X129135000Y-110648978D01*
X129135000Y-110521750D01*
X128976250Y-110363000D01*
X128127000Y-110363000D01*
X128127000Y-110383000D01*
X127873000Y-110383000D01*
X127873000Y-110363000D01*
X127853000Y-110363000D01*
X127853000Y-110109000D01*
X127873000Y-110109000D01*
X127873000Y-109134750D01*
X128127000Y-109134750D01*
X128127000Y-110109000D01*
X128976250Y-110109000D01*
X129135000Y-109950250D01*
X129135000Y-109484690D01*
X129038327Y-109251301D01*
X128859698Y-109072673D01*
X128626309Y-108976000D01*
X128285750Y-108976000D01*
X128127000Y-109134750D01*
X127873000Y-109134750D01*
X127714250Y-108976000D01*
X127422380Y-108976000D01*
X127643698Y-108884327D01*
X127822327Y-108705699D01*
X127919000Y-108472310D01*
X127919000Y-107981750D01*
X127760250Y-107823000D01*
X127061000Y-107823000D01*
X127061000Y-108822250D01*
X127219750Y-108981000D01*
X127361620Y-108981000D01*
X127140302Y-109072673D01*
X126998654Y-109214320D01*
X126957809Y-109153191D01*
X126747765Y-109012843D01*
X126587678Y-108981000D01*
X126648250Y-108981000D01*
X126807000Y-108822250D01*
X126807000Y-107823000D01*
X126787000Y-107823000D01*
X126787000Y-107569000D01*
X126807000Y-107569000D01*
X126807000Y-106569750D01*
X127061000Y-106569750D01*
X127061000Y-107569000D01*
X127760250Y-107569000D01*
X127919000Y-107410250D01*
X127919000Y-106919690D01*
X127822327Y-106686301D01*
X127643698Y-106507673D01*
X127410309Y-106411000D01*
X127219750Y-106411000D01*
X127061000Y-106569750D01*
X126807000Y-106569750D01*
X126648250Y-106411000D01*
X126457691Y-106411000D01*
X126428540Y-106423075D01*
X126432936Y-106416496D01*
X126469945Y-106230440D01*
X126538000Y-106230440D01*
X126785765Y-106181157D01*
X126995809Y-106040809D01*
X127136157Y-105830765D01*
X127185440Y-105583000D01*
X127185440Y-104983000D01*
X127136157Y-104735235D01*
X127077868Y-104648000D01*
X127136157Y-104560765D01*
X127185440Y-104313000D01*
X127185440Y-103713000D01*
X127136157Y-103465235D01*
X127128784Y-103454200D01*
X127318841Y-103454200D01*
X127436664Y-103572023D01*
X127796084Y-103720900D01*
X128185116Y-103720900D01*
X128544536Y-103572023D01*
X128819623Y-103296936D01*
X128968500Y-102937516D01*
X128968500Y-102548484D01*
X128819623Y-102189064D01*
X128544536Y-101913977D01*
X128441381Y-101871249D01*
X128755746Y-101556884D01*
X128819371Y-101514371D01*
X128960816Y-101302683D01*
X128987787Y-101262319D01*
X128987787Y-101262318D01*
X128987788Y-101262317D01*
X129032000Y-101040048D01*
X129032000Y-101040044D01*
X129046927Y-100965001D01*
X129032000Y-100889958D01*
X129032000Y-99629591D01*
X129152157Y-99449765D01*
X129201440Y-99202000D01*
X129201440Y-99187000D01*
X129320553Y-99187000D01*
X129413001Y-99279448D01*
G36*
X121291843Y-99449765D02*
X121432191Y-99659809D01*
X121642235Y-99800157D01*
X121668937Y-99805468D01*
X121687576Y-99833364D01*
X121687578Y-99833366D01*
X121727254Y-99892745D01*
X121786634Y-99932422D01*
X122986801Y-101132590D01*
X122986800Y-102805358D01*
X122972868Y-102875400D01*
X122986800Y-102945441D01*
X122986800Y-102945445D01*
X123028064Y-103152895D01*
X123028065Y-103152896D01*
X123145576Y-103328764D01*
X123145578Y-103328766D01*
X123185254Y-103388145D01*
X123244634Y-103427822D01*
X124283178Y-104466367D01*
X124322854Y-104525746D01*
X124382233Y-104565422D01*
X124382235Y-104565424D01*
X124401603Y-104578366D01*
X124448132Y-104648000D01*
X124389843Y-104735235D01*
X124340560Y-104983000D01*
X124340560Y-105583000D01*
X124389843Y-105830765D01*
X124530191Y-106040809D01*
X124725141Y-106171071D01*
X124580634Y-106315578D01*
X124521255Y-106355254D01*
X124481579Y-106414633D01*
X124481576Y-106414636D01*
X124462937Y-106442532D01*
X124436235Y-106447843D01*
X124226191Y-106588191D01*
X124085843Y-106798235D01*
X124079000Y-106832637D01*
X124072157Y-106798235D01*
X123931809Y-106588191D01*
X123721765Y-106447843D01*
X123474000Y-106398560D01*
X123246856Y-106398560D01*
X123266200Y-106301312D01*
X123266200Y-106301308D01*
X123280132Y-106231267D01*
X123266200Y-106161225D01*
X123266200Y-104845042D01*
X123280132Y-104775000D01*
X123266200Y-104704958D01*
X123266200Y-104704954D01*
X123224936Y-104497504D01*
X123142661Y-104374371D01*
X123107424Y-104321635D01*
X123107422Y-104321633D01*
X123067746Y-104262254D01*
X123008367Y-104222578D01*
X122345423Y-103559635D01*
X122305746Y-103500254D01*
X122070496Y-103343064D01*
X121863046Y-103301800D01*
X121863041Y-103301800D01*
X121793000Y-103287868D01*
X121729676Y-103300464D01*
X121736157Y-103290765D01*
X121785440Y-103043000D01*
X121785440Y-102443000D01*
X121736157Y-102195235D01*
X121677868Y-102108000D01*
X121736157Y-102020765D01*
X121785440Y-101773000D01*
X121785440Y-101173000D01*
X121736157Y-100925235D01*
X121595809Y-100715191D01*
X121385765Y-100574843D01*
X121138000Y-100525560D01*
X119588000Y-100525560D01*
X119340235Y-100574843D01*
X119130191Y-100715191D01*
X119099048Y-100761800D01*
X117883440Y-100761800D01*
X117883440Y-100681000D01*
X117834157Y-100433235D01*
X117693809Y-100223191D01*
X117483765Y-100082843D01*
X117297200Y-100045733D01*
X117297200Y-99934188D01*
X117490113Y-99741275D01*
X117578235Y-99800157D01*
X117826000Y-99849440D01*
X118526000Y-99849440D01*
X118773765Y-99800157D01*
X118983809Y-99659809D01*
X119124157Y-99449765D01*
X119126000Y-99440500D01*
X119127843Y-99449765D01*
X119268191Y-99659809D01*
X119478235Y-99800157D01*
X119726000Y-99849440D01*
X120426000Y-99849440D01*
X120673765Y-99800157D01*
X120883809Y-99659809D01*
X121024157Y-99449765D01*
X121061267Y-99263200D01*
X121254733Y-99263200D01*
X121291843Y-99449765D01*
X121291843Y-99449765D01*
G37*
X121291843Y-99449765D02*
X121432191Y-99659809D01*
X121642235Y-99800157D01*
X121668937Y-99805468D01*
X121687576Y-99833364D01*
X121687578Y-99833366D01*
X121727254Y-99892745D01*
X121786634Y-99932422D01*
X122986801Y-101132590D01*
X122986800Y-102805358D01*
X122972868Y-102875400D01*
X122986800Y-102945441D01*
X122986800Y-102945445D01*
X123028064Y-103152895D01*
X123028065Y-103152896D01*
X123145576Y-103328764D01*
X123145578Y-103328766D01*
X123185254Y-103388145D01*
X123244634Y-103427822D01*
X124283178Y-104466367D01*
X124322854Y-104525746D01*
X124382233Y-104565422D01*
X124382235Y-104565424D01*
X124401603Y-104578366D01*
X124448132Y-104648000D01*
X124389843Y-104735235D01*
X124340560Y-104983000D01*
X124340560Y-105583000D01*
X124389843Y-105830765D01*
X124530191Y-106040809D01*
X124725141Y-106171071D01*
X124580634Y-106315578D01*
X124521255Y-106355254D01*
X124481579Y-106414633D01*
X124481576Y-106414636D01*
X124462937Y-106442532D01*
X124436235Y-106447843D01*
X124226191Y-106588191D01*
X124085843Y-106798235D01*
X124079000Y-106832637D01*
X124072157Y-106798235D01*
X123931809Y-106588191D01*
X123721765Y-106447843D01*
X123474000Y-106398560D01*
X123246856Y-106398560D01*
X123266200Y-106301312D01*
X123266200Y-106301308D01*
X123280132Y-106231267D01*
X123266200Y-106161225D01*
X123266200Y-104845042D01*
X123280132Y-104775000D01*
X123266200Y-104704958D01*
X123266200Y-104704954D01*
X123224936Y-104497504D01*
X123142661Y-104374371D01*
X123107424Y-104321635D01*
X123107422Y-104321633D01*
X123067746Y-104262254D01*
X123008367Y-104222578D01*
X122345423Y-103559635D01*
X122305746Y-103500254D01*
X122070496Y-103343064D01*
X121863046Y-103301800D01*
X121863041Y-103301800D01*
X121793000Y-103287868D01*
X121729676Y-103300464D01*
X121736157Y-103290765D01*
X121785440Y-103043000D01*
X121785440Y-102443000D01*
X121736157Y-102195235D01*
X121677868Y-102108000D01*
X121736157Y-102020765D01*
X121785440Y-101773000D01*
X121785440Y-101173000D01*
X121736157Y-100925235D01*
X121595809Y-100715191D01*
X121385765Y-100574843D01*
X121138000Y-100525560D01*
X119588000Y-100525560D01*
X119340235Y-100574843D01*
X119130191Y-100715191D01*
X119099048Y-100761800D01*
X117883440Y-100761800D01*
X117883440Y-100681000D01*
X117834157Y-100433235D01*
X117693809Y-100223191D01*
X117483765Y-100082843D01*
X117297200Y-100045733D01*
X117297200Y-99934188D01*
X117490113Y-99741275D01*
X117578235Y-99800157D01*
X117826000Y-99849440D01*
X118526000Y-99849440D01*
X118773765Y-99800157D01*
X118983809Y-99659809D01*
X119124157Y-99449765D01*
X119126000Y-99440500D01*
X119127843Y-99449765D01*
X119268191Y-99659809D01*
X119478235Y-99800157D01*
X119726000Y-99849440D01*
X120426000Y-99849440D01*
X120673765Y-99800157D01*
X120883809Y-99659809D01*
X121024157Y-99449765D01*
X121061267Y-99263200D01*
X121254733Y-99263200D01*
X121291843Y-99449765D01*
G36*
X125514301Y-97432090D02*
X125496191Y-97444191D01*
X125355843Y-97654235D01*
X125306560Y-97902000D01*
X125306560Y-99202000D01*
X125355843Y-99449765D01*
X125496191Y-99659809D01*
X125706235Y-99800157D01*
X125954000Y-99849440D01*
X126654000Y-99849440D01*
X126901765Y-99800157D01*
X127111809Y-99659809D01*
X127252157Y-99449765D01*
X127254000Y-99440500D01*
X127255843Y-99449765D01*
X127396191Y-99659809D01*
X127508000Y-99734518D01*
X127508001Y-100649369D01*
X127446370Y-100711000D01*
X126989537Y-100711000D01*
X126785765Y-100574843D01*
X126538000Y-100525560D01*
X124988000Y-100525560D01*
X124851200Y-100552771D01*
X124851200Y-99724362D01*
X124947809Y-99659809D01*
X125088157Y-99449765D01*
X125137440Y-99202000D01*
X125137440Y-97902000D01*
X125088157Y-97654235D01*
X124947809Y-97444191D01*
X124811632Y-97353200D01*
X125435412Y-97353200D01*
X125514301Y-97432090D01*
X125514301Y-97432090D01*
G37*
X125514301Y-97432090D02*
X125496191Y-97444191D01*
X125355843Y-97654235D01*
X125306560Y-97902000D01*
X125306560Y-99202000D01*
X125355843Y-99449765D01*
X125496191Y-99659809D01*
X125706235Y-99800157D01*
X125954000Y-99849440D01*
X126654000Y-99849440D01*
X126901765Y-99800157D01*
X127111809Y-99659809D01*
X127252157Y-99449765D01*
X127254000Y-99440500D01*
X127255843Y-99449765D01*
X127396191Y-99659809D01*
X127508000Y-99734518D01*
X127508001Y-100649369D01*
X127446370Y-100711000D01*
X126989537Y-100711000D01*
X126785765Y-100574843D01*
X126538000Y-100525560D01*
X124988000Y-100525560D01*
X124851200Y-100552771D01*
X124851200Y-99724362D01*
X124947809Y-99659809D01*
X125088157Y-99449765D01*
X125137440Y-99202000D01*
X125137440Y-97902000D01*
X125088157Y-97654235D01*
X124947809Y-97444191D01*
X124811632Y-97353200D01*
X125435412Y-97353200D01*
X125514301Y-97432090D01*
M02*
