G04 #@! TF.GenerationSoftware,KiCad,Pcbnew,(5.0.0-rc2-dev-444-g2974a2c10)*
G04 #@! TF.CreationDate,2018-10-05T22:12:32-07:00*
G04 #@! TF.ProjectId,retro meter v03,726574726F206D65746572207630332E,v03*
G04 #@! TF.SameCoordinates,Original*
G04 #@! TF.FileFunction,Soldermask,Top*
G04 #@! TF.FilePolarity,Negative*
%FSLAX46Y46*%
G04 Gerber Fmt 4.6, Leading zero omitted, Abs format (unit mm)*
G04 Created by KiCad (PCBNEW (5.0.0-rc2-dev-444-g2974a2c10)) date 10/05/18 22:12:32*
%MOMM*%
%LPD*%
G01*
G04 APERTURE LIST*
%ADD10C,3.400000*%
%ADD11C,2.900000*%
%ADD12C,2.100000*%
%ADD13R,1.900000X1.700000*%
%ADD14R,1.700000X1.900000*%
%ADD15R,1.950000X1.000000*%
%ADD16O,2.100000X2.100000*%
%ADD17R,2.100000X2.100000*%
%ADD18C,2.000000*%
%ADD19O,2.000000X2.000000*%
%ADD20R,1.100000X1.700000*%
%ADD21R,1.700000X1.100000*%
%ADD22R,1.320000X0.920000*%
%ADD23R,1.400000X1.650000*%
%ADD24R,1.650000X1.400000*%
G04 APERTURE END LIST*
D10*
X105404800Y-95245000D03*
X105404800Y-113025000D03*
D11*
X151124800Y-113025000D03*
X151124800Y-95245000D03*
D12*
X147314800Y-93975000D03*
X144774800Y-93975000D03*
X142234800Y-93975000D03*
X139694800Y-93975000D03*
X137154800Y-93975000D03*
X134614800Y-93975000D03*
X132074800Y-93975000D03*
X129534800Y-93975000D03*
X126994800Y-93975000D03*
X124454800Y-93975000D03*
X121914800Y-93975000D03*
X119374800Y-93975000D03*
X147314800Y-114295000D03*
X144774800Y-114295000D03*
X142234800Y-114295000D03*
X139694800Y-114295000D03*
X137154800Y-114295000D03*
X134614800Y-114295000D03*
X132074800Y-114295000D03*
X129534800Y-114295000D03*
X126994800Y-114295000D03*
X124454800Y-114295000D03*
X121914800Y-114295000D03*
X119374800Y-114295000D03*
X116834800Y-114295000D03*
X114294800Y-114295000D03*
X111754800Y-114295000D03*
X109214800Y-114295000D03*
D13*
X138985000Y-108585000D03*
X141685000Y-108585000D03*
D14*
X109728000Y-105838000D03*
X109728000Y-108538000D03*
D15*
X125763000Y-101473000D03*
X125763000Y-102743000D03*
X125763000Y-104013000D03*
X125763000Y-105283000D03*
X120363000Y-105283000D03*
X120363000Y-104013000D03*
X120363000Y-102743000D03*
X120363000Y-101473000D03*
D16*
X105918000Y-102108000D03*
D17*
X105918000Y-99568000D03*
X114604800Y-94135000D03*
D16*
X112064800Y-94135000D03*
X150495000Y-108331000D03*
D17*
X150495000Y-105791000D03*
D16*
X150622000Y-99314000D03*
X148082000Y-99314000D03*
D17*
X145542000Y-99314000D03*
D16*
X105918000Y-108331000D03*
D17*
X105918000Y-105791000D03*
X145415000Y-105791000D03*
D16*
X145415000Y-108331000D03*
X147955000Y-108331000D03*
D17*
X147955000Y-105791000D03*
D13*
X138985000Y-105664000D03*
X141685000Y-105664000D03*
X141685000Y-102870000D03*
X138985000Y-102870000D03*
D18*
X114046000Y-106426000D03*
D19*
X114046000Y-108966000D03*
D13*
X114634000Y-97790000D03*
X111934000Y-97790000D03*
D20*
X117160000Y-110236000D03*
X119060000Y-110236000D03*
X117160000Y-107696000D03*
X119060000Y-107696000D03*
X109794000Y-100330000D03*
X111694000Y-100330000D03*
X109794000Y-102616000D03*
X111694000Y-102616000D03*
D21*
X116586000Y-101031000D03*
X116586000Y-102931000D03*
D20*
X120076000Y-98552000D03*
X118176000Y-98552000D03*
X122240000Y-98552000D03*
X124140000Y-98552000D03*
X126304000Y-98552000D03*
X128204000Y-98552000D03*
D22*
X135788400Y-108778000D03*
X135788400Y-110678000D03*
X133350000Y-110678000D03*
X133350000Y-109728000D03*
X133350000Y-108778000D03*
X133350000Y-103825000D03*
X133350000Y-104775000D03*
X133350000Y-105725000D03*
X135788400Y-105725000D03*
X135788400Y-103825000D03*
X135788400Y-98872000D03*
X135788400Y-100772000D03*
X133350000Y-100772000D03*
X133350000Y-99822000D03*
X133350000Y-98872000D03*
D23*
X121428000Y-110236000D03*
X123428000Y-110236000D03*
X128000000Y-110236000D03*
X126000000Y-110236000D03*
D24*
X114046000Y-102781000D03*
X114046000Y-100781000D03*
D20*
X123124000Y-107696000D03*
X121224000Y-107696000D03*
X125034000Y-107696000D03*
X126934000Y-107696000D03*
M02*
