M48
;DRILL file {KiCad (5.0.0-rc2-dev-444-g2974a2c10)} date 10/05/18 22:12:36
;FORMAT={-:-/ absolute / inch / decimal}
FMAT,2
INCH,TZ
T1C0.0130
T2C0.0200
T3C0.0315
T4C0.0394
T5C0.0984
T6C0.0984
%
G90
G05
M72
T1
X4.825Y-4.025
X4.93Y-3.935
X5.039Y-4.045
X5.083Y-3.987
X5.175Y-3.925
X5.175Y-4.125
X5.175Y-4.325
X5.35Y-3.775
X5.475Y-3.9
X5.525Y-4.375
T2
X5.125Y-3.875
X5.125Y-4.375
T3
X4.49Y-4.19
X4.49Y-4.29
T4
X5.725Y-4.165
X5.725Y-4.265
X4.2998Y-4.4998
X4.3998Y-4.4998
X4.4998Y-4.4998
X4.5998Y-4.4998
X4.6998Y-3.6998
X4.6998Y-4.4998
X4.7998Y-3.6998
X4.7998Y-4.4998
X4.8998Y-3.6998
X4.8998Y-4.4998
X4.9998Y-3.6998
X4.9998Y-4.4998
X5.0998Y-3.6998
X5.0998Y-4.4998
X5.1998Y-3.6998
X5.1998Y-4.4998
X5.2998Y-3.6998
X5.2998Y-4.4998
X5.3998Y-3.6998
X5.3998Y-4.4998
X5.4998Y-3.6998
X5.4998Y-4.4998
X5.5998Y-3.6998
X5.5998Y-4.4998
X5.6998Y-3.6998
X5.6998Y-4.4998
X5.7998Y-3.6998
X5.7998Y-4.4998
X5.925Y-4.165
X5.925Y-4.265
X5.825Y-4.165
X5.825Y-4.265
X5.73Y-3.91
X5.83Y-3.91
X5.93Y-3.91
X4.412Y-3.7061
X4.512Y-3.7061
X4.17Y-3.92
X4.17Y-4.02
X4.17Y-4.165
X4.17Y-4.265
T5
X4.1498Y-3.7498
X4.1498Y-4.4498
T6
X5.9498Y-3.7498
X5.9498Y-4.4498
T0
M30
