G04 #@! TF.GenerationSoftware,KiCad,Pcbnew,(5.0.0-rc2-dev-444-g2974a2c10)*
G04 #@! TF.CreationDate,2018-10-05T22:12:32-07:00*
G04 #@! TF.ProjectId,retro meter v03,726574726F206D65746572207630332E,v03*
G04 #@! TF.SameCoordinates,Original*
G04 #@! TF.FileFunction,Legend,Bot*
G04 #@! TF.FilePolarity,Positive*
%FSLAX46Y46*%
G04 Gerber Fmt 4.6, Leading zero omitted, Abs format (unit mm)*
G04 Created by KiCad (PCBNEW (5.0.0-rc2-dev-444-g2974a2c10)) date 10/05/18 22:12:32*
%MOMM*%
%LPD*%
G01*
G04 APERTURE LIST*
%ADD10C,0.100000*%
%ADD11C,0.150000*%
%ADD12C,0.203200*%
%ADD13C,0.080000*%
G04 APERTURE END LIST*
D10*
X140873657Y-107210990D02*
X140873657Y-106710990D01*
X140683180Y-106710990D01*
X140635561Y-106734800D01*
X140611752Y-106758609D01*
X140587942Y-106806228D01*
X140587942Y-106877657D01*
X140611752Y-106925276D01*
X140635561Y-106949085D01*
X140683180Y-106972895D01*
X140873657Y-106972895D01*
X140373657Y-107210990D02*
X140373657Y-106710990D01*
X140135561Y-106949085D02*
X139968895Y-106949085D01*
X139897466Y-107210990D02*
X140135561Y-107210990D01*
X140135561Y-106710990D01*
X139897466Y-106710990D01*
X139730800Y-106710990D02*
X139397466Y-106710990D01*
X139730800Y-107210990D01*
X139397466Y-107210990D01*
X139111752Y-106710990D02*
X139016514Y-106710990D01*
X138968895Y-106734800D01*
X138921276Y-106782419D01*
X138897466Y-106877657D01*
X138897466Y-107044323D01*
X138921276Y-107139561D01*
X138968895Y-107187180D01*
X139016514Y-107210990D01*
X139111752Y-107210990D01*
X139159371Y-107187180D01*
X139206990Y-107139561D01*
X139230800Y-107044323D01*
X139230800Y-106877657D01*
X139206990Y-106782419D01*
X139159371Y-106734800D01*
X139111752Y-106710990D01*
X138302228Y-106949085D02*
X137921276Y-106949085D01*
X137921276Y-107091942D02*
X138302228Y-107091942D01*
X137302228Y-107210990D02*
X137302228Y-106710990D01*
X137183180Y-106710990D01*
X137111752Y-106734800D01*
X137064133Y-106782419D01*
X137040323Y-106830038D01*
X137016514Y-106925276D01*
X137016514Y-106996704D01*
X137040323Y-107091942D01*
X137064133Y-107139561D01*
X137111752Y-107187180D01*
X137183180Y-107210990D01*
X137302228Y-107210990D01*
X136540323Y-107210990D02*
X136826038Y-107210990D01*
X136683180Y-107210990D02*
X136683180Y-106710990D01*
X136730800Y-106782419D01*
X136778419Y-106830038D01*
X136826038Y-106853847D01*
X136230800Y-106710990D02*
X136183180Y-106710990D01*
X136135561Y-106734800D01*
X136111752Y-106758609D01*
X136087942Y-106806228D01*
X136064133Y-106901466D01*
X136064133Y-107020514D01*
X136087942Y-107115752D01*
X136111752Y-107163371D01*
X136135561Y-107187180D01*
X136183180Y-107210990D01*
X136230800Y-107210990D01*
X136278419Y-107187180D01*
X136302228Y-107163371D01*
X136326038Y-107115752D01*
X136349847Y-107020514D01*
X136349847Y-106901466D01*
X136326038Y-106806228D01*
X136302228Y-106758609D01*
X136278419Y-106734800D01*
X136230800Y-106710990D01*
D11*
X126178390Y-98140780D02*
X126511723Y-97664590D01*
X126749819Y-98140780D02*
X126749819Y-97140780D01*
X126368866Y-97140780D01*
X126273628Y-97188400D01*
X126226009Y-97236019D01*
X126178390Y-97331257D01*
X126178390Y-97474114D01*
X126226009Y-97569352D01*
X126273628Y-97616971D01*
X126368866Y-97664590D01*
X126749819Y-97664590D01*
X125368866Y-98093161D02*
X125464104Y-98140780D01*
X125654580Y-98140780D01*
X125749819Y-98093161D01*
X125797438Y-97997923D01*
X125797438Y-97616971D01*
X125749819Y-97521733D01*
X125654580Y-97474114D01*
X125464104Y-97474114D01*
X125368866Y-97521733D01*
X125321247Y-97616971D01*
X125321247Y-97712209D01*
X125797438Y-97807447D01*
X125035533Y-97474114D02*
X124654580Y-97474114D01*
X124892676Y-97140780D02*
X124892676Y-97997923D01*
X124845057Y-98093161D01*
X124749819Y-98140780D01*
X124654580Y-98140780D01*
X124321247Y-98140780D02*
X124321247Y-97474114D01*
X124321247Y-97664590D02*
X124273628Y-97569352D01*
X124226009Y-97521733D01*
X124130771Y-97474114D01*
X124035533Y-97474114D01*
X123559342Y-98140780D02*
X123654580Y-98093161D01*
X123702200Y-98045542D01*
X123749819Y-97950304D01*
X123749819Y-97664590D01*
X123702200Y-97569352D01*
X123654580Y-97521733D01*
X123559342Y-97474114D01*
X123416485Y-97474114D01*
X123321247Y-97521733D01*
X123273628Y-97569352D01*
X123226009Y-97664590D01*
X123226009Y-97950304D01*
X123273628Y-98045542D01*
X123321247Y-98093161D01*
X123416485Y-98140780D01*
X123559342Y-98140780D01*
X121464104Y-98045542D02*
X121511723Y-98093161D01*
X121654580Y-98140780D01*
X121749819Y-98140780D01*
X121892676Y-98093161D01*
X121987914Y-97997923D01*
X122035533Y-97902685D01*
X122083152Y-97712209D01*
X122083152Y-97569352D01*
X122035533Y-97378876D01*
X121987914Y-97283638D01*
X121892676Y-97188400D01*
X121749819Y-97140780D01*
X121654580Y-97140780D01*
X121511723Y-97188400D01*
X121464104Y-97236019D01*
X121178390Y-97140780D02*
X120845057Y-98140780D01*
X120511723Y-97140780D01*
X119416485Y-98140780D02*
X119416485Y-97140780D01*
X119083152Y-97855066D01*
X118749819Y-97140780D01*
X118749819Y-98140780D01*
X117892676Y-98093161D02*
X117987914Y-98140780D01*
X118178390Y-98140780D01*
X118273628Y-98093161D01*
X118321247Y-97997923D01*
X118321247Y-97616971D01*
X118273628Y-97521733D01*
X118178390Y-97474114D01*
X117987914Y-97474114D01*
X117892676Y-97521733D01*
X117845057Y-97616971D01*
X117845057Y-97712209D01*
X118321247Y-97807447D01*
X117559342Y-97474114D02*
X117178390Y-97474114D01*
X117416485Y-97140780D02*
X117416485Y-97997923D01*
X117368866Y-98093161D01*
X117273628Y-98140780D01*
X117178390Y-98140780D01*
X116464104Y-98093161D02*
X116559342Y-98140780D01*
X116749819Y-98140780D01*
X116845057Y-98093161D01*
X116892676Y-97997923D01*
X116892676Y-97616971D01*
X116845057Y-97521733D01*
X116749819Y-97474114D01*
X116559342Y-97474114D01*
X116464104Y-97521733D01*
X116416485Y-97616971D01*
X116416485Y-97712209D01*
X116892676Y-97807447D01*
X115987914Y-98140780D02*
X115987914Y-97474114D01*
X115987914Y-97664590D02*
X115940295Y-97569352D01*
X115892676Y-97521733D01*
X115797438Y-97474114D01*
X115702200Y-97474114D01*
X114702200Y-97140780D02*
X114464104Y-98140780D01*
X114273628Y-97426495D01*
X114083152Y-98140780D01*
X113845057Y-97140780D01*
X113464104Y-98140780D02*
X113464104Y-97474114D01*
X113464104Y-97140780D02*
X113511723Y-97188400D01*
X113464104Y-97236019D01*
X113416485Y-97188400D01*
X113464104Y-97140780D01*
X113464104Y-97236019D01*
X112987914Y-97474114D02*
X112987914Y-98140780D01*
X112987914Y-97569352D02*
X112940295Y-97521733D01*
X112845057Y-97474114D01*
X112702200Y-97474114D01*
X112606961Y-97521733D01*
X112559342Y-97616971D01*
X112559342Y-98140780D01*
X111654580Y-97474114D02*
X111654580Y-98283638D01*
X111702200Y-98378876D01*
X111749819Y-98426495D01*
X111845057Y-98474114D01*
X111987914Y-98474114D01*
X112083152Y-98426495D01*
X111654580Y-98093161D02*
X111749819Y-98140780D01*
X111940295Y-98140780D01*
X112035533Y-98093161D01*
X112083152Y-98045542D01*
X112130771Y-97950304D01*
X112130771Y-97664590D01*
X112083152Y-97569352D01*
X112035533Y-97521733D01*
X111940295Y-97474114D01*
X111749819Y-97474114D01*
X111654580Y-97521733D01*
D10*
X116030533Y-100665400D02*
X116063866Y-100698733D01*
X116163866Y-100732066D01*
X116230533Y-100732066D01*
X116330533Y-100698733D01*
X116397200Y-100632066D01*
X116430533Y-100565400D01*
X116463866Y-100432066D01*
X116463866Y-100332066D01*
X116430533Y-100198733D01*
X116397200Y-100132066D01*
X116330533Y-100065400D01*
X116230533Y-100032066D01*
X116163866Y-100032066D01*
X116063866Y-100065400D01*
X116030533Y-100098733D01*
X115463866Y-100698733D02*
X115530533Y-100732066D01*
X115663866Y-100732066D01*
X115730533Y-100698733D01*
X115763866Y-100632066D01*
X115763866Y-100365400D01*
X115730533Y-100298733D01*
X115663866Y-100265400D01*
X115530533Y-100265400D01*
X115463866Y-100298733D01*
X115430533Y-100365400D01*
X115430533Y-100432066D01*
X115763866Y-100498733D01*
X114830533Y-100732066D02*
X114830533Y-100032066D01*
X114830533Y-100698733D02*
X114897200Y-100732066D01*
X115030533Y-100732066D01*
X115097200Y-100698733D01*
X115130533Y-100665400D01*
X115163866Y-100598733D01*
X115163866Y-100398733D01*
X115130533Y-100332066D01*
X115097200Y-100298733D01*
X115030533Y-100265400D01*
X114897200Y-100265400D01*
X114830533Y-100298733D01*
X114197200Y-100732066D02*
X114197200Y-100365400D01*
X114230533Y-100298733D01*
X114297200Y-100265400D01*
X114430533Y-100265400D01*
X114497200Y-100298733D01*
X114197200Y-100698733D02*
X114263866Y-100732066D01*
X114430533Y-100732066D01*
X114497200Y-100698733D01*
X114530533Y-100632066D01*
X114530533Y-100565400D01*
X114497200Y-100498733D01*
X114430533Y-100465400D01*
X114263866Y-100465400D01*
X114197200Y-100432066D01*
X113863866Y-100732066D02*
X113863866Y-100265400D01*
X113863866Y-100398733D02*
X113830533Y-100332066D01*
X113797200Y-100298733D01*
X113730533Y-100265400D01*
X113663866Y-100265400D01*
X112530533Y-100065400D02*
X112597200Y-100032066D01*
X112697200Y-100032066D01*
X112797200Y-100065400D01*
X112863866Y-100132066D01*
X112897200Y-100198733D01*
X112930533Y-100332066D01*
X112930533Y-100432066D01*
X112897200Y-100565400D01*
X112863866Y-100632066D01*
X112797200Y-100698733D01*
X112697200Y-100732066D01*
X112630533Y-100732066D01*
X112530533Y-100698733D01*
X112497200Y-100665400D01*
X112497200Y-100432066D01*
X112630533Y-100432066D01*
X112197200Y-100732066D02*
X112197200Y-100265400D01*
X112197200Y-100398733D02*
X112163866Y-100332066D01*
X112130533Y-100298733D01*
X112063866Y-100265400D01*
X111997200Y-100265400D01*
X111663866Y-100732066D02*
X111730533Y-100698733D01*
X111763866Y-100665400D01*
X111797200Y-100598733D01*
X111797200Y-100398733D01*
X111763866Y-100332066D01*
X111730533Y-100298733D01*
X111663866Y-100265400D01*
X111563866Y-100265400D01*
X111497200Y-100298733D01*
X111463866Y-100332066D01*
X111430533Y-100398733D01*
X111430533Y-100598733D01*
X111463866Y-100665400D01*
X111497200Y-100698733D01*
X111563866Y-100732066D01*
X111663866Y-100732066D01*
X111197200Y-100265400D02*
X111030533Y-100732066D01*
X110863866Y-100265400D01*
X110330533Y-100698733D02*
X110397200Y-100732066D01*
X110530533Y-100732066D01*
X110597200Y-100698733D01*
X110630533Y-100632066D01*
X110630533Y-100365400D01*
X110597200Y-100298733D01*
X110530533Y-100265400D01*
X110397200Y-100265400D01*
X110330533Y-100298733D01*
X110297200Y-100365400D01*
X110297200Y-100432066D01*
X110630533Y-100498733D01*
X116463866Y-101848733D02*
X116363866Y-101882066D01*
X116197200Y-101882066D01*
X116130533Y-101848733D01*
X116097200Y-101815400D01*
X116063866Y-101748733D01*
X116063866Y-101682066D01*
X116097200Y-101615400D01*
X116130533Y-101582066D01*
X116197200Y-101548733D01*
X116330533Y-101515400D01*
X116397200Y-101482066D01*
X116430533Y-101448733D01*
X116463866Y-101382066D01*
X116463866Y-101315400D01*
X116430533Y-101248733D01*
X116397200Y-101215400D01*
X116330533Y-101182066D01*
X116163866Y-101182066D01*
X116063866Y-101215400D01*
X115863866Y-101415400D02*
X115597200Y-101415400D01*
X115763866Y-101182066D02*
X115763866Y-101782066D01*
X115730533Y-101848733D01*
X115663866Y-101882066D01*
X115597200Y-101882066D01*
X115063866Y-101415400D02*
X115063866Y-101882066D01*
X115363866Y-101415400D02*
X115363866Y-101782066D01*
X115330533Y-101848733D01*
X115263866Y-101882066D01*
X115163866Y-101882066D01*
X115097200Y-101848733D01*
X115063866Y-101815400D01*
X114430533Y-101882066D02*
X114430533Y-101182066D01*
X114430533Y-101848733D02*
X114497200Y-101882066D01*
X114630533Y-101882066D01*
X114697200Y-101848733D01*
X114730533Y-101815400D01*
X114763866Y-101748733D01*
X114763866Y-101548733D01*
X114730533Y-101482066D01*
X114697200Y-101448733D01*
X114630533Y-101415400D01*
X114497200Y-101415400D01*
X114430533Y-101448733D01*
X114097200Y-101882066D02*
X114097200Y-101415400D01*
X114097200Y-101182066D02*
X114130533Y-101215400D01*
X114097200Y-101248733D01*
X114063866Y-101215400D01*
X114097200Y-101182066D01*
X114097200Y-101248733D01*
X113663866Y-101882066D02*
X113730533Y-101848733D01*
X113763866Y-101815400D01*
X113797200Y-101748733D01*
X113797200Y-101548733D01*
X113763866Y-101482066D01*
X113730533Y-101448733D01*
X113663866Y-101415400D01*
X113563866Y-101415400D01*
X113497200Y-101448733D01*
X113463866Y-101482066D01*
X113430533Y-101548733D01*
X113430533Y-101748733D01*
X113463866Y-101815400D01*
X113497200Y-101848733D01*
X113563866Y-101882066D01*
X113663866Y-101882066D01*
X113163866Y-101848733D02*
X113097200Y-101882066D01*
X112963866Y-101882066D01*
X112897200Y-101848733D01*
X112863866Y-101782066D01*
X112863866Y-101748733D01*
X112897200Y-101682066D01*
X112963866Y-101648733D01*
X113063866Y-101648733D01*
X113130533Y-101615400D01*
X113163866Y-101548733D01*
X113163866Y-101515400D01*
X113130533Y-101448733D01*
X113063866Y-101415400D01*
X112963866Y-101415400D01*
X112897200Y-101448733D01*
X127386533Y-100032066D02*
X127386533Y-100532066D01*
X127419866Y-100632066D01*
X127486533Y-100698733D01*
X127586533Y-100732066D01*
X127653200Y-100732066D01*
X126953200Y-100732066D02*
X127019866Y-100698733D01*
X127053200Y-100665400D01*
X127086533Y-100598733D01*
X127086533Y-100398733D01*
X127053200Y-100332066D01*
X127019866Y-100298733D01*
X126953200Y-100265400D01*
X126853200Y-100265400D01*
X126786533Y-100298733D01*
X126753200Y-100332066D01*
X126719866Y-100398733D01*
X126719866Y-100598733D01*
X126753200Y-100665400D01*
X126786533Y-100698733D01*
X126853200Y-100732066D01*
X126953200Y-100732066D01*
X126419866Y-100732066D02*
X126419866Y-100032066D01*
X126119866Y-100732066D02*
X126119866Y-100365400D01*
X126153200Y-100298733D01*
X126219866Y-100265400D01*
X126319866Y-100265400D01*
X126386533Y-100298733D01*
X126419866Y-100332066D01*
X125786533Y-100265400D02*
X125786533Y-100732066D01*
X125786533Y-100332066D02*
X125753200Y-100298733D01*
X125686533Y-100265400D01*
X125586533Y-100265400D01*
X125519866Y-100298733D01*
X125486533Y-100365400D01*
X125486533Y-100732066D01*
X124619866Y-100732066D02*
X124619866Y-100032066D01*
X124353200Y-100032066D01*
X124286533Y-100065400D01*
X124253200Y-100098733D01*
X124219866Y-100165400D01*
X124219866Y-100265400D01*
X124253200Y-100332066D01*
X124286533Y-100365400D01*
X124353200Y-100398733D01*
X124619866Y-100398733D01*
X123619866Y-100732066D02*
X123619866Y-100365400D01*
X123653200Y-100298733D01*
X123719866Y-100265400D01*
X123853200Y-100265400D01*
X123919866Y-100298733D01*
X123619866Y-100698733D02*
X123686533Y-100732066D01*
X123853200Y-100732066D01*
X123919866Y-100698733D01*
X123953200Y-100632066D01*
X123953200Y-100565400D01*
X123919866Y-100498733D01*
X123853200Y-100465400D01*
X123686533Y-100465400D01*
X123619866Y-100432066D01*
X123286533Y-100732066D02*
X123286533Y-100265400D01*
X123286533Y-100398733D02*
X123253200Y-100332066D01*
X123219866Y-100298733D01*
X123153200Y-100265400D01*
X123086533Y-100265400D01*
X122853200Y-100732066D02*
X122853200Y-100032066D01*
X122786533Y-100465400D02*
X122586533Y-100732066D01*
X122586533Y-100265400D02*
X122853200Y-100532066D01*
X122253200Y-100032066D02*
X122319866Y-100165400D01*
X121986533Y-100698733D02*
X121919866Y-100732066D01*
X121786533Y-100732066D01*
X121719866Y-100698733D01*
X121686533Y-100632066D01*
X121686533Y-100598733D01*
X121719866Y-100532066D01*
X121786533Y-100498733D01*
X121886533Y-100498733D01*
X121953200Y-100465400D01*
X121986533Y-100398733D01*
X121986533Y-100365400D01*
X121953200Y-100298733D01*
X121886533Y-100265400D01*
X121786533Y-100265400D01*
X121719866Y-100298733D01*
X126353200Y-101182066D02*
X126186533Y-101882066D01*
X126053200Y-101382066D01*
X125919866Y-101882066D01*
X125753200Y-101182066D01*
X125386533Y-101882066D02*
X125453200Y-101848733D01*
X125486533Y-101815400D01*
X125519866Y-101748733D01*
X125519866Y-101548733D01*
X125486533Y-101482066D01*
X125453200Y-101448733D01*
X125386533Y-101415400D01*
X125286533Y-101415400D01*
X125219866Y-101448733D01*
X125186533Y-101482066D01*
X125153200Y-101548733D01*
X125153200Y-101748733D01*
X125186533Y-101815400D01*
X125219866Y-101848733D01*
X125286533Y-101882066D01*
X125386533Y-101882066D01*
X124853200Y-101882066D02*
X124853200Y-101415400D01*
X124853200Y-101548733D02*
X124819866Y-101482066D01*
X124786533Y-101448733D01*
X124719866Y-101415400D01*
X124653200Y-101415400D01*
X124419866Y-101882066D02*
X124419866Y-101182066D01*
X124353200Y-101615400D02*
X124153200Y-101882066D01*
X124153200Y-101415400D02*
X124419866Y-101682066D01*
X123886533Y-101848733D02*
X123819866Y-101882066D01*
X123686533Y-101882066D01*
X123619866Y-101848733D01*
X123586533Y-101782066D01*
X123586533Y-101748733D01*
X123619866Y-101682066D01*
X123686533Y-101648733D01*
X123786533Y-101648733D01*
X123853200Y-101615400D01*
X123886533Y-101548733D01*
X123886533Y-101515400D01*
X123853200Y-101448733D01*
X123786533Y-101415400D01*
X123686533Y-101415400D01*
X123619866Y-101448733D01*
X123286533Y-101882066D02*
X123286533Y-101182066D01*
X122986533Y-101882066D02*
X122986533Y-101515400D01*
X123019866Y-101448733D01*
X123086533Y-101415400D01*
X123186533Y-101415400D01*
X123253200Y-101448733D01*
X123286533Y-101482066D01*
X122553200Y-101882066D02*
X122619866Y-101848733D01*
X122653200Y-101815400D01*
X122686533Y-101748733D01*
X122686533Y-101548733D01*
X122653200Y-101482066D01*
X122619866Y-101448733D01*
X122553200Y-101415400D01*
X122453200Y-101415400D01*
X122386533Y-101448733D01*
X122353200Y-101482066D01*
X122319866Y-101548733D01*
X122319866Y-101748733D01*
X122353200Y-101815400D01*
X122386533Y-101848733D01*
X122453200Y-101882066D01*
X122553200Y-101882066D01*
X122019866Y-101415400D02*
X122019866Y-102115400D01*
X122019866Y-101448733D02*
X121953200Y-101415400D01*
X121819866Y-101415400D01*
X121753200Y-101448733D01*
X121719866Y-101482066D01*
X121686533Y-101548733D01*
X121686533Y-101748733D01*
X121719866Y-101815400D01*
X121753200Y-101848733D01*
X121819866Y-101882066D01*
X121953200Y-101882066D01*
X122019866Y-101848733D01*
X129549114Y-112118009D02*
X129525304Y-112094200D01*
X129477685Y-112070390D01*
X129358638Y-112070390D01*
X129311019Y-112094200D01*
X129287209Y-112118009D01*
X129263400Y-112165628D01*
X129263400Y-112213247D01*
X129287209Y-112284676D01*
X129572923Y-112570390D01*
X129263400Y-112570390D01*
X128953876Y-112070390D02*
X128906257Y-112070390D01*
X128858638Y-112094200D01*
X128834828Y-112118009D01*
X128811019Y-112165628D01*
X128787209Y-112260866D01*
X128787209Y-112379914D01*
X128811019Y-112475152D01*
X128834828Y-112522771D01*
X128858638Y-112546580D01*
X128906257Y-112570390D01*
X128953876Y-112570390D01*
X129001495Y-112546580D01*
X129025304Y-112522771D01*
X129049114Y-112475152D01*
X129072923Y-112379914D01*
X129072923Y-112260866D01*
X129049114Y-112165628D01*
X129025304Y-112118009D01*
X129001495Y-112094200D01*
X128953876Y-112070390D01*
X128311019Y-112570390D02*
X128596733Y-112570390D01*
X128453876Y-112570390D02*
X128453876Y-112070390D01*
X128501495Y-112141819D01*
X128549114Y-112189438D01*
X128596733Y-112213247D01*
X128025304Y-112284676D02*
X128072923Y-112260866D01*
X128096733Y-112237057D01*
X128120542Y-112189438D01*
X128120542Y-112165628D01*
X128096733Y-112118009D01*
X128072923Y-112094200D01*
X128025304Y-112070390D01*
X127930066Y-112070390D01*
X127882447Y-112094200D01*
X127858638Y-112118009D01*
X127834828Y-112165628D01*
X127834828Y-112189438D01*
X127858638Y-112237057D01*
X127882447Y-112260866D01*
X127930066Y-112284676D01*
X128025304Y-112284676D01*
X128072923Y-112308485D01*
X128096733Y-112332295D01*
X128120542Y-112379914D01*
X128120542Y-112475152D01*
X128096733Y-112522771D01*
X128072923Y-112546580D01*
X128025304Y-112570390D01*
X127930066Y-112570390D01*
X127882447Y-112546580D01*
X127858638Y-112522771D01*
X127834828Y-112475152D01*
X127834828Y-112379914D01*
X127858638Y-112332295D01*
X127882447Y-112308485D01*
X127930066Y-112284676D01*
X127620542Y-112379914D02*
X127239590Y-112379914D01*
X126739590Y-112570390D02*
X127025304Y-112570390D01*
X126882447Y-112570390D02*
X126882447Y-112070390D01*
X126930066Y-112141819D01*
X126977685Y-112189438D01*
X127025304Y-112213247D01*
X126430066Y-112070390D02*
X126382447Y-112070390D01*
X126334828Y-112094200D01*
X126311019Y-112118009D01*
X126287209Y-112165628D01*
X126263400Y-112260866D01*
X126263400Y-112379914D01*
X126287209Y-112475152D01*
X126311019Y-112522771D01*
X126334828Y-112546580D01*
X126382447Y-112570390D01*
X126430066Y-112570390D01*
X126477685Y-112546580D01*
X126501495Y-112522771D01*
X126525304Y-112475152D01*
X126549114Y-112379914D01*
X126549114Y-112260866D01*
X126525304Y-112165628D01*
X126501495Y-112118009D01*
X126477685Y-112094200D01*
X126430066Y-112070390D01*
X126049114Y-112379914D02*
X125668161Y-112379914D01*
X125334828Y-112070390D02*
X125287209Y-112070390D01*
X125239590Y-112094200D01*
X125215780Y-112118009D01*
X125191971Y-112165628D01*
X125168161Y-112260866D01*
X125168161Y-112379914D01*
X125191971Y-112475152D01*
X125215780Y-112522771D01*
X125239590Y-112546580D01*
X125287209Y-112570390D01*
X125334828Y-112570390D01*
X125382447Y-112546580D01*
X125406257Y-112522771D01*
X125430066Y-112475152D01*
X125453876Y-112379914D01*
X125453876Y-112260866D01*
X125430066Y-112165628D01*
X125406257Y-112118009D01*
X125382447Y-112094200D01*
X125334828Y-112070390D01*
X124715780Y-112070390D02*
X124953876Y-112070390D01*
X124977685Y-112308485D01*
X124953876Y-112284676D01*
X124906257Y-112260866D01*
X124787209Y-112260866D01*
X124739590Y-112284676D01*
X124715780Y-112308485D01*
X124691971Y-112356104D01*
X124691971Y-112475152D01*
X124715780Y-112522771D01*
X124739590Y-112546580D01*
X124787209Y-112570390D01*
X124906257Y-112570390D01*
X124953876Y-112546580D01*
X124977685Y-112522771D01*
X124144352Y-112237057D02*
X124025304Y-112570390D01*
X123906257Y-112237057D01*
X123620542Y-112070390D02*
X123572923Y-112070390D01*
X123525304Y-112094200D01*
X123501495Y-112118009D01*
X123477685Y-112165628D01*
X123453876Y-112260866D01*
X123453876Y-112379914D01*
X123477685Y-112475152D01*
X123501495Y-112522771D01*
X123525304Y-112546580D01*
X123572923Y-112570390D01*
X123620542Y-112570390D01*
X123668161Y-112546580D01*
X123691971Y-112522771D01*
X123715780Y-112475152D01*
X123739590Y-112379914D01*
X123739590Y-112260866D01*
X123715780Y-112165628D01*
X123691971Y-112118009D01*
X123668161Y-112094200D01*
X123620542Y-112070390D01*
X123287209Y-112070390D02*
X122977685Y-112070390D01*
X123144352Y-112260866D01*
X123072923Y-112260866D01*
X123025304Y-112284676D01*
X123001495Y-112308485D01*
X122977685Y-112356104D01*
X122977685Y-112475152D01*
X123001495Y-112522771D01*
X123025304Y-112546580D01*
X123072923Y-112570390D01*
X123215780Y-112570390D01*
X123263400Y-112546580D01*
X123287209Y-112522771D01*
X129609952Y-104597514D02*
X129229000Y-104597514D01*
X128729000Y-104787990D02*
X129014714Y-104787990D01*
X128871857Y-104787990D02*
X128871857Y-104287990D01*
X128919476Y-104359419D01*
X128967095Y-104407038D01*
X129014714Y-104430847D01*
X128419476Y-104287990D02*
X128371857Y-104287990D01*
X128324238Y-104311800D01*
X128300428Y-104335609D01*
X128276619Y-104383228D01*
X128252809Y-104478466D01*
X128252809Y-104597514D01*
X128276619Y-104692752D01*
X128300428Y-104740371D01*
X128324238Y-104764180D01*
X128371857Y-104787990D01*
X128419476Y-104787990D01*
X128467095Y-104764180D01*
X128490904Y-104740371D01*
X128514714Y-104692752D01*
X128538523Y-104597514D01*
X128538523Y-104478466D01*
X128514714Y-104383228D01*
X128490904Y-104335609D01*
X128467095Y-104311800D01*
X128419476Y-104287990D01*
X128109952Y-104287990D02*
X127943285Y-104787990D01*
X127776619Y-104287990D01*
X126871857Y-104264180D02*
X127300428Y-104907038D01*
X126324238Y-104597514D02*
X125943285Y-104597514D01*
X126133761Y-104787990D02*
X126133761Y-104407038D01*
X125443285Y-104787990D02*
X125729000Y-104787990D01*
X125586142Y-104787990D02*
X125586142Y-104287990D01*
X125633761Y-104359419D01*
X125681380Y-104407038D01*
X125729000Y-104430847D01*
X125133761Y-104287990D02*
X125086142Y-104287990D01*
X125038523Y-104311800D01*
X125014714Y-104335609D01*
X124990904Y-104383228D01*
X124967095Y-104478466D01*
X124967095Y-104597514D01*
X124990904Y-104692752D01*
X125014714Y-104740371D01*
X125038523Y-104764180D01*
X125086142Y-104787990D01*
X125133761Y-104787990D01*
X125181380Y-104764180D01*
X125205190Y-104740371D01*
X125229000Y-104692752D01*
X125252809Y-104597514D01*
X125252809Y-104478466D01*
X125229000Y-104383228D01*
X125205190Y-104335609D01*
X125181380Y-104311800D01*
X125133761Y-104287990D01*
X124824238Y-104287990D02*
X124657571Y-104787990D01*
X124490904Y-104287990D01*
X123943285Y-104787990D02*
X123943285Y-104287990D01*
X123705190Y-104787990D02*
X123705190Y-104287990D01*
X123419476Y-104787990D01*
X123419476Y-104287990D01*
X123181380Y-104787990D02*
X123181380Y-104287990D01*
X122990904Y-104287990D01*
X122943285Y-104311800D01*
X122919476Y-104335609D01*
X122895666Y-104383228D01*
X122895666Y-104454657D01*
X122919476Y-104502276D01*
X122943285Y-104526085D01*
X122990904Y-104549895D01*
X123181380Y-104549895D01*
X122681380Y-104287990D02*
X122681380Y-104692752D01*
X122657571Y-104740371D01*
X122633761Y-104764180D01*
X122586142Y-104787990D01*
X122490904Y-104787990D01*
X122443285Y-104764180D01*
X122419476Y-104740371D01*
X122395666Y-104692752D01*
X122395666Y-104287990D01*
X122229000Y-104287990D02*
X121943285Y-104287990D01*
X122086142Y-104787990D02*
X122086142Y-104287990D01*
X129514714Y-105987990D02*
X129419476Y-105987990D01*
X129371857Y-106011800D01*
X129324238Y-106059419D01*
X129300428Y-106154657D01*
X129300428Y-106321323D01*
X129324238Y-106416561D01*
X129371857Y-106464180D01*
X129419476Y-106487990D01*
X129514714Y-106487990D01*
X129562333Y-106464180D01*
X129609952Y-106416561D01*
X129633761Y-106321323D01*
X129633761Y-106154657D01*
X129609952Y-106059419D01*
X129562333Y-106011800D01*
X129514714Y-105987990D01*
X129086142Y-106487990D02*
X129086142Y-105987990D01*
X128895666Y-105987990D01*
X128848047Y-106011800D01*
X128824238Y-106035609D01*
X128800428Y-106083228D01*
X128800428Y-106154657D01*
X128824238Y-106202276D01*
X128848047Y-106226085D01*
X128895666Y-106249895D01*
X129086142Y-106249895D01*
X128586142Y-106297514D02*
X128205190Y-106297514D01*
X127990904Y-106345133D02*
X127752809Y-106345133D01*
X128038523Y-106487990D02*
X127871857Y-105987990D01*
X127705190Y-106487990D01*
X127538523Y-106487990D02*
X127538523Y-105987990D01*
X127371857Y-106345133D01*
X127205190Y-105987990D01*
X127205190Y-106487990D01*
X126967095Y-106487990D02*
X126967095Y-105987990D01*
X126776619Y-105987990D01*
X126729000Y-106011800D01*
X126705190Y-106035609D01*
X126681380Y-106083228D01*
X126681380Y-106154657D01*
X126705190Y-106202276D01*
X126729000Y-106226085D01*
X126776619Y-106249895D01*
X126967095Y-106249895D01*
X126086142Y-106487990D02*
X126086142Y-105987990D01*
X125848047Y-106487990D02*
X125848047Y-105987990D01*
X125562333Y-106487990D01*
X125562333Y-105987990D01*
X125324238Y-106487990D02*
X125324238Y-105987990D01*
X125133761Y-105987990D01*
X125086142Y-106011800D01*
X125062333Y-106035609D01*
X125038523Y-106083228D01*
X125038523Y-106154657D01*
X125062333Y-106202276D01*
X125086142Y-106226085D01*
X125133761Y-106249895D01*
X125324238Y-106249895D01*
X124824238Y-105987990D02*
X124824238Y-106392752D01*
X124800428Y-106440371D01*
X124776619Y-106464180D01*
X124729000Y-106487990D01*
X124633761Y-106487990D01*
X124586142Y-106464180D01*
X124562333Y-106440371D01*
X124538523Y-106392752D01*
X124538523Y-105987990D01*
X124371857Y-105987990D02*
X124086142Y-105987990D01*
X124229000Y-106487990D02*
X124229000Y-105987990D01*
X123562333Y-106464180D02*
X123490904Y-106487990D01*
X123371857Y-106487990D01*
X123324238Y-106464180D01*
X123300428Y-106440371D01*
X123276619Y-106392752D01*
X123276619Y-106345133D01*
X123300428Y-106297514D01*
X123324238Y-106273704D01*
X123371857Y-106249895D01*
X123467095Y-106226085D01*
X123514714Y-106202276D01*
X123538523Y-106178466D01*
X123562333Y-106130847D01*
X123562333Y-106083228D01*
X123538523Y-106035609D01*
X123514714Y-106011800D01*
X123467095Y-105987990D01*
X123348047Y-105987990D01*
X123276619Y-106011800D01*
X123133761Y-105987990D02*
X122848047Y-105987990D01*
X122990904Y-106487990D02*
X122990904Y-105987990D01*
X122705190Y-106345133D02*
X122467095Y-106345133D01*
X122752809Y-106487990D02*
X122586142Y-105987990D01*
X122419476Y-106487990D01*
X121990904Y-106011800D02*
X122038523Y-105987990D01*
X122109952Y-105987990D01*
X122181380Y-106011800D01*
X122229000Y-106059419D01*
X122252809Y-106107038D01*
X122276619Y-106202276D01*
X122276619Y-106273704D01*
X122252809Y-106368942D01*
X122229000Y-106416561D01*
X122181380Y-106464180D01*
X122109952Y-106487990D01*
X122062333Y-106487990D01*
X121990904Y-106464180D01*
X121967095Y-106440371D01*
X121967095Y-106273704D01*
X122062333Y-106273704D01*
X121752809Y-106226085D02*
X121586142Y-106226085D01*
X121514714Y-106487990D02*
X121752809Y-106487990D01*
X121752809Y-105987990D01*
X121514714Y-105987990D01*
X120657571Y-106011800D02*
X120705190Y-105987990D01*
X120776619Y-105987990D01*
X120848047Y-106011800D01*
X120895666Y-106059419D01*
X120919476Y-106107038D01*
X120943285Y-106202276D01*
X120943285Y-106273704D01*
X120919476Y-106368942D01*
X120895666Y-106416561D01*
X120848047Y-106464180D01*
X120776619Y-106487990D01*
X120729000Y-106487990D01*
X120657571Y-106464180D01*
X120633761Y-106440371D01*
X120633761Y-106273704D01*
X120729000Y-106273704D01*
X120443285Y-106345133D02*
X120205190Y-106345133D01*
X120490904Y-106487990D02*
X120324238Y-105987990D01*
X120157571Y-106487990D01*
X119990904Y-106487990D02*
X119990904Y-105987990D01*
X119752809Y-106487990D02*
X119752809Y-105987990D01*
X119467095Y-106487990D01*
X119467095Y-105987990D01*
X118848047Y-106226085D02*
X118467095Y-106226085D01*
X118467095Y-106368942D02*
X118848047Y-106368942D01*
X117752809Y-105987990D02*
X117705190Y-105987990D01*
X117657571Y-106011800D01*
X117633761Y-106035609D01*
X117609952Y-106083228D01*
X117586142Y-106178466D01*
X117586142Y-106297514D01*
X117609952Y-106392752D01*
X117633761Y-106440371D01*
X117657571Y-106464180D01*
X117705190Y-106487990D01*
X117752809Y-106487990D01*
X117800428Y-106464180D01*
X117824238Y-106440371D01*
X117848047Y-106392752D01*
X117871857Y-106297514D01*
X117871857Y-106178466D01*
X117848047Y-106083228D01*
X117824238Y-106035609D01*
X117800428Y-106011800D01*
X117752809Y-105987990D01*
X117371857Y-106440371D02*
X117348047Y-106464180D01*
X117371857Y-106487990D01*
X117395666Y-106464180D01*
X117371857Y-106440371D01*
X117371857Y-106487990D01*
X116871857Y-106487990D02*
X117157571Y-106487990D01*
X117014714Y-106487990D02*
X117014714Y-105987990D01*
X117062333Y-106059419D01*
X117109952Y-106107038D01*
X117157571Y-106130847D01*
X116443285Y-105987990D02*
X116538523Y-105987990D01*
X116586142Y-106011800D01*
X116609952Y-106035609D01*
X116657571Y-106107038D01*
X116681380Y-106202276D01*
X116681380Y-106392752D01*
X116657571Y-106440371D01*
X116633761Y-106464180D01*
X116586142Y-106487990D01*
X116490904Y-106487990D01*
X116443285Y-106464180D01*
X116419476Y-106440371D01*
X116395666Y-106392752D01*
X116395666Y-106273704D01*
X116419476Y-106226085D01*
X116443285Y-106202276D01*
X116490904Y-106178466D01*
X116586142Y-106178466D01*
X116633761Y-106202276D01*
X116657571Y-106226085D01*
X116681380Y-106273704D01*
X116229000Y-105987990D02*
X115895666Y-105987990D01*
X116109952Y-106487990D01*
X129681380Y-106837990D02*
X129514714Y-107337990D01*
X129348047Y-106837990D01*
X129181380Y-107337990D02*
X129181380Y-107004657D01*
X129181380Y-107099895D02*
X129157571Y-107052276D01*
X129133761Y-107028466D01*
X129086142Y-107004657D01*
X129038523Y-107004657D01*
X128681380Y-107314180D02*
X128729000Y-107337990D01*
X128824238Y-107337990D01*
X128871857Y-107314180D01*
X128895666Y-107266561D01*
X128895666Y-107076085D01*
X128871857Y-107028466D01*
X128824238Y-107004657D01*
X128729000Y-107004657D01*
X128681380Y-107028466D01*
X128657571Y-107076085D01*
X128657571Y-107123704D01*
X128895666Y-107171323D01*
X128514714Y-107004657D02*
X128324238Y-107004657D01*
X128443285Y-107337990D02*
X128443285Y-106909419D01*
X128419476Y-106861800D01*
X128371857Y-106837990D01*
X128324238Y-106837990D01*
X127776619Y-107076085D02*
X127395666Y-107076085D01*
X127395666Y-107218942D02*
X127776619Y-107218942D01*
X126514714Y-107337990D02*
X126800428Y-107337990D01*
X126657571Y-107337990D02*
X126657571Y-106837990D01*
X126705190Y-106909419D01*
X126752809Y-106957038D01*
X126800428Y-106980847D01*
X126300428Y-107290371D02*
X126276619Y-107314180D01*
X126300428Y-107337990D01*
X126324238Y-107314180D01*
X126300428Y-107290371D01*
X126300428Y-107337990D01*
X125848047Y-107004657D02*
X125848047Y-107337990D01*
X125967095Y-106814180D02*
X126086142Y-107171323D01*
X125776619Y-107171323D01*
X125609952Y-106885609D02*
X125586142Y-106861800D01*
X125538523Y-106837990D01*
X125419476Y-106837990D01*
X125371857Y-106861800D01*
X125348047Y-106885609D01*
X125324238Y-106933228D01*
X125324238Y-106980847D01*
X125348047Y-107052276D01*
X125633761Y-107337990D01*
X125324238Y-107337990D01*
X125181380Y-106837990D02*
X125014714Y-107337990D01*
X124848047Y-106837990D01*
X129633761Y-108895133D02*
X129395666Y-108895133D01*
X129681380Y-109037990D02*
X129514714Y-108537990D01*
X129348047Y-109037990D01*
X129181380Y-109037990D02*
X129181380Y-108537990D01*
X129062333Y-108537990D01*
X128990904Y-108561800D01*
X128943285Y-108609419D01*
X128919476Y-108657038D01*
X128895666Y-108752276D01*
X128895666Y-108823704D01*
X128919476Y-108918942D01*
X128943285Y-108966561D01*
X128990904Y-109014180D01*
X129062333Y-109037990D01*
X129181380Y-109037990D01*
X128538523Y-108537990D02*
X128538523Y-108895133D01*
X128562333Y-108966561D01*
X128609952Y-109014180D01*
X128681380Y-109037990D01*
X128729000Y-109037990D01*
X128300428Y-108537990D02*
X128300428Y-108942752D01*
X128276619Y-108990371D01*
X128252809Y-109014180D01*
X128205190Y-109037990D01*
X128109952Y-109037990D01*
X128062333Y-109014180D01*
X128038523Y-108990371D01*
X128014714Y-108942752D01*
X128014714Y-108537990D01*
X127800428Y-109014180D02*
X127729000Y-109037990D01*
X127609952Y-109037990D01*
X127562333Y-109014180D01*
X127538523Y-108990371D01*
X127514714Y-108942752D01*
X127514714Y-108895133D01*
X127538523Y-108847514D01*
X127562333Y-108823704D01*
X127609952Y-108799895D01*
X127705190Y-108776085D01*
X127752809Y-108752276D01*
X127776619Y-108728466D01*
X127800428Y-108680847D01*
X127800428Y-108633228D01*
X127776619Y-108585609D01*
X127752809Y-108561800D01*
X127705190Y-108537990D01*
X127586142Y-108537990D01*
X127514714Y-108561800D01*
X127371857Y-108537990D02*
X127086142Y-108537990D01*
X127229000Y-109037990D02*
X127229000Y-108537990D01*
X126252809Y-109037990D02*
X126419476Y-108799895D01*
X126538523Y-109037990D02*
X126538523Y-108537990D01*
X126348047Y-108537990D01*
X126300428Y-108561800D01*
X126276619Y-108585609D01*
X126252809Y-108633228D01*
X126252809Y-108704657D01*
X126276619Y-108752276D01*
X126300428Y-108776085D01*
X126348047Y-108799895D01*
X126538523Y-108799895D01*
X126038523Y-109037990D02*
X126038523Y-108704657D01*
X126038523Y-108752276D02*
X126014714Y-108728466D01*
X125967095Y-108704657D01*
X125895666Y-108704657D01*
X125848047Y-108728466D01*
X125824238Y-108776085D01*
X125824238Y-109037990D01*
X125824238Y-108776085D02*
X125800428Y-108728466D01*
X125752809Y-108704657D01*
X125681380Y-108704657D01*
X125633761Y-108728466D01*
X125609952Y-108776085D01*
X125609952Y-109037990D01*
X124848047Y-109228466D02*
X124871857Y-109204657D01*
X124919476Y-109133228D01*
X124943285Y-109085609D01*
X124967095Y-109014180D01*
X124990904Y-108895133D01*
X124990904Y-108799895D01*
X124967095Y-108680847D01*
X124943285Y-108609419D01*
X124919476Y-108561800D01*
X124871857Y-108490371D01*
X124848047Y-108466561D01*
X124467095Y-109014180D02*
X124514714Y-109037990D01*
X124609952Y-109037990D01*
X124657571Y-109014180D01*
X124681380Y-108966561D01*
X124681380Y-108776085D01*
X124657571Y-108728466D01*
X124609952Y-108704657D01*
X124514714Y-108704657D01*
X124467095Y-108728466D01*
X124443285Y-108776085D01*
X124443285Y-108823704D01*
X124681380Y-108871323D01*
X124229000Y-109037990D02*
X124229000Y-108704657D01*
X124229000Y-108537990D02*
X124252809Y-108561800D01*
X124229000Y-108585609D01*
X124205190Y-108561800D01*
X124229000Y-108537990D01*
X124229000Y-108585609D01*
X124062333Y-108704657D02*
X123871857Y-108704657D01*
X123990904Y-108537990D02*
X123990904Y-108966561D01*
X123967095Y-109014180D01*
X123919476Y-109037990D01*
X123871857Y-109037990D01*
X123705190Y-109037990D02*
X123705190Y-108537990D01*
X123490904Y-109037990D02*
X123490904Y-108776085D01*
X123514714Y-108728466D01*
X123562333Y-108704657D01*
X123633761Y-108704657D01*
X123681380Y-108728466D01*
X123705190Y-108752276D01*
X123062333Y-109014180D02*
X123109952Y-109037990D01*
X123205190Y-109037990D01*
X123252809Y-109014180D01*
X123276619Y-108966561D01*
X123276619Y-108776085D01*
X123252809Y-108728466D01*
X123205190Y-108704657D01*
X123109952Y-108704657D01*
X123062333Y-108728466D01*
X123038523Y-108776085D01*
X123038523Y-108823704D01*
X123276619Y-108871323D01*
X122824238Y-109037990D02*
X122824238Y-108704657D01*
X122824238Y-108799895D02*
X122800428Y-108752276D01*
X122776619Y-108728466D01*
X122729000Y-108704657D01*
X122681380Y-108704657D01*
X121848047Y-109037990D02*
X122014714Y-108799895D01*
X122133761Y-109037990D02*
X122133761Y-108537990D01*
X121943285Y-108537990D01*
X121895666Y-108561800D01*
X121871857Y-108585609D01*
X121848047Y-108633228D01*
X121848047Y-108704657D01*
X121871857Y-108752276D01*
X121895666Y-108776085D01*
X121943285Y-108799895D01*
X122133761Y-108799895D01*
X121562333Y-108752276D02*
X121609952Y-108728466D01*
X121633761Y-108704657D01*
X121657571Y-108657038D01*
X121657571Y-108633228D01*
X121633761Y-108585609D01*
X121609952Y-108561800D01*
X121562333Y-108537990D01*
X121467095Y-108537990D01*
X121419476Y-108561800D01*
X121395666Y-108585609D01*
X121371857Y-108633228D01*
X121371857Y-108657038D01*
X121395666Y-108704657D01*
X121419476Y-108728466D01*
X121467095Y-108752276D01*
X121562333Y-108752276D01*
X121609952Y-108776085D01*
X121633761Y-108799895D01*
X121657571Y-108847514D01*
X121657571Y-108942752D01*
X121633761Y-108990371D01*
X121609952Y-109014180D01*
X121562333Y-109037990D01*
X121467095Y-109037990D01*
X121419476Y-109014180D01*
X121395666Y-108990371D01*
X121371857Y-108942752D01*
X121371857Y-108847514D01*
X121395666Y-108799895D01*
X121419476Y-108776085D01*
X121467095Y-108752276D01*
X120705190Y-109037990D02*
X120752809Y-109014180D01*
X120776619Y-108990371D01*
X120800428Y-108942752D01*
X120800428Y-108799895D01*
X120776619Y-108752276D01*
X120752809Y-108728466D01*
X120705190Y-108704657D01*
X120633761Y-108704657D01*
X120586142Y-108728466D01*
X120562333Y-108752276D01*
X120538523Y-108799895D01*
X120538523Y-108942752D01*
X120562333Y-108990371D01*
X120586142Y-109014180D01*
X120633761Y-109037990D01*
X120705190Y-109037990D01*
X120324238Y-109037990D02*
X120324238Y-108704657D01*
X120324238Y-108799895D02*
X120300428Y-108752276D01*
X120276619Y-108728466D01*
X120229000Y-108704657D01*
X120181380Y-108704657D01*
X119348047Y-109037990D02*
X119514714Y-108799895D01*
X119633761Y-109037990D02*
X119633761Y-108537990D01*
X119443285Y-108537990D01*
X119395666Y-108561800D01*
X119371857Y-108585609D01*
X119348047Y-108633228D01*
X119348047Y-108704657D01*
X119371857Y-108752276D01*
X119395666Y-108776085D01*
X119443285Y-108799895D01*
X119633761Y-108799895D01*
X118871857Y-109037990D02*
X119157571Y-109037990D01*
X119014714Y-109037990D02*
X119014714Y-108537990D01*
X119062333Y-108609419D01*
X119109952Y-108657038D01*
X119157571Y-108680847D01*
X118681380Y-108585609D02*
X118657571Y-108561800D01*
X118609952Y-108537990D01*
X118490904Y-108537990D01*
X118443285Y-108561800D01*
X118419476Y-108585609D01*
X118395666Y-108633228D01*
X118395666Y-108680847D01*
X118419476Y-108752276D01*
X118705190Y-109037990D01*
X118395666Y-109037990D01*
X118229000Y-109228466D02*
X118205190Y-109204657D01*
X118157571Y-109133228D01*
X118133761Y-109085609D01*
X118109952Y-109014180D01*
X118086142Y-108895133D01*
X118086142Y-108799895D01*
X118109952Y-108680847D01*
X118133761Y-108609419D01*
X118157571Y-108561800D01*
X118205190Y-108490371D01*
X118229000Y-108466561D01*
X117300428Y-108776085D02*
X117467095Y-108776085D01*
X117467095Y-109037990D02*
X117467095Y-108537990D01*
X117229000Y-108537990D01*
X116943285Y-108537990D02*
X116848047Y-108537990D01*
X116800428Y-108561800D01*
X116752809Y-108609419D01*
X116729000Y-108704657D01*
X116729000Y-108871323D01*
X116752809Y-108966561D01*
X116800428Y-109014180D01*
X116848047Y-109037990D01*
X116943285Y-109037990D01*
X116990904Y-109014180D01*
X117038523Y-108966561D01*
X117062333Y-108871323D01*
X117062333Y-108704657D01*
X117038523Y-108609419D01*
X116990904Y-108561800D01*
X116943285Y-108537990D01*
X116229000Y-109037990D02*
X116395666Y-108799895D01*
X116514714Y-109037990D02*
X116514714Y-108537990D01*
X116324238Y-108537990D01*
X116276619Y-108561800D01*
X116252809Y-108585609D01*
X116229000Y-108633228D01*
X116229000Y-108704657D01*
X116252809Y-108752276D01*
X116276619Y-108776085D01*
X116324238Y-108799895D01*
X116514714Y-108799895D01*
X129324238Y-109887990D02*
X129490904Y-109649895D01*
X129609952Y-109887990D02*
X129609952Y-109387990D01*
X129419476Y-109387990D01*
X129371857Y-109411800D01*
X129348047Y-109435609D01*
X129324238Y-109483228D01*
X129324238Y-109554657D01*
X129348047Y-109602276D01*
X129371857Y-109626085D01*
X129419476Y-109649895D01*
X129609952Y-109649895D01*
X129109952Y-109887990D02*
X129109952Y-109554657D01*
X129109952Y-109602276D02*
X129086142Y-109578466D01*
X129038523Y-109554657D01*
X128967095Y-109554657D01*
X128919476Y-109578466D01*
X128895666Y-109626085D01*
X128895666Y-109887990D01*
X128895666Y-109626085D02*
X128871857Y-109578466D01*
X128824238Y-109554657D01*
X128752809Y-109554657D01*
X128705190Y-109578466D01*
X128681380Y-109626085D01*
X128681380Y-109887990D01*
X128062333Y-109626085D02*
X127681380Y-109626085D01*
X127681380Y-109768942D02*
X128062333Y-109768942D01*
X127109952Y-109387990D02*
X126800428Y-109387990D01*
X126967095Y-109578466D01*
X126895666Y-109578466D01*
X126848047Y-109602276D01*
X126824238Y-109626085D01*
X126800428Y-109673704D01*
X126800428Y-109792752D01*
X126824238Y-109840371D01*
X126848047Y-109864180D01*
X126895666Y-109887990D01*
X127038523Y-109887990D01*
X127086142Y-109864180D01*
X127109952Y-109840371D01*
X126586142Y-109840371D02*
X126562333Y-109864180D01*
X126586142Y-109887990D01*
X126609952Y-109864180D01*
X126586142Y-109840371D01*
X126586142Y-109887990D01*
X126395666Y-109387990D02*
X126086142Y-109387990D01*
X126252809Y-109578466D01*
X126181380Y-109578466D01*
X126133761Y-109602276D01*
X126109952Y-109626085D01*
X126086142Y-109673704D01*
X126086142Y-109792752D01*
X126109952Y-109840371D01*
X126133761Y-109864180D01*
X126181380Y-109887990D01*
X126324238Y-109887990D01*
X126371857Y-109864180D01*
X126395666Y-109840371D01*
X125943285Y-109387990D02*
X125776619Y-109887990D01*
X125609952Y-109387990D01*
X124705190Y-109364180D02*
X125133761Y-110007038D01*
X123990904Y-109626085D02*
X124157571Y-109626085D01*
X124157571Y-109887990D02*
X124157571Y-109387990D01*
X123919476Y-109387990D01*
X123729000Y-109387990D02*
X123729000Y-109792752D01*
X123705190Y-109840371D01*
X123681380Y-109864180D01*
X123633761Y-109887990D01*
X123538523Y-109887990D01*
X123490904Y-109864180D01*
X123467095Y-109840371D01*
X123443285Y-109792752D01*
X123443285Y-109387990D01*
X122967095Y-109887990D02*
X123205190Y-109887990D01*
X123205190Y-109387990D01*
X122562333Y-109887990D02*
X122800428Y-109887990D01*
X122800428Y-109387990D01*
X122514714Y-109935609D02*
X122133761Y-109935609D01*
X122038523Y-109864180D02*
X121967095Y-109887990D01*
X121848047Y-109887990D01*
X121800428Y-109864180D01*
X121776619Y-109840371D01*
X121752809Y-109792752D01*
X121752809Y-109745133D01*
X121776619Y-109697514D01*
X121800428Y-109673704D01*
X121848047Y-109649895D01*
X121943285Y-109626085D01*
X121990904Y-109602276D01*
X122014714Y-109578466D01*
X122038523Y-109530847D01*
X122038523Y-109483228D01*
X122014714Y-109435609D01*
X121990904Y-109411800D01*
X121943285Y-109387990D01*
X121824238Y-109387990D01*
X121752809Y-109411800D01*
X121252809Y-109840371D02*
X121276619Y-109864180D01*
X121348047Y-109887990D01*
X121395666Y-109887990D01*
X121467095Y-109864180D01*
X121514714Y-109816561D01*
X121538523Y-109768942D01*
X121562333Y-109673704D01*
X121562333Y-109602276D01*
X121538523Y-109507038D01*
X121514714Y-109459419D01*
X121467095Y-109411800D01*
X121395666Y-109387990D01*
X121348047Y-109387990D01*
X121276619Y-109411800D01*
X121252809Y-109435609D01*
X121062333Y-109745133D02*
X120824238Y-109745133D01*
X121109952Y-109887990D02*
X120943285Y-109387990D01*
X120776619Y-109887990D01*
X120371857Y-109887990D02*
X120609952Y-109887990D01*
X120609952Y-109387990D01*
X120205190Y-109626085D02*
X120038523Y-109626085D01*
X119967095Y-109887990D02*
X120205190Y-109887990D01*
X120205190Y-109387990D01*
X119967095Y-109387990D01*
X119871857Y-109935609D02*
X119490904Y-109935609D01*
X119086142Y-109840371D02*
X119109952Y-109864180D01*
X119181380Y-109887990D01*
X119229000Y-109887990D01*
X119300428Y-109864180D01*
X119348047Y-109816561D01*
X119371857Y-109768942D01*
X119395666Y-109673704D01*
X119395666Y-109602276D01*
X119371857Y-109507038D01*
X119348047Y-109459419D01*
X119300428Y-109411800D01*
X119229000Y-109387990D01*
X119181380Y-109387990D01*
X119109952Y-109411800D01*
X119086142Y-109435609D01*
X118871857Y-109387990D02*
X118871857Y-109792752D01*
X118848047Y-109840371D01*
X118824238Y-109864180D01*
X118776619Y-109887990D01*
X118681380Y-109887990D01*
X118633761Y-109864180D01*
X118609952Y-109840371D01*
X118586142Y-109792752D01*
X118586142Y-109387990D01*
X118062333Y-109887990D02*
X118229000Y-109649895D01*
X118348047Y-109887990D02*
X118348047Y-109387990D01*
X118157571Y-109387990D01*
X118109952Y-109411800D01*
X118086142Y-109435609D01*
X118062333Y-109483228D01*
X118062333Y-109554657D01*
X118086142Y-109602276D01*
X118109952Y-109626085D01*
X118157571Y-109649895D01*
X118348047Y-109649895D01*
X117562333Y-109887990D02*
X117729000Y-109649895D01*
X117848047Y-109887990D02*
X117848047Y-109387990D01*
X117657571Y-109387990D01*
X117609952Y-109411800D01*
X117586142Y-109435609D01*
X117562333Y-109483228D01*
X117562333Y-109554657D01*
X117586142Y-109602276D01*
X117609952Y-109626085D01*
X117657571Y-109649895D01*
X117848047Y-109649895D01*
X117348047Y-109626085D02*
X117181380Y-109626085D01*
X117109952Y-109887990D02*
X117348047Y-109887990D01*
X117348047Y-109387990D01*
X117109952Y-109387990D01*
X116895666Y-109887990D02*
X116895666Y-109387990D01*
X116609952Y-109887990D01*
X116609952Y-109387990D01*
X116443285Y-109387990D02*
X116157571Y-109387990D01*
X116300428Y-109887990D02*
X116300428Y-109387990D01*
X119162012Y-101395337D02*
X119862012Y-99895337D01*
D11*
X119162012Y-102195337D02*
X118462012Y-101195337D01*
X119862012Y-101195337D02*
X119162012Y-102195337D01*
X120062012Y-100795337D02*
G75*
G03X118262012Y-100795337I-900000J0D01*
G01*
D10*
X120688446Y-100995337D02*
G75*
G03X120688446Y-100995337I-1526434J0D01*
G01*
D12*
X141732000Y-105664000D02*
G75*
G03X141732000Y-105664000I-127000J0D01*
G01*
D10*
X133223000Y-106426000D02*
X133223000Y-103886000D01*
X133223000Y-99949000D02*
X133223000Y-97409000D01*
X142240000Y-99949000D02*
X142240000Y-97409000D01*
X142240000Y-106426000D02*
X142240000Y-103886000D01*
X133223000Y-106426000D02*
X142240000Y-106426000D01*
X133223000Y-97409000D02*
X142240000Y-97409000D01*
D13*
X141061666Y-101526952D02*
X141061666Y-101126952D01*
X140909285Y-101126952D01*
X140871190Y-101146000D01*
X140852142Y-101165047D01*
X140833095Y-101203142D01*
X140833095Y-101260285D01*
X140852142Y-101298380D01*
X140871190Y-101317428D01*
X140909285Y-101336476D01*
X141061666Y-101336476D01*
X140661666Y-101526952D02*
X140661666Y-101126952D01*
X140433095Y-101526952D02*
X140604523Y-101298380D01*
X140433095Y-101126952D02*
X140661666Y-101355523D01*
X140261666Y-101526952D02*
X140261666Y-101126952D01*
X140128333Y-101412666D01*
X139995000Y-101126952D01*
X139995000Y-101526952D01*
X139575952Y-101488857D02*
X139595000Y-101507904D01*
X139652142Y-101526952D01*
X139690238Y-101526952D01*
X139747380Y-101507904D01*
X139785476Y-101469809D01*
X139804523Y-101431714D01*
X139823571Y-101355523D01*
X139823571Y-101298380D01*
X139804523Y-101222190D01*
X139785476Y-101184095D01*
X139747380Y-101146000D01*
X139690238Y-101126952D01*
X139652142Y-101126952D01*
X139595000Y-101146000D01*
X139575952Y-101165047D01*
X139423571Y-101507904D02*
X139366428Y-101526952D01*
X139271190Y-101526952D01*
X139233095Y-101507904D01*
X139214047Y-101488857D01*
X139195000Y-101450761D01*
X139195000Y-101412666D01*
X139214047Y-101374571D01*
X139233095Y-101355523D01*
X139271190Y-101336476D01*
X139347380Y-101317428D01*
X139385476Y-101298380D01*
X139404523Y-101279333D01*
X139423571Y-101241238D01*
X139423571Y-101203142D01*
X139404523Y-101165047D01*
X139385476Y-101146000D01*
X139347380Y-101126952D01*
X139252142Y-101126952D01*
X139195000Y-101146000D01*
X138947380Y-101126952D02*
X138909285Y-101126952D01*
X138871190Y-101146000D01*
X138852142Y-101165047D01*
X138833095Y-101203142D01*
X138814047Y-101279333D01*
X138814047Y-101374571D01*
X138833095Y-101450761D01*
X138852142Y-101488857D01*
X138871190Y-101507904D01*
X138909285Y-101526952D01*
X138947380Y-101526952D01*
X138985476Y-101507904D01*
X139004523Y-101488857D01*
X139023571Y-101450761D01*
X139042619Y-101374571D01*
X139042619Y-101279333D01*
X139023571Y-101203142D01*
X139004523Y-101165047D01*
X138985476Y-101146000D01*
X138947380Y-101126952D01*
X138623571Y-101526952D02*
X138547380Y-101526952D01*
X138509285Y-101507904D01*
X138490238Y-101488857D01*
X138452142Y-101431714D01*
X138433095Y-101355523D01*
X138433095Y-101203142D01*
X138452142Y-101165047D01*
X138471190Y-101146000D01*
X138509285Y-101126952D01*
X138585476Y-101126952D01*
X138623571Y-101146000D01*
X138642619Y-101165047D01*
X138661666Y-101203142D01*
X138661666Y-101298380D01*
X138642619Y-101336476D01*
X138623571Y-101355523D01*
X138585476Y-101374571D01*
X138509285Y-101374571D01*
X138471190Y-101355523D01*
X138452142Y-101336476D01*
X138433095Y-101298380D01*
X138185476Y-101126952D02*
X138147380Y-101126952D01*
X138109285Y-101146000D01*
X138090238Y-101165047D01*
X138071190Y-101203142D01*
X138052142Y-101279333D01*
X138052142Y-101374571D01*
X138071190Y-101450761D01*
X138090238Y-101488857D01*
X138109285Y-101507904D01*
X138147380Y-101526952D01*
X138185476Y-101526952D01*
X138223571Y-101507904D01*
X138242619Y-101488857D01*
X138261666Y-101450761D01*
X138280714Y-101374571D01*
X138280714Y-101279333D01*
X138261666Y-101203142D01*
X138242619Y-101165047D01*
X138223571Y-101146000D01*
X138185476Y-101126952D01*
X137861666Y-101526952D02*
X137785476Y-101526952D01*
X137747380Y-101507904D01*
X137728333Y-101488857D01*
X137690238Y-101431714D01*
X137671190Y-101355523D01*
X137671190Y-101203142D01*
X137690238Y-101165047D01*
X137709285Y-101146000D01*
X137747380Y-101126952D01*
X137823571Y-101126952D01*
X137861666Y-101146000D01*
X137880714Y-101165047D01*
X137899761Y-101203142D01*
X137899761Y-101298380D01*
X137880714Y-101336476D01*
X137861666Y-101355523D01*
X137823571Y-101374571D01*
X137747380Y-101374571D01*
X137709285Y-101355523D01*
X137690238Y-101336476D01*
X137671190Y-101298380D01*
X137499761Y-101317428D02*
X137366428Y-101317428D01*
X137309285Y-101526952D02*
X137499761Y-101526952D01*
X137499761Y-101126952D01*
X137309285Y-101126952D01*
X136966428Y-101260285D02*
X136966428Y-101526952D01*
X137061666Y-101107904D02*
X137156904Y-101393619D01*
X136909285Y-101393619D01*
X136680714Y-101126952D02*
X136642619Y-101126952D01*
X136604523Y-101146000D01*
X136585476Y-101165047D01*
X136566428Y-101203142D01*
X136547380Y-101279333D01*
X136547380Y-101374571D01*
X136566428Y-101450761D01*
X136585476Y-101488857D01*
X136604523Y-101507904D01*
X136642619Y-101526952D01*
X136680714Y-101526952D01*
X136718809Y-101507904D01*
X136737857Y-101488857D01*
X136756904Y-101450761D01*
X136775952Y-101374571D01*
X136775952Y-101279333D01*
X136756904Y-101203142D01*
X136737857Y-101165047D01*
X136718809Y-101146000D01*
X136680714Y-101126952D01*
X136299761Y-101126952D02*
X136261666Y-101126952D01*
X136223571Y-101146000D01*
X136204523Y-101165047D01*
X136185476Y-101203142D01*
X136166428Y-101279333D01*
X136166428Y-101374571D01*
X136185476Y-101450761D01*
X136204523Y-101488857D01*
X136223571Y-101507904D01*
X136261666Y-101526952D01*
X136299761Y-101526952D01*
X136337857Y-101507904D01*
X136356904Y-101488857D01*
X136375952Y-101450761D01*
X136395000Y-101374571D01*
X136395000Y-101279333D01*
X136375952Y-101203142D01*
X136356904Y-101165047D01*
X136337857Y-101146000D01*
X136299761Y-101126952D01*
X135918809Y-101126952D02*
X135880714Y-101126952D01*
X135842619Y-101146000D01*
X135823571Y-101165047D01*
X135804523Y-101203142D01*
X135785476Y-101279333D01*
X135785476Y-101374571D01*
X135804523Y-101450761D01*
X135823571Y-101488857D01*
X135842619Y-101507904D01*
X135880714Y-101526952D01*
X135918809Y-101526952D01*
X135956904Y-101507904D01*
X135975952Y-101488857D01*
X135995000Y-101450761D01*
X136014047Y-101374571D01*
X136014047Y-101279333D01*
X135995000Y-101203142D01*
X135975952Y-101165047D01*
X135956904Y-101146000D01*
X135918809Y-101126952D01*
X135614047Y-101374571D02*
X135309285Y-101374571D01*
X134890238Y-101526952D02*
X135023571Y-101336476D01*
X135118809Y-101526952D02*
X135118809Y-101126952D01*
X134966428Y-101126952D01*
X134928333Y-101146000D01*
X134909285Y-101165047D01*
X134890238Y-101203142D01*
X134890238Y-101260285D01*
X134909285Y-101298380D01*
X134928333Y-101317428D01*
X134966428Y-101336476D01*
X135118809Y-101336476D01*
X134509285Y-101526952D02*
X134737857Y-101526952D01*
X134623571Y-101526952D02*
X134623571Y-101126952D01*
X134661666Y-101184095D01*
X134699761Y-101222190D01*
X134737857Y-101241238D01*
M02*
