G04 #@! TF.GenerationSoftware,KiCad,Pcbnew,(5.0.0-rc2-dev-444-g2974a2c10)*
G04 #@! TF.CreationDate,2018-10-05T22:12:32-07:00*
G04 #@! TF.ProjectId,retro meter v03,726574726F206D65746572207630332E,v03*
G04 #@! TF.SameCoordinates,Original*
G04 #@! TF.FileFunction,Paste,Top*
G04 #@! TF.FilePolarity,Positive*
%FSLAX46Y46*%
G04 Gerber Fmt 4.6, Leading zero omitted, Abs format (unit mm)*
G04 Created by KiCad (PCBNEW (5.0.0-rc2-dev-444-g2974a2c10)) date 10/05/18 22:12:32*
%MOMM*%
%LPD*%
G01*
G04 APERTURE LIST*
%ADD10R,1.500000X1.300000*%
%ADD11R,1.300000X1.500000*%
%ADD12R,1.550000X0.600000*%
%ADD13R,0.700000X1.300000*%
%ADD14R,1.300000X0.700000*%
%ADD15R,0.920000X0.520000*%
%ADD16R,1.000000X1.250000*%
%ADD17R,1.250000X1.000000*%
G04 APERTURE END LIST*
D10*
X138985000Y-108585000D03*
X141685000Y-108585000D03*
D11*
X109728000Y-105838000D03*
X109728000Y-108538000D03*
D12*
X125763000Y-101473000D03*
X125763000Y-102743000D03*
X125763000Y-104013000D03*
X125763000Y-105283000D03*
X120363000Y-105283000D03*
X120363000Y-104013000D03*
X120363000Y-102743000D03*
X120363000Y-101473000D03*
D10*
X138985000Y-105664000D03*
X141685000Y-105664000D03*
X141685000Y-102870000D03*
X138985000Y-102870000D03*
X114634000Y-97790000D03*
X111934000Y-97790000D03*
D13*
X117160000Y-110236000D03*
X119060000Y-110236000D03*
X117160000Y-107696000D03*
X119060000Y-107696000D03*
X109794000Y-100330000D03*
X111694000Y-100330000D03*
X109794000Y-102616000D03*
X111694000Y-102616000D03*
D14*
X116586000Y-101031000D03*
X116586000Y-102931000D03*
D13*
X120076000Y-98552000D03*
X118176000Y-98552000D03*
X122240000Y-98552000D03*
X124140000Y-98552000D03*
X126304000Y-98552000D03*
X128204000Y-98552000D03*
D15*
X135788400Y-108778000D03*
X135788400Y-110678000D03*
X133350000Y-110678000D03*
X133350000Y-109728000D03*
X133350000Y-108778000D03*
X133350000Y-103825000D03*
X133350000Y-104775000D03*
X133350000Y-105725000D03*
X135788400Y-105725000D03*
X135788400Y-103825000D03*
X135788400Y-98872000D03*
X135788400Y-100772000D03*
X133350000Y-100772000D03*
X133350000Y-99822000D03*
X133350000Y-98872000D03*
D16*
X121428000Y-110236000D03*
X123428000Y-110236000D03*
X128000000Y-110236000D03*
X126000000Y-110236000D03*
D17*
X114046000Y-102781000D03*
X114046000Y-100781000D03*
D13*
X123124000Y-107696000D03*
X121224000Y-107696000D03*
X125034000Y-107696000D03*
X126934000Y-107696000D03*
M02*
