M48
;DRILL file {KiCad (5.0.0-rc2-dev-444-g2974a2c10)} date 08/18/18 00:25:20
;FORMAT={-:-/ absolute / inch / decimal}
FMAT,2
INCH,TZ
T1C0.0354
T2C0.0394
%
G90
G05
M72
T1
X6.2854Y-1.9654
X6.2854Y-2.0654
X6.2854Y-2.1654
X6.2854Y-2.2654
X6.2854Y-2.3654
X6.7854Y-1.9654
X6.7854Y-2.0654
X6.7854Y-2.1654
X6.7854Y-2.2654
X6.7854Y-2.3654
T2
X7.4902Y-2.1112
X7.4902Y-2.2112
X7.4902Y-2.5591
X7.4902Y-2.6591
X7.2195Y-2.5591
X7.2195Y-2.6591
X6.9272Y-2.5591
X6.9272Y-2.6591
X7.4902Y-1.6634
X7.4902Y-1.7634
T0
M30
