M48
;DRILL file {KiCad (5.0.0-rc2-dev-444-g2974a2c10)} date 09/21/18 18:48:50
;FORMAT={-:-/ absolute / inch / decimal}
FMAT,2
INCH,TZ
T1C0.0130
T2C0.0200
T3C0.0354
T4C0.0394
T5C0.1063
T6C0.1260
%
G90
G05
M72
T1
X7.25Y-2.1
X7.25Y-2.8
X7.45Y-2.36
X7.755Y-2.84
X7.965Y-2.435
X8.125Y-2.595
X8.168Y-2.624
X8.275Y-2.6
X8.45Y-2.15
T2
X7.8535Y-2.805
T3
X7.3537Y-2.2016
X7.3537Y-2.3016
X7.3537Y-2.4016
X7.3537Y-2.5016
X7.3537Y-2.6016
X7.8537Y-2.2016
X7.8537Y-2.3016
X7.8537Y-2.4016
X7.8537Y-2.5016
X7.8537Y-2.6016
T4
X8.375Y-1.939
X8.375Y-2.039
X8.375Y-2.7461
X8.375Y-2.8461
X8.375Y-2.9461
X7.9974Y-2.8445
X7.9974Y-2.9445
X8.168Y-2.7461
X8.168Y-2.8461
X8.168Y-2.9461
X8.275Y-2.7461
X8.275Y-2.8461
X8.275Y-2.9461
X7.9974Y-1.9374
X7.9974Y-2.0374
T5
X8.45Y-2.45
T6
X7.25Y-1.95
X7.25Y-2.95
T0
M30
