G04 #@! TF.GenerationSoftware,KiCad,Pcbnew,(5.0.0-rc2-dev-444-g2974a2c10)*
G04 #@! TF.CreationDate,2018-09-21T18:48:47-07:00*
G04 #@! TF.ProjectId,retro meter v02,726574726F206D65746572207630322E,rev?*
G04 #@! TF.SameCoordinates,Original*
G04 #@! TF.FileFunction,Copper,L2,Bot,Signal*
G04 #@! TF.FilePolarity,Positive*
%FSLAX46Y46*%
G04 Gerber Fmt 4.6, Leading zero omitted, Abs format (unit mm)*
G04 Created by KiCad (PCBNEW (5.0.0-rc2-dev-444-g2974a2c10)) date 09/21/18 18:48:47*
%MOMM*%
%LPD*%
G01*
G04 APERTURE LIST*
%ADD10C,2.000000*%
%ADD11O,1.700000X1.700000*%
%ADD12R,1.700000X1.700000*%
%ADD13R,1.000000X3.500000*%
%ADD14R,1.500000X3.400000*%
%ADD15C,0.685800*%
%ADD16C,1.016000*%
%ADD17C,0.254000*%
%ADD18C,0.152400*%
G04 APERTURE END LIST*
D10*
X199485000Y-55920000D03*
X186785000Y-55920000D03*
X199485000Y-58460000D03*
X186785000Y-58460000D03*
X199485000Y-61000000D03*
X186785000Y-61000000D03*
X199485000Y-63540000D03*
X186785000Y-63540000D03*
X199485000Y-66080000D03*
X186785000Y-66080000D03*
D11*
X212725000Y-51790000D03*
D12*
X212725000Y-49250000D03*
X203135000Y-51750000D03*
D11*
X203135000Y-49210000D03*
X207468333Y-74830000D03*
X207468333Y-72290000D03*
D12*
X207468333Y-69750000D03*
D13*
X192135000Y-54875000D03*
X194135000Y-54875000D03*
D14*
X189785000Y-49125000D03*
X196485000Y-49125000D03*
D12*
X210185000Y-69750000D03*
D11*
X210185000Y-72290000D03*
X210185000Y-74830000D03*
X212725000Y-74830000D03*
X212725000Y-72290000D03*
D12*
X212725000Y-69750000D03*
D11*
X203135000Y-74790000D03*
D12*
X203135000Y-72250000D03*
D15*
X214630000Y-54610000D03*
X184150000Y-53340000D03*
X184150000Y-71120000D03*
X189230000Y-59944000D03*
X210185000Y-66040000D03*
D16*
X199478900Y-71247000D03*
D15*
X196977000Y-72136000D03*
X206375000Y-65913000D03*
X202311000Y-61849000D03*
X207467200Y-66649600D03*
D17*
X192135000Y-54875000D02*
X192135000Y-56879000D01*
X211522919Y-72290000D02*
X210185000Y-72290000D01*
X212725000Y-72290000D02*
X211522919Y-72290000D01*
X208982919Y-72290000D02*
X207468333Y-72290000D01*
X210185000Y-72290000D02*
X208982919Y-72290000D01*
X199478900Y-70502680D02*
X199478900Y-71247000D01*
X199485000Y-66080000D02*
X199485000Y-70496580D01*
X199485000Y-70496580D02*
X199478900Y-70502680D01*
D18*
X209854066Y-67691000D02*
X212217000Y-67691000D01*
X202908744Y-67395190D02*
X209558257Y-67395191D01*
X200863190Y-69440744D02*
X202908744Y-67395190D01*
X200863190Y-72440810D02*
X200863190Y-69440744D01*
X212725000Y-68199000D02*
X212725000Y-69750000D01*
X189356256Y-72847190D02*
X200456810Y-72847190D01*
X188199213Y-61000000D02*
X188595000Y-61395787D01*
X186785000Y-61000000D02*
X188199213Y-61000000D01*
X188595000Y-61395787D02*
X188595000Y-63449934D01*
X209558257Y-67395191D02*
X209854066Y-67691000D01*
X188595000Y-63449934D02*
X188899810Y-63754744D01*
X212217000Y-67691000D02*
X212725000Y-68199000D01*
X200456810Y-72847190D02*
X200863190Y-72440810D01*
X188899810Y-63754744D02*
X188899810Y-72390744D01*
X188899810Y-72390744D02*
X189356256Y-72847190D01*
X188199213Y-63540000D02*
X188259213Y-63600000D01*
X186785000Y-63540000D02*
X188199213Y-63540000D01*
X203035000Y-67700000D02*
X209432000Y-67700000D01*
X210185000Y-68453000D02*
X210185000Y-69750000D01*
X201168000Y-72644000D02*
X201168000Y-69567000D01*
X209432000Y-67700000D02*
X210185000Y-68453000D01*
X188254000Y-63540000D02*
X188595000Y-63881000D01*
X201168000Y-69567000D02*
X203035000Y-67700000D01*
X188199213Y-63540000D02*
X188254000Y-63540000D01*
X188595000Y-63881000D02*
X188595000Y-72517000D01*
X188595000Y-72517000D02*
X189230000Y-73152000D01*
X189230000Y-73152000D02*
X200660000Y-73152000D01*
X200660000Y-73152000D02*
X201168000Y-72644000D01*
X197572000Y-61000000D02*
X199485000Y-61000000D01*
X196977000Y-72136000D02*
X196977000Y-61595000D01*
X196977000Y-61595000D02*
X197572000Y-61000000D01*
X205502429Y-66785571D02*
X206375000Y-65913000D01*
X202979637Y-66785571D02*
X205502429Y-66785571D01*
X201853810Y-65659744D02*
X202979637Y-66785571D01*
X202311000Y-61849000D02*
X201853810Y-62306190D01*
X201853810Y-62306190D02*
X201853810Y-65659744D01*
D17*
X192135000Y-56879000D02*
X193006000Y-57750000D01*
X193006000Y-57750000D02*
X196385000Y-57750000D01*
X196385000Y-57750000D02*
X197635000Y-56500000D01*
X197635000Y-56500000D02*
X197635000Y-54500000D01*
X197635000Y-54500000D02*
X199135000Y-53000000D01*
X199135000Y-53000000D02*
X199135000Y-50000000D01*
X199135000Y-50000000D02*
X199925000Y-49210000D01*
X199925000Y-49210000D02*
X203135000Y-49210000D01*
D18*
X200899213Y-58460000D02*
X200939213Y-58500000D01*
X199485000Y-58460000D02*
X200899213Y-58460000D01*
X201549000Y-59109787D02*
X200899213Y-58460000D01*
X201549000Y-65786000D02*
X201549000Y-59109787D01*
X202853381Y-67090381D02*
X201549000Y-65786000D01*
X207356618Y-67090381D02*
X202853381Y-67090381D01*
X207467200Y-66649600D02*
X207467200Y-66979800D01*
X207467200Y-66979800D02*
X207356618Y-67090381D01*
D17*
G36*
X188387560Y-50825000D02*
X188436843Y-51072765D01*
X188577191Y-51282809D01*
X188787235Y-51423157D01*
X189035000Y-51472440D01*
X190535000Y-51472440D01*
X190782765Y-51423157D01*
X190992809Y-51282809D01*
X191133157Y-51072765D01*
X191182440Y-50825000D01*
X191182440Y-48387000D01*
X195087560Y-48387000D01*
X195087560Y-50825000D01*
X195136843Y-51072765D01*
X195277191Y-51282809D01*
X195487235Y-51423157D01*
X195735000Y-51472440D01*
X197235000Y-51472440D01*
X197482765Y-51423157D01*
X197692809Y-51282809D01*
X197833157Y-51072765D01*
X197882440Y-50825000D01*
X197882440Y-48387000D01*
X201898917Y-48387000D01*
X201858158Y-48448000D01*
X200000047Y-48448000D01*
X199925000Y-48433072D01*
X199849953Y-48448000D01*
X199849952Y-48448000D01*
X199627683Y-48492212D01*
X199526144Y-48560058D01*
X199443918Y-48615000D01*
X199375629Y-48660629D01*
X199333118Y-48724251D01*
X198649251Y-49408119D01*
X198585630Y-49450629D01*
X198543119Y-49514251D01*
X198543118Y-49514252D01*
X198417213Y-49702683D01*
X198358073Y-50000000D01*
X198373001Y-50075048D01*
X198373000Y-52684369D01*
X197149251Y-53908119D01*
X197085630Y-53950629D01*
X197043119Y-54014251D01*
X197043118Y-54014252D01*
X196917213Y-54202683D01*
X196858073Y-54500000D01*
X196873001Y-54575048D01*
X196873000Y-56184369D01*
X196069370Y-56988000D01*
X195170026Y-56988000D01*
X195173327Y-56984699D01*
X195270000Y-56751310D01*
X195270000Y-55160750D01*
X195111250Y-55002000D01*
X194262000Y-55002000D01*
X194262000Y-55022000D01*
X194008000Y-55022000D01*
X194008000Y-55002000D01*
X193988000Y-55002000D01*
X193988000Y-54748000D01*
X194008000Y-54748000D01*
X194008000Y-52648750D01*
X194262000Y-52648750D01*
X194262000Y-54748000D01*
X195111250Y-54748000D01*
X195270000Y-54589250D01*
X195270000Y-52998690D01*
X195173327Y-52765301D01*
X194994698Y-52586673D01*
X194761309Y-52490000D01*
X194420750Y-52490000D01*
X194262000Y-52648750D01*
X194008000Y-52648750D01*
X193849250Y-52490000D01*
X193508691Y-52490000D01*
X193275302Y-52586673D01*
X193133654Y-52728320D01*
X193092809Y-52667191D01*
X192882765Y-52526843D01*
X192635000Y-52477560D01*
X191635000Y-52477560D01*
X191387235Y-52526843D01*
X191177191Y-52667191D01*
X191036843Y-52877235D01*
X190987560Y-53125000D01*
X190987560Y-56625000D01*
X191036843Y-56872765D01*
X191177191Y-57082809D01*
X191387235Y-57223157D01*
X191457903Y-57237214D01*
X191503922Y-57306086D01*
X191585630Y-57428371D01*
X191649251Y-57470881D01*
X192414118Y-58235749D01*
X192456629Y-58299371D01*
X192708683Y-58467788D01*
X192930952Y-58512000D01*
X192930956Y-58512000D01*
X193005999Y-58526927D01*
X193081042Y-58512000D01*
X196309957Y-58512000D01*
X196385000Y-58526927D01*
X196460043Y-58512000D01*
X196460048Y-58512000D01*
X196682317Y-58467788D01*
X196934371Y-58299371D01*
X196976883Y-58235747D01*
X198120750Y-57091881D01*
X198184371Y-57049371D01*
X198227584Y-56984699D01*
X198231540Y-56978779D01*
X198442761Y-57190000D01*
X198098914Y-57533847D01*
X197850000Y-58134778D01*
X197850000Y-58785222D01*
X198098914Y-59386153D01*
X198442761Y-59730000D01*
X198098914Y-60073847D01*
X198009877Y-60288800D01*
X197642041Y-60288800D01*
X197571999Y-60274868D01*
X197501957Y-60288800D01*
X197501954Y-60288800D01*
X197294504Y-60330064D01*
X197294503Y-60330065D01*
X197294502Y-60330065D01*
X197118635Y-60447576D01*
X197118633Y-60447578D01*
X197059254Y-60487254D01*
X197019578Y-60546634D01*
X196523634Y-61042578D01*
X196464255Y-61082254D01*
X196424579Y-61141633D01*
X196424576Y-61141636D01*
X196307065Y-61317504D01*
X196251868Y-61595000D01*
X196265801Y-61665046D01*
X196265800Y-71464241D01*
X196147977Y-71582064D01*
X195999100Y-71941484D01*
X195999100Y-72135990D01*
X189650845Y-72135990D01*
X189611010Y-72096156D01*
X189611010Y-63824785D01*
X189624942Y-63754743D01*
X189611010Y-63684699D01*
X189611010Y-63684698D01*
X189569746Y-63477248D01*
X189569745Y-63477246D01*
X189452234Y-63301380D01*
X189452232Y-63301378D01*
X189412555Y-63241998D01*
X189353176Y-63202322D01*
X189306200Y-63155346D01*
X189306200Y-61465828D01*
X189320132Y-61395786D01*
X189306200Y-61325742D01*
X189306200Y-61325741D01*
X189264936Y-61118291D01*
X189199244Y-61019977D01*
X189147424Y-60942423D01*
X189147422Y-60942421D01*
X189107745Y-60883041D01*
X189048366Y-60843365D01*
X188751637Y-60546636D01*
X188711959Y-60487254D01*
X188476709Y-60330064D01*
X188269259Y-60288800D01*
X188269254Y-60288800D01*
X188259303Y-60286820D01*
X188171086Y-60073847D01*
X187744928Y-59647689D01*
X187757927Y-59612532D01*
X186785000Y-58639605D01*
X185812073Y-59612532D01*
X185825072Y-59647689D01*
X185398914Y-60073847D01*
X185150000Y-60674778D01*
X185150000Y-61325222D01*
X185398914Y-61926153D01*
X185742761Y-62270000D01*
X185398914Y-62613847D01*
X185150000Y-63214778D01*
X185150000Y-63865222D01*
X185398914Y-64466153D01*
X185742761Y-64810000D01*
X185398914Y-65153847D01*
X185150000Y-65754778D01*
X185150000Y-66405222D01*
X185398914Y-67006153D01*
X185858847Y-67466086D01*
X186459778Y-67715000D01*
X187110222Y-67715000D01*
X187711153Y-67466086D01*
X187883800Y-67293439D01*
X187883801Y-72446954D01*
X187869868Y-72517000D01*
X187925065Y-72794496D01*
X188042576Y-72970364D01*
X188042579Y-72970367D01*
X188082255Y-73029746D01*
X188141634Y-73069422D01*
X188677578Y-73605367D01*
X188717254Y-73664746D01*
X188776633Y-73704422D01*
X188776635Y-73704424D01*
X188882260Y-73775000D01*
X188952504Y-73821936D01*
X189159954Y-73863200D01*
X189159958Y-73863200D01*
X189230000Y-73877132D01*
X189300042Y-73863200D01*
X200589959Y-73863200D01*
X200660000Y-73877132D01*
X200730041Y-73863200D01*
X200730046Y-73863200D01*
X200937496Y-73821936D01*
X201172746Y-73664746D01*
X201212424Y-73605364D01*
X201621366Y-73196422D01*
X201652589Y-73175559D01*
X201686843Y-73347765D01*
X201827191Y-73557809D01*
X202037235Y-73698157D01*
X202140708Y-73718739D01*
X201863355Y-74023076D01*
X201693524Y-74433110D01*
X201814845Y-74663000D01*
X203008000Y-74663000D01*
X203008000Y-74643000D01*
X203262000Y-74643000D01*
X203262000Y-74663000D01*
X204455155Y-74663000D01*
X204576476Y-74433110D01*
X204406645Y-74023076D01*
X204129292Y-73718739D01*
X204232765Y-73698157D01*
X204442809Y-73557809D01*
X204583157Y-73347765D01*
X204632440Y-73100000D01*
X204632440Y-71400000D01*
X204583157Y-71152235D01*
X204442809Y-70942191D01*
X204232765Y-70801843D01*
X203985000Y-70752560D01*
X202285000Y-70752560D01*
X202037235Y-70801843D01*
X201879200Y-70907439D01*
X201879200Y-69861588D01*
X203329589Y-68411200D01*
X206206905Y-68411200D01*
X206160524Y-68442191D01*
X206020176Y-68652235D01*
X205970893Y-68900000D01*
X205970893Y-70600000D01*
X206020176Y-70847765D01*
X206160524Y-71057809D01*
X206370568Y-71198157D01*
X206415952Y-71207184D01*
X206397708Y-71219375D01*
X206069494Y-71710582D01*
X205954241Y-72290000D01*
X206069494Y-72869418D01*
X206397708Y-73360625D01*
X206716811Y-73573843D01*
X206586975Y-73634817D01*
X206196688Y-74063076D01*
X206026857Y-74473110D01*
X206148178Y-74703000D01*
X207341333Y-74703000D01*
X207341333Y-74683000D01*
X207595333Y-74683000D01*
X207595333Y-74703000D01*
X208788488Y-74703000D01*
X208826667Y-74630656D01*
X208864845Y-74703000D01*
X210058000Y-74703000D01*
X210058000Y-74683000D01*
X210312000Y-74683000D01*
X210312000Y-74703000D01*
X212598000Y-74703000D01*
X212598000Y-74683000D01*
X212852000Y-74683000D01*
X212852000Y-74703000D01*
X214045155Y-74703000D01*
X214166476Y-74473110D01*
X213996645Y-74063076D01*
X213606358Y-73634817D01*
X213476522Y-73573843D01*
X213795625Y-73360625D01*
X214123839Y-72869418D01*
X214239092Y-72290000D01*
X214123839Y-71710582D01*
X213795625Y-71219375D01*
X213777381Y-71207184D01*
X213822765Y-71198157D01*
X214032809Y-71057809D01*
X214173157Y-70847765D01*
X214222440Y-70600000D01*
X214222440Y-68900000D01*
X214173157Y-68652235D01*
X214032809Y-68442191D01*
X213822765Y-68301843D01*
X213575000Y-68252560D01*
X213439478Y-68252560D01*
X213450132Y-68198999D01*
X213436200Y-68128955D01*
X213436200Y-68128954D01*
X213394936Y-67921504D01*
X213385871Y-67907937D01*
X213277423Y-67745635D01*
X213277422Y-67745634D01*
X213237745Y-67686254D01*
X213178366Y-67646578D01*
X212769424Y-67237636D01*
X212729746Y-67178254D01*
X212494496Y-67021064D01*
X212287046Y-66979800D01*
X212287041Y-66979800D01*
X212217000Y-66965868D01*
X212146959Y-66979800D01*
X210148654Y-66979800D01*
X210110679Y-66941825D01*
X210071003Y-66882446D01*
X210011624Y-66842770D01*
X210011621Y-66842767D01*
X209835753Y-66725256D01*
X209558257Y-66670059D01*
X209488211Y-66683992D01*
X208445100Y-66683992D01*
X208445100Y-66455084D01*
X208296223Y-66095664D01*
X208021136Y-65820577D01*
X207661716Y-65671700D01*
X207333521Y-65671700D01*
X207204023Y-65359064D01*
X206928936Y-65083977D01*
X206569516Y-64935100D01*
X206180484Y-64935100D01*
X205821064Y-65083977D01*
X205545977Y-65359064D01*
X205397100Y-65718484D01*
X205397100Y-65885112D01*
X205207841Y-66074371D01*
X203274226Y-66074371D01*
X202565010Y-65365156D01*
X202565010Y-62802257D01*
X202864936Y-62678023D01*
X203140023Y-62402936D01*
X203288900Y-62043516D01*
X203288900Y-61654484D01*
X203140023Y-61295064D01*
X202864936Y-61019977D01*
X202505516Y-60871100D01*
X202260200Y-60871100D01*
X202260200Y-59179829D01*
X202274132Y-59109787D01*
X202260200Y-59039745D01*
X202260200Y-59039741D01*
X202218936Y-58832291D01*
X202146938Y-58724539D01*
X202101424Y-58656422D01*
X202101422Y-58656420D01*
X202061746Y-58597041D01*
X202002367Y-58557365D01*
X201451637Y-58006636D01*
X201411959Y-57947254D01*
X201176709Y-57790064D01*
X200969259Y-57748800D01*
X200969254Y-57748800D01*
X200959303Y-57746820D01*
X200871086Y-57533847D01*
X200527239Y-57190000D01*
X200871086Y-56846153D01*
X201120000Y-56245222D01*
X201120000Y-55594778D01*
X200871086Y-54993847D01*
X200411153Y-54533914D01*
X199810222Y-54285000D01*
X199159778Y-54285000D01*
X198763477Y-54449153D01*
X199620750Y-53591881D01*
X199684371Y-53549371D01*
X199852788Y-53297317D01*
X199897000Y-53075048D01*
X199897000Y-53075044D01*
X199911927Y-53000001D01*
X199897000Y-52924958D01*
X199897000Y-50315630D01*
X200240631Y-49972000D01*
X201858158Y-49972000D01*
X202064375Y-50280625D01*
X202082619Y-50292816D01*
X202037235Y-50301843D01*
X201827191Y-50442191D01*
X201686843Y-50652235D01*
X201637560Y-50900000D01*
X201637560Y-52600000D01*
X201686843Y-52847765D01*
X201827191Y-53057809D01*
X202037235Y-53198157D01*
X202285000Y-53247440D01*
X203985000Y-53247440D01*
X204232765Y-53198157D01*
X204442809Y-53057809D01*
X204583157Y-52847765D01*
X204632440Y-52600000D01*
X204632440Y-52146890D01*
X211283524Y-52146890D01*
X211453355Y-52556924D01*
X211843642Y-52985183D01*
X212368108Y-53231486D01*
X212598000Y-53110819D01*
X212598000Y-51917000D01*
X212852000Y-51917000D01*
X212852000Y-53110819D01*
X213081892Y-53231486D01*
X213606358Y-52985183D01*
X213996645Y-52556924D01*
X214166476Y-52146890D01*
X214045155Y-51917000D01*
X212852000Y-51917000D01*
X212598000Y-51917000D01*
X211404845Y-51917000D01*
X211283524Y-52146890D01*
X204632440Y-52146890D01*
X204632440Y-50900000D01*
X204583157Y-50652235D01*
X204442809Y-50442191D01*
X204232765Y-50301843D01*
X204187381Y-50292816D01*
X204205625Y-50280625D01*
X204533839Y-49789418D01*
X204649092Y-49210000D01*
X204533839Y-48630582D01*
X204371083Y-48387000D01*
X211230146Y-48387000D01*
X211227560Y-48400000D01*
X211227560Y-50100000D01*
X211276843Y-50347765D01*
X211417191Y-50557809D01*
X211627235Y-50698157D01*
X211730708Y-50718739D01*
X211453355Y-51023076D01*
X211283524Y-51433110D01*
X211404845Y-51663000D01*
X212598000Y-51663000D01*
X212598000Y-51643000D01*
X212852000Y-51643000D01*
X212852000Y-51663000D01*
X214045155Y-51663000D01*
X214166476Y-51433110D01*
X213996645Y-51023076D01*
X213719292Y-50718739D01*
X213822765Y-50698157D01*
X214032809Y-50557809D01*
X214173157Y-50347765D01*
X214222440Y-50100000D01*
X214222440Y-48400000D01*
X214219854Y-48387000D01*
X215773000Y-48387000D01*
X215773000Y-60565787D01*
X215754412Y-60547199D01*
X215024841Y-60245000D01*
X214235159Y-60245000D01*
X213505588Y-60547199D01*
X212947199Y-61105588D01*
X212645000Y-61835159D01*
X212645000Y-62624841D01*
X212947199Y-63354412D01*
X213505588Y-63912801D01*
X214235159Y-64215000D01*
X215024841Y-64215000D01*
X215754412Y-63912801D01*
X215773000Y-63894213D01*
X215773000Y-76073000D01*
X213504539Y-76073000D01*
X213606358Y-76025183D01*
X213996645Y-75596924D01*
X214166476Y-75186890D01*
X214045155Y-74957000D01*
X212852000Y-74957000D01*
X212852000Y-74977000D01*
X212598000Y-74977000D01*
X212598000Y-74957000D01*
X210312000Y-74957000D01*
X210312000Y-74977000D01*
X210058000Y-74977000D01*
X210058000Y-74957000D01*
X208864845Y-74957000D01*
X208826667Y-75029344D01*
X208788488Y-74957000D01*
X207595333Y-74957000D01*
X207595333Y-74977000D01*
X207341333Y-74977000D01*
X207341333Y-74957000D01*
X206148178Y-74957000D01*
X206026857Y-75186890D01*
X206196688Y-75596924D01*
X206586975Y-76025183D01*
X206688794Y-76073000D01*
X203829365Y-76073000D01*
X204016358Y-75985183D01*
X204406645Y-75556924D01*
X204576476Y-75146890D01*
X204455155Y-74917000D01*
X203262000Y-74917000D01*
X203262000Y-74937000D01*
X203008000Y-74937000D01*
X203008000Y-74917000D01*
X201814845Y-74917000D01*
X201693524Y-75146890D01*
X201863355Y-75556924D01*
X202253642Y-75985183D01*
X202440635Y-76073000D01*
X186095700Y-76073000D01*
X186385000Y-75374569D01*
X186385000Y-74485431D01*
X186044741Y-73663974D01*
X185416026Y-73035259D01*
X184594569Y-72695000D01*
X183705431Y-72695000D01*
X183007000Y-72984300D01*
X183007000Y-58195461D01*
X185139092Y-58195461D01*
X185163144Y-58845460D01*
X185365613Y-59334264D01*
X185632468Y-59432927D01*
X186605395Y-58460000D01*
X186964605Y-58460000D01*
X187937532Y-59432927D01*
X188204387Y-59334264D01*
X188430908Y-58724539D01*
X188406856Y-58074540D01*
X188204387Y-57585736D01*
X187937532Y-57487073D01*
X186964605Y-58460000D01*
X186605395Y-58460000D01*
X185632468Y-57487073D01*
X185365613Y-57585736D01*
X185139092Y-58195461D01*
X183007000Y-58195461D01*
X183007000Y-55594778D01*
X185150000Y-55594778D01*
X185150000Y-56245222D01*
X185398914Y-56846153D01*
X185825072Y-57272311D01*
X185812073Y-57307468D01*
X186785000Y-58280395D01*
X187757927Y-57307468D01*
X187744928Y-57272311D01*
X188171086Y-56846153D01*
X188420000Y-56245222D01*
X188420000Y-55594778D01*
X188171086Y-54993847D01*
X187711153Y-54533914D01*
X187110222Y-54285000D01*
X186459778Y-54285000D01*
X185858847Y-54533914D01*
X185398914Y-54993847D01*
X185150000Y-55594778D01*
X183007000Y-55594778D01*
X183007000Y-51475700D01*
X183705431Y-51765000D01*
X184594569Y-51765000D01*
X185416026Y-51424741D01*
X186044741Y-50796026D01*
X186385000Y-49974569D01*
X186385000Y-49085431D01*
X186095700Y-48387000D01*
X188387560Y-48387000D01*
X188387560Y-50825000D01*
X188387560Y-50825000D01*
G37*
X188387560Y-50825000D02*
X188436843Y-51072765D01*
X188577191Y-51282809D01*
X188787235Y-51423157D01*
X189035000Y-51472440D01*
X190535000Y-51472440D01*
X190782765Y-51423157D01*
X190992809Y-51282809D01*
X191133157Y-51072765D01*
X191182440Y-50825000D01*
X191182440Y-48387000D01*
X195087560Y-48387000D01*
X195087560Y-50825000D01*
X195136843Y-51072765D01*
X195277191Y-51282809D01*
X195487235Y-51423157D01*
X195735000Y-51472440D01*
X197235000Y-51472440D01*
X197482765Y-51423157D01*
X197692809Y-51282809D01*
X197833157Y-51072765D01*
X197882440Y-50825000D01*
X197882440Y-48387000D01*
X201898917Y-48387000D01*
X201858158Y-48448000D01*
X200000047Y-48448000D01*
X199925000Y-48433072D01*
X199849953Y-48448000D01*
X199849952Y-48448000D01*
X199627683Y-48492212D01*
X199526144Y-48560058D01*
X199443918Y-48615000D01*
X199375629Y-48660629D01*
X199333118Y-48724251D01*
X198649251Y-49408119D01*
X198585630Y-49450629D01*
X198543119Y-49514251D01*
X198543118Y-49514252D01*
X198417213Y-49702683D01*
X198358073Y-50000000D01*
X198373001Y-50075048D01*
X198373000Y-52684369D01*
X197149251Y-53908119D01*
X197085630Y-53950629D01*
X197043119Y-54014251D01*
X197043118Y-54014252D01*
X196917213Y-54202683D01*
X196858073Y-54500000D01*
X196873001Y-54575048D01*
X196873000Y-56184369D01*
X196069370Y-56988000D01*
X195170026Y-56988000D01*
X195173327Y-56984699D01*
X195270000Y-56751310D01*
X195270000Y-55160750D01*
X195111250Y-55002000D01*
X194262000Y-55002000D01*
X194262000Y-55022000D01*
X194008000Y-55022000D01*
X194008000Y-55002000D01*
X193988000Y-55002000D01*
X193988000Y-54748000D01*
X194008000Y-54748000D01*
X194008000Y-52648750D01*
X194262000Y-52648750D01*
X194262000Y-54748000D01*
X195111250Y-54748000D01*
X195270000Y-54589250D01*
X195270000Y-52998690D01*
X195173327Y-52765301D01*
X194994698Y-52586673D01*
X194761309Y-52490000D01*
X194420750Y-52490000D01*
X194262000Y-52648750D01*
X194008000Y-52648750D01*
X193849250Y-52490000D01*
X193508691Y-52490000D01*
X193275302Y-52586673D01*
X193133654Y-52728320D01*
X193092809Y-52667191D01*
X192882765Y-52526843D01*
X192635000Y-52477560D01*
X191635000Y-52477560D01*
X191387235Y-52526843D01*
X191177191Y-52667191D01*
X191036843Y-52877235D01*
X190987560Y-53125000D01*
X190987560Y-56625000D01*
X191036843Y-56872765D01*
X191177191Y-57082809D01*
X191387235Y-57223157D01*
X191457903Y-57237214D01*
X191503922Y-57306086D01*
X191585630Y-57428371D01*
X191649251Y-57470881D01*
X192414118Y-58235749D01*
X192456629Y-58299371D01*
X192708683Y-58467788D01*
X192930952Y-58512000D01*
X192930956Y-58512000D01*
X193005999Y-58526927D01*
X193081042Y-58512000D01*
X196309957Y-58512000D01*
X196385000Y-58526927D01*
X196460043Y-58512000D01*
X196460048Y-58512000D01*
X196682317Y-58467788D01*
X196934371Y-58299371D01*
X196976883Y-58235747D01*
X198120750Y-57091881D01*
X198184371Y-57049371D01*
X198227584Y-56984699D01*
X198231540Y-56978779D01*
X198442761Y-57190000D01*
X198098914Y-57533847D01*
X197850000Y-58134778D01*
X197850000Y-58785222D01*
X198098914Y-59386153D01*
X198442761Y-59730000D01*
X198098914Y-60073847D01*
X198009877Y-60288800D01*
X197642041Y-60288800D01*
X197571999Y-60274868D01*
X197501957Y-60288800D01*
X197501954Y-60288800D01*
X197294504Y-60330064D01*
X197294503Y-60330065D01*
X197294502Y-60330065D01*
X197118635Y-60447576D01*
X197118633Y-60447578D01*
X197059254Y-60487254D01*
X197019578Y-60546634D01*
X196523634Y-61042578D01*
X196464255Y-61082254D01*
X196424579Y-61141633D01*
X196424576Y-61141636D01*
X196307065Y-61317504D01*
X196251868Y-61595000D01*
X196265801Y-61665046D01*
X196265800Y-71464241D01*
X196147977Y-71582064D01*
X195999100Y-71941484D01*
X195999100Y-72135990D01*
X189650845Y-72135990D01*
X189611010Y-72096156D01*
X189611010Y-63824785D01*
X189624942Y-63754743D01*
X189611010Y-63684699D01*
X189611010Y-63684698D01*
X189569746Y-63477248D01*
X189569745Y-63477246D01*
X189452234Y-63301380D01*
X189452232Y-63301378D01*
X189412555Y-63241998D01*
X189353176Y-63202322D01*
X189306200Y-63155346D01*
X189306200Y-61465828D01*
X189320132Y-61395786D01*
X189306200Y-61325742D01*
X189306200Y-61325741D01*
X189264936Y-61118291D01*
X189199244Y-61019977D01*
X189147424Y-60942423D01*
X189147422Y-60942421D01*
X189107745Y-60883041D01*
X189048366Y-60843365D01*
X188751637Y-60546636D01*
X188711959Y-60487254D01*
X188476709Y-60330064D01*
X188269259Y-60288800D01*
X188269254Y-60288800D01*
X188259303Y-60286820D01*
X188171086Y-60073847D01*
X187744928Y-59647689D01*
X187757927Y-59612532D01*
X186785000Y-58639605D01*
X185812073Y-59612532D01*
X185825072Y-59647689D01*
X185398914Y-60073847D01*
X185150000Y-60674778D01*
X185150000Y-61325222D01*
X185398914Y-61926153D01*
X185742761Y-62270000D01*
X185398914Y-62613847D01*
X185150000Y-63214778D01*
X185150000Y-63865222D01*
X185398914Y-64466153D01*
X185742761Y-64810000D01*
X185398914Y-65153847D01*
X185150000Y-65754778D01*
X185150000Y-66405222D01*
X185398914Y-67006153D01*
X185858847Y-67466086D01*
X186459778Y-67715000D01*
X187110222Y-67715000D01*
X187711153Y-67466086D01*
X187883800Y-67293439D01*
X187883801Y-72446954D01*
X187869868Y-72517000D01*
X187925065Y-72794496D01*
X188042576Y-72970364D01*
X188042579Y-72970367D01*
X188082255Y-73029746D01*
X188141634Y-73069422D01*
X188677578Y-73605367D01*
X188717254Y-73664746D01*
X188776633Y-73704422D01*
X188776635Y-73704424D01*
X188882260Y-73775000D01*
X188952504Y-73821936D01*
X189159954Y-73863200D01*
X189159958Y-73863200D01*
X189230000Y-73877132D01*
X189300042Y-73863200D01*
X200589959Y-73863200D01*
X200660000Y-73877132D01*
X200730041Y-73863200D01*
X200730046Y-73863200D01*
X200937496Y-73821936D01*
X201172746Y-73664746D01*
X201212424Y-73605364D01*
X201621366Y-73196422D01*
X201652589Y-73175559D01*
X201686843Y-73347765D01*
X201827191Y-73557809D01*
X202037235Y-73698157D01*
X202140708Y-73718739D01*
X201863355Y-74023076D01*
X201693524Y-74433110D01*
X201814845Y-74663000D01*
X203008000Y-74663000D01*
X203008000Y-74643000D01*
X203262000Y-74643000D01*
X203262000Y-74663000D01*
X204455155Y-74663000D01*
X204576476Y-74433110D01*
X204406645Y-74023076D01*
X204129292Y-73718739D01*
X204232765Y-73698157D01*
X204442809Y-73557809D01*
X204583157Y-73347765D01*
X204632440Y-73100000D01*
X204632440Y-71400000D01*
X204583157Y-71152235D01*
X204442809Y-70942191D01*
X204232765Y-70801843D01*
X203985000Y-70752560D01*
X202285000Y-70752560D01*
X202037235Y-70801843D01*
X201879200Y-70907439D01*
X201879200Y-69861588D01*
X203329589Y-68411200D01*
X206206905Y-68411200D01*
X206160524Y-68442191D01*
X206020176Y-68652235D01*
X205970893Y-68900000D01*
X205970893Y-70600000D01*
X206020176Y-70847765D01*
X206160524Y-71057809D01*
X206370568Y-71198157D01*
X206415952Y-71207184D01*
X206397708Y-71219375D01*
X206069494Y-71710582D01*
X205954241Y-72290000D01*
X206069494Y-72869418D01*
X206397708Y-73360625D01*
X206716811Y-73573843D01*
X206586975Y-73634817D01*
X206196688Y-74063076D01*
X206026857Y-74473110D01*
X206148178Y-74703000D01*
X207341333Y-74703000D01*
X207341333Y-74683000D01*
X207595333Y-74683000D01*
X207595333Y-74703000D01*
X208788488Y-74703000D01*
X208826667Y-74630656D01*
X208864845Y-74703000D01*
X210058000Y-74703000D01*
X210058000Y-74683000D01*
X210312000Y-74683000D01*
X210312000Y-74703000D01*
X212598000Y-74703000D01*
X212598000Y-74683000D01*
X212852000Y-74683000D01*
X212852000Y-74703000D01*
X214045155Y-74703000D01*
X214166476Y-74473110D01*
X213996645Y-74063076D01*
X213606358Y-73634817D01*
X213476522Y-73573843D01*
X213795625Y-73360625D01*
X214123839Y-72869418D01*
X214239092Y-72290000D01*
X214123839Y-71710582D01*
X213795625Y-71219375D01*
X213777381Y-71207184D01*
X213822765Y-71198157D01*
X214032809Y-71057809D01*
X214173157Y-70847765D01*
X214222440Y-70600000D01*
X214222440Y-68900000D01*
X214173157Y-68652235D01*
X214032809Y-68442191D01*
X213822765Y-68301843D01*
X213575000Y-68252560D01*
X213439478Y-68252560D01*
X213450132Y-68198999D01*
X213436200Y-68128955D01*
X213436200Y-68128954D01*
X213394936Y-67921504D01*
X213385871Y-67907937D01*
X213277423Y-67745635D01*
X213277422Y-67745634D01*
X213237745Y-67686254D01*
X213178366Y-67646578D01*
X212769424Y-67237636D01*
X212729746Y-67178254D01*
X212494496Y-67021064D01*
X212287046Y-66979800D01*
X212287041Y-66979800D01*
X212217000Y-66965868D01*
X212146959Y-66979800D01*
X210148654Y-66979800D01*
X210110679Y-66941825D01*
X210071003Y-66882446D01*
X210011624Y-66842770D01*
X210011621Y-66842767D01*
X209835753Y-66725256D01*
X209558257Y-66670059D01*
X209488211Y-66683992D01*
X208445100Y-66683992D01*
X208445100Y-66455084D01*
X208296223Y-66095664D01*
X208021136Y-65820577D01*
X207661716Y-65671700D01*
X207333521Y-65671700D01*
X207204023Y-65359064D01*
X206928936Y-65083977D01*
X206569516Y-64935100D01*
X206180484Y-64935100D01*
X205821064Y-65083977D01*
X205545977Y-65359064D01*
X205397100Y-65718484D01*
X205397100Y-65885112D01*
X205207841Y-66074371D01*
X203274226Y-66074371D01*
X202565010Y-65365156D01*
X202565010Y-62802257D01*
X202864936Y-62678023D01*
X203140023Y-62402936D01*
X203288900Y-62043516D01*
X203288900Y-61654484D01*
X203140023Y-61295064D01*
X202864936Y-61019977D01*
X202505516Y-60871100D01*
X202260200Y-60871100D01*
X202260200Y-59179829D01*
X202274132Y-59109787D01*
X202260200Y-59039745D01*
X202260200Y-59039741D01*
X202218936Y-58832291D01*
X202146938Y-58724539D01*
X202101424Y-58656422D01*
X202101422Y-58656420D01*
X202061746Y-58597041D01*
X202002367Y-58557365D01*
X201451637Y-58006636D01*
X201411959Y-57947254D01*
X201176709Y-57790064D01*
X200969259Y-57748800D01*
X200969254Y-57748800D01*
X200959303Y-57746820D01*
X200871086Y-57533847D01*
X200527239Y-57190000D01*
X200871086Y-56846153D01*
X201120000Y-56245222D01*
X201120000Y-55594778D01*
X200871086Y-54993847D01*
X200411153Y-54533914D01*
X199810222Y-54285000D01*
X199159778Y-54285000D01*
X198763477Y-54449153D01*
X199620750Y-53591881D01*
X199684371Y-53549371D01*
X199852788Y-53297317D01*
X199897000Y-53075048D01*
X199897000Y-53075044D01*
X199911927Y-53000001D01*
X199897000Y-52924958D01*
X199897000Y-50315630D01*
X200240631Y-49972000D01*
X201858158Y-49972000D01*
X202064375Y-50280625D01*
X202082619Y-50292816D01*
X202037235Y-50301843D01*
X201827191Y-50442191D01*
X201686843Y-50652235D01*
X201637560Y-50900000D01*
X201637560Y-52600000D01*
X201686843Y-52847765D01*
X201827191Y-53057809D01*
X202037235Y-53198157D01*
X202285000Y-53247440D01*
X203985000Y-53247440D01*
X204232765Y-53198157D01*
X204442809Y-53057809D01*
X204583157Y-52847765D01*
X204632440Y-52600000D01*
X204632440Y-52146890D01*
X211283524Y-52146890D01*
X211453355Y-52556924D01*
X211843642Y-52985183D01*
X212368108Y-53231486D01*
X212598000Y-53110819D01*
X212598000Y-51917000D01*
X212852000Y-51917000D01*
X212852000Y-53110819D01*
X213081892Y-53231486D01*
X213606358Y-52985183D01*
X213996645Y-52556924D01*
X214166476Y-52146890D01*
X214045155Y-51917000D01*
X212852000Y-51917000D01*
X212598000Y-51917000D01*
X211404845Y-51917000D01*
X211283524Y-52146890D01*
X204632440Y-52146890D01*
X204632440Y-50900000D01*
X204583157Y-50652235D01*
X204442809Y-50442191D01*
X204232765Y-50301843D01*
X204187381Y-50292816D01*
X204205625Y-50280625D01*
X204533839Y-49789418D01*
X204649092Y-49210000D01*
X204533839Y-48630582D01*
X204371083Y-48387000D01*
X211230146Y-48387000D01*
X211227560Y-48400000D01*
X211227560Y-50100000D01*
X211276843Y-50347765D01*
X211417191Y-50557809D01*
X211627235Y-50698157D01*
X211730708Y-50718739D01*
X211453355Y-51023076D01*
X211283524Y-51433110D01*
X211404845Y-51663000D01*
X212598000Y-51663000D01*
X212598000Y-51643000D01*
X212852000Y-51643000D01*
X212852000Y-51663000D01*
X214045155Y-51663000D01*
X214166476Y-51433110D01*
X213996645Y-51023076D01*
X213719292Y-50718739D01*
X213822765Y-50698157D01*
X214032809Y-50557809D01*
X214173157Y-50347765D01*
X214222440Y-50100000D01*
X214222440Y-48400000D01*
X214219854Y-48387000D01*
X215773000Y-48387000D01*
X215773000Y-60565787D01*
X215754412Y-60547199D01*
X215024841Y-60245000D01*
X214235159Y-60245000D01*
X213505588Y-60547199D01*
X212947199Y-61105588D01*
X212645000Y-61835159D01*
X212645000Y-62624841D01*
X212947199Y-63354412D01*
X213505588Y-63912801D01*
X214235159Y-64215000D01*
X215024841Y-64215000D01*
X215754412Y-63912801D01*
X215773000Y-63894213D01*
X215773000Y-76073000D01*
X213504539Y-76073000D01*
X213606358Y-76025183D01*
X213996645Y-75596924D01*
X214166476Y-75186890D01*
X214045155Y-74957000D01*
X212852000Y-74957000D01*
X212852000Y-74977000D01*
X212598000Y-74977000D01*
X212598000Y-74957000D01*
X210312000Y-74957000D01*
X210312000Y-74977000D01*
X210058000Y-74977000D01*
X210058000Y-74957000D01*
X208864845Y-74957000D01*
X208826667Y-75029344D01*
X208788488Y-74957000D01*
X207595333Y-74957000D01*
X207595333Y-74977000D01*
X207341333Y-74977000D01*
X207341333Y-74957000D01*
X206148178Y-74957000D01*
X206026857Y-75186890D01*
X206196688Y-75596924D01*
X206586975Y-76025183D01*
X206688794Y-76073000D01*
X203829365Y-76073000D01*
X204016358Y-75985183D01*
X204406645Y-75556924D01*
X204576476Y-75146890D01*
X204455155Y-74917000D01*
X203262000Y-74917000D01*
X203262000Y-74937000D01*
X203008000Y-74937000D01*
X203008000Y-74917000D01*
X201814845Y-74917000D01*
X201693524Y-75146890D01*
X201863355Y-75556924D01*
X202253642Y-75985183D01*
X202440635Y-76073000D01*
X186095700Y-76073000D01*
X186385000Y-75374569D01*
X186385000Y-74485431D01*
X186044741Y-73663974D01*
X185416026Y-73035259D01*
X184594569Y-72695000D01*
X183705431Y-72695000D01*
X183007000Y-72984300D01*
X183007000Y-58195461D01*
X185139092Y-58195461D01*
X185163144Y-58845460D01*
X185365613Y-59334264D01*
X185632468Y-59432927D01*
X186605395Y-58460000D01*
X186964605Y-58460000D01*
X187937532Y-59432927D01*
X188204387Y-59334264D01*
X188430908Y-58724539D01*
X188406856Y-58074540D01*
X188204387Y-57585736D01*
X187937532Y-57487073D01*
X186964605Y-58460000D01*
X186605395Y-58460000D01*
X185632468Y-57487073D01*
X185365613Y-57585736D01*
X185139092Y-58195461D01*
X183007000Y-58195461D01*
X183007000Y-55594778D01*
X185150000Y-55594778D01*
X185150000Y-56245222D01*
X185398914Y-56846153D01*
X185825072Y-57272311D01*
X185812073Y-57307468D01*
X186785000Y-58280395D01*
X187757927Y-57307468D01*
X187744928Y-57272311D01*
X188171086Y-56846153D01*
X188420000Y-56245222D01*
X188420000Y-55594778D01*
X188171086Y-54993847D01*
X187711153Y-54533914D01*
X187110222Y-54285000D01*
X186459778Y-54285000D01*
X185858847Y-54533914D01*
X185398914Y-54993847D01*
X185150000Y-55594778D01*
X183007000Y-55594778D01*
X183007000Y-51475700D01*
X183705431Y-51765000D01*
X184594569Y-51765000D01*
X185416026Y-51424741D01*
X186044741Y-50796026D01*
X186385000Y-49974569D01*
X186385000Y-49085431D01*
X186095700Y-48387000D01*
X188387560Y-48387000D01*
X188387560Y-50825000D01*
M02*
