%FSLAX45Y45*%
G04 Gerber Fmt 4.5, Leading zero omitted, Abs format (unit mm)*
G04 Created by KiCad (PCBNEW (5.0.0-rc2-dev-444-g2974a2c10)) date 09/21/18 18:48:51*
%MOMM*%
%LPD*%
G01*
G04 APERTURE LIST*
%ADD10C,0.150000*%
%ADD11C,0.200000*%
%ADD12C,0.300000*%
G04 APERTURE END LIST*
D10*
X18161000Y-4826000D02*
G75*
G02X18288000Y-4699000I127000J0D01*
G01*
X18288000Y-7747000D02*
G75*
G02X18161000Y-7620000I0J127000D01*
G01*
X21717000Y-7620000D02*
G75*
G02X21590000Y-7747000I-127000J0D01*
G01*
X21590000Y-4699000D02*
G75*
G02X21717000Y-4826000I0J-127000D01*
G01*
X18288000Y-4699000D02*
X21590000Y-4699000D01*
X18161000Y-7620000D02*
X18161000Y-4826000D01*
X21590000Y-7747000D02*
X18288000Y-7747000D01*
X21717000Y-7620000D02*
X21717000Y-4826000D01*
D11*
X18398490Y-5317490D02*
X18431510Y-5350510D01*
X18431510Y-5317490D02*
X18398490Y-5350510D01*
X18398490Y-7095490D02*
X18431510Y-7128510D01*
X18431510Y-7095490D02*
X18398490Y-7128510D01*
X18906490Y-5977890D02*
X18939510Y-6010910D01*
X18939510Y-5977890D02*
X18906490Y-6010910D01*
X19681190Y-7197090D02*
X19714210Y-7230110D01*
X19714210Y-7197090D02*
X19681190Y-7230110D01*
X20214590Y-6168390D02*
X20247610Y-6201410D01*
X20247610Y-6168390D02*
X20214590Y-6201410D01*
X20620990Y-6574790D02*
X20654010Y-6607810D01*
X20654010Y-6574790D02*
X20620990Y-6607810D01*
X20730210Y-6648450D02*
X20763230Y-6681470D01*
X20763230Y-6648450D02*
X20730210Y-6681470D01*
X21001990Y-6587490D02*
X21035010Y-6620510D01*
X21035010Y-6587490D02*
X21001990Y-6620510D01*
X21446490Y-5444490D02*
X21479510Y-5477510D01*
X21479510Y-5444490D02*
X21446490Y-5477510D01*
X19973290Y-7124700D02*
G75*
G03X19973290Y-7124700I-25400J0D01*
G01*
X18678500Y-5547000D02*
X18678500Y-5637000D01*
X18633500Y-5592000D02*
X18723500Y-5592000D01*
X18678500Y-5801000D02*
X18678500Y-5891000D01*
X18633500Y-5846000D02*
X18723500Y-5846000D01*
X18678500Y-6055000D02*
X18678500Y-6145000D01*
X18633500Y-6100000D02*
X18723500Y-6100000D01*
X18678500Y-6309000D02*
X18678500Y-6399000D01*
X18633500Y-6354000D02*
X18723500Y-6354000D01*
X18678500Y-6563000D02*
X18678500Y-6653000D01*
X18633500Y-6608000D02*
X18723500Y-6608000D01*
X19948500Y-5547000D02*
X19948500Y-5637000D01*
X19903500Y-5592000D02*
X19993500Y-5592000D01*
X19948500Y-5801000D02*
X19948500Y-5891000D01*
X19903500Y-5846000D02*
X19993500Y-5846000D01*
X19948500Y-6055000D02*
X19948500Y-6145000D01*
X19903500Y-6100000D02*
X19993500Y-6100000D01*
X19948500Y-6309000D02*
X19948500Y-6399000D01*
X19903500Y-6354000D02*
X19993500Y-6354000D01*
X19948500Y-6563000D02*
X19948500Y-6653000D01*
X19903500Y-6608000D02*
X19993500Y-6608000D01*
X21307856Y-4960356D02*
X21307856Y-4889644D01*
X21237144Y-4889644D01*
X21237144Y-4960356D01*
X21307856Y-4960356D01*
X21307856Y-5214356D02*
X21307856Y-5143644D01*
X21237144Y-5143644D01*
X21237144Y-5214356D01*
X21307856Y-5214356D01*
X21307856Y-7010356D02*
X21307856Y-6939644D01*
X21237144Y-6939644D01*
X21237144Y-7010356D01*
X21307856Y-7010356D01*
X21307856Y-7264356D02*
X21307856Y-7193644D01*
X21237144Y-7193644D01*
X21237144Y-7264356D01*
X21307856Y-7264356D01*
X21307856Y-7518356D02*
X21307856Y-7447644D01*
X21237144Y-7447644D01*
X21237144Y-7518356D01*
X21307856Y-7518356D01*
X20348856Y-7260356D02*
X20348856Y-7189644D01*
X20278144Y-7189644D01*
X20278144Y-7260356D01*
X20348856Y-7260356D01*
X20348856Y-7514356D02*
X20348856Y-7443644D01*
X20278144Y-7443644D01*
X20278144Y-7514356D01*
X20348856Y-7514356D01*
X20782189Y-7010356D02*
X20782189Y-6939644D01*
X20711478Y-6939644D01*
X20711478Y-7010356D01*
X20782189Y-7010356D01*
X20782189Y-7264356D02*
X20782189Y-7193644D01*
X20711478Y-7193644D01*
X20711478Y-7264356D01*
X20782189Y-7264356D01*
X20782189Y-7518356D02*
X20782189Y-7447644D01*
X20711478Y-7447644D01*
X20711478Y-7518356D01*
X20782189Y-7518356D01*
X21053856Y-7010356D02*
X21053856Y-6939644D01*
X20983144Y-6939644D01*
X20983144Y-7010356D01*
X21053856Y-7010356D01*
X21053856Y-7264356D02*
X21053856Y-7193644D01*
X20983144Y-7193644D01*
X20983144Y-7264356D01*
X21053856Y-7264356D01*
X21053856Y-7518356D02*
X21053856Y-7447644D01*
X20983144Y-7447644D01*
X20983144Y-7518356D01*
X21053856Y-7518356D01*
X20348856Y-4956356D02*
X20348856Y-4885644D01*
X20278144Y-4885644D01*
X20278144Y-4956356D01*
X20348856Y-4956356D01*
X20348856Y-5210356D02*
X20348856Y-5139644D01*
X20278144Y-5139644D01*
X20278144Y-5210356D01*
X20348856Y-5210356D01*
X21463000Y-6358000D02*
X21598000Y-6223000D01*
X21463000Y-6088000D01*
X21328000Y-6223000D01*
X21463000Y-6358000D01*
X18255000Y-4793000D02*
X18575000Y-5113000D01*
X18575000Y-4793000D02*
X18255000Y-5113000D01*
X18575000Y-4953000D02*
G75*
G03X18575000Y-4953000I-160000J0D01*
G01*
X18255000Y-7333000D02*
X18575000Y-7653000D01*
X18575000Y-7333000D02*
X18255000Y-7653000D01*
X18575000Y-7493000D02*
G75*
G03X18575000Y-7493000I-160000J0D01*
G01*
D12*
X18439928Y-8220214D02*
X18439928Y-7920214D01*
X18511357Y-7920214D01*
X18554214Y-7934500D01*
X18582786Y-7963071D01*
X18597071Y-7991643D01*
X18611357Y-8048786D01*
X18611357Y-8091643D01*
X18597071Y-8148786D01*
X18582786Y-8177357D01*
X18554214Y-8205929D01*
X18511357Y-8220214D01*
X18439928Y-8220214D01*
X18739928Y-8220214D02*
X18739928Y-8020214D01*
X18739928Y-8077357D02*
X18754214Y-8048786D01*
X18768500Y-8034500D01*
X18797071Y-8020214D01*
X18825643Y-8020214D01*
X18925643Y-8220214D02*
X18925643Y-8020214D01*
X18925643Y-7920214D02*
X18911357Y-7934500D01*
X18925643Y-7948786D01*
X18939928Y-7934500D01*
X18925643Y-7920214D01*
X18925643Y-7948786D01*
X19111357Y-8220214D02*
X19082786Y-8205929D01*
X19068500Y-8177357D01*
X19068500Y-7920214D01*
X19268500Y-8220214D02*
X19239928Y-8205929D01*
X19225643Y-8177357D01*
X19225643Y-7920214D01*
X19611357Y-8220214D02*
X19611357Y-7920214D01*
X19711357Y-8134500D01*
X19811357Y-7920214D01*
X19811357Y-8220214D01*
X20082786Y-8220214D02*
X20082786Y-8063071D01*
X20068500Y-8034500D01*
X20039928Y-8020214D01*
X19982786Y-8020214D01*
X19954214Y-8034500D01*
X20082786Y-8205929D02*
X20054214Y-8220214D01*
X19982786Y-8220214D01*
X19954214Y-8205929D01*
X19939928Y-8177357D01*
X19939928Y-8148786D01*
X19954214Y-8120214D01*
X19982786Y-8105929D01*
X20054214Y-8105929D01*
X20082786Y-8091643D01*
X20225643Y-8020214D02*
X20225643Y-8320214D01*
X20225643Y-8034500D02*
X20254214Y-8020214D01*
X20311357Y-8020214D01*
X20339928Y-8034500D01*
X20354214Y-8048786D01*
X20368500Y-8077357D01*
X20368500Y-8163071D01*
X20354214Y-8191643D01*
X20339928Y-8205929D01*
X20311357Y-8220214D01*
X20254214Y-8220214D01*
X20225643Y-8205929D01*
X20497071Y-8191643D02*
X20511357Y-8205929D01*
X20497071Y-8220214D01*
X20482786Y-8205929D01*
X20497071Y-8191643D01*
X20497071Y-8220214D01*
X20497071Y-8034500D02*
X20511357Y-8048786D01*
X20497071Y-8063071D01*
X20482786Y-8048786D01*
X20497071Y-8034500D01*
X20497071Y-8063071D01*
X18120480Y-8697990D02*
X18153500Y-8731010D01*
X18153500Y-8697990D02*
X18120480Y-8731010D01*
X18497071Y-8550214D02*
X18525643Y-8550214D01*
X18554214Y-8564500D01*
X18568500Y-8578786D01*
X18582786Y-8607357D01*
X18597071Y-8664500D01*
X18597071Y-8735929D01*
X18582786Y-8793072D01*
X18568500Y-8821643D01*
X18554214Y-8835929D01*
X18525643Y-8850214D01*
X18497071Y-8850214D01*
X18468500Y-8835929D01*
X18454214Y-8821643D01*
X18439928Y-8793072D01*
X18425643Y-8735929D01*
X18425643Y-8664500D01*
X18439928Y-8607357D01*
X18454214Y-8578786D01*
X18468500Y-8564500D01*
X18497071Y-8550214D01*
X18725643Y-8821643D02*
X18739928Y-8835929D01*
X18725643Y-8850214D01*
X18711357Y-8835929D01*
X18725643Y-8821643D01*
X18725643Y-8850214D01*
X18839928Y-8550214D02*
X19025643Y-8550214D01*
X18925643Y-8664500D01*
X18968500Y-8664500D01*
X18997071Y-8678786D01*
X19011357Y-8693072D01*
X19025643Y-8721643D01*
X19025643Y-8793072D01*
X19011357Y-8821643D01*
X18997071Y-8835929D01*
X18968500Y-8850214D01*
X18882786Y-8850214D01*
X18854214Y-8835929D01*
X18839928Y-8821643D01*
X19125643Y-8550214D02*
X19311357Y-8550214D01*
X19211357Y-8664500D01*
X19254214Y-8664500D01*
X19282786Y-8678786D01*
X19297071Y-8693072D01*
X19311357Y-8721643D01*
X19311357Y-8793072D01*
X19297071Y-8821643D01*
X19282786Y-8835929D01*
X19254214Y-8850214D01*
X19168500Y-8850214D01*
X19139928Y-8835929D01*
X19125643Y-8821643D01*
X19439928Y-8850214D02*
X19439928Y-8650214D01*
X19439928Y-8678786D02*
X19454214Y-8664500D01*
X19482786Y-8650214D01*
X19525643Y-8650214D01*
X19554214Y-8664500D01*
X19568500Y-8693072D01*
X19568500Y-8850214D01*
X19568500Y-8693072D02*
X19582786Y-8664500D01*
X19611357Y-8650214D01*
X19654214Y-8650214D01*
X19682786Y-8664500D01*
X19697071Y-8693072D01*
X19697071Y-8850214D01*
X19839928Y-8850214D02*
X19839928Y-8650214D01*
X19839928Y-8678786D02*
X19854214Y-8664500D01*
X19882786Y-8650214D01*
X19925643Y-8650214D01*
X19954214Y-8664500D01*
X19968500Y-8693072D01*
X19968500Y-8850214D01*
X19968500Y-8693072D02*
X19982786Y-8664500D01*
X20011357Y-8650214D01*
X20054214Y-8650214D01*
X20082786Y-8664500D01*
X20097071Y-8693072D01*
X20097071Y-8850214D01*
X20682786Y-8535929D02*
X20425643Y-8921643D01*
X21068500Y-8550214D02*
X21097071Y-8550214D01*
X21125643Y-8564500D01*
X21139928Y-8578786D01*
X21154214Y-8607357D01*
X21168500Y-8664500D01*
X21168500Y-8735929D01*
X21154214Y-8793072D01*
X21139928Y-8821643D01*
X21125643Y-8835929D01*
X21097071Y-8850214D01*
X21068500Y-8850214D01*
X21039928Y-8835929D01*
X21025643Y-8821643D01*
X21011357Y-8793072D01*
X20997071Y-8735929D01*
X20997071Y-8664500D01*
X21011357Y-8607357D01*
X21025643Y-8578786D01*
X21039928Y-8564500D01*
X21068500Y-8550214D01*
X21297071Y-8821643D02*
X21311357Y-8835929D01*
X21297071Y-8850214D01*
X21282786Y-8835929D01*
X21297071Y-8821643D01*
X21297071Y-8850214D01*
X21497071Y-8550214D02*
X21525643Y-8550214D01*
X21554214Y-8564500D01*
X21568500Y-8578786D01*
X21582786Y-8607357D01*
X21597071Y-8664500D01*
X21597071Y-8735929D01*
X21582786Y-8793072D01*
X21568500Y-8821643D01*
X21554214Y-8835929D01*
X21525643Y-8850214D01*
X21497071Y-8850214D01*
X21468500Y-8835929D01*
X21454214Y-8821643D01*
X21439928Y-8793072D01*
X21425643Y-8735929D01*
X21425643Y-8664500D01*
X21439928Y-8607357D01*
X21454214Y-8578786D01*
X21468500Y-8564500D01*
X21497071Y-8550214D01*
X21882786Y-8850214D02*
X21711357Y-8850214D01*
X21797071Y-8850214D02*
X21797071Y-8550214D01*
X21768500Y-8593072D01*
X21739928Y-8621643D01*
X21711357Y-8635929D01*
X21982786Y-8550214D02*
X22168500Y-8550214D01*
X22068500Y-8664500D01*
X22111357Y-8664500D01*
X22139928Y-8678786D01*
X22154214Y-8693072D01*
X22168500Y-8721643D01*
X22168500Y-8793072D01*
X22154214Y-8821643D01*
X22139928Y-8835929D01*
X22111357Y-8850214D01*
X22025643Y-8850214D01*
X21997071Y-8835929D01*
X21982786Y-8821643D01*
X22282786Y-8550214D02*
X22282786Y-8607357D01*
X22397071Y-8550214D02*
X22397071Y-8607357D01*
X22839928Y-8964500D02*
X22825643Y-8950214D01*
X22797071Y-8907357D01*
X22782786Y-8878786D01*
X22768500Y-8835929D01*
X22754214Y-8764500D01*
X22754214Y-8707357D01*
X22768500Y-8635929D01*
X22782786Y-8593072D01*
X22797071Y-8564500D01*
X22825643Y-8521643D01*
X22839928Y-8507357D01*
X22968500Y-8850214D02*
X23025643Y-8850214D01*
X23054214Y-8835929D01*
X23068500Y-8821643D01*
X23097071Y-8778786D01*
X23111357Y-8721643D01*
X23111357Y-8607357D01*
X23097071Y-8578786D01*
X23082786Y-8564500D01*
X23054214Y-8550214D01*
X22997071Y-8550214D01*
X22968500Y-8564500D01*
X22954214Y-8578786D01*
X22939928Y-8607357D01*
X22939928Y-8678786D01*
X22954214Y-8707357D01*
X22968500Y-8721643D01*
X22997071Y-8735929D01*
X23054214Y-8735929D01*
X23082786Y-8721643D01*
X23097071Y-8707357D01*
X23111357Y-8678786D01*
X23468500Y-8850214D02*
X23468500Y-8550214D01*
X23597071Y-8850214D02*
X23597071Y-8693072D01*
X23582786Y-8664500D01*
X23554214Y-8650214D01*
X23511357Y-8650214D01*
X23482786Y-8664500D01*
X23468500Y-8678786D01*
X23782786Y-8850214D02*
X23754214Y-8835929D01*
X23739928Y-8821643D01*
X23725643Y-8793072D01*
X23725643Y-8707357D01*
X23739928Y-8678786D01*
X23754214Y-8664500D01*
X23782786Y-8650214D01*
X23825643Y-8650214D01*
X23854214Y-8664500D01*
X23868500Y-8678786D01*
X23882786Y-8707357D01*
X23882786Y-8793072D01*
X23868500Y-8821643D01*
X23854214Y-8835929D01*
X23825643Y-8850214D01*
X23782786Y-8850214D01*
X24054214Y-8850214D02*
X24025643Y-8835929D01*
X24011357Y-8807357D01*
X24011357Y-8550214D01*
X24282786Y-8835929D02*
X24254214Y-8850214D01*
X24197071Y-8850214D01*
X24168500Y-8835929D01*
X24154214Y-8807357D01*
X24154214Y-8693072D01*
X24168500Y-8664500D01*
X24197071Y-8650214D01*
X24254214Y-8650214D01*
X24282786Y-8664500D01*
X24297071Y-8693072D01*
X24297071Y-8721643D01*
X24154214Y-8750214D01*
X24411357Y-8835929D02*
X24439928Y-8850214D01*
X24497071Y-8850214D01*
X24525643Y-8835929D01*
X24539928Y-8807357D01*
X24539928Y-8793072D01*
X24525643Y-8764500D01*
X24497071Y-8750214D01*
X24454214Y-8750214D01*
X24425643Y-8735929D01*
X24411357Y-8707357D01*
X24411357Y-8693072D01*
X24425643Y-8664500D01*
X24454214Y-8650214D01*
X24497071Y-8650214D01*
X24525643Y-8664500D01*
X24639928Y-8964500D02*
X24654214Y-8950214D01*
X24682786Y-8907357D01*
X24697071Y-8878786D01*
X24711357Y-8835929D01*
X24725643Y-8764500D01*
X24725643Y-8707357D01*
X24711357Y-8635929D01*
X24697071Y-8593072D01*
X24682786Y-8564500D01*
X24654214Y-8521643D01*
X24639928Y-8507357D01*
X18153500Y-9110500D02*
G75*
G03X18153500Y-9110500I-25400J0D01*
G01*
X18497071Y-8946214D02*
X18525643Y-8946214D01*
X18554214Y-8960500D01*
X18568500Y-8974786D01*
X18582786Y-9003357D01*
X18597071Y-9060500D01*
X18597071Y-9131929D01*
X18582786Y-9189072D01*
X18568500Y-9217643D01*
X18554214Y-9231929D01*
X18525643Y-9246214D01*
X18497071Y-9246214D01*
X18468500Y-9231929D01*
X18454214Y-9217643D01*
X18439928Y-9189072D01*
X18425643Y-9131929D01*
X18425643Y-9060500D01*
X18439928Y-9003357D01*
X18454214Y-8974786D01*
X18468500Y-8960500D01*
X18497071Y-8946214D01*
X18725643Y-9217643D02*
X18739928Y-9231929D01*
X18725643Y-9246214D01*
X18711357Y-9231929D01*
X18725643Y-9217643D01*
X18725643Y-9246214D01*
X19011357Y-8946214D02*
X18868500Y-8946214D01*
X18854214Y-9089072D01*
X18868500Y-9074786D01*
X18897071Y-9060500D01*
X18968500Y-9060500D01*
X18997071Y-9074786D01*
X19011357Y-9089072D01*
X19025643Y-9117643D01*
X19025643Y-9189072D01*
X19011357Y-9217643D01*
X18997071Y-9231929D01*
X18968500Y-9246214D01*
X18897071Y-9246214D01*
X18868500Y-9231929D01*
X18854214Y-9217643D01*
X19311357Y-9246214D02*
X19139928Y-9246214D01*
X19225643Y-9246214D02*
X19225643Y-8946214D01*
X19197071Y-8989072D01*
X19168500Y-9017643D01*
X19139928Y-9031929D01*
X19439928Y-9246214D02*
X19439928Y-9046214D01*
X19439928Y-9074786D02*
X19454214Y-9060500D01*
X19482786Y-9046214D01*
X19525643Y-9046214D01*
X19554214Y-9060500D01*
X19568500Y-9089072D01*
X19568500Y-9246214D01*
X19568500Y-9089072D02*
X19582786Y-9060500D01*
X19611357Y-9046214D01*
X19654214Y-9046214D01*
X19682786Y-9060500D01*
X19697071Y-9089072D01*
X19697071Y-9246214D01*
X19839928Y-9246214D02*
X19839928Y-9046214D01*
X19839928Y-9074786D02*
X19854214Y-9060500D01*
X19882786Y-9046214D01*
X19925643Y-9046214D01*
X19954214Y-9060500D01*
X19968500Y-9089072D01*
X19968500Y-9246214D01*
X19968500Y-9089072D02*
X19982786Y-9060500D01*
X20011357Y-9046214D01*
X20054214Y-9046214D01*
X20082786Y-9060500D01*
X20097071Y-9089072D01*
X20097071Y-9246214D01*
X20682786Y-8931929D02*
X20425643Y-9317643D01*
X21068500Y-8946214D02*
X21097071Y-8946214D01*
X21125643Y-8960500D01*
X21139928Y-8974786D01*
X21154214Y-9003357D01*
X21168500Y-9060500D01*
X21168500Y-9131929D01*
X21154214Y-9189072D01*
X21139928Y-9217643D01*
X21125643Y-9231929D01*
X21097071Y-9246214D01*
X21068500Y-9246214D01*
X21039928Y-9231929D01*
X21025643Y-9217643D01*
X21011357Y-9189072D01*
X20997071Y-9131929D01*
X20997071Y-9060500D01*
X21011357Y-9003357D01*
X21025643Y-8974786D01*
X21039928Y-8960500D01*
X21068500Y-8946214D01*
X21297071Y-9217643D02*
X21311357Y-9231929D01*
X21297071Y-9246214D01*
X21282786Y-9231929D01*
X21297071Y-9217643D01*
X21297071Y-9246214D01*
X21497071Y-8946214D02*
X21525643Y-8946214D01*
X21554214Y-8960500D01*
X21568500Y-8974786D01*
X21582786Y-9003357D01*
X21597071Y-9060500D01*
X21597071Y-9131929D01*
X21582786Y-9189072D01*
X21568500Y-9217643D01*
X21554214Y-9231929D01*
X21525643Y-9246214D01*
X21497071Y-9246214D01*
X21468500Y-9231929D01*
X21454214Y-9217643D01*
X21439928Y-9189072D01*
X21425643Y-9131929D01*
X21425643Y-9060500D01*
X21439928Y-9003357D01*
X21454214Y-8974786D01*
X21468500Y-8960500D01*
X21497071Y-8946214D01*
X21711357Y-8974786D02*
X21725643Y-8960500D01*
X21754214Y-8946214D01*
X21825643Y-8946214D01*
X21854214Y-8960500D01*
X21868500Y-8974786D01*
X21882786Y-9003357D01*
X21882786Y-9031929D01*
X21868500Y-9074786D01*
X21697071Y-9246214D01*
X21882786Y-9246214D01*
X22068500Y-8946214D02*
X22097071Y-8946214D01*
X22125643Y-8960500D01*
X22139928Y-8974786D01*
X22154214Y-9003357D01*
X22168500Y-9060500D01*
X22168500Y-9131929D01*
X22154214Y-9189072D01*
X22139928Y-9217643D01*
X22125643Y-9231929D01*
X22097071Y-9246214D01*
X22068500Y-9246214D01*
X22039928Y-9231929D01*
X22025643Y-9217643D01*
X22011357Y-9189072D01*
X21997071Y-9131929D01*
X21997071Y-9060500D01*
X22011357Y-9003357D01*
X22025643Y-8974786D01*
X22039928Y-8960500D01*
X22068500Y-8946214D01*
X22282786Y-8946214D02*
X22282786Y-9003357D01*
X22397071Y-8946214D02*
X22397071Y-9003357D01*
X22839928Y-9360500D02*
X22825643Y-9346214D01*
X22797071Y-9303357D01*
X22782786Y-9274786D01*
X22768500Y-9231929D01*
X22754214Y-9160500D01*
X22754214Y-9103357D01*
X22768500Y-9031929D01*
X22782786Y-8989072D01*
X22797071Y-8960500D01*
X22825643Y-8917643D01*
X22839928Y-8903357D01*
X23111357Y-9246214D02*
X22939928Y-9246214D01*
X23025643Y-9246214D02*
X23025643Y-8946214D01*
X22997071Y-8989072D01*
X22968500Y-9017643D01*
X22939928Y-9031929D01*
X23468500Y-9246214D02*
X23468500Y-8946214D01*
X23597071Y-9246214D02*
X23597071Y-9089072D01*
X23582786Y-9060500D01*
X23554214Y-9046214D01*
X23511357Y-9046214D01*
X23482786Y-9060500D01*
X23468500Y-9074786D01*
X23782786Y-9246214D02*
X23754214Y-9231929D01*
X23739928Y-9217643D01*
X23725643Y-9189072D01*
X23725643Y-9103357D01*
X23739928Y-9074786D01*
X23754214Y-9060500D01*
X23782786Y-9046214D01*
X23825643Y-9046214D01*
X23854214Y-9060500D01*
X23868500Y-9074786D01*
X23882786Y-9103357D01*
X23882786Y-9189072D01*
X23868500Y-9217643D01*
X23854214Y-9231929D01*
X23825643Y-9246214D01*
X23782786Y-9246214D01*
X24054214Y-9246214D02*
X24025643Y-9231929D01*
X24011357Y-9203357D01*
X24011357Y-8946214D01*
X24282786Y-9231929D02*
X24254214Y-9246214D01*
X24197071Y-9246214D01*
X24168500Y-9231929D01*
X24154214Y-9203357D01*
X24154214Y-9089072D01*
X24168500Y-9060500D01*
X24197071Y-9046214D01*
X24254214Y-9046214D01*
X24282786Y-9060500D01*
X24297071Y-9089072D01*
X24297071Y-9117643D01*
X24154214Y-9146214D01*
X24397071Y-9360500D02*
X24411357Y-9346214D01*
X24439928Y-9303357D01*
X24454214Y-9274786D01*
X24468500Y-9231929D01*
X24482786Y-9160500D01*
X24482786Y-9103357D01*
X24468500Y-9031929D01*
X24454214Y-8989072D01*
X24439928Y-8960500D01*
X24411357Y-8917643D01*
X24397071Y-8903357D01*
X18108500Y-9461500D02*
X18108500Y-9551500D01*
X18063500Y-9506500D02*
X18153500Y-9506500D01*
X18497071Y-9342214D02*
X18525643Y-9342214D01*
X18554214Y-9356500D01*
X18568500Y-9370786D01*
X18582786Y-9399357D01*
X18597071Y-9456500D01*
X18597071Y-9527929D01*
X18582786Y-9585072D01*
X18568500Y-9613643D01*
X18554214Y-9627929D01*
X18525643Y-9642214D01*
X18497071Y-9642214D01*
X18468500Y-9627929D01*
X18454214Y-9613643D01*
X18439928Y-9585072D01*
X18425643Y-9527929D01*
X18425643Y-9456500D01*
X18439928Y-9399357D01*
X18454214Y-9370786D01*
X18468500Y-9356500D01*
X18497071Y-9342214D01*
X18725643Y-9613643D02*
X18739928Y-9627929D01*
X18725643Y-9642214D01*
X18711357Y-9627929D01*
X18725643Y-9613643D01*
X18725643Y-9642214D01*
X18882786Y-9642214D02*
X18939928Y-9642214D01*
X18968500Y-9627929D01*
X18982786Y-9613643D01*
X19011357Y-9570786D01*
X19025643Y-9513643D01*
X19025643Y-9399357D01*
X19011357Y-9370786D01*
X18997071Y-9356500D01*
X18968500Y-9342214D01*
X18911357Y-9342214D01*
X18882786Y-9356500D01*
X18868500Y-9370786D01*
X18854214Y-9399357D01*
X18854214Y-9470786D01*
X18868500Y-9499357D01*
X18882786Y-9513643D01*
X18911357Y-9527929D01*
X18968500Y-9527929D01*
X18997071Y-9513643D01*
X19011357Y-9499357D01*
X19025643Y-9470786D01*
X19211357Y-9342214D02*
X19239928Y-9342214D01*
X19268500Y-9356500D01*
X19282786Y-9370786D01*
X19297071Y-9399357D01*
X19311357Y-9456500D01*
X19311357Y-9527929D01*
X19297071Y-9585072D01*
X19282786Y-9613643D01*
X19268500Y-9627929D01*
X19239928Y-9642214D01*
X19211357Y-9642214D01*
X19182786Y-9627929D01*
X19168500Y-9613643D01*
X19154214Y-9585072D01*
X19139928Y-9527929D01*
X19139928Y-9456500D01*
X19154214Y-9399357D01*
X19168500Y-9370786D01*
X19182786Y-9356500D01*
X19211357Y-9342214D01*
X19439928Y-9642214D02*
X19439928Y-9442214D01*
X19439928Y-9470786D02*
X19454214Y-9456500D01*
X19482786Y-9442214D01*
X19525643Y-9442214D01*
X19554214Y-9456500D01*
X19568500Y-9485072D01*
X19568500Y-9642214D01*
X19568500Y-9485072D02*
X19582786Y-9456500D01*
X19611357Y-9442214D01*
X19654214Y-9442214D01*
X19682786Y-9456500D01*
X19697071Y-9485072D01*
X19697071Y-9642214D01*
X19839928Y-9642214D02*
X19839928Y-9442214D01*
X19839928Y-9470786D02*
X19854214Y-9456500D01*
X19882786Y-9442214D01*
X19925643Y-9442214D01*
X19954214Y-9456500D01*
X19968500Y-9485072D01*
X19968500Y-9642214D01*
X19968500Y-9485072D02*
X19982786Y-9456500D01*
X20011357Y-9442214D01*
X20054214Y-9442214D01*
X20082786Y-9456500D01*
X20097071Y-9485072D01*
X20097071Y-9642214D01*
X20682786Y-9327929D02*
X20425643Y-9713643D01*
X21068500Y-9342214D02*
X21097071Y-9342214D01*
X21125643Y-9356500D01*
X21139928Y-9370786D01*
X21154214Y-9399357D01*
X21168500Y-9456500D01*
X21168500Y-9527929D01*
X21154214Y-9585072D01*
X21139928Y-9613643D01*
X21125643Y-9627929D01*
X21097071Y-9642214D01*
X21068500Y-9642214D01*
X21039928Y-9627929D01*
X21025643Y-9613643D01*
X21011357Y-9585072D01*
X20997071Y-9527929D01*
X20997071Y-9456500D01*
X21011357Y-9399357D01*
X21025643Y-9370786D01*
X21039928Y-9356500D01*
X21068500Y-9342214D01*
X21297071Y-9613643D02*
X21311357Y-9627929D01*
X21297071Y-9642214D01*
X21282786Y-9627929D01*
X21297071Y-9613643D01*
X21297071Y-9642214D01*
X21497071Y-9342214D02*
X21525643Y-9342214D01*
X21554214Y-9356500D01*
X21568500Y-9370786D01*
X21582786Y-9399357D01*
X21597071Y-9456500D01*
X21597071Y-9527929D01*
X21582786Y-9585072D01*
X21568500Y-9613643D01*
X21554214Y-9627929D01*
X21525643Y-9642214D01*
X21497071Y-9642214D01*
X21468500Y-9627929D01*
X21454214Y-9613643D01*
X21439928Y-9585072D01*
X21425643Y-9527929D01*
X21425643Y-9456500D01*
X21439928Y-9399357D01*
X21454214Y-9370786D01*
X21468500Y-9356500D01*
X21497071Y-9342214D01*
X21697071Y-9342214D02*
X21882786Y-9342214D01*
X21782786Y-9456500D01*
X21825643Y-9456500D01*
X21854214Y-9470786D01*
X21868500Y-9485072D01*
X21882786Y-9513643D01*
X21882786Y-9585072D01*
X21868500Y-9613643D01*
X21854214Y-9627929D01*
X21825643Y-9642214D01*
X21739928Y-9642214D01*
X21711357Y-9627929D01*
X21697071Y-9613643D01*
X22154214Y-9342214D02*
X22011357Y-9342214D01*
X21997071Y-9485072D01*
X22011357Y-9470786D01*
X22039928Y-9456500D01*
X22111357Y-9456500D01*
X22139928Y-9470786D01*
X22154214Y-9485072D01*
X22168500Y-9513643D01*
X22168500Y-9585072D01*
X22154214Y-9613643D01*
X22139928Y-9627929D01*
X22111357Y-9642214D01*
X22039928Y-9642214D01*
X22011357Y-9627929D01*
X21997071Y-9613643D01*
X22282786Y-9342214D02*
X22282786Y-9399357D01*
X22397071Y-9342214D02*
X22397071Y-9399357D01*
X22839928Y-9756500D02*
X22825643Y-9742214D01*
X22797071Y-9699357D01*
X22782786Y-9670786D01*
X22768500Y-9627929D01*
X22754214Y-9556500D01*
X22754214Y-9499357D01*
X22768500Y-9427929D01*
X22782786Y-9385072D01*
X22797071Y-9356500D01*
X22825643Y-9313643D01*
X22839928Y-9299357D01*
X23111357Y-9642214D02*
X22939928Y-9642214D01*
X23025643Y-9642214D02*
X23025643Y-9342214D01*
X22997071Y-9385072D01*
X22968500Y-9413643D01*
X22939928Y-9427929D01*
X23297071Y-9342214D02*
X23325643Y-9342214D01*
X23354214Y-9356500D01*
X23368500Y-9370786D01*
X23382786Y-9399357D01*
X23397071Y-9456500D01*
X23397071Y-9527929D01*
X23382786Y-9585072D01*
X23368500Y-9613643D01*
X23354214Y-9627929D01*
X23325643Y-9642214D01*
X23297071Y-9642214D01*
X23268500Y-9627929D01*
X23254214Y-9613643D01*
X23239928Y-9585072D01*
X23225643Y-9527929D01*
X23225643Y-9456500D01*
X23239928Y-9399357D01*
X23254214Y-9370786D01*
X23268500Y-9356500D01*
X23297071Y-9342214D01*
X23754214Y-9642214D02*
X23754214Y-9342214D01*
X23882786Y-9642214D02*
X23882786Y-9485072D01*
X23868500Y-9456500D01*
X23839928Y-9442214D01*
X23797071Y-9442214D01*
X23768500Y-9456500D01*
X23754214Y-9470786D01*
X24068500Y-9642214D02*
X24039928Y-9627929D01*
X24025643Y-9613643D01*
X24011357Y-9585072D01*
X24011357Y-9499357D01*
X24025643Y-9470786D01*
X24039928Y-9456500D01*
X24068500Y-9442214D01*
X24111357Y-9442214D01*
X24139928Y-9456500D01*
X24154214Y-9470786D01*
X24168500Y-9499357D01*
X24168500Y-9585072D01*
X24154214Y-9613643D01*
X24139928Y-9627929D01*
X24111357Y-9642214D01*
X24068500Y-9642214D01*
X24339928Y-9642214D02*
X24311357Y-9627929D01*
X24297071Y-9599357D01*
X24297071Y-9342214D01*
X24568500Y-9627929D02*
X24539928Y-9642214D01*
X24482786Y-9642214D01*
X24454214Y-9627929D01*
X24439928Y-9599357D01*
X24439928Y-9485072D01*
X24454214Y-9456500D01*
X24482786Y-9442214D01*
X24539928Y-9442214D01*
X24568500Y-9456500D01*
X24582786Y-9485072D01*
X24582786Y-9513643D01*
X24439928Y-9542214D01*
X24697071Y-9627929D02*
X24725643Y-9642214D01*
X24782786Y-9642214D01*
X24811357Y-9627929D01*
X24825643Y-9599357D01*
X24825643Y-9585072D01*
X24811357Y-9556500D01*
X24782786Y-9542214D01*
X24739928Y-9542214D01*
X24711357Y-9527929D01*
X24697071Y-9499357D01*
X24697071Y-9485072D01*
X24711357Y-9456500D01*
X24739928Y-9442214D01*
X24782786Y-9442214D01*
X24811357Y-9456500D01*
X24925643Y-9756500D02*
X24939928Y-9742214D01*
X24968500Y-9699357D01*
X24982786Y-9670786D01*
X24997071Y-9627929D01*
X25011357Y-9556500D01*
X25011357Y-9499357D01*
X24997071Y-9427929D01*
X24982786Y-9385072D01*
X24968500Y-9356500D01*
X24939928Y-9313643D01*
X24925643Y-9299357D01*
X18138856Y-9937856D02*
X18138856Y-9867144D01*
X18068144Y-9867144D01*
X18068144Y-9937856D01*
X18138856Y-9937856D01*
X18597071Y-10038214D02*
X18425643Y-10038214D01*
X18511357Y-10038214D02*
X18511357Y-9738214D01*
X18482786Y-9781072D01*
X18454214Y-9809643D01*
X18425643Y-9823929D01*
X18725643Y-10009643D02*
X18739928Y-10023929D01*
X18725643Y-10038214D01*
X18711357Y-10023929D01*
X18725643Y-10009643D01*
X18725643Y-10038214D01*
X18925643Y-9738214D02*
X18954214Y-9738214D01*
X18982786Y-9752500D01*
X18997071Y-9766786D01*
X19011357Y-9795357D01*
X19025643Y-9852500D01*
X19025643Y-9923929D01*
X19011357Y-9981072D01*
X18997071Y-10009643D01*
X18982786Y-10023929D01*
X18954214Y-10038214D01*
X18925643Y-10038214D01*
X18897071Y-10023929D01*
X18882786Y-10009643D01*
X18868500Y-9981072D01*
X18854214Y-9923929D01*
X18854214Y-9852500D01*
X18868500Y-9795357D01*
X18882786Y-9766786D01*
X18897071Y-9752500D01*
X18925643Y-9738214D01*
X19211357Y-9738214D02*
X19239928Y-9738214D01*
X19268500Y-9752500D01*
X19282786Y-9766786D01*
X19297071Y-9795357D01*
X19311357Y-9852500D01*
X19311357Y-9923929D01*
X19297071Y-9981072D01*
X19282786Y-10009643D01*
X19268500Y-10023929D01*
X19239928Y-10038214D01*
X19211357Y-10038214D01*
X19182786Y-10023929D01*
X19168500Y-10009643D01*
X19154214Y-9981072D01*
X19139928Y-9923929D01*
X19139928Y-9852500D01*
X19154214Y-9795357D01*
X19168500Y-9766786D01*
X19182786Y-9752500D01*
X19211357Y-9738214D01*
X19439928Y-10038214D02*
X19439928Y-9838214D01*
X19439928Y-9866786D02*
X19454214Y-9852500D01*
X19482786Y-9838214D01*
X19525643Y-9838214D01*
X19554214Y-9852500D01*
X19568500Y-9881072D01*
X19568500Y-10038214D01*
X19568500Y-9881072D02*
X19582786Y-9852500D01*
X19611357Y-9838214D01*
X19654214Y-9838214D01*
X19682786Y-9852500D01*
X19697071Y-9881072D01*
X19697071Y-10038214D01*
X19839928Y-10038214D02*
X19839928Y-9838214D01*
X19839928Y-9866786D02*
X19854214Y-9852500D01*
X19882786Y-9838214D01*
X19925643Y-9838214D01*
X19954214Y-9852500D01*
X19968500Y-9881072D01*
X19968500Y-10038214D01*
X19968500Y-9881072D02*
X19982786Y-9852500D01*
X20011357Y-9838214D01*
X20054214Y-9838214D01*
X20082786Y-9852500D01*
X20097071Y-9881072D01*
X20097071Y-10038214D01*
X20682786Y-9723929D02*
X20425643Y-10109643D01*
X21068500Y-9738214D02*
X21097071Y-9738214D01*
X21125643Y-9752500D01*
X21139928Y-9766786D01*
X21154214Y-9795357D01*
X21168500Y-9852500D01*
X21168500Y-9923929D01*
X21154214Y-9981072D01*
X21139928Y-10009643D01*
X21125643Y-10023929D01*
X21097071Y-10038214D01*
X21068500Y-10038214D01*
X21039928Y-10023929D01*
X21025643Y-10009643D01*
X21011357Y-9981072D01*
X20997071Y-9923929D01*
X20997071Y-9852500D01*
X21011357Y-9795357D01*
X21025643Y-9766786D01*
X21039928Y-9752500D01*
X21068500Y-9738214D01*
X21297071Y-10009643D02*
X21311357Y-10023929D01*
X21297071Y-10038214D01*
X21282786Y-10023929D01*
X21297071Y-10009643D01*
X21297071Y-10038214D01*
X21497071Y-9738214D02*
X21525643Y-9738214D01*
X21554214Y-9752500D01*
X21568500Y-9766786D01*
X21582786Y-9795357D01*
X21597071Y-9852500D01*
X21597071Y-9923929D01*
X21582786Y-9981072D01*
X21568500Y-10009643D01*
X21554214Y-10023929D01*
X21525643Y-10038214D01*
X21497071Y-10038214D01*
X21468500Y-10023929D01*
X21454214Y-10009643D01*
X21439928Y-9981072D01*
X21425643Y-9923929D01*
X21425643Y-9852500D01*
X21439928Y-9795357D01*
X21454214Y-9766786D01*
X21468500Y-9752500D01*
X21497071Y-9738214D01*
X21697071Y-9738214D02*
X21882786Y-9738214D01*
X21782786Y-9852500D01*
X21825643Y-9852500D01*
X21854214Y-9866786D01*
X21868500Y-9881072D01*
X21882786Y-9909643D01*
X21882786Y-9981072D01*
X21868500Y-10009643D01*
X21854214Y-10023929D01*
X21825643Y-10038214D01*
X21739928Y-10038214D01*
X21711357Y-10023929D01*
X21697071Y-10009643D01*
X22025643Y-10038214D02*
X22082786Y-10038214D01*
X22111357Y-10023929D01*
X22125643Y-10009643D01*
X22154214Y-9966786D01*
X22168500Y-9909643D01*
X22168500Y-9795357D01*
X22154214Y-9766786D01*
X22139928Y-9752500D01*
X22111357Y-9738214D01*
X22054214Y-9738214D01*
X22025643Y-9752500D01*
X22011357Y-9766786D01*
X21997071Y-9795357D01*
X21997071Y-9866786D01*
X22011357Y-9895357D01*
X22025643Y-9909643D01*
X22054214Y-9923929D01*
X22111357Y-9923929D01*
X22139928Y-9909643D01*
X22154214Y-9895357D01*
X22168500Y-9866786D01*
X22282786Y-9738214D02*
X22282786Y-9795357D01*
X22397071Y-9738214D02*
X22397071Y-9795357D01*
X22839928Y-10152500D02*
X22825643Y-10138214D01*
X22797071Y-10095357D01*
X22782786Y-10066786D01*
X22768500Y-10023929D01*
X22754214Y-9952500D01*
X22754214Y-9895357D01*
X22768500Y-9823929D01*
X22782786Y-9781072D01*
X22797071Y-9752500D01*
X22825643Y-9709643D01*
X22839928Y-9695357D01*
X23111357Y-10038214D02*
X22939928Y-10038214D01*
X23025643Y-10038214D02*
X23025643Y-9738214D01*
X22997071Y-9781072D01*
X22968500Y-9809643D01*
X22939928Y-9823929D01*
X23382786Y-9738214D02*
X23239928Y-9738214D01*
X23225643Y-9881072D01*
X23239928Y-9866786D01*
X23268500Y-9852500D01*
X23339928Y-9852500D01*
X23368500Y-9866786D01*
X23382786Y-9881072D01*
X23397071Y-9909643D01*
X23397071Y-9981072D01*
X23382786Y-10009643D01*
X23368500Y-10023929D01*
X23339928Y-10038214D01*
X23268500Y-10038214D01*
X23239928Y-10023929D01*
X23225643Y-10009643D01*
X23754214Y-10038214D02*
X23754214Y-9738214D01*
X23882786Y-10038214D02*
X23882786Y-9881072D01*
X23868500Y-9852500D01*
X23839928Y-9838214D01*
X23797071Y-9838214D01*
X23768500Y-9852500D01*
X23754214Y-9866786D01*
X24068500Y-10038214D02*
X24039928Y-10023929D01*
X24025643Y-10009643D01*
X24011357Y-9981072D01*
X24011357Y-9895357D01*
X24025643Y-9866786D01*
X24039928Y-9852500D01*
X24068500Y-9838214D01*
X24111357Y-9838214D01*
X24139928Y-9852500D01*
X24154214Y-9866786D01*
X24168500Y-9895357D01*
X24168500Y-9981072D01*
X24154214Y-10009643D01*
X24139928Y-10023929D01*
X24111357Y-10038214D01*
X24068500Y-10038214D01*
X24339928Y-10038214D02*
X24311357Y-10023929D01*
X24297071Y-9995357D01*
X24297071Y-9738214D01*
X24568500Y-10023929D02*
X24539928Y-10038214D01*
X24482786Y-10038214D01*
X24454214Y-10023929D01*
X24439928Y-9995357D01*
X24439928Y-9881072D01*
X24454214Y-9852500D01*
X24482786Y-9838214D01*
X24539928Y-9838214D01*
X24568500Y-9852500D01*
X24582786Y-9881072D01*
X24582786Y-9909643D01*
X24439928Y-9938214D01*
X24697071Y-10023929D02*
X24725643Y-10038214D01*
X24782786Y-10038214D01*
X24811357Y-10023929D01*
X24825643Y-9995357D01*
X24825643Y-9981072D01*
X24811357Y-9952500D01*
X24782786Y-9938214D01*
X24739928Y-9938214D01*
X24711357Y-9923929D01*
X24697071Y-9895357D01*
X24697071Y-9881072D01*
X24711357Y-9852500D01*
X24739928Y-9838214D01*
X24782786Y-9838214D01*
X24811357Y-9852500D01*
X24925643Y-10152500D02*
X24939928Y-10138214D01*
X24968500Y-10095357D01*
X24982786Y-10066786D01*
X24997071Y-10023929D01*
X25011357Y-9952500D01*
X25011357Y-9895357D01*
X24997071Y-9823929D01*
X24982786Y-9781072D01*
X24968500Y-9752500D01*
X24939928Y-9709643D01*
X24925643Y-9695357D01*
X18018500Y-10433500D02*
X18153500Y-10298500D01*
X18018500Y-10163500D01*
X17883500Y-10298500D01*
X18018500Y-10433500D01*
X18425643Y-10162786D02*
X18439928Y-10148500D01*
X18468500Y-10134214D01*
X18539928Y-10134214D01*
X18568500Y-10148500D01*
X18582786Y-10162786D01*
X18597071Y-10191357D01*
X18597071Y-10219929D01*
X18582786Y-10262786D01*
X18411357Y-10434214D01*
X18597071Y-10434214D01*
X18725643Y-10405643D02*
X18739928Y-10419929D01*
X18725643Y-10434214D01*
X18711357Y-10419929D01*
X18725643Y-10405643D01*
X18725643Y-10434214D01*
X18839928Y-10134214D02*
X19039928Y-10134214D01*
X18911357Y-10434214D01*
X19211357Y-10134214D02*
X19239928Y-10134214D01*
X19268500Y-10148500D01*
X19282786Y-10162786D01*
X19297071Y-10191357D01*
X19311357Y-10248500D01*
X19311357Y-10319929D01*
X19297071Y-10377072D01*
X19282786Y-10405643D01*
X19268500Y-10419929D01*
X19239928Y-10434214D01*
X19211357Y-10434214D01*
X19182786Y-10419929D01*
X19168500Y-10405643D01*
X19154214Y-10377072D01*
X19139928Y-10319929D01*
X19139928Y-10248500D01*
X19154214Y-10191357D01*
X19168500Y-10162786D01*
X19182786Y-10148500D01*
X19211357Y-10134214D01*
X19439928Y-10434214D02*
X19439928Y-10234214D01*
X19439928Y-10262786D02*
X19454214Y-10248500D01*
X19482786Y-10234214D01*
X19525643Y-10234214D01*
X19554214Y-10248500D01*
X19568500Y-10277072D01*
X19568500Y-10434214D01*
X19568500Y-10277072D02*
X19582786Y-10248500D01*
X19611357Y-10234214D01*
X19654214Y-10234214D01*
X19682786Y-10248500D01*
X19697071Y-10277072D01*
X19697071Y-10434214D01*
X19839928Y-10434214D02*
X19839928Y-10234214D01*
X19839928Y-10262786D02*
X19854214Y-10248500D01*
X19882786Y-10234214D01*
X19925643Y-10234214D01*
X19954214Y-10248500D01*
X19968500Y-10277072D01*
X19968500Y-10434214D01*
X19968500Y-10277072D02*
X19982786Y-10248500D01*
X20011357Y-10234214D01*
X20054214Y-10234214D01*
X20082786Y-10248500D01*
X20097071Y-10277072D01*
X20097071Y-10434214D01*
X20682786Y-10119929D02*
X20425643Y-10505643D01*
X21068500Y-10134214D02*
X21097071Y-10134214D01*
X21125643Y-10148500D01*
X21139928Y-10162786D01*
X21154214Y-10191357D01*
X21168500Y-10248500D01*
X21168500Y-10319929D01*
X21154214Y-10377072D01*
X21139928Y-10405643D01*
X21125643Y-10419929D01*
X21097071Y-10434214D01*
X21068500Y-10434214D01*
X21039928Y-10419929D01*
X21025643Y-10405643D01*
X21011357Y-10377072D01*
X20997071Y-10319929D01*
X20997071Y-10248500D01*
X21011357Y-10191357D01*
X21025643Y-10162786D01*
X21039928Y-10148500D01*
X21068500Y-10134214D01*
X21297071Y-10405643D02*
X21311357Y-10419929D01*
X21297071Y-10434214D01*
X21282786Y-10419929D01*
X21297071Y-10405643D01*
X21297071Y-10434214D01*
X21597071Y-10434214D02*
X21425643Y-10434214D01*
X21511357Y-10434214D02*
X21511357Y-10134214D01*
X21482786Y-10177072D01*
X21454214Y-10205643D01*
X21425643Y-10219929D01*
X21782786Y-10134214D02*
X21811357Y-10134214D01*
X21839928Y-10148500D01*
X21854214Y-10162786D01*
X21868500Y-10191357D01*
X21882786Y-10248500D01*
X21882786Y-10319929D01*
X21868500Y-10377072D01*
X21854214Y-10405643D01*
X21839928Y-10419929D01*
X21811357Y-10434214D01*
X21782786Y-10434214D01*
X21754214Y-10419929D01*
X21739928Y-10405643D01*
X21725643Y-10377072D01*
X21711357Y-10319929D01*
X21711357Y-10248500D01*
X21725643Y-10191357D01*
X21739928Y-10162786D01*
X21754214Y-10148500D01*
X21782786Y-10134214D01*
X22139928Y-10134214D02*
X22082786Y-10134214D01*
X22054214Y-10148500D01*
X22039928Y-10162786D01*
X22011357Y-10205643D01*
X21997071Y-10262786D01*
X21997071Y-10377072D01*
X22011357Y-10405643D01*
X22025643Y-10419929D01*
X22054214Y-10434214D01*
X22111357Y-10434214D01*
X22139928Y-10419929D01*
X22154214Y-10405643D01*
X22168500Y-10377072D01*
X22168500Y-10305643D01*
X22154214Y-10277072D01*
X22139928Y-10262786D01*
X22111357Y-10248500D01*
X22054214Y-10248500D01*
X22025643Y-10262786D01*
X22011357Y-10277072D01*
X21997071Y-10305643D01*
X22282786Y-10134214D02*
X22282786Y-10191357D01*
X22397071Y-10134214D02*
X22397071Y-10191357D01*
X22839928Y-10548500D02*
X22825643Y-10534214D01*
X22797071Y-10491357D01*
X22782786Y-10462786D01*
X22768500Y-10419929D01*
X22754214Y-10348500D01*
X22754214Y-10291357D01*
X22768500Y-10219929D01*
X22782786Y-10177072D01*
X22797071Y-10148500D01*
X22825643Y-10105643D01*
X22839928Y-10091357D01*
X23111357Y-10434214D02*
X22939928Y-10434214D01*
X23025643Y-10434214D02*
X23025643Y-10134214D01*
X22997071Y-10177072D01*
X22968500Y-10205643D01*
X22939928Y-10219929D01*
X23468500Y-10434214D02*
X23468500Y-10134214D01*
X23597071Y-10434214D02*
X23597071Y-10277072D01*
X23582786Y-10248500D01*
X23554214Y-10234214D01*
X23511357Y-10234214D01*
X23482786Y-10248500D01*
X23468500Y-10262786D01*
X23782786Y-10434214D02*
X23754214Y-10419929D01*
X23739928Y-10405643D01*
X23725643Y-10377072D01*
X23725643Y-10291357D01*
X23739928Y-10262786D01*
X23754214Y-10248500D01*
X23782786Y-10234214D01*
X23825643Y-10234214D01*
X23854214Y-10248500D01*
X23868500Y-10262786D01*
X23882786Y-10291357D01*
X23882786Y-10377072D01*
X23868500Y-10405643D01*
X23854214Y-10419929D01*
X23825643Y-10434214D01*
X23782786Y-10434214D01*
X24054214Y-10434214D02*
X24025643Y-10419929D01*
X24011357Y-10391357D01*
X24011357Y-10134214D01*
X24282786Y-10419929D02*
X24254214Y-10434214D01*
X24197071Y-10434214D01*
X24168500Y-10419929D01*
X24154214Y-10391357D01*
X24154214Y-10277072D01*
X24168500Y-10248500D01*
X24197071Y-10234214D01*
X24254214Y-10234214D01*
X24282786Y-10248500D01*
X24297071Y-10277072D01*
X24297071Y-10305643D01*
X24154214Y-10334214D01*
X24397071Y-10548500D02*
X24411357Y-10534214D01*
X24439928Y-10491357D01*
X24454214Y-10462786D01*
X24468500Y-10419929D01*
X24482786Y-10348500D01*
X24482786Y-10291357D01*
X24468500Y-10219929D01*
X24454214Y-10177072D01*
X24439928Y-10148500D01*
X24411357Y-10105643D01*
X24397071Y-10091357D01*
X24939928Y-10548500D02*
X24925643Y-10534214D01*
X24897071Y-10491357D01*
X24882786Y-10462786D01*
X24868500Y-10419929D01*
X24854214Y-10348500D01*
X24854214Y-10291357D01*
X24868500Y-10219929D01*
X24882786Y-10177072D01*
X24897071Y-10148500D01*
X24925643Y-10105643D01*
X24939928Y-10091357D01*
X25054214Y-10234214D02*
X25054214Y-10434214D01*
X25054214Y-10262786D02*
X25068500Y-10248500D01*
X25097071Y-10234214D01*
X25139928Y-10234214D01*
X25168500Y-10248500D01*
X25182786Y-10277072D01*
X25182786Y-10434214D01*
X25368500Y-10434214D02*
X25339928Y-10419929D01*
X25325643Y-10405643D01*
X25311357Y-10377072D01*
X25311357Y-10291357D01*
X25325643Y-10262786D01*
X25339928Y-10248500D01*
X25368500Y-10234214D01*
X25411357Y-10234214D01*
X25439928Y-10248500D01*
X25454214Y-10262786D01*
X25468500Y-10291357D01*
X25468500Y-10377072D01*
X25454214Y-10405643D01*
X25439928Y-10419929D01*
X25411357Y-10434214D01*
X25368500Y-10434214D01*
X25554214Y-10234214D02*
X25668500Y-10234214D01*
X25597071Y-10134214D02*
X25597071Y-10391357D01*
X25611357Y-10419929D01*
X25639928Y-10434214D01*
X25668500Y-10434214D01*
X25997071Y-10234214D02*
X25997071Y-10534214D01*
X25997071Y-10248500D02*
X26025643Y-10234214D01*
X26082786Y-10234214D01*
X26111357Y-10248500D01*
X26125643Y-10262786D01*
X26139928Y-10291357D01*
X26139928Y-10377072D01*
X26125643Y-10405643D01*
X26111357Y-10419929D01*
X26082786Y-10434214D01*
X26025643Y-10434214D01*
X25997071Y-10419929D01*
X26311357Y-10434214D02*
X26282786Y-10419929D01*
X26268500Y-10391357D01*
X26268500Y-10134214D01*
X26554214Y-10434214D02*
X26554214Y-10277072D01*
X26539928Y-10248500D01*
X26511357Y-10234214D01*
X26454214Y-10234214D01*
X26425643Y-10248500D01*
X26554214Y-10419929D02*
X26525643Y-10434214D01*
X26454214Y-10434214D01*
X26425643Y-10419929D01*
X26411357Y-10391357D01*
X26411357Y-10362786D01*
X26425643Y-10334214D01*
X26454214Y-10319929D01*
X26525643Y-10319929D01*
X26554214Y-10305643D01*
X26654214Y-10234214D02*
X26768500Y-10234214D01*
X26697071Y-10134214D02*
X26697071Y-10391357D01*
X26711357Y-10419929D01*
X26739928Y-10434214D01*
X26768500Y-10434214D01*
X26982786Y-10419929D02*
X26954214Y-10434214D01*
X26897071Y-10434214D01*
X26868500Y-10419929D01*
X26854214Y-10391357D01*
X26854214Y-10277072D01*
X26868500Y-10248500D01*
X26897071Y-10234214D01*
X26954214Y-10234214D01*
X26982786Y-10248500D01*
X26997071Y-10277072D01*
X26997071Y-10305643D01*
X26854214Y-10334214D01*
X27254214Y-10434214D02*
X27254214Y-10134214D01*
X27254214Y-10419929D02*
X27225643Y-10434214D01*
X27168500Y-10434214D01*
X27139928Y-10419929D01*
X27125643Y-10405643D01*
X27111357Y-10377072D01*
X27111357Y-10291357D01*
X27125643Y-10262786D01*
X27139928Y-10248500D01*
X27168500Y-10234214D01*
X27225643Y-10234214D01*
X27254214Y-10248500D01*
X27368500Y-10548500D02*
X27382786Y-10534214D01*
X27411357Y-10491357D01*
X27425643Y-10462786D01*
X27439928Y-10419929D01*
X27454214Y-10348500D01*
X27454214Y-10291357D01*
X27439928Y-10219929D01*
X27425643Y-10177072D01*
X27411357Y-10148500D01*
X27382786Y-10105643D01*
X27368500Y-10091357D01*
X17833500Y-10538500D02*
X18153500Y-10858500D01*
X18153500Y-10538500D02*
X17833500Y-10858500D01*
X18153500Y-10698500D02*
G75*
G03X18153500Y-10698500I-160000J0D01*
G01*
X18411357Y-10534214D02*
X18597071Y-10534214D01*
X18497071Y-10648500D01*
X18539928Y-10648500D01*
X18568500Y-10662786D01*
X18582786Y-10677072D01*
X18597071Y-10705643D01*
X18597071Y-10777072D01*
X18582786Y-10805643D01*
X18568500Y-10819929D01*
X18539928Y-10834214D01*
X18454214Y-10834214D01*
X18425643Y-10819929D01*
X18411357Y-10805643D01*
X18725643Y-10805643D02*
X18739928Y-10819929D01*
X18725643Y-10834214D01*
X18711357Y-10819929D01*
X18725643Y-10805643D01*
X18725643Y-10834214D01*
X18854214Y-10562786D02*
X18868500Y-10548500D01*
X18897071Y-10534214D01*
X18968500Y-10534214D01*
X18997071Y-10548500D01*
X19011357Y-10562786D01*
X19025643Y-10591357D01*
X19025643Y-10619929D01*
X19011357Y-10662786D01*
X18839928Y-10834214D01*
X19025643Y-10834214D01*
X19211357Y-10534214D02*
X19239928Y-10534214D01*
X19268500Y-10548500D01*
X19282786Y-10562786D01*
X19297071Y-10591357D01*
X19311357Y-10648500D01*
X19311357Y-10719929D01*
X19297071Y-10777072D01*
X19282786Y-10805643D01*
X19268500Y-10819929D01*
X19239928Y-10834214D01*
X19211357Y-10834214D01*
X19182786Y-10819929D01*
X19168500Y-10805643D01*
X19154214Y-10777072D01*
X19139928Y-10719929D01*
X19139928Y-10648500D01*
X19154214Y-10591357D01*
X19168500Y-10562786D01*
X19182786Y-10548500D01*
X19211357Y-10534214D01*
X19439928Y-10834214D02*
X19439928Y-10634214D01*
X19439928Y-10662786D02*
X19454214Y-10648500D01*
X19482786Y-10634214D01*
X19525643Y-10634214D01*
X19554214Y-10648500D01*
X19568500Y-10677072D01*
X19568500Y-10834214D01*
X19568500Y-10677072D02*
X19582786Y-10648500D01*
X19611357Y-10634214D01*
X19654214Y-10634214D01*
X19682786Y-10648500D01*
X19697071Y-10677072D01*
X19697071Y-10834214D01*
X19839928Y-10834214D02*
X19839928Y-10634214D01*
X19839928Y-10662786D02*
X19854214Y-10648500D01*
X19882786Y-10634214D01*
X19925643Y-10634214D01*
X19954214Y-10648500D01*
X19968500Y-10677072D01*
X19968500Y-10834214D01*
X19968500Y-10677072D02*
X19982786Y-10648500D01*
X20011357Y-10634214D01*
X20054214Y-10634214D01*
X20082786Y-10648500D01*
X20097071Y-10677072D01*
X20097071Y-10834214D01*
X20682786Y-10519929D02*
X20425643Y-10905643D01*
X21068500Y-10534214D02*
X21097071Y-10534214D01*
X21125643Y-10548500D01*
X21139928Y-10562786D01*
X21154214Y-10591357D01*
X21168500Y-10648500D01*
X21168500Y-10719929D01*
X21154214Y-10777072D01*
X21139928Y-10805643D01*
X21125643Y-10819929D01*
X21097071Y-10834214D01*
X21068500Y-10834214D01*
X21039928Y-10819929D01*
X21025643Y-10805643D01*
X21011357Y-10777072D01*
X20997071Y-10719929D01*
X20997071Y-10648500D01*
X21011357Y-10591357D01*
X21025643Y-10562786D01*
X21039928Y-10548500D01*
X21068500Y-10534214D01*
X21297071Y-10805643D02*
X21311357Y-10819929D01*
X21297071Y-10834214D01*
X21282786Y-10819929D01*
X21297071Y-10805643D01*
X21297071Y-10834214D01*
X21597071Y-10834214D02*
X21425643Y-10834214D01*
X21511357Y-10834214D02*
X21511357Y-10534214D01*
X21482786Y-10577072D01*
X21454214Y-10605643D01*
X21425643Y-10619929D01*
X21711357Y-10562786D02*
X21725643Y-10548500D01*
X21754214Y-10534214D01*
X21825643Y-10534214D01*
X21854214Y-10548500D01*
X21868500Y-10562786D01*
X21882786Y-10591357D01*
X21882786Y-10619929D01*
X21868500Y-10662786D01*
X21697071Y-10834214D01*
X21882786Y-10834214D01*
X22139928Y-10534214D02*
X22082786Y-10534214D01*
X22054214Y-10548500D01*
X22039928Y-10562786D01*
X22011357Y-10605643D01*
X21997071Y-10662786D01*
X21997071Y-10777072D01*
X22011357Y-10805643D01*
X22025643Y-10819929D01*
X22054214Y-10834214D01*
X22111357Y-10834214D01*
X22139928Y-10819929D01*
X22154214Y-10805643D01*
X22168500Y-10777072D01*
X22168500Y-10705643D01*
X22154214Y-10677072D01*
X22139928Y-10662786D01*
X22111357Y-10648500D01*
X22054214Y-10648500D01*
X22025643Y-10662786D01*
X22011357Y-10677072D01*
X21997071Y-10705643D01*
X22282786Y-10534214D02*
X22282786Y-10591357D01*
X22397071Y-10534214D02*
X22397071Y-10591357D01*
X22839928Y-10948500D02*
X22825643Y-10934214D01*
X22797071Y-10891357D01*
X22782786Y-10862786D01*
X22768500Y-10819929D01*
X22754214Y-10748500D01*
X22754214Y-10691357D01*
X22768500Y-10619929D01*
X22782786Y-10577072D01*
X22797071Y-10548500D01*
X22825643Y-10505643D01*
X22839928Y-10491357D01*
X22939928Y-10562786D02*
X22954214Y-10548500D01*
X22982786Y-10534214D01*
X23054214Y-10534214D01*
X23082786Y-10548500D01*
X23097071Y-10562786D01*
X23111357Y-10591357D01*
X23111357Y-10619929D01*
X23097071Y-10662786D01*
X22925643Y-10834214D01*
X23111357Y-10834214D01*
X23468500Y-10834214D02*
X23468500Y-10534214D01*
X23597071Y-10834214D02*
X23597071Y-10677072D01*
X23582786Y-10648500D01*
X23554214Y-10634214D01*
X23511357Y-10634214D01*
X23482786Y-10648500D01*
X23468500Y-10662786D01*
X23782786Y-10834214D02*
X23754214Y-10819929D01*
X23739928Y-10805643D01*
X23725643Y-10777072D01*
X23725643Y-10691357D01*
X23739928Y-10662786D01*
X23754214Y-10648500D01*
X23782786Y-10634214D01*
X23825643Y-10634214D01*
X23854214Y-10648500D01*
X23868500Y-10662786D01*
X23882786Y-10691357D01*
X23882786Y-10777072D01*
X23868500Y-10805643D01*
X23854214Y-10819929D01*
X23825643Y-10834214D01*
X23782786Y-10834214D01*
X24054214Y-10834214D02*
X24025643Y-10819929D01*
X24011357Y-10791357D01*
X24011357Y-10534214D01*
X24282786Y-10819929D02*
X24254214Y-10834214D01*
X24197071Y-10834214D01*
X24168500Y-10819929D01*
X24154214Y-10791357D01*
X24154214Y-10677072D01*
X24168500Y-10648500D01*
X24197071Y-10634214D01*
X24254214Y-10634214D01*
X24282786Y-10648500D01*
X24297071Y-10677072D01*
X24297071Y-10705643D01*
X24154214Y-10734214D01*
X24411357Y-10819929D02*
X24439928Y-10834214D01*
X24497071Y-10834214D01*
X24525643Y-10819929D01*
X24539928Y-10791357D01*
X24539928Y-10777072D01*
X24525643Y-10748500D01*
X24497071Y-10734214D01*
X24454214Y-10734214D01*
X24425643Y-10719929D01*
X24411357Y-10691357D01*
X24411357Y-10677072D01*
X24425643Y-10648500D01*
X24454214Y-10634214D01*
X24497071Y-10634214D01*
X24525643Y-10648500D01*
X24639928Y-10948500D02*
X24654214Y-10934214D01*
X24682786Y-10891357D01*
X24697071Y-10862786D01*
X24711357Y-10819929D01*
X24725643Y-10748500D01*
X24725643Y-10691357D01*
X24711357Y-10619929D01*
X24697071Y-10577072D01*
X24682786Y-10548500D01*
X24654214Y-10505643D01*
X24639928Y-10491357D01*
X25182786Y-10948500D02*
X25168500Y-10934214D01*
X25139928Y-10891357D01*
X25125643Y-10862786D01*
X25111357Y-10819929D01*
X25097071Y-10748500D01*
X25097071Y-10691357D01*
X25111357Y-10619929D01*
X25125643Y-10577072D01*
X25139928Y-10548500D01*
X25168500Y-10505643D01*
X25182786Y-10491357D01*
X25297071Y-10634214D02*
X25297071Y-10834214D01*
X25297071Y-10662786D02*
X25311357Y-10648500D01*
X25339928Y-10634214D01*
X25382786Y-10634214D01*
X25411357Y-10648500D01*
X25425643Y-10677072D01*
X25425643Y-10834214D01*
X25611357Y-10834214D02*
X25582786Y-10819929D01*
X25568500Y-10805643D01*
X25554214Y-10777072D01*
X25554214Y-10691357D01*
X25568500Y-10662786D01*
X25582786Y-10648500D01*
X25611357Y-10634214D01*
X25654214Y-10634214D01*
X25682786Y-10648500D01*
X25697071Y-10662786D01*
X25711357Y-10691357D01*
X25711357Y-10777072D01*
X25697071Y-10805643D01*
X25682786Y-10819929D01*
X25654214Y-10834214D01*
X25611357Y-10834214D01*
X25797071Y-10634214D02*
X25911357Y-10634214D01*
X25839928Y-10534214D02*
X25839928Y-10791357D01*
X25854214Y-10819929D01*
X25882786Y-10834214D01*
X25911357Y-10834214D01*
X26239928Y-10634214D02*
X26239928Y-10934214D01*
X26239928Y-10648500D02*
X26268500Y-10634214D01*
X26325643Y-10634214D01*
X26354214Y-10648500D01*
X26368500Y-10662786D01*
X26382786Y-10691357D01*
X26382786Y-10777072D01*
X26368500Y-10805643D01*
X26354214Y-10819929D01*
X26325643Y-10834214D01*
X26268500Y-10834214D01*
X26239928Y-10819929D01*
X26554214Y-10834214D02*
X26525643Y-10819929D01*
X26511357Y-10791357D01*
X26511357Y-10534214D01*
X26797071Y-10834214D02*
X26797071Y-10677072D01*
X26782786Y-10648500D01*
X26754214Y-10634214D01*
X26697071Y-10634214D01*
X26668500Y-10648500D01*
X26797071Y-10819929D02*
X26768500Y-10834214D01*
X26697071Y-10834214D01*
X26668500Y-10819929D01*
X26654214Y-10791357D01*
X26654214Y-10762786D01*
X26668500Y-10734214D01*
X26697071Y-10719929D01*
X26768500Y-10719929D01*
X26797071Y-10705643D01*
X26897071Y-10634214D02*
X27011357Y-10634214D01*
X26939928Y-10534214D02*
X26939928Y-10791357D01*
X26954214Y-10819929D01*
X26982786Y-10834214D01*
X27011357Y-10834214D01*
X27225643Y-10819929D02*
X27197071Y-10834214D01*
X27139928Y-10834214D01*
X27111357Y-10819929D01*
X27097071Y-10791357D01*
X27097071Y-10677072D01*
X27111357Y-10648500D01*
X27139928Y-10634214D01*
X27197071Y-10634214D01*
X27225643Y-10648500D01*
X27239928Y-10677072D01*
X27239928Y-10705643D01*
X27097071Y-10734214D01*
X27497071Y-10834214D02*
X27497071Y-10534214D01*
X27497071Y-10819929D02*
X27468500Y-10834214D01*
X27411357Y-10834214D01*
X27382786Y-10819929D01*
X27368500Y-10805643D01*
X27354214Y-10777072D01*
X27354214Y-10691357D01*
X27368500Y-10662786D01*
X27382786Y-10648500D01*
X27411357Y-10634214D01*
X27468500Y-10634214D01*
X27497071Y-10648500D01*
X27611357Y-10948500D02*
X27625643Y-10934214D01*
X27654214Y-10891357D01*
X27668500Y-10862786D01*
X27682786Y-10819929D01*
X27697071Y-10748500D01*
X27697071Y-10691357D01*
X27682786Y-10619929D01*
X27668500Y-10577072D01*
X27654214Y-10548500D01*
X27625643Y-10505643D01*
X27611357Y-10491357D01*
M02*
