G04 #@! TF.GenerationSoftware,KiCad,Pcbnew,(5.0.0-rc2-dev-444-g2974a2c10)*
G04 #@! TF.CreationDate,2018-10-06T13:39:59-07:00*
G04 #@! TF.ProjectId,2018-08-20 analog Trinket sub,323031382D30382D323020616E616C6F,rev?*
G04 #@! TF.SameCoordinates,Original*
G04 #@! TF.FileFunction,Copper,L1,Top,Signal*
G04 #@! TF.FilePolarity,Positive*
%FSLAX46Y46*%
G04 Gerber Fmt 4.6, Leading zero omitted, Abs format (unit mm)*
G04 Created by KiCad (PCBNEW (5.0.0-rc2-dev-444-g2974a2c10)) date 10/06/18 13:39:59*
%MOMM*%
%LPD*%
G01*
G04 APERTURE LIST*
%ADD10C,2.000000*%
%ADD11R,1.500000X1.250000*%
%ADD12R,1.500000X1.300000*%
%ADD13R,1.300000X1.500000*%
%ADD14R,1.250000X1.500000*%
%ADD15R,0.600000X1.550000*%
%ADD16R,0.650000X1.560000*%
%ADD17C,0.800000*%
%ADD18C,0.250000*%
%ADD19C,0.254000*%
G04 APERTURE END LIST*
D10*
X223870001Y-56145001D03*
X223870001Y-68845001D03*
X226410001Y-56145001D03*
X226410001Y-68845001D03*
X228950001Y-56145001D03*
X228950001Y-68845001D03*
X231490001Y-56145001D03*
X231490001Y-68845001D03*
X234030001Y-56145001D03*
X234030001Y-68845001D03*
D11*
X220200000Y-67800000D03*
X217700000Y-67800000D03*
D12*
X236050000Y-58500000D03*
X238750000Y-58500000D03*
D13*
X233700000Y-61250000D03*
X233700000Y-63950000D03*
D14*
X236000000Y-63850000D03*
X236000000Y-61350000D03*
D11*
X220200000Y-57100000D03*
X217700000Y-57100000D03*
D15*
X227095000Y-59800000D03*
X228365000Y-59800000D03*
X229635000Y-59800000D03*
X230905000Y-59800000D03*
X230905000Y-65200000D03*
X229635000Y-65200000D03*
X228365000Y-65200000D03*
X227095000Y-65200000D03*
D16*
X218450000Y-61100000D03*
X220350000Y-61100000D03*
X220350000Y-63800000D03*
X219400000Y-63800000D03*
X218450000Y-63800000D03*
D13*
X222631000Y-62564000D03*
X222631000Y-59864000D03*
X224663000Y-65358000D03*
X224663000Y-62658000D03*
D17*
X234000000Y-59500000D03*
X216000000Y-62500000D03*
X237400000Y-67800000D03*
X227584000Y-62484000D03*
X236100000Y-66500000D03*
D18*
X218450000Y-60645000D02*
X220200000Y-58895000D01*
X218450000Y-61100000D02*
X218450000Y-60645000D01*
X220200000Y-58895000D02*
X220200000Y-57100000D01*
X220695000Y-58400000D02*
X220200000Y-58895000D01*
X226410001Y-56145001D02*
X226410001Y-57559214D01*
X226410001Y-57559214D02*
X225569215Y-58400000D01*
X222825000Y-67800000D02*
X223870001Y-68845001D01*
X220200000Y-67800000D02*
X222825000Y-67800000D01*
X220350000Y-62770000D02*
X220350000Y-63800000D01*
X220080000Y-62500000D02*
X220350000Y-62770000D01*
X218720000Y-62500000D02*
X220080000Y-62500000D01*
X218450000Y-62770000D02*
X218720000Y-62500000D01*
X218450000Y-63800000D02*
X218450000Y-62770000D01*
X232490000Y-57145000D02*
X232490000Y-57990000D01*
X231490001Y-56145001D02*
X232490000Y-57145000D01*
X233000000Y-58500000D02*
X236050000Y-58500000D01*
X232490000Y-57990000D02*
X233000000Y-58500000D01*
X233800000Y-63850000D02*
X233700000Y-63950000D01*
X236000000Y-63850000D02*
X233800000Y-63850000D01*
X232800000Y-63950000D02*
X232250000Y-63400000D01*
X233700000Y-63950000D02*
X232800000Y-63950000D01*
X232250000Y-63400000D02*
X229100000Y-63400000D01*
X228365000Y-64135000D02*
X228365000Y-65200000D01*
X229100000Y-63400000D02*
X228365000Y-64135000D01*
X238750000Y-59400000D02*
X238750000Y-58500000D01*
X238750000Y-61975000D02*
X238750000Y-59400000D01*
X236875000Y-63850000D02*
X238750000Y-61975000D01*
X236000000Y-63850000D02*
X236875000Y-63850000D01*
X229635000Y-56830000D02*
X228950001Y-56145001D01*
X229635000Y-59800000D02*
X229635000Y-56830000D01*
X229635000Y-60825000D02*
X229635000Y-59800000D01*
X230310000Y-61500000D02*
X229635000Y-60825000D01*
X232550000Y-61500000D02*
X230310000Y-61500000D01*
X232800000Y-61250000D02*
X232550000Y-61500000D01*
X233700000Y-61250000D02*
X232800000Y-61250000D01*
X233800000Y-61350000D02*
X233700000Y-61250000D01*
X236000000Y-61350000D02*
X233800000Y-61350000D01*
X219400000Y-63800000D02*
X219400000Y-65600000D01*
X219400000Y-65600000D02*
X219000000Y-66000000D01*
X219000000Y-66000000D02*
X218300000Y-66000000D01*
X217700000Y-66600000D02*
X217700000Y-67800000D01*
X218300000Y-66000000D02*
X217700000Y-66600000D01*
X231490001Y-68845001D02*
X231490001Y-67409999D01*
X231490001Y-67409999D02*
X232400000Y-66500000D01*
X232400000Y-66500000D02*
X236100000Y-66500000D01*
X228365000Y-58775000D02*
X228346000Y-58756000D01*
X228365000Y-59800000D02*
X228365000Y-58775000D01*
X228346000Y-58756000D02*
X228346000Y-58674000D01*
X228346000Y-58674000D02*
X228092000Y-58420000D01*
X227270787Y-58420000D02*
X226410001Y-57559214D01*
X228092000Y-58420000D02*
X227270787Y-58420000D01*
X222968000Y-58400000D02*
X223012000Y-58400000D01*
X222504000Y-58864000D02*
X222968000Y-58400000D01*
X222504000Y-59864000D02*
X222504000Y-58864000D01*
X225569215Y-58400000D02*
X223012000Y-58400000D01*
X223012000Y-58400000D02*
X220695000Y-58400000D01*
X220200000Y-63950000D02*
X220350000Y-63800000D01*
X220200000Y-67800000D02*
X220200000Y-63950000D01*
X224790000Y-66358000D02*
X224790000Y-65358000D01*
X225234000Y-66802000D02*
X224790000Y-66358000D01*
X229362000Y-66802000D02*
X225234000Y-66802000D01*
X229635000Y-66529000D02*
X229362000Y-66802000D01*
X229635000Y-65200000D02*
X229635000Y-66529000D01*
X222504000Y-63564000D02*
X222504000Y-62564000D01*
X222504000Y-63972000D02*
X222504000Y-63564000D01*
X223890000Y-65358000D02*
X222504000Y-63972000D01*
X224790000Y-65358000D02*
X223890000Y-65358000D01*
D19*
G36*
X222235001Y-55819779D02*
X222235001Y-56470223D01*
X222483915Y-57071154D01*
X222943848Y-57531087D01*
X223206787Y-57640000D01*
X223042846Y-57640000D01*
X222967999Y-57625112D01*
X222893152Y-57640000D01*
X221597440Y-57640000D01*
X221597440Y-56475000D01*
X221548157Y-56227235D01*
X221407809Y-56017191D01*
X221197765Y-55876843D01*
X220950000Y-55827560D01*
X219450000Y-55827560D01*
X219202235Y-55876843D01*
X218992191Y-56017191D01*
X218951346Y-56078320D01*
X218809698Y-55936673D01*
X218576309Y-55840000D01*
X217985750Y-55840000D01*
X217827000Y-55998750D01*
X217827000Y-56973000D01*
X217847000Y-56973000D01*
X217847000Y-57227000D01*
X217827000Y-57227000D01*
X217827000Y-58201250D01*
X217985750Y-58360000D01*
X218576309Y-58360000D01*
X218809698Y-58263327D01*
X218951346Y-58121680D01*
X218992191Y-58182809D01*
X219202235Y-58323157D01*
X219440000Y-58370451D01*
X219440000Y-58580198D01*
X218347639Y-59672560D01*
X218125000Y-59672560D01*
X217877235Y-59721843D01*
X217667191Y-59862191D01*
X217526843Y-60072235D01*
X217477560Y-60320000D01*
X217477560Y-61880000D01*
X217526843Y-62127765D01*
X217667191Y-62337809D01*
X217776110Y-62410587D01*
X217734097Y-62473463D01*
X217723998Y-62524233D01*
X217667191Y-62562191D01*
X217526843Y-62772235D01*
X217477560Y-63020000D01*
X217477560Y-64580000D01*
X217526843Y-64827765D01*
X217667191Y-65037809D01*
X217877235Y-65178157D01*
X218125000Y-65227440D01*
X218775000Y-65227440D01*
X218912631Y-65200064D01*
X218948690Y-65215000D01*
X219114250Y-65215000D01*
X219273000Y-65056250D01*
X219273000Y-64977659D01*
X219373157Y-64827765D01*
X219400000Y-64692815D01*
X219426843Y-64827765D01*
X219440001Y-64847457D01*
X219440000Y-66529549D01*
X219202235Y-66576843D01*
X218992191Y-66717191D01*
X218951346Y-66778320D01*
X218809698Y-66636673D01*
X218576309Y-66540000D01*
X217985750Y-66540000D01*
X217827000Y-66698750D01*
X217827000Y-67673000D01*
X217847000Y-67673000D01*
X217847000Y-67927000D01*
X217827000Y-67927000D01*
X217827000Y-68901250D01*
X217985750Y-69060000D01*
X218576309Y-69060000D01*
X218809698Y-68963327D01*
X218951346Y-68821680D01*
X218992191Y-68882809D01*
X219202235Y-69023157D01*
X219450000Y-69072440D01*
X220950000Y-69072440D01*
X221197765Y-69023157D01*
X221407809Y-68882809D01*
X221548157Y-68672765D01*
X221570587Y-68560000D01*
X222235001Y-68560000D01*
X222235001Y-69170223D01*
X222450300Y-69690000D01*
X215410000Y-69690000D01*
X215410000Y-68085750D01*
X216315000Y-68085750D01*
X216315000Y-68551310D01*
X216411673Y-68784699D01*
X216590302Y-68963327D01*
X216823691Y-69060000D01*
X217414250Y-69060000D01*
X217573000Y-68901250D01*
X217573000Y-67927000D01*
X216473750Y-67927000D01*
X216315000Y-68085750D01*
X215410000Y-68085750D01*
X215410000Y-67048690D01*
X216315000Y-67048690D01*
X216315000Y-67514250D01*
X216473750Y-67673000D01*
X217573000Y-67673000D01*
X217573000Y-66698750D01*
X217414250Y-66540000D01*
X216823691Y-66540000D01*
X216590302Y-66636673D01*
X216411673Y-66815301D01*
X216315000Y-67048690D01*
X215410000Y-67048690D01*
X215410000Y-57385750D01*
X216315000Y-57385750D01*
X216315000Y-57851310D01*
X216411673Y-58084699D01*
X216590302Y-58263327D01*
X216823691Y-58360000D01*
X217414250Y-58360000D01*
X217573000Y-58201250D01*
X217573000Y-57227000D01*
X216473750Y-57227000D01*
X216315000Y-57385750D01*
X215410000Y-57385750D01*
X215410000Y-56348690D01*
X216315000Y-56348690D01*
X216315000Y-56814250D01*
X216473750Y-56973000D01*
X217573000Y-56973000D01*
X217573000Y-55998750D01*
X217414250Y-55840000D01*
X216823691Y-55840000D01*
X216590302Y-55936673D01*
X216411673Y-56115301D01*
X216315000Y-56348690D01*
X215410000Y-56348690D01*
X215410000Y-55310000D01*
X222446159Y-55310000D01*
X222235001Y-55819779D01*
X222235001Y-55819779D01*
G37*
X222235001Y-55819779D02*
X222235001Y-56470223D01*
X222483915Y-57071154D01*
X222943848Y-57531087D01*
X223206787Y-57640000D01*
X223042846Y-57640000D01*
X222967999Y-57625112D01*
X222893152Y-57640000D01*
X221597440Y-57640000D01*
X221597440Y-56475000D01*
X221548157Y-56227235D01*
X221407809Y-56017191D01*
X221197765Y-55876843D01*
X220950000Y-55827560D01*
X219450000Y-55827560D01*
X219202235Y-55876843D01*
X218992191Y-56017191D01*
X218951346Y-56078320D01*
X218809698Y-55936673D01*
X218576309Y-55840000D01*
X217985750Y-55840000D01*
X217827000Y-55998750D01*
X217827000Y-56973000D01*
X217847000Y-56973000D01*
X217847000Y-57227000D01*
X217827000Y-57227000D01*
X217827000Y-58201250D01*
X217985750Y-58360000D01*
X218576309Y-58360000D01*
X218809698Y-58263327D01*
X218951346Y-58121680D01*
X218992191Y-58182809D01*
X219202235Y-58323157D01*
X219440000Y-58370451D01*
X219440000Y-58580198D01*
X218347639Y-59672560D01*
X218125000Y-59672560D01*
X217877235Y-59721843D01*
X217667191Y-59862191D01*
X217526843Y-60072235D01*
X217477560Y-60320000D01*
X217477560Y-61880000D01*
X217526843Y-62127765D01*
X217667191Y-62337809D01*
X217776110Y-62410587D01*
X217734097Y-62473463D01*
X217723998Y-62524233D01*
X217667191Y-62562191D01*
X217526843Y-62772235D01*
X217477560Y-63020000D01*
X217477560Y-64580000D01*
X217526843Y-64827765D01*
X217667191Y-65037809D01*
X217877235Y-65178157D01*
X218125000Y-65227440D01*
X218775000Y-65227440D01*
X218912631Y-65200064D01*
X218948690Y-65215000D01*
X219114250Y-65215000D01*
X219273000Y-65056250D01*
X219273000Y-64977659D01*
X219373157Y-64827765D01*
X219400000Y-64692815D01*
X219426843Y-64827765D01*
X219440001Y-64847457D01*
X219440000Y-66529549D01*
X219202235Y-66576843D01*
X218992191Y-66717191D01*
X218951346Y-66778320D01*
X218809698Y-66636673D01*
X218576309Y-66540000D01*
X217985750Y-66540000D01*
X217827000Y-66698750D01*
X217827000Y-67673000D01*
X217847000Y-67673000D01*
X217847000Y-67927000D01*
X217827000Y-67927000D01*
X217827000Y-68901250D01*
X217985750Y-69060000D01*
X218576309Y-69060000D01*
X218809698Y-68963327D01*
X218951346Y-68821680D01*
X218992191Y-68882809D01*
X219202235Y-69023157D01*
X219450000Y-69072440D01*
X220950000Y-69072440D01*
X221197765Y-69023157D01*
X221407809Y-68882809D01*
X221548157Y-68672765D01*
X221570587Y-68560000D01*
X222235001Y-68560000D01*
X222235001Y-69170223D01*
X222450300Y-69690000D01*
X215410000Y-69690000D01*
X215410000Y-68085750D01*
X216315000Y-68085750D01*
X216315000Y-68551310D01*
X216411673Y-68784699D01*
X216590302Y-68963327D01*
X216823691Y-69060000D01*
X217414250Y-69060000D01*
X217573000Y-68901250D01*
X217573000Y-67927000D01*
X216473750Y-67927000D01*
X216315000Y-68085750D01*
X215410000Y-68085750D01*
X215410000Y-67048690D01*
X216315000Y-67048690D01*
X216315000Y-67514250D01*
X216473750Y-67673000D01*
X217573000Y-67673000D01*
X217573000Y-66698750D01*
X217414250Y-66540000D01*
X216823691Y-66540000D01*
X216590302Y-66636673D01*
X216411673Y-66815301D01*
X216315000Y-67048690D01*
X215410000Y-67048690D01*
X215410000Y-57385750D01*
X216315000Y-57385750D01*
X216315000Y-57851310D01*
X216411673Y-58084699D01*
X216590302Y-58263327D01*
X216823691Y-58360000D01*
X217414250Y-58360000D01*
X217573000Y-58201250D01*
X217573000Y-57227000D01*
X216473750Y-57227000D01*
X216315000Y-57385750D01*
X215410000Y-57385750D01*
X215410000Y-56348690D01*
X216315000Y-56348690D01*
X216315000Y-56814250D01*
X216473750Y-56973000D01*
X217573000Y-56973000D01*
X217573000Y-55998750D01*
X217414250Y-55840000D01*
X216823691Y-55840000D01*
X216590302Y-55936673D01*
X216411673Y-56115301D01*
X216315000Y-56348690D01*
X215410000Y-56348690D01*
X215410000Y-55310000D01*
X222446159Y-55310000D01*
X222235001Y-55819779D01*
G36*
X240090001Y-57130071D02*
X240076091Y-57200000D01*
X240114321Y-57392191D01*
X240131196Y-57477028D01*
X240288120Y-57711881D01*
X240347402Y-57751492D01*
X242590001Y-59994093D01*
X242590000Y-67605908D01*
X240505910Y-69690000D01*
X235449702Y-69690000D01*
X235665001Y-69170223D01*
X235665001Y-68519779D01*
X235416087Y-67918848D01*
X234956154Y-67458915D01*
X234475931Y-67260000D01*
X235396289Y-67260000D01*
X235513720Y-67377431D01*
X235894126Y-67535000D01*
X236305874Y-67535000D01*
X236686280Y-67377431D01*
X236977431Y-67086280D01*
X237135000Y-66705874D01*
X237135000Y-66294126D01*
X236977431Y-65913720D01*
X236686280Y-65622569D01*
X236305874Y-65465000D01*
X235894126Y-65465000D01*
X235513720Y-65622569D01*
X235396289Y-65740000D01*
X232474847Y-65740000D01*
X232400000Y-65725112D01*
X232325153Y-65740000D01*
X232325148Y-65740000D01*
X232103463Y-65784096D01*
X231852071Y-65952071D01*
X231840000Y-65970137D01*
X231840000Y-65485750D01*
X231681250Y-65327000D01*
X231032000Y-65327000D01*
X231032000Y-66451250D01*
X231190750Y-66610000D01*
X231215199Y-66610000D01*
X231005529Y-66819670D01*
X230942073Y-66862070D01*
X230899673Y-66925526D01*
X230899672Y-66925527D01*
X230833132Y-67025112D01*
X230774098Y-67113462D01*
X230747953Y-67244904D01*
X230718091Y-67395025D01*
X230563848Y-67458915D01*
X230220001Y-67802762D01*
X229876154Y-67458915D01*
X229796314Y-67425844D01*
X229909929Y-67349929D01*
X229952330Y-67286471D01*
X230119472Y-67119330D01*
X230182929Y-67076929D01*
X230350904Y-66825537D01*
X230395000Y-66603852D01*
X230395000Y-66603848D01*
X230400240Y-66577505D01*
X230478690Y-66610000D01*
X230619250Y-66610000D01*
X230778000Y-66451250D01*
X230778000Y-65327000D01*
X230758000Y-65327000D01*
X230758000Y-65073000D01*
X230778000Y-65073000D01*
X230778000Y-65053000D01*
X231032000Y-65053000D01*
X231032000Y-65073000D01*
X231681250Y-65073000D01*
X231840000Y-64914250D01*
X231840000Y-64298691D01*
X231782552Y-64160000D01*
X231935198Y-64160000D01*
X232209672Y-64434475D01*
X232252071Y-64497929D01*
X232315524Y-64540327D01*
X232315526Y-64540329D01*
X232402560Y-64598483D01*
X232402560Y-64700000D01*
X232451843Y-64947765D01*
X232592191Y-65157809D01*
X232802235Y-65298157D01*
X233050000Y-65347440D01*
X234350000Y-65347440D01*
X234597765Y-65298157D01*
X234807809Y-65157809D01*
X234895909Y-65025959D01*
X234917191Y-65057809D01*
X235127235Y-65198157D01*
X235375000Y-65247440D01*
X236625000Y-65247440D01*
X236872765Y-65198157D01*
X237082809Y-65057809D01*
X237223157Y-64847765D01*
X237272440Y-64600000D01*
X237272440Y-64498483D01*
X237422929Y-64397929D01*
X237465331Y-64334470D01*
X239234476Y-62565327D01*
X239297929Y-62522929D01*
X239340327Y-62459476D01*
X239340329Y-62459474D01*
X239465903Y-62271538D01*
X239465904Y-62271537D01*
X239510000Y-62049852D01*
X239510000Y-62049848D01*
X239524888Y-61975001D01*
X239510000Y-61900154D01*
X239510000Y-59795451D01*
X239747765Y-59748157D01*
X239957809Y-59607809D01*
X240098157Y-59397765D01*
X240147440Y-59150000D01*
X240147440Y-57850000D01*
X240098157Y-57602235D01*
X239957809Y-57392191D01*
X239747765Y-57251843D01*
X239500000Y-57202560D01*
X238000000Y-57202560D01*
X237752235Y-57251843D01*
X237542191Y-57392191D01*
X237401843Y-57602235D01*
X237400000Y-57611500D01*
X237398157Y-57602235D01*
X237257809Y-57392191D01*
X237047765Y-57251843D01*
X236800000Y-57202560D01*
X235300000Y-57202560D01*
X235280877Y-57206364D01*
X235416087Y-57071154D01*
X235665001Y-56470223D01*
X235665001Y-55819779D01*
X235453843Y-55310000D01*
X240090000Y-55310000D01*
X240090001Y-57130071D01*
X240090001Y-57130071D01*
G37*
X240090001Y-57130071D02*
X240076091Y-57200000D01*
X240114321Y-57392191D01*
X240131196Y-57477028D01*
X240288120Y-57711881D01*
X240347402Y-57751492D01*
X242590001Y-59994093D01*
X242590000Y-67605908D01*
X240505910Y-69690000D01*
X235449702Y-69690000D01*
X235665001Y-69170223D01*
X235665001Y-68519779D01*
X235416087Y-67918848D01*
X234956154Y-67458915D01*
X234475931Y-67260000D01*
X235396289Y-67260000D01*
X235513720Y-67377431D01*
X235894126Y-67535000D01*
X236305874Y-67535000D01*
X236686280Y-67377431D01*
X236977431Y-67086280D01*
X237135000Y-66705874D01*
X237135000Y-66294126D01*
X236977431Y-65913720D01*
X236686280Y-65622569D01*
X236305874Y-65465000D01*
X235894126Y-65465000D01*
X235513720Y-65622569D01*
X235396289Y-65740000D01*
X232474847Y-65740000D01*
X232400000Y-65725112D01*
X232325153Y-65740000D01*
X232325148Y-65740000D01*
X232103463Y-65784096D01*
X231852071Y-65952071D01*
X231840000Y-65970137D01*
X231840000Y-65485750D01*
X231681250Y-65327000D01*
X231032000Y-65327000D01*
X231032000Y-66451250D01*
X231190750Y-66610000D01*
X231215199Y-66610000D01*
X231005529Y-66819670D01*
X230942073Y-66862070D01*
X230899673Y-66925526D01*
X230899672Y-66925527D01*
X230833132Y-67025112D01*
X230774098Y-67113462D01*
X230747953Y-67244904D01*
X230718091Y-67395025D01*
X230563848Y-67458915D01*
X230220001Y-67802762D01*
X229876154Y-67458915D01*
X229796314Y-67425844D01*
X229909929Y-67349929D01*
X229952330Y-67286471D01*
X230119472Y-67119330D01*
X230182929Y-67076929D01*
X230350904Y-66825537D01*
X230395000Y-66603852D01*
X230395000Y-66603848D01*
X230400240Y-66577505D01*
X230478690Y-66610000D01*
X230619250Y-66610000D01*
X230778000Y-66451250D01*
X230778000Y-65327000D01*
X230758000Y-65327000D01*
X230758000Y-65073000D01*
X230778000Y-65073000D01*
X230778000Y-65053000D01*
X231032000Y-65053000D01*
X231032000Y-65073000D01*
X231681250Y-65073000D01*
X231840000Y-64914250D01*
X231840000Y-64298691D01*
X231782552Y-64160000D01*
X231935198Y-64160000D01*
X232209672Y-64434475D01*
X232252071Y-64497929D01*
X232315524Y-64540327D01*
X232315526Y-64540329D01*
X232402560Y-64598483D01*
X232402560Y-64700000D01*
X232451843Y-64947765D01*
X232592191Y-65157809D01*
X232802235Y-65298157D01*
X233050000Y-65347440D01*
X234350000Y-65347440D01*
X234597765Y-65298157D01*
X234807809Y-65157809D01*
X234895909Y-65025959D01*
X234917191Y-65057809D01*
X235127235Y-65198157D01*
X235375000Y-65247440D01*
X236625000Y-65247440D01*
X236872765Y-65198157D01*
X237082809Y-65057809D01*
X237223157Y-64847765D01*
X237272440Y-64600000D01*
X237272440Y-64498483D01*
X237422929Y-64397929D01*
X237465331Y-64334470D01*
X239234476Y-62565327D01*
X239297929Y-62522929D01*
X239340327Y-62459476D01*
X239340329Y-62459474D01*
X239465903Y-62271538D01*
X239465904Y-62271537D01*
X239510000Y-62049852D01*
X239510000Y-62049848D01*
X239524888Y-61975001D01*
X239510000Y-61900154D01*
X239510000Y-59795451D01*
X239747765Y-59748157D01*
X239957809Y-59607809D01*
X240098157Y-59397765D01*
X240147440Y-59150000D01*
X240147440Y-57850000D01*
X240098157Y-57602235D01*
X239957809Y-57392191D01*
X239747765Y-57251843D01*
X239500000Y-57202560D01*
X238000000Y-57202560D01*
X237752235Y-57251843D01*
X237542191Y-57392191D01*
X237401843Y-57602235D01*
X237400000Y-57611500D01*
X237398157Y-57602235D01*
X237257809Y-57392191D01*
X237047765Y-57251843D01*
X236800000Y-57202560D01*
X235300000Y-57202560D01*
X235280877Y-57206364D01*
X235416087Y-57071154D01*
X235665001Y-56470223D01*
X235665001Y-55819779D01*
X235453843Y-55310000D01*
X240090000Y-55310000D01*
X240090001Y-57130071D01*
G36*
X221333560Y-60614000D02*
X221382843Y-60861765D01*
X221523191Y-61071809D01*
X221733235Y-61212157D01*
X221742500Y-61214000D01*
X221733235Y-61215843D01*
X221523191Y-61356191D01*
X221382843Y-61566235D01*
X221333560Y-61814000D01*
X221333560Y-63314000D01*
X221382843Y-63561765D01*
X221523191Y-63771809D01*
X221733235Y-63912157D01*
X221740719Y-63913646D01*
X221729112Y-63972000D01*
X221744000Y-64046847D01*
X221744000Y-64046851D01*
X221788096Y-64268536D01*
X221956071Y-64519929D01*
X222019530Y-64562331D01*
X223299671Y-65842473D01*
X223342071Y-65905929D01*
X223365560Y-65921624D01*
X223365560Y-66108000D01*
X223414843Y-66355765D01*
X223555191Y-66565809D01*
X223765235Y-66706157D01*
X224013000Y-66755440D01*
X224141518Y-66755440D01*
X224242071Y-66905929D01*
X224305530Y-66948331D01*
X224643669Y-67286470D01*
X224686071Y-67349929D01*
X224843718Y-67455266D01*
X224937462Y-67517904D01*
X224985605Y-67527480D01*
X225159148Y-67562000D01*
X225159152Y-67562000D01*
X225234000Y-67576888D01*
X225308848Y-67562000D01*
X225485312Y-67562000D01*
X225437074Y-67692469D01*
X226410001Y-68665396D01*
X227382928Y-67692469D01*
X227334690Y-67562000D01*
X227920763Y-67562000D01*
X227597690Y-67885073D01*
X227562533Y-67872074D01*
X226589606Y-68845001D01*
X226603749Y-68859144D01*
X226424144Y-69038749D01*
X226410001Y-69024606D01*
X226395859Y-69038749D01*
X226216254Y-68859144D01*
X226230396Y-68845001D01*
X225257469Y-67872074D01*
X225222312Y-67885073D01*
X224796154Y-67458915D01*
X224195223Y-67210001D01*
X223544779Y-67210001D01*
X223388165Y-67274873D01*
X223372929Y-67252071D01*
X223121537Y-67084096D01*
X222899852Y-67040000D01*
X222899847Y-67040000D01*
X222825000Y-67025112D01*
X222750153Y-67040000D01*
X221570587Y-67040000D01*
X221548157Y-66927235D01*
X221407809Y-66717191D01*
X221197765Y-66576843D01*
X220960000Y-66529549D01*
X220960000Y-65153277D01*
X221132809Y-65037809D01*
X221273157Y-64827765D01*
X221322440Y-64580000D01*
X221322440Y-63020000D01*
X221273157Y-62772235D01*
X221132809Y-62562191D01*
X221076003Y-62524234D01*
X221065904Y-62473463D01*
X221023891Y-62410586D01*
X221132809Y-62337809D01*
X221273157Y-62127765D01*
X221322440Y-61880000D01*
X221322440Y-60320000D01*
X221273157Y-60072235D01*
X221132809Y-59862191D01*
X220922765Y-59721843D01*
X220675000Y-59672560D01*
X220497242Y-59672560D01*
X220684473Y-59485329D01*
X220747929Y-59442929D01*
X220790331Y-59379471D01*
X221009802Y-59160000D01*
X221333560Y-59160000D01*
X221333560Y-60614000D01*
X221333560Y-60614000D01*
G37*
X221333560Y-60614000D02*
X221382843Y-60861765D01*
X221523191Y-61071809D01*
X221733235Y-61212157D01*
X221742500Y-61214000D01*
X221733235Y-61215843D01*
X221523191Y-61356191D01*
X221382843Y-61566235D01*
X221333560Y-61814000D01*
X221333560Y-63314000D01*
X221382843Y-63561765D01*
X221523191Y-63771809D01*
X221733235Y-63912157D01*
X221740719Y-63913646D01*
X221729112Y-63972000D01*
X221744000Y-64046847D01*
X221744000Y-64046851D01*
X221788096Y-64268536D01*
X221956071Y-64519929D01*
X222019530Y-64562331D01*
X223299671Y-65842473D01*
X223342071Y-65905929D01*
X223365560Y-65921624D01*
X223365560Y-66108000D01*
X223414843Y-66355765D01*
X223555191Y-66565809D01*
X223765235Y-66706157D01*
X224013000Y-66755440D01*
X224141518Y-66755440D01*
X224242071Y-66905929D01*
X224305530Y-66948331D01*
X224643669Y-67286470D01*
X224686071Y-67349929D01*
X224843718Y-67455266D01*
X224937462Y-67517904D01*
X224985605Y-67527480D01*
X225159148Y-67562000D01*
X225159152Y-67562000D01*
X225234000Y-67576888D01*
X225308848Y-67562000D01*
X225485312Y-67562000D01*
X225437074Y-67692469D01*
X226410001Y-68665396D01*
X227382928Y-67692469D01*
X227334690Y-67562000D01*
X227920763Y-67562000D01*
X227597690Y-67885073D01*
X227562533Y-67872074D01*
X226589606Y-68845001D01*
X226603749Y-68859144D01*
X226424144Y-69038749D01*
X226410001Y-69024606D01*
X226395859Y-69038749D01*
X226216254Y-68859144D01*
X226230396Y-68845001D01*
X225257469Y-67872074D01*
X225222312Y-67885073D01*
X224796154Y-67458915D01*
X224195223Y-67210001D01*
X223544779Y-67210001D01*
X223388165Y-67274873D01*
X223372929Y-67252071D01*
X223121537Y-67084096D01*
X222899852Y-67040000D01*
X222899847Y-67040000D01*
X222825000Y-67025112D01*
X222750153Y-67040000D01*
X221570587Y-67040000D01*
X221548157Y-66927235D01*
X221407809Y-66717191D01*
X221197765Y-66576843D01*
X220960000Y-66529549D01*
X220960000Y-65153277D01*
X221132809Y-65037809D01*
X221273157Y-64827765D01*
X221322440Y-64580000D01*
X221322440Y-63020000D01*
X221273157Y-62772235D01*
X221132809Y-62562191D01*
X221076003Y-62524234D01*
X221065904Y-62473463D01*
X221023891Y-62410586D01*
X221132809Y-62337809D01*
X221273157Y-62127765D01*
X221322440Y-61880000D01*
X221322440Y-60320000D01*
X221273157Y-60072235D01*
X221132809Y-59862191D01*
X220922765Y-59721843D01*
X220675000Y-59672560D01*
X220497242Y-59672560D01*
X220684473Y-59485329D01*
X220747929Y-59442929D01*
X220790331Y-59379471D01*
X221009802Y-59160000D01*
X221333560Y-59160000D01*
X221333560Y-60614000D01*
G36*
X226147560Y-59025000D02*
X226147560Y-60575000D01*
X226196843Y-60822765D01*
X226337191Y-61032809D01*
X226547235Y-61173157D01*
X226795000Y-61222440D01*
X227395000Y-61222440D01*
X227642765Y-61173157D01*
X227730000Y-61114868D01*
X227817235Y-61173157D01*
X228065000Y-61222440D01*
X228665000Y-61222440D01*
X228912765Y-61173157D01*
X228940988Y-61154299D01*
X229087071Y-61372929D01*
X229150530Y-61415331D01*
X229719671Y-61984473D01*
X229762071Y-62047929D01*
X230013463Y-62215904D01*
X230235148Y-62260000D01*
X230235152Y-62260000D01*
X230309999Y-62274888D01*
X230384846Y-62260000D01*
X232460018Y-62260000D01*
X232592191Y-62457809D01*
X232802235Y-62598157D01*
X232811500Y-62600000D01*
X232802235Y-62601843D01*
X232612837Y-62728396D01*
X232546537Y-62684096D01*
X232324852Y-62640000D01*
X232324847Y-62640000D01*
X232250000Y-62625112D01*
X232175153Y-62640000D01*
X229174847Y-62640000D01*
X229100000Y-62625112D01*
X229025153Y-62640000D01*
X229025148Y-62640000D01*
X228803463Y-62684096D01*
X228552071Y-62852071D01*
X228509671Y-62915527D01*
X227880530Y-63544669D01*
X227817071Y-63587071D01*
X227652510Y-63833354D01*
X227642765Y-63826843D01*
X227395000Y-63777560D01*
X226795000Y-63777560D01*
X226547235Y-63826843D01*
X226337191Y-63967191D01*
X226196843Y-64177235D01*
X226147560Y-64425000D01*
X226147560Y-65975000D01*
X226160887Y-66042000D01*
X225960440Y-66042000D01*
X225960440Y-64608000D01*
X225911157Y-64360235D01*
X225770809Y-64150191D01*
X225560765Y-64009843D01*
X225532791Y-64004279D01*
X225672699Y-63946327D01*
X225851327Y-63767698D01*
X225948000Y-63534309D01*
X225948000Y-62943750D01*
X225789250Y-62785000D01*
X224790000Y-62785000D01*
X224790000Y-62805000D01*
X224536000Y-62805000D01*
X224536000Y-62785000D01*
X224516000Y-62785000D01*
X224516000Y-62531000D01*
X224536000Y-62531000D01*
X224536000Y-61431750D01*
X224790000Y-61431750D01*
X224790000Y-62531000D01*
X225789250Y-62531000D01*
X225948000Y-62372250D01*
X225948000Y-61781691D01*
X225851327Y-61548302D01*
X225672699Y-61369673D01*
X225439310Y-61273000D01*
X224948750Y-61273000D01*
X224790000Y-61431750D01*
X224536000Y-61431750D01*
X224377250Y-61273000D01*
X223886690Y-61273000D01*
X223718542Y-61342649D01*
X223528765Y-61215843D01*
X223519500Y-61214000D01*
X223528765Y-61212157D01*
X223738809Y-61071809D01*
X223879157Y-60861765D01*
X223928440Y-60614000D01*
X223928440Y-59160000D01*
X225494368Y-59160000D01*
X225569215Y-59174888D01*
X225644062Y-59160000D01*
X225644067Y-59160000D01*
X225865752Y-59115904D01*
X226117144Y-58947929D01*
X226159546Y-58884470D01*
X226179477Y-58864539D01*
X226147560Y-59025000D01*
X226147560Y-59025000D01*
G37*
X226147560Y-59025000D02*
X226147560Y-60575000D01*
X226196843Y-60822765D01*
X226337191Y-61032809D01*
X226547235Y-61173157D01*
X226795000Y-61222440D01*
X227395000Y-61222440D01*
X227642765Y-61173157D01*
X227730000Y-61114868D01*
X227817235Y-61173157D01*
X228065000Y-61222440D01*
X228665000Y-61222440D01*
X228912765Y-61173157D01*
X228940988Y-61154299D01*
X229087071Y-61372929D01*
X229150530Y-61415331D01*
X229719671Y-61984473D01*
X229762071Y-62047929D01*
X230013463Y-62215904D01*
X230235148Y-62260000D01*
X230235152Y-62260000D01*
X230309999Y-62274888D01*
X230384846Y-62260000D01*
X232460018Y-62260000D01*
X232592191Y-62457809D01*
X232802235Y-62598157D01*
X232811500Y-62600000D01*
X232802235Y-62601843D01*
X232612837Y-62728396D01*
X232546537Y-62684096D01*
X232324852Y-62640000D01*
X232324847Y-62640000D01*
X232250000Y-62625112D01*
X232175153Y-62640000D01*
X229174847Y-62640000D01*
X229100000Y-62625112D01*
X229025153Y-62640000D01*
X229025148Y-62640000D01*
X228803463Y-62684096D01*
X228552071Y-62852071D01*
X228509671Y-62915527D01*
X227880530Y-63544669D01*
X227817071Y-63587071D01*
X227652510Y-63833354D01*
X227642765Y-63826843D01*
X227395000Y-63777560D01*
X226795000Y-63777560D01*
X226547235Y-63826843D01*
X226337191Y-63967191D01*
X226196843Y-64177235D01*
X226147560Y-64425000D01*
X226147560Y-65975000D01*
X226160887Y-66042000D01*
X225960440Y-66042000D01*
X225960440Y-64608000D01*
X225911157Y-64360235D01*
X225770809Y-64150191D01*
X225560765Y-64009843D01*
X225532791Y-64004279D01*
X225672699Y-63946327D01*
X225851327Y-63767698D01*
X225948000Y-63534309D01*
X225948000Y-62943750D01*
X225789250Y-62785000D01*
X224790000Y-62785000D01*
X224790000Y-62805000D01*
X224536000Y-62805000D01*
X224536000Y-62785000D01*
X224516000Y-62785000D01*
X224516000Y-62531000D01*
X224536000Y-62531000D01*
X224536000Y-61431750D01*
X224790000Y-61431750D01*
X224790000Y-62531000D01*
X225789250Y-62531000D01*
X225948000Y-62372250D01*
X225948000Y-61781691D01*
X225851327Y-61548302D01*
X225672699Y-61369673D01*
X225439310Y-61273000D01*
X224948750Y-61273000D01*
X224790000Y-61431750D01*
X224536000Y-61431750D01*
X224377250Y-61273000D01*
X223886690Y-61273000D01*
X223718542Y-61342649D01*
X223528765Y-61215843D01*
X223519500Y-61214000D01*
X223528765Y-61212157D01*
X223738809Y-61071809D01*
X223879157Y-60861765D01*
X223928440Y-60614000D01*
X223928440Y-59160000D01*
X225494368Y-59160000D01*
X225569215Y-59174888D01*
X225644062Y-59160000D01*
X225644067Y-59160000D01*
X225865752Y-59115904D01*
X226117144Y-58947929D01*
X226159546Y-58884470D01*
X226179477Y-58864539D01*
X226147560Y-59025000D01*
G36*
X230563848Y-57531087D02*
X231164779Y-57780001D01*
X231730000Y-57780001D01*
X231730000Y-57915153D01*
X231715112Y-57990000D01*
X231730000Y-58064847D01*
X231730000Y-58064852D01*
X231758489Y-58208071D01*
X231774097Y-58286537D01*
X231894385Y-58466560D01*
X231942072Y-58537929D01*
X232005527Y-58580329D01*
X232409671Y-58984472D01*
X232452071Y-59047929D01*
X232703463Y-59215904D01*
X232925148Y-59260000D01*
X232925153Y-59260000D01*
X233000000Y-59274888D01*
X233074847Y-59260000D01*
X234674440Y-59260000D01*
X234701843Y-59397765D01*
X234842191Y-59607809D01*
X235052235Y-59748157D01*
X235300000Y-59797440D01*
X236800000Y-59797440D01*
X237047765Y-59748157D01*
X237257809Y-59607809D01*
X237398157Y-59397765D01*
X237400000Y-59388500D01*
X237401843Y-59397765D01*
X237542191Y-59607809D01*
X237752235Y-59748157D01*
X237990001Y-59795451D01*
X237990000Y-61660197D01*
X237037969Y-62612229D01*
X237019666Y-62600000D01*
X237082809Y-62557809D01*
X237223157Y-62347765D01*
X237272440Y-62100000D01*
X237272440Y-60600000D01*
X237223157Y-60352235D01*
X237082809Y-60142191D01*
X236872765Y-60001843D01*
X236625000Y-59952560D01*
X235375000Y-59952560D01*
X235127235Y-60001843D01*
X234917191Y-60142191D01*
X234895909Y-60174041D01*
X234807809Y-60042191D01*
X234597765Y-59901843D01*
X234350000Y-59852560D01*
X233050000Y-59852560D01*
X232802235Y-59901843D01*
X232592191Y-60042191D01*
X232451843Y-60252235D01*
X232402560Y-60500000D01*
X232402560Y-60601517D01*
X232252071Y-60702071D01*
X232226728Y-60740000D01*
X231819620Y-60740000D01*
X231852440Y-60575000D01*
X231852440Y-59025000D01*
X231803157Y-58777235D01*
X231662809Y-58567191D01*
X231452765Y-58426843D01*
X231205000Y-58377560D01*
X230605000Y-58377560D01*
X230395000Y-58419331D01*
X230395000Y-57362239D01*
X230563848Y-57531087D01*
X230563848Y-57531087D01*
G37*
X230563848Y-57531087D02*
X231164779Y-57780001D01*
X231730000Y-57780001D01*
X231730000Y-57915153D01*
X231715112Y-57990000D01*
X231730000Y-58064847D01*
X231730000Y-58064852D01*
X231758489Y-58208071D01*
X231774097Y-58286537D01*
X231894385Y-58466560D01*
X231942072Y-58537929D01*
X232005527Y-58580329D01*
X232409671Y-58984472D01*
X232452071Y-59047929D01*
X232703463Y-59215904D01*
X232925148Y-59260000D01*
X232925153Y-59260000D01*
X233000000Y-59274888D01*
X233074847Y-59260000D01*
X234674440Y-59260000D01*
X234701843Y-59397765D01*
X234842191Y-59607809D01*
X235052235Y-59748157D01*
X235300000Y-59797440D01*
X236800000Y-59797440D01*
X237047765Y-59748157D01*
X237257809Y-59607809D01*
X237398157Y-59397765D01*
X237400000Y-59388500D01*
X237401843Y-59397765D01*
X237542191Y-59607809D01*
X237752235Y-59748157D01*
X237990001Y-59795451D01*
X237990000Y-61660197D01*
X237037969Y-62612229D01*
X237019666Y-62600000D01*
X237082809Y-62557809D01*
X237223157Y-62347765D01*
X237272440Y-62100000D01*
X237272440Y-60600000D01*
X237223157Y-60352235D01*
X237082809Y-60142191D01*
X236872765Y-60001843D01*
X236625000Y-59952560D01*
X235375000Y-59952560D01*
X235127235Y-60001843D01*
X234917191Y-60142191D01*
X234895909Y-60174041D01*
X234807809Y-60042191D01*
X234597765Y-59901843D01*
X234350000Y-59852560D01*
X233050000Y-59852560D01*
X232802235Y-59901843D01*
X232592191Y-60042191D01*
X232451843Y-60252235D01*
X232402560Y-60500000D01*
X232402560Y-60601517D01*
X232252071Y-60702071D01*
X232226728Y-60740000D01*
X231819620Y-60740000D01*
X231852440Y-60575000D01*
X231852440Y-59025000D01*
X231803157Y-58777235D01*
X231662809Y-58567191D01*
X231452765Y-58426843D01*
X231205000Y-58377560D01*
X230605000Y-58377560D01*
X230395000Y-58419331D01*
X230395000Y-57362239D01*
X230563848Y-57531087D01*
M02*
