G04 #@! TF.GenerationSoftware,KiCad,Pcbnew,(5.0.0-rc2-dev-444-g2974a2c10)*
G04 #@! TF.CreationDate,2018-10-06T13:39:59-07:00*
G04 #@! TF.ProjectId,2018-08-20 analog Trinket sub,323031382D30382D323020616E616C6F,rev?*
G04 #@! TF.SameCoordinates,Original*
G04 #@! TF.FileFunction,Legend,Top*
G04 #@! TF.FilePolarity,Positive*
%FSLAX46Y46*%
G04 Gerber Fmt 4.6, Leading zero omitted, Abs format (unit mm)*
G04 Created by KiCad (PCBNEW (5.0.0-rc2-dev-444-g2974a2c10)) date 10/06/18 13:39:59*
%MOMM*%
%LPD*%
G01*
G04 APERTURE LIST*
%ADD10C,0.100000*%
%ADD11C,0.200000*%
%ADD12C,0.150000*%
%ADD13C,0.120000*%
%ADD14C,0.080000*%
G04 APERTURE END LIST*
D10*
X241886609Y-67014314D02*
X241862800Y-66990504D01*
X241838990Y-66942885D01*
X241838990Y-66823838D01*
X241862800Y-66776219D01*
X241886609Y-66752409D01*
X241934228Y-66728600D01*
X241981847Y-66728600D01*
X242053276Y-66752409D01*
X242338990Y-67038123D01*
X242338990Y-66728600D01*
X241838990Y-66419076D02*
X241838990Y-66371457D01*
X241862800Y-66323838D01*
X241886609Y-66300028D01*
X241934228Y-66276219D01*
X242029466Y-66252409D01*
X242148514Y-66252409D01*
X242243752Y-66276219D01*
X242291371Y-66300028D01*
X242315180Y-66323838D01*
X242338990Y-66371457D01*
X242338990Y-66419076D01*
X242315180Y-66466695D01*
X242291371Y-66490504D01*
X242243752Y-66514314D01*
X242148514Y-66538123D01*
X242029466Y-66538123D01*
X241934228Y-66514314D01*
X241886609Y-66490504D01*
X241862800Y-66466695D01*
X241838990Y-66419076D01*
X242338990Y-65776219D02*
X242338990Y-66061933D01*
X242338990Y-65919076D02*
X241838990Y-65919076D01*
X241910419Y-65966695D01*
X241958038Y-66014314D01*
X241981847Y-66061933D01*
X242053276Y-65490504D02*
X242029466Y-65538123D01*
X242005657Y-65561933D01*
X241958038Y-65585742D01*
X241934228Y-65585742D01*
X241886609Y-65561933D01*
X241862800Y-65538123D01*
X241838990Y-65490504D01*
X241838990Y-65395266D01*
X241862800Y-65347647D01*
X241886609Y-65323838D01*
X241934228Y-65300028D01*
X241958038Y-65300028D01*
X242005657Y-65323838D01*
X242029466Y-65347647D01*
X242053276Y-65395266D01*
X242053276Y-65490504D01*
X242077085Y-65538123D01*
X242100895Y-65561933D01*
X242148514Y-65585742D01*
X242243752Y-65585742D01*
X242291371Y-65561933D01*
X242315180Y-65538123D01*
X242338990Y-65490504D01*
X242338990Y-65395266D01*
X242315180Y-65347647D01*
X242291371Y-65323838D01*
X242243752Y-65300028D01*
X242148514Y-65300028D01*
X242100895Y-65323838D01*
X242077085Y-65347647D01*
X242053276Y-65395266D01*
X242148514Y-65085742D02*
X242148514Y-64704790D01*
X242338990Y-64204790D02*
X242338990Y-64490504D01*
X242338990Y-64347647D02*
X241838990Y-64347647D01*
X241910419Y-64395266D01*
X241958038Y-64442885D01*
X241981847Y-64490504D01*
X241838990Y-63895266D02*
X241838990Y-63847647D01*
X241862800Y-63800028D01*
X241886609Y-63776219D01*
X241934228Y-63752409D01*
X242029466Y-63728600D01*
X242148514Y-63728600D01*
X242243752Y-63752409D01*
X242291371Y-63776219D01*
X242315180Y-63800028D01*
X242338990Y-63847647D01*
X242338990Y-63895266D01*
X242315180Y-63942885D01*
X242291371Y-63966695D01*
X242243752Y-63990504D01*
X242148514Y-64014314D01*
X242029466Y-64014314D01*
X241934228Y-63990504D01*
X241886609Y-63966695D01*
X241862800Y-63942885D01*
X241838990Y-63895266D01*
X242148514Y-63514314D02*
X242148514Y-63133361D01*
X241838990Y-62800028D02*
X241838990Y-62752409D01*
X241862800Y-62704790D01*
X241886609Y-62680980D01*
X241934228Y-62657171D01*
X242029466Y-62633361D01*
X242148514Y-62633361D01*
X242243752Y-62657171D01*
X242291371Y-62680980D01*
X242315180Y-62704790D01*
X242338990Y-62752409D01*
X242338990Y-62800028D01*
X242315180Y-62847647D01*
X242291371Y-62871457D01*
X242243752Y-62895266D01*
X242148514Y-62919076D01*
X242029466Y-62919076D01*
X241934228Y-62895266D01*
X241886609Y-62871457D01*
X241862800Y-62847647D01*
X241838990Y-62800028D01*
X241838990Y-62204790D02*
X241838990Y-62300028D01*
X241862800Y-62347647D01*
X241886609Y-62371457D01*
X241958038Y-62419076D01*
X242053276Y-62442885D01*
X242243752Y-62442885D01*
X242291371Y-62419076D01*
X242315180Y-62395266D01*
X242338990Y-62347647D01*
X242338990Y-62252409D01*
X242315180Y-62204790D01*
X242291371Y-62180980D01*
X242243752Y-62157171D01*
X242124704Y-62157171D01*
X242077085Y-62180980D01*
X242053276Y-62204790D01*
X242029466Y-62252409D01*
X242029466Y-62347647D01*
X242053276Y-62395266D01*
X242077085Y-62419076D01*
X242124704Y-62442885D01*
X242005657Y-61609552D02*
X242338990Y-61490504D01*
X242005657Y-61371457D01*
X241838990Y-61085742D02*
X241838990Y-61038123D01*
X241862800Y-60990504D01*
X241886609Y-60966695D01*
X241934228Y-60942885D01*
X242029466Y-60919076D01*
X242148514Y-60919076D01*
X242243752Y-60942885D01*
X242291371Y-60966695D01*
X242315180Y-60990504D01*
X242338990Y-61038123D01*
X242338990Y-61085742D01*
X242315180Y-61133361D01*
X242291371Y-61157171D01*
X242243752Y-61180980D01*
X242148514Y-61204790D01*
X242029466Y-61204790D01*
X241934228Y-61180980D01*
X241886609Y-61157171D01*
X241862800Y-61133361D01*
X241838990Y-61085742D01*
X241886609Y-60728600D02*
X241862800Y-60704790D01*
X241838990Y-60657171D01*
X241838990Y-60538123D01*
X241862800Y-60490504D01*
X241886609Y-60466695D01*
X241934228Y-60442885D01*
X241981847Y-60442885D01*
X242053276Y-60466695D01*
X242338990Y-60752409D01*
X242338990Y-60442885D01*
X239924066Y-67416666D02*
X239590733Y-67650000D01*
X239924066Y-67816666D02*
X239224066Y-67816666D01*
X239224066Y-67550000D01*
X239257400Y-67483333D01*
X239290733Y-67450000D01*
X239357400Y-67416666D01*
X239457400Y-67416666D01*
X239524066Y-67450000D01*
X239557400Y-67483333D01*
X239590733Y-67550000D01*
X239590733Y-67816666D01*
X239890733Y-66850000D02*
X239924066Y-66916666D01*
X239924066Y-67050000D01*
X239890733Y-67116666D01*
X239824066Y-67150000D01*
X239557400Y-67150000D01*
X239490733Y-67116666D01*
X239457400Y-67050000D01*
X239457400Y-66916666D01*
X239490733Y-66850000D01*
X239557400Y-66816666D01*
X239624066Y-66816666D01*
X239690733Y-67150000D01*
X239457400Y-66616666D02*
X239457400Y-66350000D01*
X239224066Y-66516666D02*
X239824066Y-66516666D01*
X239890733Y-66483333D01*
X239924066Y-66416666D01*
X239924066Y-66350000D01*
X239924066Y-66116666D02*
X239457400Y-66116666D01*
X239590733Y-66116666D02*
X239524066Y-66083333D01*
X239490733Y-66050000D01*
X239457400Y-65983333D01*
X239457400Y-65916666D01*
X239924066Y-65583333D02*
X239890733Y-65650000D01*
X239857400Y-65683333D01*
X239790733Y-65716666D01*
X239590733Y-65716666D01*
X239524066Y-65683333D01*
X239490733Y-65650000D01*
X239457400Y-65583333D01*
X239457400Y-65483333D01*
X239490733Y-65416666D01*
X239524066Y-65383333D01*
X239590733Y-65350000D01*
X239790733Y-65350000D01*
X239857400Y-65383333D01*
X239890733Y-65416666D01*
X239924066Y-65483333D01*
X239924066Y-65583333D01*
X239857400Y-64116666D02*
X239890733Y-64150000D01*
X239924066Y-64250000D01*
X239924066Y-64316666D01*
X239890733Y-64416666D01*
X239824066Y-64483333D01*
X239757400Y-64516666D01*
X239624066Y-64550000D01*
X239524066Y-64550000D01*
X239390733Y-64516666D01*
X239324066Y-64483333D01*
X239257400Y-64416666D01*
X239224066Y-64316666D01*
X239224066Y-64250000D01*
X239257400Y-64150000D01*
X239290733Y-64116666D01*
X239224066Y-63916666D02*
X239924066Y-63683333D01*
X239224066Y-63450000D01*
X239924066Y-62683333D02*
X239224066Y-62683333D01*
X239724066Y-62450000D01*
X239224066Y-62216666D01*
X239924066Y-62216666D01*
X239890733Y-61616666D02*
X239924066Y-61683333D01*
X239924066Y-61816666D01*
X239890733Y-61883333D01*
X239824066Y-61916666D01*
X239557400Y-61916666D01*
X239490733Y-61883333D01*
X239457400Y-61816666D01*
X239457400Y-61683333D01*
X239490733Y-61616666D01*
X239557400Y-61583333D01*
X239624066Y-61583333D01*
X239690733Y-61916666D01*
X239457400Y-61383333D02*
X239457400Y-61116666D01*
X239224066Y-61283333D02*
X239824066Y-61283333D01*
X239890733Y-61250000D01*
X239924066Y-61183333D01*
X239924066Y-61116666D01*
X239890733Y-60616666D02*
X239924066Y-60683333D01*
X239924066Y-60816666D01*
X239890733Y-60883333D01*
X239824066Y-60916666D01*
X239557400Y-60916666D01*
X239490733Y-60883333D01*
X239457400Y-60816666D01*
X239457400Y-60683333D01*
X239490733Y-60616666D01*
X239557400Y-60583333D01*
X239624066Y-60583333D01*
X239690733Y-60916666D01*
X239924066Y-60283333D02*
X239457400Y-60283333D01*
X239590733Y-60283333D02*
X239524066Y-60250000D01*
X239490733Y-60216666D01*
X239457400Y-60150000D01*
X239457400Y-60083333D01*
X240874066Y-66850000D02*
X240874066Y-66516666D01*
X241074066Y-66916666D02*
X240374066Y-66683333D01*
X241074066Y-66450000D01*
X240607400Y-66216666D02*
X241074066Y-66216666D01*
X240674066Y-66216666D02*
X240640733Y-66183333D01*
X240607400Y-66116666D01*
X240607400Y-66016666D01*
X240640733Y-65950000D01*
X240707400Y-65916666D01*
X241074066Y-65916666D01*
X241074066Y-65283333D02*
X240707400Y-65283333D01*
X240640733Y-65316666D01*
X240607400Y-65383333D01*
X240607400Y-65516666D01*
X240640733Y-65583333D01*
X241040733Y-65283333D02*
X241074066Y-65350000D01*
X241074066Y-65516666D01*
X241040733Y-65583333D01*
X240974066Y-65616666D01*
X240907400Y-65616666D01*
X240840733Y-65583333D01*
X240807400Y-65516666D01*
X240807400Y-65350000D01*
X240774066Y-65283333D01*
X241074066Y-64850000D02*
X241040733Y-64916666D01*
X240974066Y-64950000D01*
X240374066Y-64950000D01*
X241074066Y-64483333D02*
X241040733Y-64550000D01*
X241007400Y-64583333D01*
X240940733Y-64616666D01*
X240740733Y-64616666D01*
X240674066Y-64583333D01*
X240640733Y-64550000D01*
X240607400Y-64483333D01*
X240607400Y-64383333D01*
X240640733Y-64316666D01*
X240674066Y-64283333D01*
X240740733Y-64250000D01*
X240940733Y-64250000D01*
X241007400Y-64283333D01*
X241040733Y-64316666D01*
X241074066Y-64383333D01*
X241074066Y-64483333D01*
X240607400Y-63650000D02*
X241174066Y-63650000D01*
X241240733Y-63683333D01*
X241274066Y-63716666D01*
X241307400Y-63783333D01*
X241307400Y-63883333D01*
X241274066Y-63950000D01*
X241040733Y-63650000D02*
X241074066Y-63716666D01*
X241074066Y-63850000D01*
X241040733Y-63916666D01*
X241007400Y-63950000D01*
X240940733Y-63983333D01*
X240740733Y-63983333D01*
X240674066Y-63950000D01*
X240640733Y-63916666D01*
X240607400Y-63850000D01*
X240607400Y-63716666D01*
X240640733Y-63650000D01*
X241040733Y-62816666D02*
X241074066Y-62716666D01*
X241074066Y-62550000D01*
X241040733Y-62483333D01*
X241007400Y-62450000D01*
X240940733Y-62416666D01*
X240874066Y-62416666D01*
X240807400Y-62450000D01*
X240774066Y-62483333D01*
X240740733Y-62550000D01*
X240707400Y-62683333D01*
X240674066Y-62750000D01*
X240640733Y-62783333D01*
X240574066Y-62816666D01*
X240507400Y-62816666D01*
X240440733Y-62783333D01*
X240407400Y-62750000D01*
X240374066Y-62683333D01*
X240374066Y-62516666D01*
X240407400Y-62416666D01*
X240607400Y-61816666D02*
X241074066Y-61816666D01*
X240607400Y-62116666D02*
X240974066Y-62116666D01*
X241040733Y-62083333D01*
X241074066Y-62016666D01*
X241074066Y-61916666D01*
X241040733Y-61850000D01*
X241007400Y-61816666D01*
X241074066Y-61483333D02*
X240374066Y-61483333D01*
X240640733Y-61483333D02*
X240607400Y-61416666D01*
X240607400Y-61283333D01*
X240640733Y-61216666D01*
X240674066Y-61183333D01*
X240740733Y-61150000D01*
X240940733Y-61150000D01*
X241007400Y-61183333D01*
X241040733Y-61216666D01*
X241074066Y-61283333D01*
X241074066Y-61416666D01*
X241040733Y-61483333D01*
D11*
X221441421Y-58200000D02*
G75*
G03X221441421Y-58200000I-141421J0D01*
G01*
X221641421Y-66700000D02*
G75*
G03X221641421Y-66700000I-141421J0D01*
G01*
X217823607Y-65100000D02*
G75*
G03X217823607Y-65100000I-223607J0D01*
G01*
X225941421Y-65900000D02*
G75*
G03X225941421Y-65900000I-141421J0D01*
G01*
D12*
X214980001Y-54875001D02*
X214980001Y-70115001D01*
X214980001Y-54875001D02*
X240380001Y-54875001D01*
X242920001Y-59955001D02*
X242920001Y-67575001D01*
X214980001Y-70115001D02*
X240380001Y-70115001D01*
X240380001Y-70115001D02*
X242920001Y-67575001D01*
X242920001Y-59955001D02*
X240380001Y-57415001D01*
X240380001Y-57415001D02*
X240380001Y-54875001D01*
D10*
X215050001Y-60495001D02*
X216950001Y-60495001D01*
X216950001Y-60495001D02*
X216950001Y-64395001D01*
X216950001Y-64395001D02*
X216950001Y-64495001D01*
X216950001Y-64495001D02*
X214950001Y-64495001D01*
D13*
X218450000Y-68650000D02*
X219450000Y-68650000D01*
X219450000Y-66950000D02*
X218450000Y-66950000D01*
X238000000Y-59380000D02*
X236800000Y-59380000D01*
X236800000Y-57620000D02*
X238000000Y-57620000D01*
X232820000Y-63200000D02*
X232820000Y-62000000D01*
X234580000Y-62000000D02*
X234580000Y-63200000D01*
X235150000Y-62100000D02*
X235150000Y-63100000D01*
X236850000Y-63100000D02*
X236850000Y-62100000D01*
X218450000Y-57950000D02*
X219450000Y-57950000D01*
X219450000Y-56250000D02*
X218450000Y-56250000D01*
D12*
X226475000Y-64575000D02*
X226475000Y-65975000D01*
X231575000Y-64575000D02*
X231575000Y-60425000D01*
X226425000Y-64575000D02*
X226425000Y-60425000D01*
X231575000Y-64575000D02*
X231430000Y-64575000D01*
X231575000Y-60425000D02*
X231430000Y-60425000D01*
X226425000Y-60425000D02*
X226570000Y-60425000D01*
X226425000Y-64575000D02*
X226475000Y-64575000D01*
D13*
X217790000Y-61550000D02*
X217790000Y-64000000D01*
X221010000Y-63350000D02*
X221010000Y-61550000D01*
X223511000Y-60614000D02*
X223511000Y-61814000D01*
X221751000Y-61814000D02*
X221751000Y-60614000D01*
X225543000Y-63408000D02*
X225543000Y-64608000D01*
X223783000Y-64608000D02*
X223783000Y-63408000D01*
D14*
X223771428Y-67095238D02*
X223790476Y-67038095D01*
X223809523Y-67019047D01*
X223847619Y-67000000D01*
X223904761Y-67000000D01*
X223942857Y-67019047D01*
X223961904Y-67038095D01*
X223980952Y-67076190D01*
X223980952Y-67228571D01*
X223580952Y-67228571D01*
X223580952Y-67095238D01*
X223600000Y-67057142D01*
X223619047Y-67038095D01*
X223657142Y-67019047D01*
X223695238Y-67019047D01*
X223733333Y-67038095D01*
X223752380Y-67057142D01*
X223771428Y-67095238D01*
X223771428Y-67228571D01*
X223866666Y-66847619D02*
X223866666Y-66657142D01*
X223980952Y-66885714D02*
X223580952Y-66752380D01*
X223980952Y-66619047D01*
X223580952Y-66542857D02*
X223580952Y-66314285D01*
X223980952Y-66428571D02*
X223580952Y-66428571D01*
X225500000Y-67404761D02*
X225480952Y-67442857D01*
X225480952Y-67500000D01*
X225500000Y-67557142D01*
X225538095Y-67595238D01*
X225576190Y-67614285D01*
X225652380Y-67633333D01*
X225709523Y-67633333D01*
X225785714Y-67614285D01*
X225823809Y-67595238D01*
X225861904Y-67557142D01*
X225880952Y-67500000D01*
X225880952Y-67461904D01*
X225861904Y-67404761D01*
X225842857Y-67385714D01*
X225709523Y-67385714D01*
X225709523Y-67461904D01*
X225880952Y-67214285D02*
X225480952Y-67214285D01*
X225880952Y-66985714D01*
X225480952Y-66985714D01*
X225880952Y-66795238D02*
X225480952Y-66795238D01*
X225480952Y-66700000D01*
X225500000Y-66642857D01*
X225538095Y-66604761D01*
X225576190Y-66585714D01*
X225652380Y-66566666D01*
X225709523Y-66566666D01*
X225785714Y-66585714D01*
X225823809Y-66604761D01*
X225861904Y-66642857D01*
X225880952Y-66700000D01*
X225880952Y-66795238D01*
X228133333Y-67280952D02*
X228133333Y-66880952D01*
X228228571Y-66880952D01*
X228285714Y-66900000D01*
X228323809Y-66938095D01*
X228342857Y-66976190D01*
X228361904Y-67052380D01*
X228361904Y-67109523D01*
X228342857Y-67185714D01*
X228323809Y-67223809D01*
X228285714Y-67261904D01*
X228228571Y-67280952D01*
X228133333Y-67280952D01*
X228704761Y-67014285D02*
X228704761Y-67280952D01*
X228609523Y-66861904D02*
X228514285Y-67147619D01*
X228761904Y-67147619D01*
X229200000Y-66861904D02*
X228857142Y-67376190D01*
X229314285Y-67166666D02*
X229504761Y-67166666D01*
X229276190Y-67280952D02*
X229409523Y-66880952D01*
X229542857Y-67280952D01*
X229847619Y-67014285D02*
X229847619Y-67280952D01*
X229752380Y-66861904D02*
X229657142Y-67147619D01*
X229904761Y-67147619D01*
X232680952Y-67566666D02*
X232280952Y-67566666D01*
X232280952Y-67471428D01*
X232300000Y-67414285D01*
X232338095Y-67376190D01*
X232376190Y-67357142D01*
X232452380Y-67338095D01*
X232509523Y-67338095D01*
X232585714Y-67357142D01*
X232623809Y-67376190D01*
X232661904Y-67414285D01*
X232680952Y-67471428D01*
X232680952Y-67566666D01*
X232280952Y-67204761D02*
X232280952Y-66957142D01*
X232433333Y-67090476D01*
X232433333Y-67033333D01*
X232452380Y-66995238D01*
X232471428Y-66976190D01*
X232509523Y-66957142D01*
X232604761Y-66957142D01*
X232642857Y-66976190D01*
X232661904Y-66995238D01*
X232680952Y-67033333D01*
X232680952Y-67147619D01*
X232661904Y-67185714D01*
X232642857Y-67204761D01*
X232261904Y-66500000D02*
X232776190Y-66842857D01*
X232566666Y-66385714D02*
X232566666Y-66195238D01*
X232680952Y-66423809D02*
X232280952Y-66290476D01*
X232680952Y-66157142D01*
X232280952Y-66061904D02*
X232280952Y-65814285D01*
X232433333Y-65947619D01*
X232433333Y-65890476D01*
X232452380Y-65852380D01*
X232471428Y-65833333D01*
X232509523Y-65814285D01*
X232604761Y-65814285D01*
X232642857Y-65833333D01*
X232661904Y-65852380D01*
X232680952Y-65890476D01*
X232680952Y-66004761D01*
X232661904Y-66042857D01*
X232642857Y-66061904D01*
X234280952Y-67019047D02*
X234090476Y-67152380D01*
X234280952Y-67247619D02*
X233880952Y-67247619D01*
X233880952Y-67095238D01*
X233900000Y-67057142D01*
X233919047Y-67038095D01*
X233957142Y-67019047D01*
X234014285Y-67019047D01*
X234052380Y-67038095D01*
X234071428Y-67057142D01*
X234090476Y-67095238D01*
X234090476Y-67247619D01*
X234261904Y-66866666D02*
X234280952Y-66809523D01*
X234280952Y-66714285D01*
X234261904Y-66676190D01*
X234242857Y-66657142D01*
X234204761Y-66638095D01*
X234166666Y-66638095D01*
X234128571Y-66657142D01*
X234109523Y-66676190D01*
X234090476Y-66714285D01*
X234071428Y-66790476D01*
X234052380Y-66828571D01*
X234033333Y-66847619D01*
X233995238Y-66866666D01*
X233957142Y-66866666D01*
X233919047Y-66847619D01*
X233900000Y-66828571D01*
X233880952Y-66790476D01*
X233880952Y-66695238D01*
X233900000Y-66638095D01*
X233880952Y-66523809D02*
X233880952Y-66295238D01*
X234280952Y-66409523D02*
X233880952Y-66409523D01*
X223680952Y-58704761D02*
X224004761Y-58704761D01*
X224042857Y-58685714D01*
X224061904Y-58666666D01*
X224080952Y-58628571D01*
X224080952Y-58552380D01*
X224061904Y-58514285D01*
X224042857Y-58495238D01*
X224004761Y-58476190D01*
X223680952Y-58476190D01*
X224061904Y-58304761D02*
X224080952Y-58247619D01*
X224080952Y-58152380D01*
X224061904Y-58114285D01*
X224042857Y-58095238D01*
X224004761Y-58076190D01*
X223966666Y-58076190D01*
X223928571Y-58095238D01*
X223909523Y-58114285D01*
X223890476Y-58152380D01*
X223871428Y-58228571D01*
X223852380Y-58266666D01*
X223833333Y-58285714D01*
X223795238Y-58304761D01*
X223757142Y-58304761D01*
X223719047Y-58285714D01*
X223700000Y-58266666D01*
X223680952Y-58228571D01*
X223680952Y-58133333D01*
X223700000Y-58076190D01*
X223871428Y-57771428D02*
X223890476Y-57714285D01*
X223909523Y-57695238D01*
X223947619Y-57676190D01*
X224004761Y-57676190D01*
X224042857Y-57695238D01*
X224061904Y-57714285D01*
X224080952Y-57752380D01*
X224080952Y-57904761D01*
X223680952Y-57904761D01*
X223680952Y-57771428D01*
X223700000Y-57733333D01*
X223719047Y-57714285D01*
X223757142Y-57695238D01*
X223795238Y-57695238D01*
X223833333Y-57714285D01*
X223852380Y-57733333D01*
X223871428Y-57771428D01*
X223871428Y-57904761D01*
X225980952Y-59166666D02*
X225580952Y-59166666D01*
X225580952Y-59071428D01*
X225600000Y-59014285D01*
X225638095Y-58976190D01*
X225676190Y-58957142D01*
X225752380Y-58938095D01*
X225809523Y-58938095D01*
X225885714Y-58957142D01*
X225923809Y-58976190D01*
X225961904Y-59014285D01*
X225980952Y-59071428D01*
X225980952Y-59166666D01*
X225580952Y-58690476D02*
X225580952Y-58652380D01*
X225600000Y-58614285D01*
X225619047Y-58595238D01*
X225657142Y-58576190D01*
X225733333Y-58557142D01*
X225828571Y-58557142D01*
X225904761Y-58576190D01*
X225942857Y-58595238D01*
X225961904Y-58614285D01*
X225980952Y-58652380D01*
X225980952Y-58690476D01*
X225961904Y-58728571D01*
X225942857Y-58747619D01*
X225904761Y-58766666D01*
X225828571Y-58785714D01*
X225733333Y-58785714D01*
X225657142Y-58766666D01*
X225619047Y-58747619D01*
X225600000Y-58728571D01*
X225580952Y-58690476D01*
X225561904Y-58100000D02*
X226076190Y-58442857D01*
X225866666Y-57985714D02*
X225866666Y-57795238D01*
X225980952Y-58023809D02*
X225580952Y-57890476D01*
X225980952Y-57757142D01*
X225619047Y-57642857D02*
X225600000Y-57623809D01*
X225580952Y-57585714D01*
X225580952Y-57490476D01*
X225600000Y-57452380D01*
X225619047Y-57433333D01*
X225657142Y-57414285D01*
X225695238Y-57414285D01*
X225752380Y-57433333D01*
X225980952Y-57661904D01*
X225980952Y-57414285D01*
X228090476Y-57980952D02*
X228090476Y-57580952D01*
X228185714Y-57580952D01*
X228242857Y-57600000D01*
X228280952Y-57638095D01*
X228300000Y-57676190D01*
X228319047Y-57752380D01*
X228319047Y-57809523D01*
X228300000Y-57885714D01*
X228280952Y-57923809D01*
X228242857Y-57961904D01*
X228185714Y-57980952D01*
X228090476Y-57980952D01*
X228700000Y-57980952D02*
X228471428Y-57980952D01*
X228585714Y-57980952D02*
X228585714Y-57580952D01*
X228547619Y-57638095D01*
X228509523Y-57676190D01*
X228471428Y-57695238D01*
X229157142Y-57561904D02*
X228814285Y-58076190D01*
X229271428Y-57866666D02*
X229461904Y-57866666D01*
X229233333Y-57980952D02*
X229366666Y-57580952D01*
X229500000Y-57980952D01*
X229709523Y-57580952D02*
X229747619Y-57580952D01*
X229785714Y-57600000D01*
X229804761Y-57619047D01*
X229823809Y-57657142D01*
X229842857Y-57733333D01*
X229842857Y-57828571D01*
X229823809Y-57904761D01*
X229804761Y-57942857D01*
X229785714Y-57961904D01*
X229747619Y-57980952D01*
X229709523Y-57980952D01*
X229671428Y-57961904D01*
X229652380Y-57942857D01*
X229633333Y-57904761D01*
X229614285Y-57828571D01*
X229614285Y-57733333D01*
X229633333Y-57657142D01*
X229652380Y-57619047D01*
X229671428Y-57600000D01*
X229709523Y-57580952D01*
X229957142Y-57828571D02*
X229976190Y-57809523D01*
X230014285Y-57790476D01*
X230090476Y-57828571D01*
X230128571Y-57809523D01*
X230147619Y-57790476D01*
X232680952Y-58966666D02*
X232280952Y-58966666D01*
X232280952Y-58871428D01*
X232300000Y-58814285D01*
X232338095Y-58776190D01*
X232376190Y-58757142D01*
X232452380Y-58738095D01*
X232509523Y-58738095D01*
X232585714Y-58757142D01*
X232623809Y-58776190D01*
X232661904Y-58814285D01*
X232680952Y-58871428D01*
X232680952Y-58966666D01*
X232319047Y-58585714D02*
X232300000Y-58566666D01*
X232280952Y-58528571D01*
X232280952Y-58433333D01*
X232300000Y-58395238D01*
X232319047Y-58376190D01*
X232357142Y-58357142D01*
X232395238Y-58357142D01*
X232452380Y-58376190D01*
X232680952Y-58604761D01*
X232680952Y-58357142D01*
X232261904Y-57900000D02*
X232776190Y-58242857D01*
X232566666Y-57785714D02*
X232566666Y-57595238D01*
X232680952Y-57823809D02*
X232280952Y-57690476D01*
X232680952Y-57557142D01*
X232680952Y-57214285D02*
X232680952Y-57442857D01*
X232680952Y-57328571D02*
X232280952Y-57328571D01*
X232338095Y-57366666D01*
X232376190Y-57404761D01*
X232395238Y-57442857D01*
X233880952Y-58304761D02*
X233880952Y-58057142D01*
X234033333Y-58190476D01*
X234033333Y-58133333D01*
X234052380Y-58095238D01*
X234071428Y-58076190D01*
X234109523Y-58057142D01*
X234204761Y-58057142D01*
X234242857Y-58076190D01*
X234261904Y-58095238D01*
X234280952Y-58133333D01*
X234280952Y-58247619D01*
X234261904Y-58285714D01*
X234242857Y-58304761D01*
X233880952Y-57942857D02*
X234280952Y-57809523D01*
X233880952Y-57676190D01*
D10*
X218878571Y-66383333D02*
X218902380Y-66407142D01*
X218926190Y-66478571D01*
X218926190Y-66526190D01*
X218902380Y-66597619D01*
X218854761Y-66645238D01*
X218807142Y-66669047D01*
X218711904Y-66692857D01*
X218640476Y-66692857D01*
X218545238Y-66669047D01*
X218497619Y-66645238D01*
X218450000Y-66597619D01*
X218426190Y-66526190D01*
X218426190Y-66478571D01*
X218450000Y-66407142D01*
X218473809Y-66383333D01*
X218473809Y-66192857D02*
X218450000Y-66169047D01*
X218426190Y-66121428D01*
X218426190Y-66002380D01*
X218450000Y-65954761D01*
X218473809Y-65930952D01*
X218521428Y-65907142D01*
X218569047Y-65907142D01*
X218640476Y-65930952D01*
X218926190Y-66216666D01*
X218926190Y-65907142D01*
X219726190Y-66435714D02*
X219726190Y-66721428D01*
X219726190Y-66578571D02*
X219226190Y-66578571D01*
X219297619Y-66626190D01*
X219345238Y-66673809D01*
X219369047Y-66721428D01*
X219226190Y-66126190D02*
X219226190Y-66078571D01*
X219250000Y-66030952D01*
X219273809Y-66007142D01*
X219321428Y-65983333D01*
X219416666Y-65959523D01*
X219535714Y-65959523D01*
X219630952Y-65983333D01*
X219678571Y-66007142D01*
X219702380Y-66030952D01*
X219726190Y-66078571D01*
X219726190Y-66126190D01*
X219702380Y-66173809D01*
X219678571Y-66197619D01*
X219630952Y-66221428D01*
X219535714Y-66245238D01*
X219416666Y-66245238D01*
X219321428Y-66221428D01*
X219273809Y-66197619D01*
X219250000Y-66173809D01*
X219226190Y-66126190D01*
X219392857Y-65530952D02*
X219726190Y-65530952D01*
X219392857Y-65745238D02*
X219654761Y-65745238D01*
X219702380Y-65721428D01*
X219726190Y-65673809D01*
X219726190Y-65602380D01*
X219702380Y-65554761D01*
X219678571Y-65530952D01*
X219464285Y-65126190D02*
X219464285Y-65292857D01*
X219726190Y-65292857D02*
X219226190Y-65292857D01*
X219226190Y-65054761D01*
X236826190Y-56883333D02*
X236588095Y-57050000D01*
X236826190Y-57169047D02*
X236326190Y-57169047D01*
X236326190Y-56978571D01*
X236350000Y-56930952D01*
X236373809Y-56907142D01*
X236421428Y-56883333D01*
X236492857Y-56883333D01*
X236540476Y-56907142D01*
X236564285Y-56930952D01*
X236588095Y-56978571D01*
X236588095Y-57169047D01*
X236826190Y-56407142D02*
X236826190Y-56692857D01*
X236826190Y-56550000D02*
X236326190Y-56550000D01*
X236397619Y-56597619D01*
X236445238Y-56645238D01*
X236469047Y-56692857D01*
X237626190Y-56945238D02*
X237626190Y-57230952D01*
X237626190Y-57088095D02*
X237126190Y-57088095D01*
X237197619Y-57135714D01*
X237245238Y-57183333D01*
X237269047Y-57230952D01*
X237126190Y-56635714D02*
X237126190Y-56588095D01*
X237150000Y-56540476D01*
X237173809Y-56516666D01*
X237221428Y-56492857D01*
X237316666Y-56469047D01*
X237435714Y-56469047D01*
X237530952Y-56492857D01*
X237578571Y-56516666D01*
X237602380Y-56540476D01*
X237626190Y-56588095D01*
X237626190Y-56635714D01*
X237602380Y-56683333D01*
X237578571Y-56707142D01*
X237530952Y-56730952D01*
X237435714Y-56754761D01*
X237316666Y-56754761D01*
X237221428Y-56730952D01*
X237173809Y-56707142D01*
X237150000Y-56683333D01*
X237126190Y-56635714D01*
X237626190Y-56254761D02*
X237126190Y-56254761D01*
X237626190Y-55969047D02*
X237340476Y-56183333D01*
X237126190Y-55969047D02*
X237411904Y-56254761D01*
X232626190Y-64583333D02*
X232388095Y-64750000D01*
X232626190Y-64869047D02*
X232126190Y-64869047D01*
X232126190Y-64678571D01*
X232150000Y-64630952D01*
X232173809Y-64607142D01*
X232221428Y-64583333D01*
X232292857Y-64583333D01*
X232340476Y-64607142D01*
X232364285Y-64630952D01*
X232388095Y-64678571D01*
X232388095Y-64869047D01*
X232173809Y-64392857D02*
X232150000Y-64369047D01*
X232126190Y-64321428D01*
X232126190Y-64202380D01*
X232150000Y-64154761D01*
X232173809Y-64130952D01*
X232221428Y-64107142D01*
X232269047Y-64107142D01*
X232340476Y-64130952D01*
X232626190Y-64416666D01*
X232626190Y-64107142D01*
X232626190Y-61245238D02*
X232626190Y-61530952D01*
X232626190Y-61388095D02*
X232126190Y-61388095D01*
X232197619Y-61435714D01*
X232245238Y-61483333D01*
X232269047Y-61530952D01*
X232126190Y-60935714D02*
X232126190Y-60888095D01*
X232150000Y-60840476D01*
X232173809Y-60816666D01*
X232221428Y-60792857D01*
X232316666Y-60769047D01*
X232435714Y-60769047D01*
X232530952Y-60792857D01*
X232578571Y-60816666D01*
X232602380Y-60840476D01*
X232626190Y-60888095D01*
X232626190Y-60935714D01*
X232602380Y-60983333D01*
X232578571Y-61007142D01*
X232530952Y-61030952D01*
X232435714Y-61054761D01*
X232316666Y-61054761D01*
X232221428Y-61030952D01*
X232173809Y-61007142D01*
X232150000Y-60983333D01*
X232126190Y-60935714D01*
X232626190Y-60554761D02*
X232126190Y-60554761D01*
X232626190Y-60269047D02*
X232340476Y-60483333D01*
X232126190Y-60269047D02*
X232411904Y-60554761D01*
X237578571Y-64483333D02*
X237602380Y-64507142D01*
X237626190Y-64578571D01*
X237626190Y-64626190D01*
X237602380Y-64697619D01*
X237554761Y-64745238D01*
X237507142Y-64769047D01*
X237411904Y-64792857D01*
X237340476Y-64792857D01*
X237245238Y-64769047D01*
X237197619Y-64745238D01*
X237150000Y-64697619D01*
X237126190Y-64626190D01*
X237126190Y-64578571D01*
X237150000Y-64507142D01*
X237173809Y-64483333D01*
X237626190Y-64007142D02*
X237626190Y-64292857D01*
X237626190Y-64150000D02*
X237126190Y-64150000D01*
X237197619Y-64197619D01*
X237245238Y-64245238D01*
X237269047Y-64292857D01*
X237626190Y-61735714D02*
X237626190Y-62021428D01*
X237626190Y-61878571D02*
X237126190Y-61878571D01*
X237197619Y-61926190D01*
X237245238Y-61973809D01*
X237269047Y-62021428D01*
X237126190Y-61426190D02*
X237126190Y-61378571D01*
X237150000Y-61330952D01*
X237173809Y-61307142D01*
X237221428Y-61283333D01*
X237316666Y-61259523D01*
X237435714Y-61259523D01*
X237530952Y-61283333D01*
X237578571Y-61307142D01*
X237602380Y-61330952D01*
X237626190Y-61378571D01*
X237626190Y-61426190D01*
X237602380Y-61473809D01*
X237578571Y-61497619D01*
X237530952Y-61521428D01*
X237435714Y-61545238D01*
X237316666Y-61545238D01*
X237221428Y-61521428D01*
X237173809Y-61497619D01*
X237150000Y-61473809D01*
X237126190Y-61426190D01*
X237292857Y-60830952D02*
X237626190Y-60830952D01*
X237292857Y-61045238D02*
X237554761Y-61045238D01*
X237602380Y-61021428D01*
X237626190Y-60973809D01*
X237626190Y-60902380D01*
X237602380Y-60854761D01*
X237578571Y-60830952D01*
X237364285Y-60426190D02*
X237364285Y-60592857D01*
X237626190Y-60592857D02*
X237126190Y-60592857D01*
X237126190Y-60354761D01*
X218978571Y-58683333D02*
X219002380Y-58707142D01*
X219026190Y-58778571D01*
X219026190Y-58826190D01*
X219002380Y-58897619D01*
X218954761Y-58945238D01*
X218907142Y-58969047D01*
X218811904Y-58992857D01*
X218740476Y-58992857D01*
X218645238Y-58969047D01*
X218597619Y-58945238D01*
X218550000Y-58897619D01*
X218526190Y-58826190D01*
X218526190Y-58778571D01*
X218550000Y-58707142D01*
X218573809Y-58683333D01*
X218526190Y-58516666D02*
X218526190Y-58207142D01*
X218716666Y-58373809D01*
X218716666Y-58302380D01*
X218740476Y-58254761D01*
X218764285Y-58230952D01*
X218811904Y-58207142D01*
X218930952Y-58207142D01*
X218978571Y-58230952D01*
X219002380Y-58254761D01*
X219026190Y-58302380D01*
X219026190Y-58445238D01*
X219002380Y-58492857D01*
X218978571Y-58516666D01*
X219726190Y-59635714D02*
X219726190Y-59921428D01*
X219726190Y-59778571D02*
X219226190Y-59778571D01*
X219297619Y-59826190D01*
X219345238Y-59873809D01*
X219369047Y-59921428D01*
X219226190Y-59326190D02*
X219226190Y-59278571D01*
X219250000Y-59230952D01*
X219273809Y-59207142D01*
X219321428Y-59183333D01*
X219416666Y-59159523D01*
X219535714Y-59159523D01*
X219630952Y-59183333D01*
X219678571Y-59207142D01*
X219702380Y-59230952D01*
X219726190Y-59278571D01*
X219726190Y-59326190D01*
X219702380Y-59373809D01*
X219678571Y-59397619D01*
X219630952Y-59421428D01*
X219535714Y-59445238D01*
X219416666Y-59445238D01*
X219321428Y-59421428D01*
X219273809Y-59397619D01*
X219250000Y-59373809D01*
X219226190Y-59326190D01*
X219392857Y-58730952D02*
X219726190Y-58730952D01*
X219392857Y-58945238D02*
X219654761Y-58945238D01*
X219702380Y-58921428D01*
X219726190Y-58873809D01*
X219726190Y-58802380D01*
X219702380Y-58754761D01*
X219678571Y-58730952D01*
X219464285Y-58326190D02*
X219464285Y-58492857D01*
X219726190Y-58492857D02*
X219226190Y-58492857D01*
X219226190Y-58254761D01*
X225684590Y-65455752D02*
X226089352Y-65455752D01*
X226136971Y-65431942D01*
X226160780Y-65408133D01*
X226184590Y-65360514D01*
X226184590Y-65265276D01*
X226160780Y-65217657D01*
X226136971Y-65193847D01*
X226089352Y-65170038D01*
X225684590Y-65170038D01*
X226184590Y-64670038D02*
X226184590Y-64955752D01*
X226184590Y-64812895D02*
X225684590Y-64812895D01*
X225756019Y-64860514D01*
X225803638Y-64908133D01*
X225827447Y-64955752D01*
X225760790Y-63259304D02*
X225760790Y-62973590D01*
X226260790Y-63116447D02*
X225760790Y-63116447D01*
X226260790Y-62568828D02*
X226260790Y-62806923D01*
X225760790Y-62806923D01*
X225760790Y-62473590D02*
X226260790Y-62306923D01*
X225760790Y-62140257D01*
X225808409Y-61997400D02*
X225784600Y-61973590D01*
X225760790Y-61925971D01*
X225760790Y-61806923D01*
X225784600Y-61759304D01*
X225808409Y-61735495D01*
X225856028Y-61711685D01*
X225903647Y-61711685D01*
X225975076Y-61735495D01*
X226260790Y-62021209D01*
X226260790Y-61711685D01*
X225927457Y-61283114D02*
X226260790Y-61283114D01*
X225736980Y-61402161D02*
X226094123Y-61521209D01*
X226094123Y-61211685D01*
X225760790Y-60806923D02*
X225760790Y-60902161D01*
X225784600Y-60949780D01*
X225808409Y-60973590D01*
X225879838Y-61021209D01*
X225975076Y-61045019D01*
X226165552Y-61045019D01*
X226213171Y-61021209D01*
X226236980Y-60997400D01*
X226260790Y-60949780D01*
X226260790Y-60854542D01*
X226236980Y-60806923D01*
X226213171Y-60783114D01*
X226165552Y-60759304D01*
X226046504Y-60759304D01*
X225998885Y-60783114D01*
X225975076Y-60806923D01*
X225951266Y-60854542D01*
X225951266Y-60949780D01*
X225975076Y-60997400D01*
X225998885Y-61021209D01*
X226046504Y-61045019D01*
X226260790Y-60283114D02*
X226260790Y-60568828D01*
X226260790Y-60425971D02*
X225760790Y-60425971D01*
X225832219Y-60473590D01*
X225879838Y-60521209D01*
X225903647Y-60568828D01*
X217099390Y-64515952D02*
X217504152Y-64515952D01*
X217551771Y-64492142D01*
X217575580Y-64468333D01*
X217599390Y-64420714D01*
X217599390Y-64325476D01*
X217575580Y-64277857D01*
X217551771Y-64254047D01*
X217504152Y-64230238D01*
X217099390Y-64230238D01*
X217147009Y-64015952D02*
X217123200Y-63992142D01*
X217099390Y-63944523D01*
X217099390Y-63825476D01*
X217123200Y-63777857D01*
X217147009Y-63754047D01*
X217194628Y-63730238D01*
X217242247Y-63730238D01*
X217313676Y-63754047D01*
X217599390Y-64039761D01*
X217599390Y-63730238D01*
X217624790Y-63184600D02*
X217124790Y-63184600D01*
X217481933Y-63017933D01*
X217124790Y-62851266D01*
X217624790Y-62851266D01*
X217624790Y-62613171D02*
X217124790Y-62613171D01*
X217577171Y-62089361D02*
X217600980Y-62113171D01*
X217624790Y-62184600D01*
X217624790Y-62232219D01*
X217600980Y-62303647D01*
X217553361Y-62351266D01*
X217505742Y-62375076D01*
X217410504Y-62398885D01*
X217339076Y-62398885D01*
X217243838Y-62375076D01*
X217196219Y-62351266D01*
X217148600Y-62303647D01*
X217124790Y-62232219D01*
X217124790Y-62184600D01*
X217148600Y-62113171D01*
X217172409Y-62089361D01*
X217124790Y-61636980D02*
X217124790Y-61875076D01*
X217362885Y-61898885D01*
X217339076Y-61875076D01*
X217315266Y-61827457D01*
X217315266Y-61708409D01*
X217339076Y-61660790D01*
X217362885Y-61636980D01*
X217410504Y-61613171D01*
X217529552Y-61613171D01*
X217577171Y-61636980D01*
X217600980Y-61660790D01*
X217624790Y-61708409D01*
X217624790Y-61827457D01*
X217600980Y-61875076D01*
X217577171Y-61898885D01*
X217172409Y-61422695D02*
X217148600Y-61398885D01*
X217124790Y-61351266D01*
X217124790Y-61232219D01*
X217148600Y-61184600D01*
X217172409Y-61160790D01*
X217220028Y-61136980D01*
X217267647Y-61136980D01*
X217339076Y-61160790D01*
X217624790Y-61446504D01*
X217624790Y-61136980D01*
X217172409Y-60946504D02*
X217148600Y-60922695D01*
X217124790Y-60875076D01*
X217124790Y-60756028D01*
X217148600Y-60708409D01*
X217172409Y-60684600D01*
X217220028Y-60660790D01*
X217267647Y-60660790D01*
X217339076Y-60684600D01*
X217624790Y-60970314D01*
X217624790Y-60660790D01*
X217124790Y-60208409D02*
X217124790Y-60446504D01*
X217362885Y-60470314D01*
X217339076Y-60446504D01*
X217315266Y-60398885D01*
X217315266Y-60279838D01*
X217339076Y-60232219D01*
X217362885Y-60208409D01*
X217410504Y-60184600D01*
X217529552Y-60184600D01*
X217577171Y-60208409D01*
X217600980Y-60232219D01*
X217624790Y-60279838D01*
X217624790Y-60398885D01*
X217600980Y-60446504D01*
X217577171Y-60470314D01*
X217434314Y-59970314D02*
X217434314Y-59589361D01*
X217124790Y-59398885D02*
X217124790Y-59089361D01*
X217315266Y-59256028D01*
X217315266Y-59184600D01*
X217339076Y-59136980D01*
X217362885Y-59113171D01*
X217410504Y-59089361D01*
X217529552Y-59089361D01*
X217577171Y-59113171D01*
X217600980Y-59136980D01*
X217624790Y-59184600D01*
X217624790Y-59327457D01*
X217600980Y-59375076D01*
X217577171Y-59398885D01*
X217124790Y-58946504D02*
X217624790Y-58779838D01*
X217124790Y-58613171D01*
X224990790Y-59697133D02*
X224752695Y-59863800D01*
X224990790Y-59982847D02*
X224490790Y-59982847D01*
X224490790Y-59792371D01*
X224514600Y-59744752D01*
X224538409Y-59720942D01*
X224586028Y-59697133D01*
X224657457Y-59697133D01*
X224705076Y-59720942D01*
X224728885Y-59744752D01*
X224752695Y-59792371D01*
X224752695Y-59982847D01*
X224490790Y-59530466D02*
X224490790Y-59220942D01*
X224681266Y-59387609D01*
X224681266Y-59316180D01*
X224705076Y-59268561D01*
X224728885Y-59244752D01*
X224776504Y-59220942D01*
X224895552Y-59220942D01*
X224943171Y-59244752D01*
X224966980Y-59268561D01*
X224990790Y-59316180D01*
X224990790Y-59459038D01*
X224966980Y-59506657D01*
X224943171Y-59530466D01*
X224254190Y-60730533D02*
X224254190Y-61016247D01*
X224254190Y-60873390D02*
X223754190Y-60873390D01*
X223825619Y-60921009D01*
X223873238Y-60968628D01*
X223897047Y-61016247D01*
X223754190Y-60421009D02*
X223754190Y-60373390D01*
X223778000Y-60325771D01*
X223801809Y-60301961D01*
X223849428Y-60278152D01*
X223944666Y-60254342D01*
X224063714Y-60254342D01*
X224158952Y-60278152D01*
X224206571Y-60301961D01*
X224230380Y-60325771D01*
X224254190Y-60373390D01*
X224254190Y-60421009D01*
X224230380Y-60468628D01*
X224206571Y-60492438D01*
X224158952Y-60516247D01*
X224063714Y-60540057D01*
X223944666Y-60540057D01*
X223849428Y-60516247D01*
X223801809Y-60492438D01*
X223778000Y-60468628D01*
X223754190Y-60421009D01*
X223754190Y-59944819D02*
X223754190Y-59897200D01*
X223778000Y-59849580D01*
X223801809Y-59825771D01*
X223849428Y-59801961D01*
X223944666Y-59778152D01*
X224063714Y-59778152D01*
X224158952Y-59801961D01*
X224206571Y-59825771D01*
X224230380Y-59849580D01*
X224254190Y-59897200D01*
X224254190Y-59944819D01*
X224230380Y-59992438D01*
X224206571Y-60016247D01*
X224158952Y-60040057D01*
X224063714Y-60063866D01*
X223944666Y-60063866D01*
X223849428Y-60040057D01*
X223801809Y-60016247D01*
X223778000Y-59992438D01*
X223754190Y-59944819D01*
X224254190Y-59563866D02*
X223754190Y-59563866D01*
X224254190Y-59278152D02*
X223968476Y-59492438D01*
X223754190Y-59278152D02*
X224039904Y-59563866D01*
X222857190Y-65539133D02*
X222619095Y-65705800D01*
X222857190Y-65824847D02*
X222357190Y-65824847D01*
X222357190Y-65634371D01*
X222381000Y-65586752D01*
X222404809Y-65562942D01*
X222452428Y-65539133D01*
X222523857Y-65539133D01*
X222571476Y-65562942D01*
X222595285Y-65586752D01*
X222619095Y-65634371D01*
X222619095Y-65824847D01*
X222523857Y-65110561D02*
X222857190Y-65110561D01*
X222333380Y-65229609D02*
X222690523Y-65348657D01*
X222690523Y-65039133D01*
X223568390Y-65556533D02*
X223568390Y-65842247D01*
X223568390Y-65699390D02*
X223068390Y-65699390D01*
X223139819Y-65747009D01*
X223187438Y-65794628D01*
X223211247Y-65842247D01*
X223068390Y-65247009D02*
X223068390Y-65199390D01*
X223092200Y-65151771D01*
X223116009Y-65127961D01*
X223163628Y-65104152D01*
X223258866Y-65080342D01*
X223377914Y-65080342D01*
X223473152Y-65104152D01*
X223520771Y-65127961D01*
X223544580Y-65151771D01*
X223568390Y-65199390D01*
X223568390Y-65247009D01*
X223544580Y-65294628D01*
X223520771Y-65318438D01*
X223473152Y-65342247D01*
X223377914Y-65366057D01*
X223258866Y-65366057D01*
X223163628Y-65342247D01*
X223116009Y-65318438D01*
X223092200Y-65294628D01*
X223068390Y-65247009D01*
X223068390Y-64770819D02*
X223068390Y-64723200D01*
X223092200Y-64675580D01*
X223116009Y-64651771D01*
X223163628Y-64627961D01*
X223258866Y-64604152D01*
X223377914Y-64604152D01*
X223473152Y-64627961D01*
X223520771Y-64651771D01*
X223544580Y-64675580D01*
X223568390Y-64723200D01*
X223568390Y-64770819D01*
X223544580Y-64818438D01*
X223520771Y-64842247D01*
X223473152Y-64866057D01*
X223377914Y-64889866D01*
X223258866Y-64889866D01*
X223163628Y-64866057D01*
X223116009Y-64842247D01*
X223092200Y-64818438D01*
X223068390Y-64770819D01*
X223568390Y-64389866D02*
X223068390Y-64389866D01*
X223568390Y-64104152D02*
X223282676Y-64318438D01*
X223068390Y-64104152D02*
X223354104Y-64389866D01*
M02*
