G04 #@! TF.GenerationSoftware,KiCad,Pcbnew,(5.0.0-rc2-dev-444-g2974a2c10)*
G04 #@! TF.CreationDate,2018-10-06T13:39:59-07:00*
G04 #@! TF.ProjectId,2018-08-20 analog Trinket sub,323031382D30382D323020616E616C6F,rev?*
G04 #@! TF.SameCoordinates,Original*
G04 #@! TF.FileFunction,Legend,Bot*
G04 #@! TF.FilePolarity,Positive*
%FSLAX46Y46*%
G04 Gerber Fmt 4.6, Leading zero omitted, Abs format (unit mm)*
G04 Created by KiCad (PCBNEW (5.0.0-rc2-dev-444-g2974a2c10)) date 10/06/18 13:39:59*
%MOMM*%
%LPD*%
G01*
G04 APERTURE LIST*
%ADD10C,0.100000*%
G04 APERTURE END LIST*
D10*
X241861209Y-60442885D02*
X241837400Y-60466695D01*
X241813590Y-60514314D01*
X241813590Y-60633361D01*
X241837400Y-60680980D01*
X241861209Y-60704790D01*
X241908828Y-60728600D01*
X241956447Y-60728600D01*
X242027876Y-60704790D01*
X242313590Y-60419076D01*
X242313590Y-60728600D01*
X241813590Y-61038123D02*
X241813590Y-61085742D01*
X241837400Y-61133361D01*
X241861209Y-61157171D01*
X241908828Y-61180980D01*
X242004066Y-61204790D01*
X242123114Y-61204790D01*
X242218352Y-61180980D01*
X242265971Y-61157171D01*
X242289780Y-61133361D01*
X242313590Y-61085742D01*
X242313590Y-61038123D01*
X242289780Y-60990504D01*
X242265971Y-60966695D01*
X242218352Y-60942885D01*
X242123114Y-60919076D01*
X242004066Y-60919076D01*
X241908828Y-60942885D01*
X241861209Y-60966695D01*
X241837400Y-60990504D01*
X241813590Y-61038123D01*
X242313590Y-61680980D02*
X242313590Y-61395266D01*
X242313590Y-61538123D02*
X241813590Y-61538123D01*
X241885019Y-61490504D01*
X241932638Y-61442885D01*
X241956447Y-61395266D01*
X242027876Y-61966695D02*
X242004066Y-61919076D01*
X241980257Y-61895266D01*
X241932638Y-61871457D01*
X241908828Y-61871457D01*
X241861209Y-61895266D01*
X241837400Y-61919076D01*
X241813590Y-61966695D01*
X241813590Y-62061933D01*
X241837400Y-62109552D01*
X241861209Y-62133361D01*
X241908828Y-62157171D01*
X241932638Y-62157171D01*
X241980257Y-62133361D01*
X242004066Y-62109552D01*
X242027876Y-62061933D01*
X242027876Y-61966695D01*
X242051685Y-61919076D01*
X242075495Y-61895266D01*
X242123114Y-61871457D01*
X242218352Y-61871457D01*
X242265971Y-61895266D01*
X242289780Y-61919076D01*
X242313590Y-61966695D01*
X242313590Y-62061933D01*
X242289780Y-62109552D01*
X242265971Y-62133361D01*
X242218352Y-62157171D01*
X242123114Y-62157171D01*
X242075495Y-62133361D01*
X242051685Y-62109552D01*
X242027876Y-62061933D01*
X242123114Y-62371457D02*
X242123114Y-62752409D01*
X242313590Y-63252409D02*
X242313590Y-62966695D01*
X242313590Y-63109552D02*
X241813590Y-63109552D01*
X241885019Y-63061933D01*
X241932638Y-63014314D01*
X241956447Y-62966695D01*
X241813590Y-63561933D02*
X241813590Y-63609552D01*
X241837400Y-63657171D01*
X241861209Y-63680980D01*
X241908828Y-63704790D01*
X242004066Y-63728600D01*
X242123114Y-63728600D01*
X242218352Y-63704790D01*
X242265971Y-63680980D01*
X242289780Y-63657171D01*
X242313590Y-63609552D01*
X242313590Y-63561933D01*
X242289780Y-63514314D01*
X242265971Y-63490504D01*
X242218352Y-63466695D01*
X242123114Y-63442885D01*
X242004066Y-63442885D01*
X241908828Y-63466695D01*
X241861209Y-63490504D01*
X241837400Y-63514314D01*
X241813590Y-63561933D01*
X242123114Y-63942885D02*
X242123114Y-64323838D01*
X241813590Y-64657171D02*
X241813590Y-64704790D01*
X241837400Y-64752409D01*
X241861209Y-64776219D01*
X241908828Y-64800028D01*
X242004066Y-64823838D01*
X242123114Y-64823838D01*
X242218352Y-64800028D01*
X242265971Y-64776219D01*
X242289780Y-64752409D01*
X242313590Y-64704790D01*
X242313590Y-64657171D01*
X242289780Y-64609552D01*
X242265971Y-64585742D01*
X242218352Y-64561933D01*
X242123114Y-64538123D01*
X242004066Y-64538123D01*
X241908828Y-64561933D01*
X241861209Y-64585742D01*
X241837400Y-64609552D01*
X241813590Y-64657171D01*
X241813590Y-65252409D02*
X241813590Y-65157171D01*
X241837400Y-65109552D01*
X241861209Y-65085742D01*
X241932638Y-65038123D01*
X242027876Y-65014314D01*
X242218352Y-65014314D01*
X242265971Y-65038123D01*
X242289780Y-65061933D01*
X242313590Y-65109552D01*
X242313590Y-65204790D01*
X242289780Y-65252409D01*
X242265971Y-65276219D01*
X242218352Y-65300028D01*
X242099304Y-65300028D01*
X242051685Y-65276219D01*
X242027876Y-65252409D01*
X242004066Y-65204790D01*
X242004066Y-65109552D01*
X242027876Y-65061933D01*
X242051685Y-65038123D01*
X242099304Y-65014314D01*
X241980257Y-65847647D02*
X242313590Y-65966695D01*
X241980257Y-66085742D01*
X241813590Y-66371457D02*
X241813590Y-66419076D01*
X241837400Y-66466695D01*
X241861209Y-66490504D01*
X241908828Y-66514314D01*
X242004066Y-66538123D01*
X242123114Y-66538123D01*
X242218352Y-66514314D01*
X242265971Y-66490504D01*
X242289780Y-66466695D01*
X242313590Y-66419076D01*
X242313590Y-66371457D01*
X242289780Y-66323838D01*
X242265971Y-66300028D01*
X242218352Y-66276219D01*
X242123114Y-66252409D01*
X242004066Y-66252409D01*
X241908828Y-66276219D01*
X241861209Y-66300028D01*
X241837400Y-66323838D01*
X241813590Y-66371457D01*
X241861209Y-66728600D02*
X241837400Y-66752409D01*
X241813590Y-66800028D01*
X241813590Y-66919076D01*
X241837400Y-66966695D01*
X241861209Y-66990504D01*
X241908828Y-67014314D01*
X241956447Y-67014314D01*
X242027876Y-66990504D01*
X242313590Y-66704790D01*
X242313590Y-67014314D01*
X239898666Y-60583333D02*
X239565333Y-60350000D01*
X239898666Y-60183333D02*
X239198666Y-60183333D01*
X239198666Y-60450000D01*
X239232000Y-60516666D01*
X239265333Y-60550000D01*
X239332000Y-60583333D01*
X239432000Y-60583333D01*
X239498666Y-60550000D01*
X239532000Y-60516666D01*
X239565333Y-60450000D01*
X239565333Y-60183333D01*
X239865333Y-61150000D02*
X239898666Y-61083333D01*
X239898666Y-60950000D01*
X239865333Y-60883333D01*
X239798666Y-60850000D01*
X239532000Y-60850000D01*
X239465333Y-60883333D01*
X239432000Y-60950000D01*
X239432000Y-61083333D01*
X239465333Y-61150000D01*
X239532000Y-61183333D01*
X239598666Y-61183333D01*
X239665333Y-60850000D01*
X239432000Y-61383333D02*
X239432000Y-61650000D01*
X239198666Y-61483333D02*
X239798666Y-61483333D01*
X239865333Y-61516666D01*
X239898666Y-61583333D01*
X239898666Y-61650000D01*
X239898666Y-61883333D02*
X239432000Y-61883333D01*
X239565333Y-61883333D02*
X239498666Y-61916666D01*
X239465333Y-61950000D01*
X239432000Y-62016666D01*
X239432000Y-62083333D01*
X239898666Y-62416666D02*
X239865333Y-62350000D01*
X239832000Y-62316666D01*
X239765333Y-62283333D01*
X239565333Y-62283333D01*
X239498666Y-62316666D01*
X239465333Y-62350000D01*
X239432000Y-62416666D01*
X239432000Y-62516666D01*
X239465333Y-62583333D01*
X239498666Y-62616666D01*
X239565333Y-62650000D01*
X239765333Y-62650000D01*
X239832000Y-62616666D01*
X239865333Y-62583333D01*
X239898666Y-62516666D01*
X239898666Y-62416666D01*
X239832000Y-63883333D02*
X239865333Y-63850000D01*
X239898666Y-63750000D01*
X239898666Y-63683333D01*
X239865333Y-63583333D01*
X239798666Y-63516666D01*
X239732000Y-63483333D01*
X239598666Y-63450000D01*
X239498666Y-63450000D01*
X239365333Y-63483333D01*
X239298666Y-63516666D01*
X239232000Y-63583333D01*
X239198666Y-63683333D01*
X239198666Y-63750000D01*
X239232000Y-63850000D01*
X239265333Y-63883333D01*
X239198666Y-64083333D02*
X239898666Y-64316666D01*
X239198666Y-64550000D01*
X239898666Y-65316666D02*
X239198666Y-65316666D01*
X239698666Y-65550000D01*
X239198666Y-65783333D01*
X239898666Y-65783333D01*
X239865333Y-66383333D02*
X239898666Y-66316666D01*
X239898666Y-66183333D01*
X239865333Y-66116666D01*
X239798666Y-66083333D01*
X239532000Y-66083333D01*
X239465333Y-66116666D01*
X239432000Y-66183333D01*
X239432000Y-66316666D01*
X239465333Y-66383333D01*
X239532000Y-66416666D01*
X239598666Y-66416666D01*
X239665333Y-66083333D01*
X239432000Y-66616666D02*
X239432000Y-66883333D01*
X239198666Y-66716666D02*
X239798666Y-66716666D01*
X239865333Y-66750000D01*
X239898666Y-66816666D01*
X239898666Y-66883333D01*
X239865333Y-67383333D02*
X239898666Y-67316666D01*
X239898666Y-67183333D01*
X239865333Y-67116666D01*
X239798666Y-67083333D01*
X239532000Y-67083333D01*
X239465333Y-67116666D01*
X239432000Y-67183333D01*
X239432000Y-67316666D01*
X239465333Y-67383333D01*
X239532000Y-67416666D01*
X239598666Y-67416666D01*
X239665333Y-67083333D01*
X239898666Y-67716666D02*
X239432000Y-67716666D01*
X239565333Y-67716666D02*
X239498666Y-67750000D01*
X239465333Y-67783333D01*
X239432000Y-67850000D01*
X239432000Y-67916666D01*
X240848666Y-61150000D02*
X240848666Y-61483333D01*
X241048666Y-61083333D02*
X240348666Y-61316666D01*
X241048666Y-61550000D01*
X240582000Y-61783333D02*
X241048666Y-61783333D01*
X240648666Y-61783333D02*
X240615333Y-61816666D01*
X240582000Y-61883333D01*
X240582000Y-61983333D01*
X240615333Y-62050000D01*
X240682000Y-62083333D01*
X241048666Y-62083333D01*
X241048666Y-62716666D02*
X240682000Y-62716666D01*
X240615333Y-62683333D01*
X240582000Y-62616666D01*
X240582000Y-62483333D01*
X240615333Y-62416666D01*
X241015333Y-62716666D02*
X241048666Y-62650000D01*
X241048666Y-62483333D01*
X241015333Y-62416666D01*
X240948666Y-62383333D01*
X240882000Y-62383333D01*
X240815333Y-62416666D01*
X240782000Y-62483333D01*
X240782000Y-62650000D01*
X240748666Y-62716666D01*
X241048666Y-63150000D02*
X241015333Y-63083333D01*
X240948666Y-63050000D01*
X240348666Y-63050000D01*
X241048666Y-63516666D02*
X241015333Y-63450000D01*
X240982000Y-63416666D01*
X240915333Y-63383333D01*
X240715333Y-63383333D01*
X240648666Y-63416666D01*
X240615333Y-63450000D01*
X240582000Y-63516666D01*
X240582000Y-63616666D01*
X240615333Y-63683333D01*
X240648666Y-63716666D01*
X240715333Y-63750000D01*
X240915333Y-63750000D01*
X240982000Y-63716666D01*
X241015333Y-63683333D01*
X241048666Y-63616666D01*
X241048666Y-63516666D01*
X240582000Y-64350000D02*
X241148666Y-64350000D01*
X241215333Y-64316666D01*
X241248666Y-64283333D01*
X241282000Y-64216666D01*
X241282000Y-64116666D01*
X241248666Y-64050000D01*
X241015333Y-64350000D02*
X241048666Y-64283333D01*
X241048666Y-64150000D01*
X241015333Y-64083333D01*
X240982000Y-64050000D01*
X240915333Y-64016666D01*
X240715333Y-64016666D01*
X240648666Y-64050000D01*
X240615333Y-64083333D01*
X240582000Y-64150000D01*
X240582000Y-64283333D01*
X240615333Y-64350000D01*
X241015333Y-65183333D02*
X241048666Y-65283333D01*
X241048666Y-65450000D01*
X241015333Y-65516666D01*
X240982000Y-65550000D01*
X240915333Y-65583333D01*
X240848666Y-65583333D01*
X240782000Y-65550000D01*
X240748666Y-65516666D01*
X240715333Y-65450000D01*
X240682000Y-65316666D01*
X240648666Y-65250000D01*
X240615333Y-65216666D01*
X240548666Y-65183333D01*
X240482000Y-65183333D01*
X240415333Y-65216666D01*
X240382000Y-65250000D01*
X240348666Y-65316666D01*
X240348666Y-65483333D01*
X240382000Y-65583333D01*
X240582000Y-66183333D02*
X241048666Y-66183333D01*
X240582000Y-65883333D02*
X240948666Y-65883333D01*
X241015333Y-65916666D01*
X241048666Y-65983333D01*
X241048666Y-66083333D01*
X241015333Y-66150000D01*
X240982000Y-66183333D01*
X241048666Y-66516666D02*
X240348666Y-66516666D01*
X240615333Y-66516666D02*
X240582000Y-66583333D01*
X240582000Y-66716666D01*
X240615333Y-66783333D01*
X240648666Y-66816666D01*
X240715333Y-66850000D01*
X240915333Y-66850000D01*
X240982000Y-66816666D01*
X241015333Y-66783333D01*
X241048666Y-66716666D01*
X241048666Y-66583333D01*
X241015333Y-66516666D01*
M02*
