G04 #@! TF.GenerationSoftware,KiCad,Pcbnew,(5.0.0-rc2-dev-444-g2974a2c10)*
G04 #@! TF.CreationDate,2018-10-06T13:39:59-07:00*
G04 #@! TF.ProjectId,2018-08-20 analog Trinket sub,323031382D30382D323020616E616C6F,rev?*
G04 #@! TF.SameCoordinates,Original*
G04 #@! TF.FileFunction,Copper,L2,Bot,Signal*
G04 #@! TF.FilePolarity,Positive*
%FSLAX46Y46*%
G04 Gerber Fmt 4.6, Leading zero omitted, Abs format (unit mm)*
G04 Created by KiCad (PCBNEW (5.0.0-rc2-dev-444-g2974a2c10)) date 10/06/18 13:39:59*
%MOMM*%
%LPD*%
G01*
G04 APERTURE LIST*
%ADD10C,2.000000*%
%ADD11C,0.800000*%
%ADD12C,0.250000*%
%ADD13C,0.254000*%
G04 APERTURE END LIST*
D10*
X223870001Y-56145001D03*
X223870001Y-68845001D03*
X226410001Y-56145001D03*
X226410001Y-68845001D03*
X228950001Y-56145001D03*
X228950001Y-68845001D03*
X231490001Y-56145001D03*
X231490001Y-68845001D03*
X234030001Y-56145001D03*
X234030001Y-68845001D03*
D11*
X234000000Y-59500000D03*
X216000000Y-62500000D03*
X237400000Y-67800000D03*
X227584000Y-62484000D03*
X236100000Y-66500000D03*
D12*
X234030001Y-56145001D02*
X234030001Y-57559214D01*
X231159213Y-67100000D02*
X231490001Y-67430788D01*
X229500002Y-67100000D02*
X231159213Y-67100000D01*
X228950001Y-67650001D02*
X229500002Y-67100000D01*
X228950001Y-68845001D02*
X228950001Y-67650001D01*
X234030001Y-57559214D02*
X234000000Y-57589215D01*
X231490001Y-67430788D02*
X231490001Y-68845001D01*
X236100000Y-59689215D02*
X234000000Y-57589215D01*
X226410001Y-57559214D02*
X226410001Y-56145001D01*
X236100000Y-66500000D02*
X236100000Y-59689215D01*
X227150787Y-58300000D02*
X226410001Y-57559214D01*
X233289215Y-58300000D02*
X227150787Y-58300000D01*
X234000000Y-57589215D02*
X233289215Y-58300000D01*
D13*
G36*
X222235001Y-55819779D02*
X222235001Y-56470223D01*
X222483915Y-57071154D01*
X222943848Y-57531087D01*
X223544779Y-57780001D01*
X224195223Y-57780001D01*
X224796154Y-57531087D01*
X225140001Y-57187240D01*
X225483848Y-57531087D01*
X225642598Y-57596843D01*
X225650001Y-57634061D01*
X225650001Y-57634065D01*
X225694097Y-57855750D01*
X225862072Y-58107143D01*
X225925531Y-58149545D01*
X226560458Y-58784473D01*
X226602858Y-58847929D01*
X226854250Y-59015904D01*
X227075935Y-59060000D01*
X227075939Y-59060000D01*
X227150787Y-59074888D01*
X227225635Y-59060000D01*
X233214368Y-59060000D01*
X233289215Y-59074888D01*
X233364062Y-59060000D01*
X233364067Y-59060000D01*
X233585752Y-59015904D01*
X233837144Y-58847929D01*
X233879546Y-58784470D01*
X234000000Y-58664016D01*
X235340001Y-60004019D01*
X235340000Y-65796289D01*
X235222569Y-65913720D01*
X235065000Y-66294126D01*
X235065000Y-66705874D01*
X235222569Y-67086280D01*
X235513720Y-67377431D01*
X235894126Y-67535000D01*
X236305874Y-67535000D01*
X236686280Y-67377431D01*
X236977431Y-67086280D01*
X237135000Y-66705874D01*
X237135000Y-66294126D01*
X236977431Y-65913720D01*
X236860000Y-65796289D01*
X236860000Y-59764061D01*
X236874888Y-59689214D01*
X236860000Y-59614367D01*
X236860000Y-59614363D01*
X236815904Y-59392678D01*
X236718832Y-59247399D01*
X236690329Y-59204741D01*
X236690327Y-59204739D01*
X236647929Y-59141286D01*
X236584476Y-59098888D01*
X234986414Y-57500827D01*
X235416087Y-57071154D01*
X235665001Y-56470223D01*
X235665001Y-55819779D01*
X235453843Y-55310000D01*
X240090000Y-55310000D01*
X240090001Y-57130071D01*
X240076091Y-57200000D01*
X240131196Y-57477028D01*
X240288120Y-57711881D01*
X240347402Y-57751492D01*
X242590001Y-59994093D01*
X242590000Y-67605908D01*
X240505910Y-69690000D01*
X235449702Y-69690000D01*
X235665001Y-69170223D01*
X235665001Y-68519779D01*
X235416087Y-67918848D01*
X234956154Y-67458915D01*
X234355223Y-67210001D01*
X233704779Y-67210001D01*
X233103848Y-67458915D01*
X232760001Y-67802762D01*
X232416154Y-67458915D01*
X232257404Y-67393159D01*
X232250001Y-67355941D01*
X232250001Y-67355936D01*
X232205905Y-67134251D01*
X232037930Y-66882859D01*
X231974471Y-66840457D01*
X231749544Y-66615530D01*
X231707142Y-66552071D01*
X231455750Y-66384096D01*
X231234065Y-66340000D01*
X231234060Y-66340000D01*
X231159213Y-66325112D01*
X231084366Y-66340000D01*
X229574849Y-66340000D01*
X229500002Y-66325112D01*
X229425155Y-66340000D01*
X229425150Y-66340000D01*
X229203465Y-66384096D01*
X228952073Y-66552071D01*
X228909673Y-66615527D01*
X228465529Y-67059672D01*
X228402073Y-67102072D01*
X228359673Y-67165528D01*
X228359672Y-67165529D01*
X228234098Y-67353464D01*
X228230117Y-67373475D01*
X228023848Y-67458915D01*
X227597690Y-67885073D01*
X227562533Y-67872074D01*
X226589606Y-68845001D01*
X226603749Y-68859144D01*
X226424144Y-69038749D01*
X226410001Y-69024606D01*
X226395859Y-69038749D01*
X226216254Y-68859144D01*
X226230396Y-68845001D01*
X225257469Y-67872074D01*
X225222312Y-67885073D01*
X225029708Y-67692469D01*
X225437074Y-67692469D01*
X226410001Y-68665396D01*
X227382928Y-67692469D01*
X227284265Y-67425614D01*
X226674540Y-67199093D01*
X226024541Y-67223145D01*
X225535737Y-67425614D01*
X225437074Y-67692469D01*
X225029708Y-67692469D01*
X224796154Y-67458915D01*
X224195223Y-67210001D01*
X223544779Y-67210001D01*
X222943848Y-67458915D01*
X222483915Y-67918848D01*
X222235001Y-68519779D01*
X222235001Y-69170223D01*
X222450300Y-69690000D01*
X215410000Y-69690000D01*
X215410000Y-55310000D01*
X222446159Y-55310000D01*
X222235001Y-55819779D01*
X222235001Y-55819779D01*
G37*
X222235001Y-55819779D02*
X222235001Y-56470223D01*
X222483915Y-57071154D01*
X222943848Y-57531087D01*
X223544779Y-57780001D01*
X224195223Y-57780001D01*
X224796154Y-57531087D01*
X225140001Y-57187240D01*
X225483848Y-57531087D01*
X225642598Y-57596843D01*
X225650001Y-57634061D01*
X225650001Y-57634065D01*
X225694097Y-57855750D01*
X225862072Y-58107143D01*
X225925531Y-58149545D01*
X226560458Y-58784473D01*
X226602858Y-58847929D01*
X226854250Y-59015904D01*
X227075935Y-59060000D01*
X227075939Y-59060000D01*
X227150787Y-59074888D01*
X227225635Y-59060000D01*
X233214368Y-59060000D01*
X233289215Y-59074888D01*
X233364062Y-59060000D01*
X233364067Y-59060000D01*
X233585752Y-59015904D01*
X233837144Y-58847929D01*
X233879546Y-58784470D01*
X234000000Y-58664016D01*
X235340001Y-60004019D01*
X235340000Y-65796289D01*
X235222569Y-65913720D01*
X235065000Y-66294126D01*
X235065000Y-66705874D01*
X235222569Y-67086280D01*
X235513720Y-67377431D01*
X235894126Y-67535000D01*
X236305874Y-67535000D01*
X236686280Y-67377431D01*
X236977431Y-67086280D01*
X237135000Y-66705874D01*
X237135000Y-66294126D01*
X236977431Y-65913720D01*
X236860000Y-65796289D01*
X236860000Y-59764061D01*
X236874888Y-59689214D01*
X236860000Y-59614367D01*
X236860000Y-59614363D01*
X236815904Y-59392678D01*
X236718832Y-59247399D01*
X236690329Y-59204741D01*
X236690327Y-59204739D01*
X236647929Y-59141286D01*
X236584476Y-59098888D01*
X234986414Y-57500827D01*
X235416087Y-57071154D01*
X235665001Y-56470223D01*
X235665001Y-55819779D01*
X235453843Y-55310000D01*
X240090000Y-55310000D01*
X240090001Y-57130071D01*
X240076091Y-57200000D01*
X240131196Y-57477028D01*
X240288120Y-57711881D01*
X240347402Y-57751492D01*
X242590001Y-59994093D01*
X242590000Y-67605908D01*
X240505910Y-69690000D01*
X235449702Y-69690000D01*
X235665001Y-69170223D01*
X235665001Y-68519779D01*
X235416087Y-67918848D01*
X234956154Y-67458915D01*
X234355223Y-67210001D01*
X233704779Y-67210001D01*
X233103848Y-67458915D01*
X232760001Y-67802762D01*
X232416154Y-67458915D01*
X232257404Y-67393159D01*
X232250001Y-67355941D01*
X232250001Y-67355936D01*
X232205905Y-67134251D01*
X232037930Y-66882859D01*
X231974471Y-66840457D01*
X231749544Y-66615530D01*
X231707142Y-66552071D01*
X231455750Y-66384096D01*
X231234065Y-66340000D01*
X231234060Y-66340000D01*
X231159213Y-66325112D01*
X231084366Y-66340000D01*
X229574849Y-66340000D01*
X229500002Y-66325112D01*
X229425155Y-66340000D01*
X229425150Y-66340000D01*
X229203465Y-66384096D01*
X228952073Y-66552071D01*
X228909673Y-66615527D01*
X228465529Y-67059672D01*
X228402073Y-67102072D01*
X228359673Y-67165528D01*
X228359672Y-67165529D01*
X228234098Y-67353464D01*
X228230117Y-67373475D01*
X228023848Y-67458915D01*
X227597690Y-67885073D01*
X227562533Y-67872074D01*
X226589606Y-68845001D01*
X226603749Y-68859144D01*
X226424144Y-69038749D01*
X226410001Y-69024606D01*
X226395859Y-69038749D01*
X226216254Y-68859144D01*
X226230396Y-68845001D01*
X225257469Y-67872074D01*
X225222312Y-67885073D01*
X225029708Y-67692469D01*
X225437074Y-67692469D01*
X226410001Y-68665396D01*
X227382928Y-67692469D01*
X227284265Y-67425614D01*
X226674540Y-67199093D01*
X226024541Y-67223145D01*
X225535737Y-67425614D01*
X225437074Y-67692469D01*
X225029708Y-67692469D01*
X224796154Y-67458915D01*
X224195223Y-67210001D01*
X223544779Y-67210001D01*
X222943848Y-67458915D01*
X222483915Y-67918848D01*
X222235001Y-68519779D01*
X222235001Y-69170223D01*
X222450300Y-69690000D01*
X215410000Y-69690000D01*
X215410000Y-55310000D01*
X222446159Y-55310000D01*
X222235001Y-55819779D01*
M02*
