%FSLAX45Y45*%
G04 Gerber Fmt 4.5, Leading zero omitted, Abs format (unit mm)*
G04 Created by KiCad (PCBNEW (5.0.0-rc2-dev-444-g2974a2c10)) date 10/06/18 13:40:06*
%MOMM*%
%LPD*%
G01*
G04 APERTURE LIST*
%ADD10C,0.150000*%
%ADD11C,0.200000*%
%ADD12C,0.300000*%
G04 APERTURE END LIST*
D10*
X24080000Y-7040000D02*
X24330000Y-6790000D01*
X24080000Y-5720000D02*
X24330000Y-5970000D01*
X24080000Y-5460000D02*
X24080000Y-5720000D01*
X21470000Y-5460000D02*
X24080000Y-5460000D01*
X21470000Y-7040000D02*
X21470000Y-5460000D01*
X24080000Y-7040000D02*
X21470000Y-7040000D01*
X24330000Y-6790000D02*
X24330000Y-5970000D01*
D11*
X21580000Y-6230000D02*
X21620000Y-6270000D01*
X21620000Y-6230000D02*
X21580000Y-6270000D01*
X22738400Y-6228400D02*
X22778400Y-6268400D01*
X22778400Y-6228400D02*
X22738400Y-6268400D01*
X23380000Y-5930000D02*
X23420000Y-5970000D01*
X23420000Y-5930000D02*
X23380000Y-5970000D01*
X23590000Y-6630000D02*
X23630000Y-6670000D01*
X23630000Y-6630000D02*
X23590000Y-6670000D01*
X23720000Y-6760000D02*
X23760000Y-6800000D01*
X23760000Y-6760000D02*
X23720000Y-6800000D01*
X22432000Y-5614500D02*
G75*
G03X22432000Y-5614500I-45000J0D01*
G01*
X22432000Y-6884500D02*
G75*
G03X22432000Y-6884500I-45000J0D01*
G01*
X22686000Y-5614500D02*
G75*
G03X22686000Y-5614500I-45000J0D01*
G01*
X22686000Y-6884500D02*
G75*
G03X22686000Y-6884500I-45000J0D01*
G01*
X22940000Y-5614500D02*
G75*
G03X22940000Y-5614500I-45000J0D01*
G01*
X22940000Y-6884500D02*
G75*
G03X22940000Y-6884500I-45000J0D01*
G01*
X23194000Y-5614500D02*
G75*
G03X23194000Y-5614500I-45000J0D01*
G01*
X23194000Y-6884500D02*
G75*
G03X23194000Y-6884500I-45000J0D01*
G01*
X23448000Y-5614500D02*
G75*
G03X23448000Y-5614500I-45000J0D01*
G01*
X23448000Y-6884500D02*
G75*
G03X23448000Y-6884500I-45000J0D01*
G01*
D12*
X21748928Y-7513214D02*
X21748928Y-7213214D01*
X21820357Y-7213214D01*
X21863214Y-7227500D01*
X21891786Y-7256071D01*
X21906071Y-7284643D01*
X21920357Y-7341786D01*
X21920357Y-7384643D01*
X21906071Y-7441786D01*
X21891786Y-7470357D01*
X21863214Y-7498929D01*
X21820357Y-7513214D01*
X21748928Y-7513214D01*
X22048928Y-7513214D02*
X22048928Y-7313214D01*
X22048928Y-7370357D02*
X22063214Y-7341786D01*
X22077500Y-7327500D01*
X22106071Y-7313214D01*
X22134643Y-7313214D01*
X22234643Y-7513214D02*
X22234643Y-7313214D01*
X22234643Y-7213214D02*
X22220357Y-7227500D01*
X22234643Y-7241786D01*
X22248928Y-7227500D01*
X22234643Y-7213214D01*
X22234643Y-7241786D01*
X22420357Y-7513214D02*
X22391786Y-7498929D01*
X22377500Y-7470357D01*
X22377500Y-7213214D01*
X22577500Y-7513214D02*
X22548928Y-7498929D01*
X22534643Y-7470357D01*
X22534643Y-7213214D01*
X22920357Y-7513214D02*
X22920357Y-7213214D01*
X23020357Y-7427500D01*
X23120357Y-7213214D01*
X23120357Y-7513214D01*
X23391786Y-7513214D02*
X23391786Y-7356071D01*
X23377500Y-7327500D01*
X23348928Y-7313214D01*
X23291786Y-7313214D01*
X23263214Y-7327500D01*
X23391786Y-7498929D02*
X23363214Y-7513214D01*
X23291786Y-7513214D01*
X23263214Y-7498929D01*
X23248928Y-7470357D01*
X23248928Y-7441786D01*
X23263214Y-7413214D01*
X23291786Y-7398929D01*
X23363214Y-7398929D01*
X23391786Y-7384643D01*
X23534643Y-7313214D02*
X23534643Y-7613214D01*
X23534643Y-7327500D02*
X23563214Y-7313214D01*
X23620357Y-7313214D01*
X23648928Y-7327500D01*
X23663214Y-7341786D01*
X23677500Y-7370357D01*
X23677500Y-7456071D01*
X23663214Y-7484643D01*
X23648928Y-7498929D01*
X23620357Y-7513214D01*
X23563214Y-7513214D01*
X23534643Y-7498929D01*
X23806071Y-7484643D02*
X23820357Y-7498929D01*
X23806071Y-7513214D01*
X23791786Y-7498929D01*
X23806071Y-7484643D01*
X23806071Y-7513214D01*
X23806071Y-7327500D02*
X23820357Y-7341786D01*
X23806071Y-7356071D01*
X23791786Y-7341786D01*
X23806071Y-7327500D01*
X23806071Y-7356071D01*
X21422500Y-7987500D02*
X21462500Y-8027500D01*
X21462500Y-7987500D02*
X21422500Y-8027500D01*
X21806071Y-7843214D02*
X21834643Y-7843214D01*
X21863214Y-7857500D01*
X21877500Y-7871786D01*
X21891786Y-7900357D01*
X21906071Y-7957500D01*
X21906071Y-8028929D01*
X21891786Y-8086071D01*
X21877500Y-8114643D01*
X21863214Y-8128929D01*
X21834643Y-8143214D01*
X21806071Y-8143214D01*
X21777500Y-8128929D01*
X21763214Y-8114643D01*
X21748928Y-8086071D01*
X21734643Y-8028929D01*
X21734643Y-7957500D01*
X21748928Y-7900357D01*
X21763214Y-7871786D01*
X21777500Y-7857500D01*
X21806071Y-7843214D01*
X22034643Y-8114643D02*
X22048928Y-8128929D01*
X22034643Y-8143214D01*
X22020357Y-8128929D01*
X22034643Y-8114643D01*
X22034643Y-8143214D01*
X22306071Y-7943214D02*
X22306071Y-8143214D01*
X22234643Y-7828929D02*
X22163214Y-8043214D01*
X22348928Y-8043214D01*
X22520357Y-7843214D02*
X22548928Y-7843214D01*
X22577500Y-7857500D01*
X22591786Y-7871786D01*
X22606071Y-7900357D01*
X22620357Y-7957500D01*
X22620357Y-8028929D01*
X22606071Y-8086071D01*
X22591786Y-8114643D01*
X22577500Y-8128929D01*
X22548928Y-8143214D01*
X22520357Y-8143214D01*
X22491786Y-8128929D01*
X22477500Y-8114643D01*
X22463214Y-8086071D01*
X22448928Y-8028929D01*
X22448928Y-7957500D01*
X22463214Y-7900357D01*
X22477500Y-7871786D01*
X22491786Y-7857500D01*
X22520357Y-7843214D01*
X22748928Y-8143214D02*
X22748928Y-7943214D01*
X22748928Y-7971786D02*
X22763214Y-7957500D01*
X22791786Y-7943214D01*
X22834643Y-7943214D01*
X22863214Y-7957500D01*
X22877500Y-7986071D01*
X22877500Y-8143214D01*
X22877500Y-7986071D02*
X22891786Y-7957500D01*
X22920357Y-7943214D01*
X22963214Y-7943214D01*
X22991786Y-7957500D01*
X23006071Y-7986071D01*
X23006071Y-8143214D01*
X23148928Y-8143214D02*
X23148928Y-7943214D01*
X23148928Y-7971786D02*
X23163214Y-7957500D01*
X23191786Y-7943214D01*
X23234643Y-7943214D01*
X23263214Y-7957500D01*
X23277500Y-7986071D01*
X23277500Y-8143214D01*
X23277500Y-7986071D02*
X23291786Y-7957500D01*
X23320357Y-7943214D01*
X23363214Y-7943214D01*
X23391786Y-7957500D01*
X23406071Y-7986071D01*
X23406071Y-8143214D01*
X23991786Y-7828929D02*
X23734643Y-8214643D01*
X24377500Y-7843214D02*
X24406071Y-7843214D01*
X24434643Y-7857500D01*
X24448928Y-7871786D01*
X24463214Y-7900357D01*
X24477500Y-7957500D01*
X24477500Y-8028929D01*
X24463214Y-8086071D01*
X24448928Y-8114643D01*
X24434643Y-8128929D01*
X24406071Y-8143214D01*
X24377500Y-8143214D01*
X24348928Y-8128929D01*
X24334643Y-8114643D01*
X24320357Y-8086071D01*
X24306071Y-8028929D01*
X24306071Y-7957500D01*
X24320357Y-7900357D01*
X24334643Y-7871786D01*
X24348928Y-7857500D01*
X24377500Y-7843214D01*
X24606071Y-8114643D02*
X24620357Y-8128929D01*
X24606071Y-8143214D01*
X24591786Y-8128929D01*
X24606071Y-8114643D01*
X24606071Y-8143214D01*
X24806071Y-7843214D02*
X24834643Y-7843214D01*
X24863214Y-7857500D01*
X24877500Y-7871786D01*
X24891786Y-7900357D01*
X24906071Y-7957500D01*
X24906071Y-8028929D01*
X24891786Y-8086071D01*
X24877500Y-8114643D01*
X24863214Y-8128929D01*
X24834643Y-8143214D01*
X24806071Y-8143214D01*
X24777500Y-8128929D01*
X24763214Y-8114643D01*
X24748928Y-8086071D01*
X24734643Y-8028929D01*
X24734643Y-7957500D01*
X24748928Y-7900357D01*
X24763214Y-7871786D01*
X24777500Y-7857500D01*
X24806071Y-7843214D01*
X25191786Y-8143214D02*
X25020357Y-8143214D01*
X25106071Y-8143214D02*
X25106071Y-7843214D01*
X25077500Y-7886071D01*
X25048928Y-7914643D01*
X25020357Y-7928929D01*
X25448928Y-7843214D02*
X25391786Y-7843214D01*
X25363214Y-7857500D01*
X25348928Y-7871786D01*
X25320357Y-7914643D01*
X25306071Y-7971786D01*
X25306071Y-8086071D01*
X25320357Y-8114643D01*
X25334643Y-8128929D01*
X25363214Y-8143214D01*
X25420357Y-8143214D01*
X25448928Y-8128929D01*
X25463214Y-8114643D01*
X25477500Y-8086071D01*
X25477500Y-8014643D01*
X25463214Y-7986071D01*
X25448928Y-7971786D01*
X25420357Y-7957500D01*
X25363214Y-7957500D01*
X25334643Y-7971786D01*
X25320357Y-7986071D01*
X25306071Y-8014643D01*
X25591786Y-7843214D02*
X25591786Y-7900357D01*
X25706071Y-7843214D02*
X25706071Y-7900357D01*
X26148928Y-8257500D02*
X26134643Y-8243214D01*
X26106071Y-8200357D01*
X26091786Y-8171786D01*
X26077500Y-8128929D01*
X26063214Y-8057500D01*
X26063214Y-8000357D01*
X26077500Y-7928929D01*
X26091786Y-7886071D01*
X26106071Y-7857500D01*
X26134643Y-7814643D01*
X26148928Y-7800357D01*
X26406071Y-7843214D02*
X26263214Y-7843214D01*
X26248928Y-7986071D01*
X26263214Y-7971786D01*
X26291786Y-7957500D01*
X26363214Y-7957500D01*
X26391786Y-7971786D01*
X26406071Y-7986071D01*
X26420357Y-8014643D01*
X26420357Y-8086071D01*
X26406071Y-8114643D01*
X26391786Y-8128929D01*
X26363214Y-8143214D01*
X26291786Y-8143214D01*
X26263214Y-8128929D01*
X26248928Y-8114643D01*
X26777500Y-8143214D02*
X26777500Y-7843214D01*
X26906071Y-8143214D02*
X26906071Y-7986071D01*
X26891786Y-7957500D01*
X26863214Y-7943214D01*
X26820357Y-7943214D01*
X26791786Y-7957500D01*
X26777500Y-7971786D01*
X27091786Y-8143214D02*
X27063214Y-8128929D01*
X27048928Y-8114643D01*
X27034643Y-8086071D01*
X27034643Y-8000357D01*
X27048928Y-7971786D01*
X27063214Y-7957500D01*
X27091786Y-7943214D01*
X27134643Y-7943214D01*
X27163214Y-7957500D01*
X27177500Y-7971786D01*
X27191786Y-8000357D01*
X27191786Y-8086071D01*
X27177500Y-8114643D01*
X27163214Y-8128929D01*
X27134643Y-8143214D01*
X27091786Y-8143214D01*
X27363214Y-8143214D02*
X27334643Y-8128929D01*
X27320357Y-8100357D01*
X27320357Y-7843214D01*
X27591786Y-8128929D02*
X27563214Y-8143214D01*
X27506071Y-8143214D01*
X27477500Y-8128929D01*
X27463214Y-8100357D01*
X27463214Y-7986071D01*
X27477500Y-7957500D01*
X27506071Y-7943214D01*
X27563214Y-7943214D01*
X27591786Y-7957500D01*
X27606071Y-7986071D01*
X27606071Y-8014643D01*
X27463214Y-8043214D01*
X27720357Y-8128929D02*
X27748928Y-8143214D01*
X27806071Y-8143214D01*
X27834643Y-8128929D01*
X27848928Y-8100357D01*
X27848928Y-8086071D01*
X27834643Y-8057500D01*
X27806071Y-8043214D01*
X27763214Y-8043214D01*
X27734643Y-8028929D01*
X27720357Y-8000357D01*
X27720357Y-7986071D01*
X27734643Y-7957500D01*
X27763214Y-7943214D01*
X27806071Y-7943214D01*
X27834643Y-7957500D01*
X27948928Y-8257500D02*
X27963214Y-8243214D01*
X27991786Y-8200357D01*
X28006071Y-8171786D01*
X28020357Y-8128929D01*
X28034643Y-8057500D01*
X28034643Y-8000357D01*
X28020357Y-7928929D01*
X28006071Y-7886071D01*
X27991786Y-7857500D01*
X27963214Y-7814643D01*
X27948928Y-7800357D01*
X21462500Y-8403500D02*
G75*
G03X21462500Y-8403500I-45000J0D01*
G01*
X21806071Y-8239214D02*
X21834643Y-8239214D01*
X21863214Y-8253500D01*
X21877500Y-8267786D01*
X21891786Y-8296357D01*
X21906071Y-8353500D01*
X21906071Y-8424929D01*
X21891786Y-8482072D01*
X21877500Y-8510643D01*
X21863214Y-8524929D01*
X21834643Y-8539214D01*
X21806071Y-8539214D01*
X21777500Y-8524929D01*
X21763214Y-8510643D01*
X21748928Y-8482072D01*
X21734643Y-8424929D01*
X21734643Y-8353500D01*
X21748928Y-8296357D01*
X21763214Y-8267786D01*
X21777500Y-8253500D01*
X21806071Y-8239214D01*
X22034643Y-8510643D02*
X22048928Y-8524929D01*
X22034643Y-8539214D01*
X22020357Y-8524929D01*
X22034643Y-8510643D01*
X22034643Y-8539214D01*
X22191786Y-8539214D02*
X22248928Y-8539214D01*
X22277500Y-8524929D01*
X22291786Y-8510643D01*
X22320357Y-8467786D01*
X22334643Y-8410643D01*
X22334643Y-8296357D01*
X22320357Y-8267786D01*
X22306071Y-8253500D01*
X22277500Y-8239214D01*
X22220357Y-8239214D01*
X22191786Y-8253500D01*
X22177500Y-8267786D01*
X22163214Y-8296357D01*
X22163214Y-8367786D01*
X22177500Y-8396357D01*
X22191786Y-8410643D01*
X22220357Y-8424929D01*
X22277500Y-8424929D01*
X22306071Y-8410643D01*
X22320357Y-8396357D01*
X22334643Y-8367786D01*
X22520357Y-8239214D02*
X22548928Y-8239214D01*
X22577500Y-8253500D01*
X22591786Y-8267786D01*
X22606071Y-8296357D01*
X22620357Y-8353500D01*
X22620357Y-8424929D01*
X22606071Y-8482072D01*
X22591786Y-8510643D01*
X22577500Y-8524929D01*
X22548928Y-8539214D01*
X22520357Y-8539214D01*
X22491786Y-8524929D01*
X22477500Y-8510643D01*
X22463214Y-8482072D01*
X22448928Y-8424929D01*
X22448928Y-8353500D01*
X22463214Y-8296357D01*
X22477500Y-8267786D01*
X22491786Y-8253500D01*
X22520357Y-8239214D01*
X22748928Y-8539214D02*
X22748928Y-8339214D01*
X22748928Y-8367786D02*
X22763214Y-8353500D01*
X22791786Y-8339214D01*
X22834643Y-8339214D01*
X22863214Y-8353500D01*
X22877500Y-8382071D01*
X22877500Y-8539214D01*
X22877500Y-8382071D02*
X22891786Y-8353500D01*
X22920357Y-8339214D01*
X22963214Y-8339214D01*
X22991786Y-8353500D01*
X23006071Y-8382071D01*
X23006071Y-8539214D01*
X23148928Y-8539214D02*
X23148928Y-8339214D01*
X23148928Y-8367786D02*
X23163214Y-8353500D01*
X23191786Y-8339214D01*
X23234643Y-8339214D01*
X23263214Y-8353500D01*
X23277500Y-8382071D01*
X23277500Y-8539214D01*
X23277500Y-8382071D02*
X23291786Y-8353500D01*
X23320357Y-8339214D01*
X23363214Y-8339214D01*
X23391786Y-8353500D01*
X23406071Y-8382071D01*
X23406071Y-8539214D01*
X23991786Y-8224929D02*
X23734643Y-8610643D01*
X24377500Y-8239214D02*
X24406071Y-8239214D01*
X24434643Y-8253500D01*
X24448928Y-8267786D01*
X24463214Y-8296357D01*
X24477500Y-8353500D01*
X24477500Y-8424929D01*
X24463214Y-8482072D01*
X24448928Y-8510643D01*
X24434643Y-8524929D01*
X24406071Y-8539214D01*
X24377500Y-8539214D01*
X24348928Y-8524929D01*
X24334643Y-8510643D01*
X24320357Y-8482072D01*
X24306071Y-8424929D01*
X24306071Y-8353500D01*
X24320357Y-8296357D01*
X24334643Y-8267786D01*
X24348928Y-8253500D01*
X24377500Y-8239214D01*
X24606071Y-8510643D02*
X24620357Y-8524929D01*
X24606071Y-8539214D01*
X24591786Y-8524929D01*
X24606071Y-8510643D01*
X24606071Y-8539214D01*
X24806071Y-8239214D02*
X24834643Y-8239214D01*
X24863214Y-8253500D01*
X24877500Y-8267786D01*
X24891786Y-8296357D01*
X24906071Y-8353500D01*
X24906071Y-8424929D01*
X24891786Y-8482072D01*
X24877500Y-8510643D01*
X24863214Y-8524929D01*
X24834643Y-8539214D01*
X24806071Y-8539214D01*
X24777500Y-8524929D01*
X24763214Y-8510643D01*
X24748928Y-8482072D01*
X24734643Y-8424929D01*
X24734643Y-8353500D01*
X24748928Y-8296357D01*
X24763214Y-8267786D01*
X24777500Y-8253500D01*
X24806071Y-8239214D01*
X25006071Y-8239214D02*
X25191786Y-8239214D01*
X25091786Y-8353500D01*
X25134643Y-8353500D01*
X25163214Y-8367786D01*
X25177500Y-8382071D01*
X25191786Y-8410643D01*
X25191786Y-8482072D01*
X25177500Y-8510643D01*
X25163214Y-8524929D01*
X25134643Y-8539214D01*
X25048928Y-8539214D01*
X25020357Y-8524929D01*
X25006071Y-8510643D01*
X25463214Y-8239214D02*
X25320357Y-8239214D01*
X25306071Y-8382071D01*
X25320357Y-8367786D01*
X25348928Y-8353500D01*
X25420357Y-8353500D01*
X25448928Y-8367786D01*
X25463214Y-8382071D01*
X25477500Y-8410643D01*
X25477500Y-8482072D01*
X25463214Y-8510643D01*
X25448928Y-8524929D01*
X25420357Y-8539214D01*
X25348928Y-8539214D01*
X25320357Y-8524929D01*
X25306071Y-8510643D01*
X25591786Y-8239214D02*
X25591786Y-8296357D01*
X25706071Y-8239214D02*
X25706071Y-8296357D01*
X26148928Y-8653500D02*
X26134643Y-8639214D01*
X26106071Y-8596357D01*
X26091786Y-8567786D01*
X26077500Y-8524929D01*
X26063214Y-8453500D01*
X26063214Y-8396357D01*
X26077500Y-8324929D01*
X26091786Y-8282071D01*
X26106071Y-8253500D01*
X26134643Y-8210643D01*
X26148928Y-8196357D01*
X26420357Y-8539214D02*
X26248928Y-8539214D01*
X26334643Y-8539214D02*
X26334643Y-8239214D01*
X26306071Y-8282071D01*
X26277500Y-8310643D01*
X26248928Y-8324929D01*
X26606071Y-8239214D02*
X26634643Y-8239214D01*
X26663214Y-8253500D01*
X26677500Y-8267786D01*
X26691786Y-8296357D01*
X26706071Y-8353500D01*
X26706071Y-8424929D01*
X26691786Y-8482072D01*
X26677500Y-8510643D01*
X26663214Y-8524929D01*
X26634643Y-8539214D01*
X26606071Y-8539214D01*
X26577500Y-8524929D01*
X26563214Y-8510643D01*
X26548928Y-8482072D01*
X26534643Y-8424929D01*
X26534643Y-8353500D01*
X26548928Y-8296357D01*
X26563214Y-8267786D01*
X26577500Y-8253500D01*
X26606071Y-8239214D01*
X27063214Y-8539214D02*
X27063214Y-8239214D01*
X27191786Y-8539214D02*
X27191786Y-8382071D01*
X27177500Y-8353500D01*
X27148928Y-8339214D01*
X27106071Y-8339214D01*
X27077500Y-8353500D01*
X27063214Y-8367786D01*
X27377500Y-8539214D02*
X27348928Y-8524929D01*
X27334643Y-8510643D01*
X27320357Y-8482072D01*
X27320357Y-8396357D01*
X27334643Y-8367786D01*
X27348928Y-8353500D01*
X27377500Y-8339214D01*
X27420357Y-8339214D01*
X27448928Y-8353500D01*
X27463214Y-8367786D01*
X27477500Y-8396357D01*
X27477500Y-8482072D01*
X27463214Y-8510643D01*
X27448928Y-8524929D01*
X27420357Y-8539214D01*
X27377500Y-8539214D01*
X27648928Y-8539214D02*
X27620357Y-8524929D01*
X27606071Y-8496357D01*
X27606071Y-8239214D01*
X27877500Y-8524929D02*
X27848928Y-8539214D01*
X27791786Y-8539214D01*
X27763214Y-8524929D01*
X27748928Y-8496357D01*
X27748928Y-8382071D01*
X27763214Y-8353500D01*
X27791786Y-8339214D01*
X27848928Y-8339214D01*
X27877500Y-8353500D01*
X27891786Y-8382071D01*
X27891786Y-8410643D01*
X27748928Y-8439214D01*
X28006071Y-8524929D02*
X28034643Y-8539214D01*
X28091786Y-8539214D01*
X28120357Y-8524929D01*
X28134643Y-8496357D01*
X28134643Y-8482072D01*
X28120357Y-8453500D01*
X28091786Y-8439214D01*
X28048928Y-8439214D01*
X28020357Y-8424929D01*
X28006071Y-8396357D01*
X28006071Y-8382071D01*
X28020357Y-8353500D01*
X28048928Y-8339214D01*
X28091786Y-8339214D01*
X28120357Y-8353500D01*
X28234643Y-8653500D02*
X28248928Y-8639214D01*
X28277500Y-8596357D01*
X28291786Y-8567786D01*
X28306071Y-8524929D01*
X28320357Y-8453500D01*
X28320357Y-8396357D01*
X28306071Y-8324929D01*
X28291786Y-8282071D01*
X28277500Y-8253500D01*
X28248928Y-8210643D01*
X28234643Y-8196357D01*
M02*
