999
dxflib 2.0.4.0
  0
SECTION
  2
HEADER
  9
$ACADVER
  1
AC1015
  9
$HANDSEED
  5
FFFF
  9
$DIMASZ
 40
0.25
  9
$DIMGAP
 40
0.0625
  9
$DIMEXO
 40
0.0625
  9
$INSUNITS
 70
5
  9
$DIMTXT
 40
0.25
  9
$PLIMMAX
 10
21.0
 20
29.6999999999999993
  9
$PLIMMIN
 10
0.0
 20
0.0
  9
$DIMEXE
 40
0.125
  0
ENDSEC
  0
SECTION
  2
TABLES
  0
TABLE
  2
VPORT
  5
8
100
AcDbSymbolTable
 70
1
  0
VPORT
  5
30
100
AcDbSymbolTableRecord
100
AcDbViewportTableRecord
  2
*Active
 70
0
 10
0.0
 20
0.0
 11
1.0
 21
1.0
 12
286.3055555555554861
 22
148.5
 13
0.0
 23
0.0
 14
10.0
 24
10.0
 15
10.0
 25
10.0
 16
0.0
 26
0.0
 36
1.0
 17
0.0
 27
0.0
 37
0.0
 40
297.0
 41
1.92798353909465
 42
50.0
 43
0.0
 44
0.0
 50
0.0
 51
0.0
 71
0
 72
100
 73
1
 74
3
 75
1
 76
1
 77
0
 78
0
281
0
 65
1
110
0.0
120
0.0
130
0.0
111
1.0
121
0.0
131
0.0
112
0.0
122
1.0
132
0.0
 79
0
146
0.0
  0
ENDTAB
  0
TABLE
  2
LTYPE
  5
5
100
AcDbSymbolTable
 70
21
  0
LTYPE
  5
14
100
AcDbSymbolTableRecord
100
AcDbLinetypeTableRecord
  2
ByBlock
 70
0
  3

 72
65
 73
0
 40
0.0
  0
LTYPE
  5
15
100
AcDbSymbolTableRecord
100
AcDbLinetypeTableRecord
  2
ByLayer
 70
0
  3

 72
65
 73
0
 40
0.0
  0
LTYPE
  5
16
100
AcDbSymbolTableRecord
100
AcDbLinetypeTableRecord
  2
CONTINUOUS
 70
0
  3
Solid line
 72
65
 73
0
 40
0.0
  0
LTYPE
  5
31
100
AcDbSymbolTableRecord
100
AcDbLinetypeTableRecord
  2
DOT
 70
0
  3
Dot . . . . . . . . . . . . . . . . . . . . . .
 72
65
 73
2
 40
6.3499999999999996
 49
0.0
 74
0
 49
-6.3499999999999996
 74
0
  0
LTYPE
  5
32
100
AcDbSymbolTableRecord
100
AcDbLinetypeTableRecord
  2
DOT2
 70
0
  3
Dot (.5x) .....................................
 72
65
 73
2
 40
3.1749999999999998
 49
0.0
 74
0
 49
-3.1749999999999998
 74
0
  0
LTYPE
  5
33
100
AcDbSymbolTableRecord
100
AcDbLinetypeTableRecord
  2
DOTX2
 70
0
  3
Dot (2x) .  .  .  .  .  .  .  .  .  .  .  .  .
 72
65
 73
2
 40
12.6999999999999993
 49
0.0
 74
0
 49
-12.6999999999999993
 74
0
  0
LTYPE
  5
34
100
AcDbSymbolTableRecord
100
AcDbLinetypeTableRecord
  2
DASHED
 70
0
  3
Dashed __ __ __ __ __ __ __ __ __ __ __ __ __ _
 72
65
 73
2
 40
19.0500000000000007
 49
12.6999999999999993
 74
0
 49
-6.3499999999999996
 74
0
  0
LTYPE
  5
35
100
AcDbSymbolTableRecord
100
AcDbLinetypeTableRecord
  2
DASHED2
 70
0
  3
Dashed (.5x) _ _ _ _ _ _ _ _ _ _ _ _ _ _ _ _ _
 72
65
 73
2
 40
9.5250000000000004
 49
6.3499999999999996
 74
0
 49
-3.1749999999999998
 74
0
  0
LTYPE
  5
36
100
AcDbSymbolTableRecord
100
AcDbLinetypeTableRecord
  2
DASHEDX2
 70
0
  3
Dashed (2x) ____  ____  ____  ____  ____  ___
 72
65
 73
2
 40
38.1000000000000014
 49
25.3999999999999986
 74
0
 49
-12.6999999999999993
 74
0
  0
LTYPE
  5
37
100
AcDbSymbolTableRecord
100
AcDbLinetypeTableRecord
  2
DASHDOT
 70
0
  3
Dash dot __ . __ . __ . __ . __ . __ . __ . __
 72
65
 73
4
 40
25.3999999999999986
 49
12.6999999999999993
 74
0
 49
-6.3499999999999996
 74
0
 49
0.0
 74
0
 49
-6.3499999999999996
 74
0
  0
LTYPE
  5
38
100
AcDbSymbolTableRecord
100
AcDbLinetypeTableRecord
  2
DASHDOT2
 70
0
  3
Dash dot (.5x) _._._._._._._._._._._._._._._.
 72
65
 73
4
 40
12.6999999999999993
 49
6.3499999999999996
 74
0
 49
-3.1749999999999998
 74
0
 49
0.0
 74
0
 49
-3.1749999999999998
 74
0
  0
LTYPE
  5
39
100
AcDbSymbolTableRecord
100
AcDbLinetypeTableRecord
  2
DASHDOTX2
 70
0
  3
Dash dot (2x) ____  .  ____  .  ____  .  ___
 72
65
 73
4
 40
50.7999999999999972
 49
25.3999999999999986
 74
0
 49
-12.6999999999999993
 74
0
 49
0.0
 74
0
 49
-12.6999999999999993
 74
0
  0
LTYPE
  5
3A
100
AcDbSymbolTableRecord
100
AcDbLinetypeTableRecord
  2
DIVIDE
 70
0
  3
Divide ____ . . ____ . . ____ . . ____ . . ____
 72
65
 73
6
 40
31.75
 49
12.6999999999999993
 74
0
 49
-6.3499999999999996
 74
0
 49
0.0
 74
0
 49
-6.3499999999999996
 74
0
 49
0.0
 74
0
 49
-6.3499999999999996
 74
0
  0
LTYPE
  5
3B
100
AcDbSymbolTableRecord
100
AcDbLinetypeTableRecord
  2
DIVIDE2
 70
0
  3
Divide (.5x) __..__..__..__..__..__..__..__.._
 72
65
 73
6
 40
15.875
 49
6.3499999999999996
 74
0
 49
-3.1749999999999998
 74
0
 49
0.0
 74
0
 49
-3.1749999999999998
 74
0
 49
0.0
 74
0
 49
-3.1749999999999998
 74
0
  0
LTYPE
  5
3C
100
AcDbSymbolTableRecord
100
AcDbLinetypeTableRecord
  2
DIVIDEX2
 70
0
  3
Divide (2x) ________  .  .  ________  .  .  _
 72
65
 73
6
 40
63.5
 49
25.3999999999999986
 74
0
 49
-12.6999999999999993
 74
0
 49
0.0
 74
0
 49
-12.6999999999999993
 74
0
 49
0.0
 74
0
 49
-12.6999999999999993
 74
0
  0
LTYPE
  5
3D
100
AcDbSymbolTableRecord
100
AcDbLinetypeTableRecord
  2
CENTER
 70
0
  3
Center ____ _ ____ _ ____ _ ____ _ ____ _ ____
 72
65
 73
4
 40
50.7999999999999972
 49
31.75
 74
0
 49
-6.3499999999999996
 74
0
 49
6.3499999999999996
 74
0
 49
-6.3499999999999996
 74
0
  0
LTYPE
  5
3E
100
AcDbSymbolTableRecord
100
AcDbLinetypeTableRecord
  2
CENTER2
 70
0
  3
Center (.5x) ___ _ ___ _ ___ _ ___ _ ___ _ ___
 72
65
 73
4
 40
28.5749999999999993
 49
19.0500000000000007
 74
0
 49
-3.1749999999999998
 74
0
 49
3.1749999999999998
 74
0
 49
-3.1749999999999998
 74
0
  0
LTYPE
  5
3F
100
AcDbSymbolTableRecord
100
AcDbLinetypeTableRecord
  2
CENTERX2
 70
0
  3
Center (2x) ________  __  ________  __  _____
 72
65
 73
4
 40
101.5999999999999943
 49
63.5
 74
0
 49
-12.6999999999999993
 74
0
 49
12.6999999999999993
 74
0
 49
-12.6999999999999993
 74
0
  0
LTYPE
  5
40
100
AcDbSymbolTableRecord
100
AcDbLinetypeTableRecord
  2
BORDER
 70
0
  3
Border __ __ . __ __ . __ __ . __ __ . __ __ .
 72
65
 73
6
 40
44.4500000000000028
 49
12.6999999999999993
 74
0
 49
-6.3499999999999996
 74
0
 49
12.6999999999999993
 74
0
 49
-6.3499999999999996
 74
0
 49
0.0
 74
0
 49
-6.3499999999999996
 74
0
  0
LTYPE
  5
41
100
AcDbSymbolTableRecord
100
AcDbLinetypeTableRecord
  2
BORDER2
 70
0
  3
Border (.5x) __.__.__.__.__.__.__.__.__.__.__.
 72
65
 73
6
 40
22.2250000000000014
 49
6.3499999999999996
 74
0
 49
-3.1749999999999998
 74
0
 49
6.3499999999999996
 74
0
 49
-3.1749999999999998
 74
0
 49
0.0
 74
0
 49
-3.1749999999999998
 74
0
  0
LTYPE
  5
42
100
AcDbSymbolTableRecord
100
AcDbLinetypeTableRecord
  2
BORDERX2
 70
0
  3
Border (2x) ____  ____  .  ____  ____  .  ___
 72
65
 73
6
 40
88.9000000000000057
 49
25.3999999999999986
 74
0
 49
-12.6999999999999993
 74
0
 49
25.3999999999999986
 74
0
 49
-12.6999999999999993
 74
0
 49
0.0
 74
0
 49
-12.6999999999999993
 74
0
  0
ENDTAB
  0
TABLE
  2
LAYER
  5
2
100
AcDbSymbolTable
 70
4
  0
LAYER
  5
10
100
AcDbSymbolTableRecord
100
AcDbLayerTableRecord
  2
0
 70
0
 62
7
  6
CONTINUOUS
370
0
390
F
  0
LAYER
  5
43
100
AcDbSymbolTableRecord
100
AcDbLayerTableRecord
  2
guidelines
 70
1
 62
5
  6
CONTINUOUS
370
0
390
F
  0
LAYER
  5
44
100
AcDbSymbolTableRecord
100
AcDbLayerTableRecord
  2
numbers
 70
0
 62
7
  6
CONTINUOUS
370
0
390
F
  0
LAYER
  5
45
100
AcDbSymbolTableRecord
100
AcDbLayerTableRecord
  2
title
 70
0
 62
7
  6
CONTINUOUS
370
0
390
F
  0
ENDTAB
  0
TABLE
  2
STYLE
  5
3
100
AcDbSymbolTable
 70
1
  0
STYLE
  5
11
100
AcDbSymbolTableRecord
100
AcDbTextStyleTableRecord
  2
Standard
 70
0
 40
0.0
 41
1.0
 50
0.0
 71
0
 42
2.5
  3
txt
  4

  0
ENDTAB
  0
TABLE
  2
VIEW
  5
6
100
AcDbSymbolTable
 70
0
  0
ENDTAB
  0
TABLE
  2
UCS
  5
7
100
AcDbSymbolTable
 70
0
  0
ENDTAB
  0
TABLE
  2
APPID
  5
9
100
AcDbSymbolTable
 70
1
  0
APPID
  5
12
100
AcDbSymbolTableRecord
100
AcDbRegAppTableRecord
  2
ACAD
 70
0
  0
ENDTAB
  0
TABLE
  2
DIMSTYLE
  5
A
100
AcDbSymbolTable
 70
1
100
AcDbDimStyleTable
 71
0
  0
DIMSTYLE
105
27
100
AcDbSymbolTableRecord
100
AcDbDimStyleTableRecord
  2
Standard
 41
2.5
 42
0.625
 43
3.75
 44
1.25
 70
0
 73
0
 74
0
 77
1
 78
8
140
2.5
141
2.5
143
0.03937007874016
147
0.625
171
3
172
1
271
2
272
2
274
3
278
44
283
0
284
8
340
11
  0
ENDTAB
  0
TABLE
  2
BLOCK_RECORD
  5
1
100
AcDbSymbolTable
 70
1
  0
BLOCK_RECORD
  5
1F
100
AcDbSymbolTableRecord
100
AcDbBlockTableRecord
  2
*Model_Space
340
22
  0
BLOCK_RECORD
  5
1B
100
AcDbSymbolTableRecord
100
AcDbBlockTableRecord
  2
*Paper_Space
340
1E
  0
BLOCK_RECORD
  5
23
100
AcDbSymbolTableRecord
100
AcDbBlockTableRecord
  2
*Paper_Space0
340
26
  0
ENDTAB
  0
ENDSEC
  0
SECTION
  2
BLOCKS
  0
BLOCK
  5
20
100
AcDbEntity
  8
0
100
AcDbBlockBegin
  2
*Model_Space
 70
0
 10
0.0
 20
0.0
 30
0.0
  3
*Model_Space
  1

  0
ENDBLK
  5
21
100
AcDbEntity
  8
0
100
AcDbBlockEnd
  0
BLOCK
  5
1C
100
AcDbEntity
 67
1
  8
0
100
AcDbBlockBegin
  2
*Paper_Space
 70
0
 10
0.0
 20
0.0
 30
0.0
  3
*Paper_Space
  1

  0
ENDBLK
  5
1D
100
AcDbEntity
 67
1
  8
0
100
AcDbBlockEnd
  0
BLOCK
  5
24
100
AcDbEntity
  8
0
100
AcDbBlockBegin
  2
*Paper_Space0
 70
0
 10
0.0
 20
0.0
 30
0.0
  3
*Paper_Space0
  1

  0
ENDBLK
  5
25
100
AcDbEntity
  8
0
100
AcDbBlockEnd
  0
ENDSEC
  0
SECTION
  2
ENTITIES
  0
CIRCLE
  5
46
100
AcDbEntity
100
AcDbCircle
  8
guidelines
 62
256
370
-1
  6
ByLayer
 10
10.0
 20
10.0
 30
0.0
 40
6.4800000000000004
  0
CIRCLE
  5
47
100
AcDbEntity
100
AcDbCircle
  8
guidelines
 62
256
370
-1
  6
ByLayer
 10
10.0
 20
10.0
 30
0.0
 40
6.7999999999999998
  0
CIRCLE
  5
48
100
AcDbEntity
100
AcDbCircle
  8
guidelines
 62
256
370
-1
  6
ByLayer
 10
10.0
 20
10.0
 30
0.0
 40
6.2400000000000002
  0
CIRCLE
  5
49
100
AcDbEntity
100
AcDbCircle
  8
guidelines
 62
256
370
-1
  6
ByLayer
 10
10.0000000000000036
 20
10.0
 30
0.0
 40
6.3600000000000003
  0
LINE
  5
4A
100
AcDbEntity
100
AcDbLine
  8
guidelines
 62
256
370
-1
  6
ByLayer
 10
18.0
 20
10.0
 30
0.0
 11
16.0000000000000036
 21
10.0
 31
0.0
  0
ARC
  5
4B
100
AcDbEntity
  8
0
 62
256
370
-1
  6
ByLayer
100
AcDbCircle
 10
10.0000000000000036
 20
10.0000000000000036
 30
0.0
 40
8.0
100
AcDbArc
 50
353.5405502226449244
 51
186.4594497773550472
  0
LINE
  5
4C
100
AcDbEntity
100
AcDbLine
  8
0
 62
256
370
-1
  6
ByLayer
 10
2.0507862023971235
 20
9.1000000000000014
 30
0.0
 11
17.9492137976028836
 21
9.1000000000000014
 31
0.0
  0
ARC
  5
4D
100
AcDbEntity
  8
0
 62
256
370
-1
  6
ByLayer
100
AcDbCircle
 10
10.0
 20
10.0
 30
0.0
 40
6.2000000000000002
100
AcDbArc
 50
8.3466192632206084
 51
171.6533807367794111
  0
LINE
  5
4E
100
AcDbEntity
100
AcDbLine
  8
0
 62
256
370
-1
  6
ByLayer
 10
3.8656703707739979
 20
10.9000000000000021
 30
0.0
 11
16.1343296292260021
 21
10.9000000000000021
 31
0.0
  0
CIRCLE
  5
4F
100
AcDbEntity
100
AcDbCircle
  8
guidelines
 62
256
370
-1
  6
ByLayer
 10
10.0
 20
10.0
 30
0.0
 40
0.16
  0
CIRCLE
  5
50
100
AcDbEntity
100
AcDbCircle
  8
guidelines
 62
256
370
-1
  6
ByLayer
 10
10.0
 20
10.0
 30
0.0
 40
0.9
  0
LINE
  5
51
100
AcDbEntity
100
AcDbLine
  8
0
 62
256
370
-1
  6
ByLayer
 10
10.0
 20
10.1600000000000001
 30
0.0
 11
10.0
 21
10.9000000000000021
 31
0.0
  0
LINE
  5
52
100
AcDbEntity
100
AcDbLine
  8
0
 62
256
370
-1
  6
ByLayer
 10
10.0
 20
9.1000000000000014
 30
0.0
 11
10.0
 21
9.8399999999999999
 31
0.0
  0
LINE
  5
53
100
AcDbEntity
100
AcDbLine
  8
0
 62
256
370
-1
  6
ByLayer
 10
9.1000000000000014
 20
10.0
 30
0.0
 11
9.8399999999999999
 21
10.0
 31
0.0
  0
LINE
  5
54
100
AcDbEntity
100
AcDbLine
  8
0
 62
256
370
-1
  6
ByLayer
 10
10.1600000000000001
 20
10.0
 30
0.0
 11
10.8999999999999986
 21
10.0
 31
0.0
  0
LINE
  5
55
100
AcDbEntity
100
AcDbLine
  8
0
 62
256
370
-1
  6
ByLayer
 10
11.6000000000000014
 20
10.0
 30
0.0
 11
15.6000000000000014
 21
10.0
 31
0.0
  0
LINE
  5
56
100
AcDbEntity
100
AcDbLine
  8
0
 62
256
370
-1
  6
ByLayer
 10
8.3999999999999986
 20
10.0
 30
0.0
 11
4.3999999999999986
 21
10.0
 31
0.0
  0
CIRCLE
  5
57
100
AcDbEntity
100
AcDbCircle
  8
0
 62
256
370
-1
  6
ByLayer
 10
10.0
 20
10.0
 30
0.0
 40
0.5
  0
CIRCLE
  5
58
100
AcDbEntity
100
AcDbCircle
  8
guidelines
 62
256
370
-1
  6
ByLayer
 10
10.0
 20
10.0
 30
0.0
 40
7.5999999999999996
  0
CIRCLE
  5
59
100
AcDbEntity
100
AcDbCircle
  8
guidelines
 62
256
370
-1
  6
ByLayer
 10
10.0
 20
10.0
 30
0.0
 40
7.5
  0
LINE
  5
5A
100
AcDbEntity
100
AcDbLine
  8
0
 62
256
370
-1
  6
ByLayer
 10
17.9959989994996867
 20
10.2529822128134693
 30
0.0
 11
17.5961990495247029
 21
10.2403331021727961
 31
0.0
  0
LINE
  5
5B
100
AcDbEntity
100
AcDbLine
  8
0
 62
256
370
-1
  6
ByLayer
 10
17.9919959959949942
 20
10.3577708763999663
 30
0.0
 11
17.5923961961952458
 21
10.3398823325799682
 31
0.0
  0
LINE
  5
5C
100
AcDbEntity
100
AcDbLine
  8
0
 62
256
370
-1
  6
ByLayer
 10
17.9879909864746352
 20
10.4381780460041327
 30
0.0
 11
17.5885914371509031
 21
10.4162691437039268
 31
0.0
  0
LINE
  5
5D
100
AcDbEntity
100
AcDbLine
  8
0
 62
256
370
-1
  6
ByLayer
 10
17.9839839679197766
 20
10.5059644256269404
 30
0.0
 11
17.584784769523786
 21
10.480666204345594
 31
0.0
  0
LINE
  5
5E
100
AcDbEntity
100
AcDbLine
  8
0
 62
256
370
-1
  6
ByLayer
 10
17.9759638915932918
 20
10.6196773353931864
 30
0.0
 11
17.5771656970136263
 21
10.5886934686235268
 31
0.0
  0
LINE
  5
5F
100
AcDbEntity
100
AcDbLine
  8
0
 62
256
370
-1
  6
ByLayer
 10
17.9719508277459923
 20
10.6693280212272601
 30
0.0
 11
17.5733532863586923
 21
10.6358616201658975
 31
0.0
  0
LINE
  5
60
100
AcDbEntity
100
AcDbLine
  8
0
 62
256
370
-1
  6
ByLayer
 10
17.9679357427127897
 20
10.7155417527999326
 30
0.0
 11
17.5695389555771513
 21
10.6797646651599365
 31
0.0
  0
LINE
  5
61
100
AcDbEntity
100
AcDbLine
  8
0
 62
256
370
-1
  6
ByLayer
 10
17.963918633436684
 20
10.7589466384404115
 30
0.0
 11
17.5657227017648481
 21
10.7209993065183919
 31
0.0
  0
LINE
  5
62
100
AcDbEntity
100
AcDbLine
  8
0
 62
256
370
-1
  6
ByLayer
 10
17.9799749373040001
 20
10.5656854249492387
 30
0.0
 11
17.4812265037225032
 21
10.5303300858899114
 31
0.0
  0
CIRCLE
  5
63
100
AcDbEntity
100
AcDbCircle
  8
guidelines
 62
256
370
-1
  6
ByLayer
 10
10.0
 20
10.0
 30
0.0
 40
7.4000000000000004
  0
CIRCLE
  5
64
100
AcDbEntity
100
AcDbCircle
  8
guidelines
 62
256
370
-1
  6
ByLayer
 10
10.0
 20
10.0
 30
0.0
 40
7.2999999999999998
  0
CIRCLE
  5
65
100
AcDbEntity
100
AcDbCircle
  8
guidelines
 62
256
370
-1
  6
ByLayer
 10
10.0
 20
10.0
 30
0.0
 40
7.2000000000000002
  0
LINE
  5
66
100
AcDbEntity
100
AcDbLine
  8
0
 62
256
370
-1
  6
ByLayer
 10
17.9195959492893309
 20
11.1313708498984756
 30
0.0
 11
17.3256262530926328
 21
11.0465180361560904
 31
0.0
  0
LINE
  5
67
100
AcDbEntity
100
AcDbLine
  8
0
 62
256
370
-1
  6
ByLayer
 10
17.8790862414368839
 20
11.3856406460551014
 30
0.0
 11
17.2881547733291185
 21
11.28171759760097
 31
0.0
  0
LINE
  5
68
100
AcDbEntity
100
AcDbLine
  8
0
 62
256
370
-1
  6
ByLayer
 10
17.8383671769061678
 20
11.6000000000000014
 30
0.0
 11
17.2504896386382072
 21
11.4800000000000004
 31
0.0
  0
LINE
  5
69
100
AcDbEntity
100
AcDbLine
  8
0
 62
256
370
-1
  6
ByLayer
 10
17.7562877718661269
 20
11.9595917942265437
 30
0.0
 11
17.1745661889761685
 21
11.8126224096595536
 31
0.0
  0
LINE
  5
6A
100
AcDbEntity
100
AcDbLine
  8
0
 62
256
370
-1
  6
ByLayer
 10
17.7149206087943654
 20
12.1166010488516704
 30
0.0
 11
17.1363015631347864
 21
11.9578559701877953
 31
0.0
  0
LINE
  5
6B
100
AcDbEntity
100
AcDbLine
  8
0
 62
256
370
-1
  6
ByLayer
 10
17.6733304373003506
 20
12.2627416997969583
 30
0.0
 11
17.0978306545028254
 21
12.0930360723121861
 31
0.0
  0
LINE
  5
6C
100
AcDbEntity
100
AcDbLine
  8
0
 62
256
370
-1
  6
ByLayer
 10
17.6315136113355635
 20
12.4000000000000004
 30
0.0
 11
17.0591500904853994
 21
12.2200000000000006
 31
0.0
  0
LINE
  5
6D
100
AcDbEntity
100
AcDbLine
  8
0
 62
256
370
-1
  6
ByLayer
 10
17.5471849056452847
 20
12.6532998322843167
 30
0.0
 11
16.9811460377218886
 21
12.4543023448629935
 31
0.0
  0
LINE
  5
6E
100
AcDbEntity
100
AcDbLine
  8
0
 62
256
370
-1
  6
ByLayer
 10
17.5046652157174876
 20
12.7712812921102064
 30
0.0
 11
16.9418153245386733
 21
12.5634351952019401
 31
0.0
  0
LINE
  5
6F
100
AcDbEntity
100
AcDbLine
  8
0
 62
256
370
-1
  6
ByLayer
 10
17.4619032424710525
 20
12.8844410203711863
 30
0.0
 11
16.9022604992857275
 21
12.6681079438433475
 31
0.0
  0
LINE
  5
70
100
AcDbEntity
100
AcDbLine
  8
0
 62
256
370
-1
  6
ByLayer
 10
17.4188947963965646
 20
12.993325909419152
 30
0.0
 11
16.8624776866668213
 21
12.7688264662127153
 31
0.0
  0
LINE
  5
71
100
AcDbEntity
100
AcDbLine
  8
0
 62
256
370
-1
  6
ByLayer
 10
17.3321211119293466
 20
13.1999999999999957
 30
0.0
 11
16.7822120285346443
 21
12.9599999999999955
 31
0.0
  0
LINE
  5
72
100
AcDbEntity
100
AcDbLine
  8
0
 62
256
370
-1
  6
ByLayer
 10
17.2883468633154394
 20
13.2984845004941334
 30
0.0
 11
16.7417208485667786
 21
13.0510981629570733
 31
0.0
  0
LINE
  5
73
100
AcDbEntity
100
AcDbLine
  8
0
 62
256
370
-1
  6
ByLayer
 10
17.2443081105099338
 20
13.3941125496954303
 30
0.0
 11
16.7009850022216852
 21
13.1395541084682712
 31
0.0
  0
LINE
  5
74
100
AcDbEntity
100
AcDbLine
  8
0
 62
256
370
-1
  6
ByLayer
 10
17.2000000000000028
 20
13.4871191548325342
 30
0.0
 11
16.6600000000000037
 21
13.225585218220095
 31
0.0
  0
LINE
  5
75
100
AcDbEntity
100
AcDbLine
  8
0
 62
256
370
-1
  6
ByLayer
 10
17.1105555338524695
 20
13.6660605559646733
 30
0.0
 11
16.5772638688135352
 21
13.3911060142673222
 31
0.0
  0
LINE
  5
76
100
AcDbEntity
100
AcDbLine
  8
0
 62
256
370
-1
  6
ByLayer
 10
17.0654086930622739
 20
13.7523326078587509
 30
0.0
 11
16.5355030410826025
 21
13.4709076622693456
 31
0.0
  0
LINE
  5
77
100
AcDbEntity
100
AcDbLine
  8
0
 62
256
370
-1
  6
ByLayer
 10
17.0199715099136988
 20
13.8366652186501717
 30
0.0
 11
16.4934736466701715
 21
13.5489153272514091
 31
0.0
  0
LINE
  5
78
100
AcDbEntity
100
AcDbLine
  8
0
 62
256
370
-1
  6
ByLayer
 10
16.9742383096650755
 20
13.9191835884530892
 30
0.0
 11
16.4511704364401936
 21
13.6252448193191089
 31
0.0
  0
LINE
  5
79
100
AcDbEntity
100
AcDbLine
  8
0
 62
256
370
-1
  6
ByLayer
 10
16.8818602136341056
 20
14.0792156108742219
 30
0.0
 11
16.3657206976115468
 21
13.7732744400586569
 31
0.0
  0
LINE
  5
7A
100
AcDbEntity
100
AcDbLine
  8
0
 62
256
370
-1
  6
ByLayer
 10
16.8352029962540186
 20
14.1569219381653113
 30
0.0
 11
16.3225627715349688
 21
13.8451527928029137
 31
0.0
  0
LINE
  5
7B
100
AcDbEntity
100
AcDbLine
  8
0
 62
256
370
-1
  6
ByLayer
 10
16.7882250993908535
 20
14.2332020977033515
 30
0.0
 11
16.2791082169365389
 21
13.9157119403756013
 31
0.0
  0
LINE
  5
7C
100
AcDbEntity
100
AcDbLine
  8
0
 62
256
370
-1
  6
ByLayer
 10
16.7409198185410872
 20
14.3081318457076012
 30
0.0
 11
16.2353508321505089
 21
13.98502195727953
 31
0.0
  0
LINE
  5
7D
100
AcDbEntity
100
AcDbLine
  8
0
 62
256
370
-1
  6
ByLayer
 10
16.6452990903344542
 20
14.4542114902640222
 30
0.0
 11
16.1469016585593721
 21
14.1201456284942211
 31
0.0
  0
LINE
  5
7E
100
AcDbEntity
100
AcDbLine
  8
0
 62
256
370
-1
  6
ByLayer
 10
16.5969690009882562
 20
14.5254833995939059
 30
0.0
 11
16.1021963259141394
 21
14.1860721446243634
 31
0.0
  0
LINE
  5
7F
100
AcDbEntity
100
AcDbLine
  8
0
 62
256
370
-1
  6
ByLayer
 10
16.5482822174979596
 20
14.5956501172304236
 30
0.0
 11
16.0571610511856129
 21
14.2509763584381428
 31
0.0
  0
LINE
  5
80
100
AcDbEntity
100
AcDbLine
  8
0
 62
256
370
-1
  6
ByLayer
 10
16.4992307237087665
 20
14.6647615158762434
 30
0.0
 11
16.0117884194306086
 21
14.3149044021855261
 31
0.0
  0
LINE
  5
81
100
AcDbEntity
100
AcDbLine
  8
0
 62
256
370
-1
  6
ByLayer
 10
16.4000000000000021
 20
14.7999999999999972
 30
0.0
 11
15.9200000000000017
 21
14.4399999999999977
 31
0.0
  0
LINE
  5
82
100
AcDbEntity
100
AcDbLine
  8
0
 62
256
370
-1
  6
ByLayer
 10
16.3498031465550149
 20
14.866210024238578
 30
0.0
 11
15.8735679105633896
 21
14.5012442724206849
 31
0.0
  0
LINE
  5
83
100
AcDbEntity
100
AcDbLine
  8
0
 62
256
370
-1
  6
ByLayer
 10
16.2992062992094517
 20
14.9315312023751794
 30
0.0
 11
15.8267658267687423
 21
14.5616663621970428
 31
0.0
  0
LINE
  5
84
100
AcDbEntity
100
AcDbLine
  8
0
 62
256
370
-1
  6
ByLayer
 10
16.2481997407253225
 20
14.9959983987187204
 30
0.0
 11
15.7795847601709234
 21
14.6212985188148181
 31
0.0
  0
LINE
  5
85
100
AcDbEntity
100
AcDbLine
  8
0
 62
256
370
-1
  6
ByLayer
 10
16.1449165982948841
 20
15.122499389946281
 30
0.0
 11
15.6840478534227703
 21
14.7383119357003096
 31
0.0
  0
LINE
  5
86
100
AcDbEntity
100
AcDbLine
  8
0
 62
256
370
-1
  6
ByLayer
 10
16.0926184846911227
 20
15.184592558726294
 30
0.0
 11
15.6356720983392883
 21
14.795748116821823
 31
0.0
  0
LINE
  5
87
100
AcDbEntity
100
AcDbLine
  8
0
 62
256
370
-1
  6
ByLayer
 10
16.0398675482165949
 20
15.2459508194416067
 30
0.0
 11
15.5868774821003502
 21
14.8525045079834861
 31
0.0
  0
LINE
  5
88
100
AcDbEntity
100
AcDbLine
  8
0
 62
256
370
-1
  6
ByLayer
 10
15.9866518188383075
 20
15.3065996645686386
 30
0.0
 11
15.5376529324254342
 21
14.9086046897259905
 31
0.0
  0
LINE
  5
89
100
AcDbEntity
100
AcDbLine
  8
0
 62
256
370
-1
  6
ByLayer
 10
15.8787753826796276
 20
15.4258639865002145
 30
0.0
 11
15.4378672289786554
 21
15.0189241875126989
 31
0.0
  0
LINE
  5
8A
100
AcDbEntity
100
AcDbLine
  8
0
 62
256
370
-1
  6
ByLayer
 10
15.8240879114244155
 20
15.4845236803208337
 30
0.0
 11
15.3872813180675845
 21
15.0731844042967715
 31
0.0
  0
LINE
  5
8B
100
AcDbEntity
100
AcDbLine
  8
0
 62
256
370
-1
  6
ByLayer
 10
15.7688820407423798
 20
15.5425625842204127
 30
0.0
 11
15.3362158876867003
 21
15.1268703904038819
 31
0.0
  0
LINE
  5
8C
100
AcDbEntity
100
AcDbLine
  8
0
 62
256
370
-1
  6
ByLayer
 10
15.7131427428342807
 20
15.5999999999999996
 30
0.0
 11
15.2846570371217112
 21
15.1799999999999997
 31
0.0
  0
LINE
  5
8D
100
AcDbEntity
100
AcDbLine
  8
0
 62
256
370
-1
  6
ByLayer
 10
17.7974354758471698
 20
11.7888543819998368
 30
0.0
 11
17.1151598717105422
 21
11.6323296235748508
 31
0.0
  0
LINE
  5
8E
100
AcDbEntity
100
AcDbLine
  8
0
 62
256
370
-1
  6
ByLayer
 10
17.3756355658343118
 20
13.0983866769659265
 30
0.0
 11
16.7302674538238101
 21
12.8272778427314087
 31
0.0
  0
LINE
  5
8F
100
AcDbEntity
100
AcDbLine
  8
0
 62
256
370
-1
  6
ByLayer
 10
16.9282032302755105
 20
14.0
 30
0.0
 11
16.3219854476264032
 21
13.6499999999999986
 31
0.0
  0
LINE
  5
90
100
AcDbEntity
100
AcDbLine
  8
0
 62
256
370
-1
  6
ByLayer
 10
16.4498061986388358
 20
14.7328638264796972
 30
0.0
 11
15.8854481562579366
 21
14.3187382416627251
 31
0.0
  0
LINE
  5
91
100
AcDbEntity
100
AcDbLine
  8
0
 62
256
370
-1
  6
ByLayer
 10
15.9329587896765297
 20
15.3665631459994945
 30
0.0
 11
15.4138248955798343
 21
14.8969888707245399
 31
0.0
  0
LINE
  5
92
100
AcDbEntity
100
AcDbLine
  8
0
 62
256
370
-1
  6
ByLayer
 10
17.9598994968529588
 20
10.8000000000000007
 30
0.0
 11
17.3629070345889858
 21
10.7400000000000002
 31
0.0
  0
LINE
  5
93
100
AcDbEntity
100
AcDbLine
  8
0
 62
256
370
-1
  6
ByLayer
 10
17.5894663844041119
 20
12.5298221281347022
 30
0.0
 11
16.8305197459637021
 21
12.2768399153212311
 31
0.0
  0
LINE
  5
94
100
AcDbEntity
100
AcDbLine
  8
0
 62
256
370
-1
  6
ByLayer
 10
17.155417527999326
 20
13.5777087639996648
 30
0.0
 11
16.4398757751993934
 21
13.2199378875996985
 31
0.0
  0
LINE
  5
95
100
AcDbEntity
100
AcDbLine
  8
0
 62
256
370
-1
  6
ByLayer
 10
16.6932802122726045
 20
14.3817804600413304
 30
0.0
 11
16.0239521910453462
 21
13.9436024140371977
 31
0.0
  0
LINE
  5
96
100
AcDbEntity
100
AcDbLine
  8
0
 62
256
370
-1
  6
ByLayer
 10
16.1967733539318637
 20
15.0596442562694115
 30
0.0
 11
15.5770960185386773
 21
14.5536798306424711
 31
0.0
  0
LINE
  5
97
100
AcDbEntity
100
AcDbLine
  8
0
 62
256
370
-1
  6
ByLayer
 10
15.6568542494923797
 20
15.6568542494923797
 30
0.0
 11
15.0911688245431428
 21
15.0911688245431428
 31
0.0
  0
LINE
  5
98
100
AcDbEntity
100
AcDbLine
  8
0
 62
256
370
-1
  6
ByLayer
 10
18.0
 20
10.0
 30
0.0
 11
17.1999999999999993
 21
10.0
 31
0.0
  0
LINE
  5
99
100
AcDbEntity
100
AcDbLine
  8
0
 62
256
370
-1
  6
ByLayer
 10
10.2529822128134853
 20
17.9959989994996867
 30
0.0
 11
10.2403331021728121
 21
17.5961990495247029
 31
0.0
  0
LINE
  5
9A
100
AcDbEntity
100
AcDbLine
  8
0
 62
256
370
-1
  6
ByLayer
 10
10.3577708763999379
 20
17.9919959959949942
 30
0.0
 11
10.3398823325799594
 21
17.5923961961952458
 31
0.0
  0
LINE
  5
9B
100
AcDbEntity
100
AcDbLine
  8
0
 62
256
370
-1
  6
ByLayer
 10
10.4381780460041131
 20
17.9879909864746352
 30
0.0
 11
10.416269143703925
 21
17.5885914371509031
 31
0.0
  0
LINE
  5
9C
100
AcDbEntity
100
AcDbLine
  8
0
 62
256
370
-1
  6
ByLayer
 10
10.5059644256269209
 20
17.9839839679197766
 30
0.0
 11
10.4806662043456011
 21
17.584784769523786
 31
0.0
  0
LINE
  5
9D
100
AcDbEntity
100
AcDbLine
  8
0
 62
256
370
-1
  6
ByLayer
 10
10.6196773353931775
 20
17.9759638915932918
 30
0.0
 11
10.5886934686235321
 21
17.5771656970136263
 31
0.0
  0
LINE
  5
9E
100
AcDbEntity
100
AcDbLine
  8
0
 62
256
370
-1
  6
ByLayer
 10
10.6693280212272494
 20
17.9719508277459923
 30
0.0
 11
10.6358616201658975
 21
17.5733532863586923
 31
0.0
  0
LINE
  5
9F
100
AcDbEntity
100
AcDbLine
  8
0
 62
256
370
-1
  6
ByLayer
 10
10.7155417527999219
 20
17.9679357427127897
 30
0.0
 11
10.6797646651599347
 21
17.5695389555771513
 31
0.0
  0
LINE
  5
A0
100
AcDbEntity
100
AcDbLine
  8
0
 62
256
370
-1
  6
ByLayer
 10
10.7589466384404133
 20
17.963918633436684
 30
0.0
 11
10.7209993065183919
 21
17.5657227017648481
 31
0.0
  0
LINE
  5
A1
100
AcDbEntity
100
AcDbLine
  8
0
 62
256
370
-1
  6
ByLayer
 10
10.5656854249492298
 20
17.9799749373040001
 30
0.0
 11
10.5303300858899025
 21
17.4812265037225032
 31
0.0
  0
LINE
  5
A2
100
AcDbEntity
100
AcDbLine
  8
0
 62
256
370
-1
  6
ByLayer
 10
11.131370849898472
 20
17.9195959492893309
 30
0.0
 11
11.0465180361560869
 21
17.3256262530926328
 31
0.0
  0
LINE
  5
A3
100
AcDbEntity
100
AcDbLine
  8
0
 62
256
370
-1
  6
ByLayer
 10
11.3856406460550996
 20
17.8790862414368839
 30
0.0
 11
11.2817175976009683
 21
17.2881547733291185
 31
0.0
  0
LINE
  5
A4
100
AcDbEntity
100
AcDbLine
  8
0
 62
256
370
-1
  6
ByLayer
 10
11.6000000000000014
 20
17.8383671769061678
 30
0.0
 11
11.4800000000000004
 21
17.2504896386382072
 31
0.0
  0
LINE
  5
A5
100
AcDbEntity
100
AcDbLine
  8
0
 62
256
370
-1
  6
ByLayer
 10
11.9595917942265402
 20
17.7562877718661269
 30
0.0
 11
11.8126224096595536
 21
17.1745661889761685
 31
0.0
  0
LINE
  5
A6
100
AcDbEntity
100
AcDbLine
  8
0
 62
256
370
-1
  6
ByLayer
 10
12.1166010488516651
 20
17.7149206087943654
 30
0.0
 11
11.95785597018779
 21
17.1363015631347864
 31
0.0
  0
LINE
  5
A7
100
AcDbEntity
100
AcDbLine
  8
0
 62
256
370
-1
  6
ByLayer
 10
12.2627416997969529
 20
17.6733304373003506
 30
0.0
 11
12.0930360723121861
 21
17.0978306545028254
 31
0.0
  0
LINE
  5
A8
100
AcDbEntity
100
AcDbLine
  8
0
 62
256
370
-1
  6
ByLayer
 10
12.3999999999999968
 20
17.6315136113355635
 30
0.0
 11
12.2200000000000024
 21
17.0591500904853994
 31
0.0
  0
LINE
  5
A9
100
AcDbEntity
100
AcDbLine
  8
0
 62
256
370
-1
  6
ByLayer
 10
12.6532998322843149
 20
17.5471849056452847
 30
0.0
 11
12.4543023448629935
 21
16.9811460377218886
 31
0.0
  0
LINE
  5
AA
100
AcDbEntity
100
AcDbLine
  8
0
 62
256
370
-1
  6
ByLayer
 10
12.7712812921102081
 20
17.5046652157174876
 30
0.0
 11
12.5634351952019401
 21
16.9418153245386733
 31
0.0
  0
LINE
  5
AB
100
AcDbEntity
100
AcDbLine
  8
0
 62
256
370
-1
  6
ByLayer
 10
12.8844410203711828
 20
17.4619032424710525
 30
0.0
 11
12.6681079438433457
 21
16.9022604992857275
 31
0.0
  0
LINE
  5
AC
100
AcDbEntity
100
AcDbLine
  8
0
 62
256
370
-1
  6
ByLayer
 10
12.9933259094191484
 20
17.4188947963965646
 30
0.0
 11
12.7688264662127153
 21
16.8624776866668213
 31
0.0
  0
LINE
  5
AD
100
AcDbEntity
100
AcDbLine
  8
0
 62
256
370
-1
  6
ByLayer
 10
13.1999999999999922
 20
17.3321211119293466
 30
0.0
 11
12.9599999999999955
 21
16.7822120285346443
 31
0.0
  0
LINE
  5
AE
100
AcDbEntity
100
AcDbLine
  8
0
 62
256
370
-1
  6
ByLayer
 10
13.2984845004941352
 20
17.2883468633154394
 30
0.0
 11
13.0510981629570715
 21
16.7417208485667786
 31
0.0
  0
LINE
  5
AF
100
AcDbEntity
100
AcDbLine
  8
0
 62
256
370
-1
  6
ByLayer
 10
13.3941125496954303
 20
17.2443081105099338
 30
0.0
 11
13.1395541084682694
 21
16.7009850022216852
 31
0.0
  0
LINE
  5
B0
100
AcDbEntity
100
AcDbLine
  8
0
 62
256
370
-1
  6
ByLayer
 10
13.4871191548325324
 20
17.2000000000000028
 30
0.0
 11
13.225585218220095
 21
16.6600000000000037
 31
0.0
  0
LINE
  5
B1
100
AcDbEntity
100
AcDbLine
  8
0
 62
256
370
-1
  6
ByLayer
 10
13.6660605559646733
 20
17.1105555338524695
 30
0.0
 11
13.3911060142673186
 21
16.5772638688135352
 31
0.0
  0
LINE
  5
B2
100
AcDbEntity
100
AcDbLine
  8
0
 62
256
370
-1
  6
ByLayer
 10
13.7523326078587491
 20
17.0654086930622739
 30
0.0
 11
13.4709076622693456
 21
16.5355030410826025
 31
0.0
  0
LINE
  5
B3
100
AcDbEntity
100
AcDbLine
  8
0
 62
256
370
-1
  6
ByLayer
 10
13.83666521865017
 20
17.0199715099136988
 30
0.0
 11
13.5489153272514073
 21
16.4934736466701715
 31
0.0
  0
LINE
  5
B4
100
AcDbEntity
100
AcDbLine
  8
0
 62
256
370
-1
  6
ByLayer
 10
13.9191835884530875
 20
16.9742383096650755
 30
0.0
 11
13.6252448193191071
 21
16.4511704364401936
 31
0.0
  0
LINE
  5
B5
100
AcDbEntity
100
AcDbLine
  8
0
 62
256
370
-1
  6
ByLayer
 10
14.0792156108742201
 20
16.8818602136341056
 30
0.0
 11
13.7732744400586569
 21
16.3657206976115468
 31
0.0
  0
LINE
  5
B6
100
AcDbEntity
100
AcDbLine
  8
0
 62
256
370
-1
  6
ByLayer
 10
14.1569219381653078
 20
16.8352029962540186
 30
0.0
 11
13.8451527928029137
 21
16.3225627715349688
 31
0.0
  0
LINE
  5
B7
100
AcDbEntity
100
AcDbLine
  8
0
 62
256
370
-1
  6
ByLayer
 10
14.233202097703348
 20
16.7882250993908535
 30
0.0
 11
13.9157119403755996
 21
16.2791082169365389
 31
0.0
  0
LINE
  5
B8
100
AcDbEntity
100
AcDbLine
  8
0
 62
256
370
-1
  6
ByLayer
 10
14.3081318457075994
 20
16.7409198185410872
 30
0.0
 11
13.9850219572795282
 21
16.2353508321505089
 31
0.0
  0
LINE
  5
B9
100
AcDbEntity
100
AcDbLine
  8
0
 62
256
370
-1
  6
ByLayer
 10
14.4542114902640222
 20
16.6452990903344542
 30
0.0
 11
14.1201456284942211
 21
16.1469016585593721
 31
0.0
  0
LINE
  5
BA
100
AcDbEntity
100
AcDbLine
  8
0
 62
256
370
-1
  6
ByLayer
 10
14.5254833995939041
 20
16.5969690009882562
 30
0.0
 11
14.1860721446243616
 21
16.1021963259141394
 31
0.0
  0
LINE
  5
BB
100
AcDbEntity
100
AcDbLine
  8
0
 62
256
370
-1
  6
ByLayer
 10
14.5956501172304236
 20
16.5482822174979596
 30
0.0
 11
14.2509763584381428
 21
16.0571610511856129
 31
0.0
  0
LINE
  5
BC
100
AcDbEntity
100
AcDbLine
  8
0
 62
256
370
-1
  6
ByLayer
 10
14.6647615158762417
 20
16.4992307237087665
 30
0.0
 11
14.3149044021855261
 21
16.0117884194306086
 31
0.0
  0
LINE
  5
BD
100
AcDbEntity
100
AcDbLine
  8
0
 62
256
370
-1
  6
ByLayer
 10
14.7999999999999972
 20
16.4000000000000021
 30
0.0
 11
14.4399999999999959
 21
15.9200000000000017
 31
0.0
  0
LINE
  5
BE
100
AcDbEntity
100
AcDbLine
  8
0
 62
256
370
-1
  6
ByLayer
 10
14.8662100242385762
 20
16.3498031465550149
 30
0.0
 11
14.5012442724206849
 21
15.8735679105633913
 31
0.0
  0
LINE
  5
BF
100
AcDbEntity
100
AcDbLine
  8
0
 62
256
370
-1
  6
ByLayer
 10
14.9315312023751758
 20
16.2992062992094517
 30
0.0
 11
14.5616663621970428
 21
15.8267658267687423
 31
0.0
  0
LINE
  5
C0
100
AcDbEntity
100
AcDbLine
  8
0
 62
256
370
-1
  6
ByLayer
 10
14.9959983987187186
 20
16.2481997407253225
 30
0.0
 11
14.6212985188148181
 21
15.7795847601709234
 31
0.0
  0
LINE
  5
C1
100
AcDbEntity
100
AcDbLine
  8
0
 62
256
370
-1
  6
ByLayer
 10
15.1224993899462792
 20
16.1449165982948841
 30
0.0
 11
14.7383119357003096
 21
15.6840478534227721
 31
0.0
  0
LINE
  5
C2
100
AcDbEntity
100
AcDbLine
  8
0
 62
256
370
-1
  6
ByLayer
 10
15.1845925587262922
 20
16.0926184846911227
 30
0.0
 11
14.7957481168218212
 21
15.6356720983392883
 31
0.0
  0
LINE
  5
C3
100
AcDbEntity
100
AcDbLine
  8
0
 62
256
370
-1
  6
ByLayer
 10
15.2459508194416049
 20
16.0398675482165949
 30
0.0
 11
14.8525045079834861
 21
15.586877482100352
 31
0.0
  0
LINE
  5
C4
100
AcDbEntity
100
AcDbLine
  8
0
 62
256
370
-1
  6
ByLayer
 10
15.3065996645686369
 20
15.9866518188383075
 30
0.0
 11
14.9086046897259905
 21
15.5376529324254342
 31
0.0
  0
LINE
  5
C5
100
AcDbEntity
100
AcDbLine
  8
0
 62
256
370
-1
  6
ByLayer
 10
15.4258639865002145
 20
15.8787753826796276
 30
0.0
 11
15.0189241875126989
 21
15.4378672289786554
 31
0.0
  0
LINE
  5
C6
100
AcDbEntity
100
AcDbLine
  8
0
 62
256
370
-1
  6
ByLayer
 10
15.4845236803208337
 20
15.8240879114244173
 30
0.0
 11
15.0731844042967698
 21
15.3872813180675863
 31
0.0
  0
LINE
  5
C7
100
AcDbEntity
100
AcDbLine
  8
0
 62
256
370
-1
  6
ByLayer
 10
15.5425625842204127
 20
15.7688820407423798
 30
0.0
 11
15.1268703904038802
 21
15.3362158876867021
 31
0.0
  0
LINE
  5
C8
100
AcDbEntity
100
AcDbLine
  8
0
 62
256
370
-1
  6
ByLayer
 10
15.5999999999999979
 20
15.7131427428342825
 30
0.0
 11
15.1799999999999979
 21
15.2846570371217112
 31
0.0
  0
LINE
  5
C9
100
AcDbEntity
100
AcDbLine
  8
0
 62
256
370
-1
  6
ByLayer
 10
11.7888543819998368
 20
17.7974354758471698
 30
0.0
 11
11.6323296235748508
 21
17.1151598717105422
 31
0.0
  0
LINE
  5
CA
100
AcDbEntity
100
AcDbLine
  8
0
 62
256
370
-1
  6
ByLayer
 10
13.0983866769659265
 20
17.3756355658343118
 30
0.0
 11
12.8272778427314087
 21
16.7302674538238101
 31
0.0
  0
LINE
  5
CB
100
AcDbEntity
100
AcDbLine
  8
0
 62
256
370
-1
  6
ByLayer
 10
14.0
 20
16.9282032302755105
 30
0.0
 11
13.6499999999999986
 21
16.3219854476264032
 31
0.0
  0
LINE
  5
CC
100
AcDbEntity
100
AcDbLine
  8
0
 62
256
370
-1
  6
ByLayer
 10
14.7328638264796972
 20
16.4498061986388358
 30
0.0
 11
14.3187382416627251
 21
15.8854481562579366
 31
0.0
  0
LINE
  5
CD
100
AcDbEntity
100
AcDbLine
  8
0
 62
256
370
-1
  6
ByLayer
 10
15.3665631459994927
 20
15.9329587896765297
 30
0.0
 11
14.8969888707245381
 21
15.413824895579836
 31
0.0
  0
LINE
  5
CE
100
AcDbEntity
100
AcDbLine
  8
0
 62
256
370
-1
  6
ByLayer
 10
10.7999999999999972
 20
17.9598994968529588
 30
0.0
 11
10.7400000000000055
 21
17.3629070345889858
 31
0.0
  0
LINE
  5
CF
100
AcDbEntity
100
AcDbLine
  8
0
 62
256
370
-1
  6
ByLayer
 10
12.5298221281346969
 20
17.5894663844041119
 30
0.0
 11
12.2768399153212311
 21
16.8305197459637021
 31
0.0
  0
LINE
  5
D0
100
AcDbEntity
100
AcDbLine
  8
0
 62
256
370
-1
  6
ByLayer
 10
13.5777087639996648
 20
17.155417527999326
 30
0.0
 11
13.2199378875996985
 21
16.4398757751993934
 31
0.0
  0
LINE
  5
D1
100
AcDbEntity
100
AcDbLine
  8
0
 62
256
370
-1
  6
ByLayer
 10
14.3817804600413268
 20
16.6932802122726045
 30
0.0
 11
13.9436024140371959
 21
16.0239521910453462
 31
0.0
  0
LINE
  5
D2
100
AcDbEntity
100
AcDbLine
  8
0
 62
256
370
-1
  6
ByLayer
 10
15.0596442562694115
 20
16.1967733539318637
 30
0.0
 11
14.5536798306424693
 21
15.5770960185386791
 31
0.0
  0
LINE
  5
D3
100
AcDbEntity
100
AcDbLine
  8
guidelines
 62
256
370
-1
  6
ByLayer
 10
17.5894663844041119
 20
12.5298221281347022
 30
0.0
 11
15.9197837798352086
 21
11.9732612599450654
 31
0.0
  0
LINE
  5
D4
100
AcDbEntity
100
AcDbLine
  8
guidelines
 62
256
370
-1
  6
ByLayer
 10
17.155417527999326
 20
13.5777087639996648
 30
0.0
 11
15.5812256718394728
 21
12.7906128359197382
 31
0.0
  0
LINE
  5
D5
100
AcDbEntity
100
AcDbLine
  8
guidelines
 62
256
370
-1
  6
ByLayer
 10
16.6932802122726045
 20
14.3817804600413304
 30
0.0
 11
15.2207585655726323
 21
13.417788758832236
 31
0.0
  0
LINE
  5
D6
100
AcDbEntity
100
AcDbLine
  8
guidelines
 62
256
370
-1
  6
ByLayer
 10
16.1967733539318637
 20
15.0596442562694115
 30
0.0
 11
14.8334832160668526
 21
13.9465225198901415
 31
0.0
  0
LINE
  5
D7
100
AcDbEntity
100
AcDbLine
  8
guidelines
 62
256
370
-1
  6
ByLayer
 10
15.6568542494923797
 20
15.6568542494923797
 30
0.0
 11
14.4123463146040578
 21
14.4123463146040578
 31
0.0
  0
LINE
  5
D8
100
AcDbEntity
100
AcDbLine
  8
guidelines
 62
256
370
-1
  6
ByLayer
 10
15.0596442562694115
 20
16.1967733539318637
 30
0.0
 11
13.9465225198901379
 21
14.8334832160668562
 31
0.0
  0
LINE
  5
D9
100
AcDbEntity
100
AcDbLine
  8
guidelines
 62
256
370
-1
  6
ByLayer
 10
14.3817804600413268
 20
16.6932802122726045
 30
0.0
 11
13.417788758832236
 21
15.2207585655726323
 31
0.0
  0
LINE
  5
DA
100
AcDbEntity
100
AcDbLine
  8
guidelines
 62
256
370
-1
  6
ByLayer
 10
13.5777087639996648
 20
17.155417527999326
 30
0.0
 11
12.7906128359197382
 21
15.5812256718394728
 31
0.0
  0
LINE
  5
DB
100
AcDbEntity
100
AcDbLine
  8
guidelines
 62
256
370
-1
  6
ByLayer
 10
12.5298221281346969
 20
17.5894663844041119
 30
0.0
 11
11.9732612599450707
 21
15.9197837798352069
 31
0.0
  0
LINE
  5
DC
100
AcDbEntity
100
AcDbLine
  8
guidelines
 62
256
370
-1
  6
ByLayer
 10
11.7888543819998368
 20
17.7974354758471698
 30
0.0
 11
11.3953064179598726
 21
16.0819996711607942
 31
0.0
  0
LINE
  5
DD
100
AcDbEntity
100
AcDbLine
  8
guidelines
 62
256
370
-1
  6
ByLayer
 10
10.7999999999999972
 20
17.9598994968529588
 30
0.0
 11
10.6240000000000219
 21
16.2087216075453071
 31
0.0
  0
LINE
  5
DE
100
AcDbEntity
100
AcDbLine
  8
guidelines
 62
256
370
-1
  6
ByLayer
 10
17.7974354758471698
 20
11.7888543819998368
 30
0.0
 11
16.0819996711607942
 21
11.3953064179598726
 31
0.0
  0
LINE
  5
DF
100
AcDbEntity
100
AcDbLine
  8
guidelines
 62
256
370
-1
  6
ByLayer
 10
17.9598994968529588
 20
10.8000000000000007
 30
0.0
 11
16.2087216075453107
 21
10.6240000000000006
 31
0.0
  0
LINE
  5
E0
100
AcDbEntity
100
AcDbLine
  8
0
 62
256
370
-1
  6
ByLayer
 10
10.0
 20
18.0
 30
0.0
 11
10.0
 21
17.1999999999999993
 31
0.0
  0
LINE
  5
E1
100
AcDbEntity
100
AcDbLine
  8
guidelines
 62
256
370
-1
  6
ByLayer
 10
10.0
 20
16.0
 30
0.0
 11
10.0
 21
18.0
 31
0.0
  0
MTEXT
  5
E2
100
AcDbEntity
100
AcDbMText
  8
numbers
 62
256
370
-1
  6
ByLayer
 10
16.4510464267434955
 20
12.1503488089144955
 30
0.0
 40
0.3
 41
100.0
 71
5
 72
0
  1
0.1
  7
normal
 50
18.434899999999999
 73
1
 44
1.0
  0
MTEXT
  5
E3
100
AcDbEntity
100
AcDbMText
  8
numbers
 62
256
370
-1
  6
ByLayer
 10
16.6278201544700934
 20
11.5205262246998608
 30
0.0
 40
0.3
 41
100.0
 71
5
 72
0
  1
0.05
  7
normal
 50
12.9209999999999994
 73
1
 44
1.0
  0
MTEXT
  5
E4
100
AcDbEntity
100
AcDbMText
  8
numbers
 62
256
370
-1
  6
ByLayer
 10
16.7659145723250163
 20
10.6799999999999997
 30
0.0
 40
0.3
 41
100.0
 71
5
 72
0
  1
0.01
  7
normal
 50
5.7391704772667902
 73
1
 44
1.0
  0
MTEXT
  5
E5
100
AcDbEntity
100
AcDbMText
  8
numbers
 62
256
370
-1
  6
ByLayer
 10
16.0821048987994253
 20
13.0410524493997144
 30
0.0
 40
0.3
 41
100.0
 71
5
 72
0
  1
0.2
  7
normal
 50
26.5650511770780007
 73
1
 44
1.0
  0
MTEXT
  5
E6
100
AcDbEntity
100
AcDbMText
  8
numbers
 62
256
370
-1
  6
ByLayer
 10
15.6892881804317152
 20
13.7245133910351296
 30
0.0
 40
0.3
 41
100.0
 71
5
 72
0
  1
0.3
  7
normal
 50
33.2109107608990968
 73
1
 44
1.0
  0
MTEXT
  5
E7
100
AcDbEntity
100
AcDbMText
  8
numbers
 62
256
370
-1
  6
ByLayer
 10
15.2672573508420832
 20
14.300697617829
 30
0.0
 40
0.3
 41
100.0
 71
5
 72
0
  1
0.4
  7
normal
 50
39.2315204835922984
 73
1
 44
1.0
  0
MTEXT
  5
E8
100
AcDbEntity
100
AcDbMText
  8
numbers
 62
256
370
-1
  6
ByLayer
 10
14.8083261120685226
 20
14.8083261120685226
 30
0.0
 40
0.3
 41
100.0
 71
5
 72
0
  1
0.5
  7
normal
 50
45.0
 73
1
 44
1.0
  0
MTEXT
  5
E9
100
AcDbEntity
100
AcDbMText
  8
numbers
 62
256
370
-1
  6
ByLayer
 10
14.3006976178289982
 20
15.267257350842085
 30
0.0
 40
0.3
 41
100.0
 71
5
 72
0
  1
0.6
  7
normal
 50
50.7684795164078011
 73
1
 44
1.0
  0
MTEXT
  5
EA
100
AcDbEntity
100
AcDbMText
  8
numbers
 62
256
370
-1
  6
ByLayer
 10
13.7245133910351278
 20
15.6892881804317135
 30
0.0
 40
0.3
 41
100.0
 71
5
 72
0
  1
0.7
  7
normal
 50
56.7890892391009032
 73
1
 44
1.0
  0
MTEXT
  5
EB
100
AcDbEntity
100
AcDbMText
  8
numbers
 62
256
370
-1
  6
ByLayer
 10
13.0410524493997144
 20
16.0821048987994253
 30
0.0
 40
0.3
 41
100.0
 71
5
 72
0
  1
0.8
  7
normal
 50
63.43494882292201
 73
1
 44
1.0
  0
MTEXT
  5
EC
100
AcDbEntity
100
AcDbMText
  8
numbers
 62
256
370
-1
  6
ByLayer
 10
12.1503488089144973
 20
16.4510464267434955
 30
0.0
 40
0.3
 41
100.0
 71
5
 72
0
  1
0.9
  7
normal
 50
71.5650511770780042
 73
1
 44
1.0
  0
MTEXT
  5
ED
100
AcDbEntity
100
AcDbMText
  8
numbers
 62
256
370
-1
  6
ByLayer
 10
11.5205262246998608
 20
16.6278201544700934
 30
0.0
 40
0.3
 41
100.0
 71
5
 72
0
  1
0.95
  7
normal
 50
77.0790336184164033
 73
1
 44
1.0
  0
MTEXT
  5
EE
100
AcDbEntity
100
AcDbMText
  8
numbers
 62
256
370
-1
  6
ByLayer
 10
10.6800000000000139
 20
16.7659145723250163
 30
0.0
 40
0.3
 41
100.0
 71
5
 72
0
  1
0.99
  7
normal
 50
84.2608295227332036
 73
1
 44
1.0
  0
MTEXT
  5
EF
100
AcDbEntity
100
AcDbMText
  8
numbers
 62
256
370
-1
  6
ByLayer
 10
10.0
 20
16.8000000000000007
 30
0.0
 40
0.3
 41
100.0
 71
5
 72
0
  1
1
  7
normal
 50
90.0
 73
1
 44
1.0
  0
MTEXT
  5
F0
100
AcDbEntity
100
AcDbMText
  8
numbers
 62
256
370
-1
  6
ByLayer
 10
16.8000000000000007
 20
10.0
 30
0.0
 40
0.3
 41
100.0
 71
5
 72
0
  1
0
  7
normal
 50
0.0
 73
1
 44
1.0
  0
LINE
  5
F1
100
AcDbEntity
100
AcDbLine
  8
0
 62
256
370
-1
  6
ByLayer
 10
2.0040010005003133
 20
10.2529822128134871
 30
0.0
 11
2.4038009504752971
 21
10.2403331021728121
 31
0.0
  0
LINE
  5
F2
100
AcDbEntity
100
AcDbLine
  8
0
 62
256
370
-1
  6
ByLayer
 10
2.0080040040050058
 20
10.3577708763999397
 30
0.0
 11
2.4076038038047542
 21
10.3398823325799629
 31
0.0
  0
LINE
  5
F3
100
AcDbEntity
100
AcDbLine
  8
0
 62
256
370
-1
  6
ByLayer
 10
2.0120090135253648
 20
10.4381780460041149
 30
0.0
 11
2.4114085628490969
 21
10.4162691437039232
 31
0.0
  0
LINE
  5
F4
100
AcDbEntity
100
AcDbLine
  8
0
 62
256
370
-1
  6
ByLayer
 10
2.0160160320802234
 20
10.5059644256269191
 30
0.0
 11
2.415215230476214
 21
10.4806662043455994
 31
0.0
  0
LINE
  5
F5
100
AcDbEntity
100
AcDbLine
  8
0
 62
256
370
-1
  6
ByLayer
 10
2.0240361084067082
 20
10.6196773353931846
 30
0.0
 11
2.4228343029863737
 21
10.5886934686235321
 31
0.0
  0
LINE
  5
F6
100
AcDbEntity
100
AcDbLine
  8
0
 62
256
370
-1
  6
ByLayer
 10
2.0280491722540077
 20
10.669328021227253
 30
0.0
 11
2.4266467136413077
 21
10.6358616201659011
 31
0.0
  0
LINE
  5
F7
100
AcDbEntity
100
AcDbLine
  8
0
 62
256
370
-1
  6
ByLayer
 10
2.0320642572872103
 20
10.7155417527999219
 30
0.0
 11
2.4304610444228487
 21
10.6797646651599365
 31
0.0
  0
LINE
  5
F8
100
AcDbEntity
100
AcDbLine
  8
0
 62
256
370
-1
  6
ByLayer
 10
2.036081366563316
 20
10.7589466384404169
 30
0.0
 11
2.4342772982351519
 21
10.7209993065183955
 31
0.0
  0
LINE
  5
F9
100
AcDbEntity
100
AcDbLine
  8
0
 62
256
370
-1
  6
ByLayer
 10
2.0200250626959999
 20
10.5656854249492298
 30
0.0
 11
2.5187734962774968
 21
10.5303300858899025
 31
0.0
  0
LINE
  5
FA
100
AcDbEntity
100
AcDbLine
  8
0
 62
256
370
-1
  6
ByLayer
 10
2.0804040507106691
 20
11.1313708498984738
 30
0.0
 11
2.6743737469073672
 21
11.0465180361560886
 31
0.0
  0
LINE
  5
FB
100
AcDbEntity
100
AcDbLine
  8
0
 62
256
370
-1
  6
ByLayer
 10
2.1209137585631161
 20
11.3856406460550996
 30
0.0
 11
2.7118452266708815
 21
11.2817175976009683
 31
0.0
  0
LINE
  5
FC
100
AcDbEntity
100
AcDbLine
  8
0
 62
256
370
-1
  6
ByLayer
 10
2.1616328230938322
 20
11.6000000000000014
 30
0.0
 11
2.7495103613617928
 21
11.4800000000000022
 31
0.0
  0
LINE
  5
FD
100
AcDbEntity
100
AcDbLine
  8
0
 62
256
370
-1
  6
ByLayer
 10
2.2437122281338731
 20
11.9595917942265402
 30
0.0
 11
2.8254338110238315
 21
11.8126224096595536
 31
0.0
  0
LINE
  5
FE
100
AcDbEntity
100
AcDbLine
  8
0
 62
256
370
-1
  6
ByLayer
 10
2.2850793912056346
 20
12.1166010488516687
 30
0.0
 11
2.8636984368652136
 21
11.9578559701877936
 31
0.0
  0
LINE
  5
FF
100
AcDbEntity
100
AcDbLine
  8
0
 62
256
370
-1
  6
ByLayer
 10
2.3266695626996503
 20
12.2627416997969583
 30
0.0
 11
2.9021693454971746
 21
12.0930360723121861
 31
0.0
  0
LINE
  5
100
100
AcDbEntity
100
AcDbLine
  8
0
 62
256
370
-1
  6
ByLayer
 10
2.3684863886644374
 20
12.4000000000000004
 30
0.0
 11
2.9408499095146006
 21
12.2200000000000024
 31
0.0
  0
LINE
  5
101
100
AcDbEntity
100
AcDbLine
  8
0
 62
256
370
-1
  6
ByLayer
 10
2.4528150943547153
 20
12.6532998322843149
 30
0.0
 11
3.0188539622781114
 21
12.4543023448629953
 31
0.0
  0
LINE
  5
102
100
AcDbEntity
100
AcDbLine
  8
0
 62
256
370
-1
  6
ByLayer
 10
2.4953347842825133
 20
12.7712812921102099
 30
0.0
 11
3.0581846754613276
 21
12.5634351952019436
 31
0.0
  0
LINE
  5
103
100
AcDbEntity
100
AcDbLine
  8
0
 62
256
370
-1
  6
ByLayer
 10
2.5380967575289466
 20
12.8844410203711845
 30
0.0
 11
3.0977395007142725
 21
12.6681079438433457
 31
0.0
  0
LINE
  5
104
100
AcDbEntity
100
AcDbLine
  8
0
 62
256
370
-1
  6
ByLayer
 10
2.5811052036034354
 20
12.9933259094191484
 30
0.0
 11
3.1375223133331787
 21
12.7688264662127153
 31
0.0
  0
LINE
  5
105
100
AcDbEntity
100
AcDbLine
  8
0
 62
256
370
-1
  6
ByLayer
 10
2.6678788880706525
 20
13.1999999999999922
 30
0.0
 11
3.2177879714653557
 21
12.9599999999999973
 31
0.0
  0
LINE
  5
106
100
AcDbEntity
100
AcDbLine
  8
0
 62
256
370
-1
  6
ByLayer
 10
2.7116531366845615
 20
13.2984845004941388
 30
0.0
 11
3.2582791514332214
 21
13.051098162957075
 31
0.0
  0
LINE
  5
107
100
AcDbEntity
100
AcDbLine
  8
0
 62
256
370
-1
  6
ByLayer
 10
2.7556918894900662
 20
13.3941125496954303
 30
0.0
 11
3.2990149977783156
 21
13.1395541084682712
 31
0.0
  0
LINE
  5
108
100
AcDbEntity
100
AcDbLine
  8
0
 62
256
370
-1
  6
ByLayer
 10
2.7999999999999989
 20
13.487119154832536
 30
0.0
 11
3.3399999999999972
 21
13.2255852182200968
 31
0.0
  0
LINE
  5
109
100
AcDbEntity
100
AcDbLine
  8
0
 62
256
370
-1
  6
ByLayer
 10
2.8894444661475314
 20
13.6660605559646768
 30
0.0
 11
3.4227361311864657
 21
13.3911060142673222
 31
0.0
  0
LINE
  5
10A
100
AcDbEntity
100
AcDbLine
  8
0
 62
256
370
-1
  6
ByLayer
 10
2.934591306937727
 20
13.7523326078587527
 30
0.0
 11
3.4644969589173975
 21
13.4709076622693456
 31
0.0
  0
LINE
  5
10B
100
AcDbEntity
100
AcDbLine
  8
0
 62
256
370
-1
  6
ByLayer
 10
2.9800284900863012
 20
13.8366652186501717
 30
0.0
 11
3.5065263533298285
 21
13.5489153272514091
 31
0.0
  0
LINE
  5
10C
100
AcDbEntity
100
AcDbLine
  8
0
 62
256
370
-1
  6
ByLayer
 10
3.0257616903349263
 20
13.919183588453091
 30
0.0
 11
3.5488295635598073
 21
13.6252448193191089
 31
0.0
  0
LINE
  5
10D
100
AcDbEntity
100
AcDbLine
  8
0
 62
256
370
-1
  6
ByLayer
 10
3.1181397863658944
 20
14.0792156108742219
 30
0.0
 11
3.6342793023884532
 21
13.7732744400586569
 31
0.0
  0
LINE
  5
10E
100
AcDbEntity
100
AcDbLine
  8
0
 62
256
370
-1
  6
ByLayer
 10
3.1647970037459814
 20
14.1569219381653113
 30
0.0
 11
3.6774372284650312
 21
13.8451527928029137
 31
0.0
  0
LINE
  5
10F
100
AcDbEntity
100
AcDbLine
  8
0
 62
256
370
-1
  6
ByLayer
 10
3.2117749006091474
 20
14.2332020977033515
 30
0.0
 11
3.720891783063462
 21
13.9157119403756031
 31
0.0
  0
LINE
  5
110
100
AcDbEntity
100
AcDbLine
  8
0
 62
256
370
-1
  6
ByLayer
 10
3.2590801814589145
 20
14.308131845707603
 30
0.0
 11
3.7646491678494902
 21
13.9850219572795282
 31
0.0
  0
LINE
  5
111
100
AcDbEntity
100
AcDbLine
  8
0
 62
256
370
-1
  6
ByLayer
 10
3.3547009096655458
 20
14.4542114902640222
 30
0.0
 11
3.8530983414406279
 21
14.1201456284942211
 31
0.0
  0
LINE
  5
112
100
AcDbEntity
100
AcDbLine
  8
0
 62
256
370
-1
  6
ByLayer
 10
3.4030309990117438
 20
14.5254833995939059
 30
0.0
 11
3.8978036740858606
 21
14.1860721446243652
 31
0.0
  0
LINE
  5
113
100
AcDbEntity
100
AcDbLine
  8
0
 62
256
370
-1
  6
ByLayer
 10
3.4517177825020413
 20
14.5956501172304254
 30
0.0
 11
3.9428389488143871
 21
14.2509763584381446
 31
0.0
  0
LINE
  5
114
100
AcDbEntity
100
AcDbLine
  8
0
 62
256
370
-1
  6
ByLayer
 10
3.5007692762912335
 20
14.6647615158762434
 30
0.0
 11
3.9882115805693932
 21
14.3149044021855278
 31
0.0
  0
LINE
  5
115
100
AcDbEntity
100
AcDbLine
  8
0
 62
256
370
-1
  6
ByLayer
 10
3.5999999999999979
 20
14.7999999999999972
 30
0.0
 11
4.0799999999999983
 21
14.4399999999999977
 31
0.0
  0
LINE
  5
116
100
AcDbEntity
100
AcDbLine
  8
0
 62
256
370
-1
  6
ByLayer
 10
3.650196853444986
 20
14.866210024238578
 30
0.0
 11
4.1264320894366104
 21
14.5012442724206849
 31
0.0
  0
LINE
  5
117
100
AcDbEntity
100
AcDbLine
  8
0
 62
256
370
-1
  6
ByLayer
 10
3.7007937007905491
 20
14.9315312023751794
 30
0.0
 11
4.1732341732312586
 21
14.5616663621970446
 31
0.0
  0
LINE
  5
118
100
AcDbEntity
100
AcDbLine
  8
0
 62
256
370
-1
  6
ByLayer
 10
3.7518002592746784
 20
14.9959983987187222
 30
0.0
 11
4.2204152398290766
 21
14.6212985188148181
 31
0.0
  0
LINE
  5
119
100
AcDbEntity
100
AcDbLine
  8
0
 62
256
370
-1
  6
ByLayer
 10
3.8550834017051177
 20
15.122499389946281
 30
0.0
 11
4.3159521465772297
 21
14.7383119357003096
 31
0.0
  0
LINE
  5
11A
100
AcDbEntity
100
AcDbLine
  8
0
 62
256
370
-1
  6
ByLayer
 10
3.9073815153088773
 20
15.184592558726294
 30
0.0
 11
4.3643279016607126
 21
14.795748116821823
 31
0.0
  0
LINE
  5
11B
100
AcDbEntity
100
AcDbLine
  8
0
 62
256
370
-1
  6
ByLayer
 10
3.9601324517834051
 20
15.2459508194416067
 30
0.0
 11
4.4131225178996489
 21
14.8525045079834861
 31
0.0
  0
LINE
  5
11C
100
AcDbEntity
100
AcDbLine
  8
0
 62
256
370
-1
  6
ByLayer
 10
4.0133481811616942
 20
15.3065996645686404
 30
0.0
 11
4.4623470675745676
 21
14.9086046897259923
 31
0.0
  0
LINE
  5
11D
100
AcDbEntity
100
AcDbLine
  8
0
 62
256
370
-1
  6
ByLayer
 10
4.1212246173203733
 20
15.4258639865002145
 30
0.0
 11
4.5621327710213455
 21
15.0189241875126989
 31
0.0
  0
LINE
  5
11E
100
AcDbEntity
100
AcDbLine
  8
0
 62
256
370
-1
  6
ByLayer
 10
4.1759120885755845
 20
15.4845236803208337
 30
0.0
 11
4.6127186819324155
 21
15.0731844042967715
 31
0.0
  0
LINE
  5
11F
100
AcDbEntity
100
AcDbLine
  8
0
 62
256
370
-1
  6
ByLayer
 10
4.2311179592576202
 20
15.5425625842204127
 30
0.0
 11
4.6637841123132997
 21
15.1268703904038819
 31
0.0
  0
LINE
  5
120
100
AcDbEntity
100
AcDbLine
  8
0
 62
256
370
-1
  6
ByLayer
 10
4.2868572571657193
 20
15.5999999999999996
 30
0.0
 11
4.7153429628782897
 21
15.1799999999999997
 31
0.0
  0
LINE
  5
121
100
AcDbEntity
100
AcDbLine
  8
0
 62
256
370
-1
  6
ByLayer
 10
2.2025645241528302
 20
11.7888543819998368
 30
0.0
 11
2.8848401282894578
 21
11.6323296235748526
 31
0.0
  0
LINE
  5
122
100
AcDbEntity
100
AcDbLine
  8
0
 62
256
370
-1
  6
ByLayer
 10
2.6243644341656882
 20
13.0983866769659265
 30
0.0
 11
3.2697325461761899
 21
12.8272778427314087
 31
0.0
  0
LINE
  5
123
100
AcDbEntity
100
AcDbLine
  8
0
 62
256
370
-1
  6
ByLayer
 10
3.0717967697244912
 20
14.0000000000000036
 30
0.0
 11
3.6780145523735968
 21
13.6500000000000004
 31
0.0
  0
LINE
  5
124
100
AcDbEntity
100
AcDbLine
  8
0
 62
256
370
-1
  6
ByLayer
 10
3.5501938013611651
 20
14.7328638264796989
 30
0.0
 11
4.1145518437420634
 21
14.3187382416627251
 31
0.0
  0
LINE
  5
125
100
AcDbEntity
100
AcDbLine
  8
0
 62
256
370
-1
  6
ByLayer
 10
4.0670412103234712
 20
15.3665631459994945
 30
0.0
 11
4.5861751044201657
 21
14.8969888707245417
 31
0.0
  0
LINE
  5
126
100
AcDbEntity
100
AcDbLine
  8
0
 62
256
370
-1
  6
ByLayer
 10
2.0401005031470412
 20
10.8000000000000007
 30
0.0
 11
2.6370929654110151
 21
10.7400000000000109
 31
0.0
  0
LINE
  5
127
100
AcDbEntity
100
AcDbLine
  8
0
 62
256
370
-1
  6
ByLayer
 10
2.410533615595889
 20
12.5298221281347004
 30
0.0
 11
3.1694802540362979
 21
12.2768399153212311
 31
0.0
  0
LINE
  5
128
100
AcDbEntity
100
AcDbLine
  8
0
 62
256
370
-1
  6
ByLayer
 10
2.8445824720006732
 20
13.5777087639996648
 30
0.0
 11
3.5601242248006058
 21
13.2199378875996985
 31
0.0
  0
LINE
  5
129
100
AcDbEntity
100
AcDbLine
  8
0
 62
256
370
-1
  6
ByLayer
 10
3.3067197877273964
 20
14.3817804600413304
 30
0.0
 11
3.9760478089546547
 21
13.9436024140371977
 31
0.0
  0
LINE
  5
12A
100
AcDbEntity
100
AcDbLine
  8
0
 62
256
370
-1
  6
ByLayer
 10
3.8032266460681381
 20
15.0596442562694115
 30
0.0
 11
4.4229039814613227
 21
14.5536798306424728
 31
0.0
  0
LINE
  5
12B
100
AcDbEntity
100
AcDbLine
  8
0
 62
256
370
-1
  6
ByLayer
 10
4.3431457505076212
 20
15.6568542494923797
 30
0.0
 11
4.9088311754568572
 21
15.0911688245431428
 31
0.0
  0
LINE
  5
12C
100
AcDbEntity
100
AcDbLine
  8
0
 62
256
370
-1
  6
ByLayer
 10
2.0
 20
10.0000000000000018
 30
0.0
 11
2.8000000000000007
 21
10.0
 31
0.0
  0
LINE
  5
12D
100
AcDbEntity
100
AcDbLine
  8
0
 62
256
370
-1
  6
ByLayer
 10
9.7470177871865147
 20
17.9959989994996867
 30
0.0
 11
9.7596668978271897
 21
17.5961990495247029
 31
0.0
  0
LINE
  5
12E
100
AcDbEntity
100
AcDbLine
  8
0
 62
256
370
-1
  6
ByLayer
 10
9.6422291236000639
 20
17.9919959959949942
 30
0.0
 11
9.6601176674200406
 21
17.5923961961952458
 31
0.0
  0
LINE
  5
12F
100
AcDbEntity
100
AcDbLine
  8
0
 62
256
370
-1
  6
ByLayer
 10
9.5618219539958886
 20
17.9879909864746352
 30
0.0
 11
9.5837308562960768
 21
17.5885914371509031
 31
0.0
  0
LINE
  5
130
100
AcDbEntity
100
AcDbLine
  8
0
 62
256
370
-1
  6
ByLayer
 10
9.4940355743730809
 20
17.9839839679197766
 30
0.0
 11
9.5193337956544006
 21
17.584784769523786
 31
0.0
  0
LINE
  5
131
100
AcDbEntity
100
AcDbLine
  8
0
 62
256
370
-1
  6
ByLayer
 10
9.3803226646068243
 20
17.9759638915932918
 30
0.0
 11
9.4113065313764679
 21
17.5771656970136263
 31
0.0
  0
LINE
  5
132
100
AcDbEntity
100
AcDbLine
  8
0
 62
256
370
-1
  6
ByLayer
 10
9.3306719787727523
 20
17.9719508277459923
 30
0.0
 11
9.3641383798341042
 21
17.5733532863586923
 31
0.0
  0
LINE
  5
133
100
AcDbEntity
100
AcDbLine
  8
0
 62
256
370
-1
  6
ByLayer
 10
9.2844582472000798
 20
17.9679357427127897
 30
0.0
 11
9.3202353348400671
 21
17.5695389555771513
 31
0.0
  0
LINE
  5
134
100
AcDbEntity
100
AcDbLine
  8
0
 62
256
370
-1
  6
ByLayer
 10
9.2410533615595885
 20
17.963918633436684
 30
0.0
 11
9.2790006934816081
 21
17.5657227017648481
 31
0.0
  0
LINE
  5
135
100
AcDbEntity
100
AcDbLine
  8
0
 62
256
370
-1
  6
ByLayer
 10
9.434314575050772
 20
17.9799749373040001
 30
0.0
 11
9.4696699141100993
 21
17.4812265037225032
 31
0.0
  0
LINE
  5
136
100
AcDbEntity
100
AcDbLine
  8
0
 62
256
370
-1
  6
ByLayer
 10
8.8686291501015297
 20
17.9195959492893309
 30
0.0
 11
8.9534819638439149
 21
17.3256262530926328
 31
0.0
  0
LINE
  5
137
100
AcDbEntity
100
AcDbLine
  8
0
 62
256
370
-1
  6
ByLayer
 10
8.6143593539449004
 20
17.8790862414368839
 30
0.0
 11
8.7182824023990335
 21
17.2881547733291185
 31
0.0
  0
LINE
  5
138
100
AcDbEntity
100
AcDbLine
  8
0
 62
256
370
-1
  6
ByLayer
 10
8.4000000000000004
 20
17.8383671769061678
 30
0.0
 11
8.5199999999999996
 21
17.2504896386382072
 31
0.0
  0
LINE
  5
139
100
AcDbEntity
100
AcDbLine
  8
0
 62
256
370
-1
  6
ByLayer
 10
8.0404082057734598
 20
17.7562877718661269
 30
0.0
 11
8.1873775903404464
 21
17.1745661889761685
 31
0.0
  0
LINE
  5
13A
100
AcDbEntity
100
AcDbLine
  8
0
 62
256
370
-1
  6
ByLayer
 10
7.8833989511483367
 20
17.7149206087943654
 30
0.0
 11
8.0421440298122118
 21
17.1363015631347864
 31
0.0
  0
LINE
  5
13B
100
AcDbEntity
100
AcDbLine
  8
0
 62
256
370
-1
  6
ByLayer
 10
7.7372583002030471
 20
17.6733304373003506
 30
0.0
 11
7.9069639276878156
 21
17.0978306545028254
 31
0.0
  0
LINE
  5
13C
100
AcDbEntity
100
AcDbLine
  8
0
 62
256
370
-1
  6
ByLayer
 10
7.6000000000000041
 20
17.6315136113355635
 30
0.0
 11
7.7799999999999976
 21
17.0591500904853994
 31
0.0
  0
LINE
  5
13D
100
AcDbEntity
100
AcDbLine
  8
0
 62
256
370
-1
  6
ByLayer
 10
7.346700167715686
 20
17.5471849056452847
 30
0.0
 11
7.5456976551370074
 21
16.9811460377218886
 31
0.0
  0
LINE
  5
13E
100
AcDbEntity
100
AcDbLine
  8
0
 62
256
370
-1
  6
ByLayer
 10
7.2287187078897936
 20
17.5046652157174876
 30
0.0
 11
7.4365648047980617
 21
16.9418153245386733
 31
0.0
  0
LINE
  5
13F
100
AcDbEntity
100
AcDbLine
  8
0
 62
256
370
-1
  6
ByLayer
 10
7.1155589796288181
 20
17.4619032424710525
 30
0.0
 11
7.3318920561566543
 21
16.9022604992857275
 31
0.0
  0
LINE
  5
140
100
AcDbEntity
100
AcDbLine
  8
0
 62
256
370
-1
  6
ByLayer
 10
7.0066740905808516
 20
17.4188947963965646
 30
0.0
 11
7.2311735337872847
 21
16.8624776866668213
 31
0.0
  0
LINE
  5
141
100
AcDbEntity
100
AcDbLine
  8
0
 62
256
370
-1
  6
ByLayer
 10
6.8000000000000078
 20
17.3321211119293466
 30
0.0
 11
7.0400000000000045
 21
16.7822120285346443
 31
0.0
  0
LINE
  5
142
100
AcDbEntity
100
AcDbLine
  8
0
 62
256
370
-1
  6
ByLayer
 10
6.7015154995058657
 20
17.2883468633154394
 30
0.0
 11
6.9489018370429285
 21
16.7417208485667786
 31
0.0
  0
LINE
  5
143
100
AcDbEntity
100
AcDbLine
  8
0
 62
256
370
-1
  6
ByLayer
 10
6.6058874503045706
 20
17.2443081105099338
 30
0.0
 11
6.8604458915317323
 21
16.7009850022216852
 31
0.0
  0
LINE
  5
144
100
AcDbEntity
100
AcDbLine
  8
0
 62
256
370
-1
  6
ByLayer
 10
6.5128808451674685
 20
17.2000000000000028
 30
0.0
 11
6.774414781779905
 21
16.6600000000000037
 31
0.0
  0
LINE
  5
145
100
AcDbEntity
100
AcDbLine
  8
0
 62
256
370
-1
  6
ByLayer
 10
6.3339394440353285
 20
17.1105555338524695
 30
0.0
 11
6.6088939857326823
 21
16.5772638688135352
 31
0.0
  0
LINE
  5
146
100
AcDbEntity
100
AcDbLine
  8
0
 62
256
370
-1
  6
ByLayer
 10
6.2476673921412527
 20
17.0654086930622739
 30
0.0
 11
6.5290923377306562
 21
16.5355030410826025
 31
0.0
  0
LINE
  5
147
100
AcDbEntity
100
AcDbLine
  8
0
 62
256
370
-1
  6
ByLayer
 10
6.1633347813498327
 20
17.0199715099137023
 30
0.0
 11
6.4510846727485953
 21
16.493473646670175
 31
0.0
  0
LINE
  5
148
100
AcDbEntity
100
AcDbLine
  8
0
 62
256
370
-1
  6
ByLayer
 10
6.0808164115469125
 20
16.9742383096650755
 30
0.0
 11
6.3747551806808929
 21
16.4511704364401936
 31
0.0
  0
LINE
  5
149
100
AcDbEntity
100
AcDbLine
  8
0
 62
256
370
-1
  6
ByLayer
 10
5.9207843891257808
 20
16.8818602136341056
 30
0.0
 11
6.2267255599413431
 21
16.3657206976115468
 31
0.0
  0
LINE
  5
14A
100
AcDbEntity
100
AcDbLine
  8
0
 62
256
370
-1
  6
ByLayer
 10
5.8430780618346914
 20
16.8352029962540186
 30
0.0
 11
6.1548472071970881
 21
16.3225627715349688
 31
0.0
  0
LINE
  5
14B
100
AcDbEntity
100
AcDbLine
  8
0
 62
256
370
-1
  6
ByLayer
 10
5.7667979022966547
 20
16.7882250993908535
 30
0.0
 11
6.0842880596244022
 21
16.2791082169365389
 31
0.0
  0
LINE
  5
14C
100
AcDbEntity
100
AcDbLine
  8
0
 62
256
370
-1
  6
ByLayer
 10
5.6918681542924014
 20
16.7409198185410872
 30
0.0
 11
6.0149780427204735
 21
16.2353508321505089
 31
0.0
  0
LINE
  5
14D
100
AcDbEntity
100
AcDbLine
  8
0
 62
256
370
-1
  6
ByLayer
 10
5.5457885097359787
 20
16.6452990903344542
 30
0.0
 11
5.8798543715057789
 21
16.1469016585593721
 31
0.0
  0
LINE
  5
14E
100
AcDbEntity
100
AcDbLine
  8
0
 62
256
370
-1
  6
ByLayer
 10
5.4745166004060959
 20
16.5969690009882562
 30
0.0
 11
5.8139278553756402
 21
16.102196325914143
 31
0.0
  0
LINE
  5
14F
100
AcDbEntity
100
AcDbLine
  8
0
 62
256
370
-1
  6
ByLayer
 10
5.4043498827695764
 20
16.5482822174979596
 30
0.0
 11
5.7490236415618572
 21
16.0571610511856129
 31
0.0
  0
LINE
  5
150
100
AcDbEntity
100
AcDbLine
  8
0
 62
256
370
-1
  6
ByLayer
 10
5.335238484123761
 20
16.4992307237087701
 30
0.0
 11
5.685095597814473
 21
16.0117884194306086
 31
0.0
  0
LINE
  5
151
100
AcDbEntity
100
AcDbLine
  8
0
 62
256
370
-1
  6
ByLayer
 10
5.2000000000000037
 20
16.4000000000000021
 30
0.0
 11
5.5600000000000049
 21
15.9200000000000017
 31
0.0
  0
LINE
  5
152
100
AcDbEntity
100
AcDbLine
  8
0
 62
256
370
-1
  6
ByLayer
 10
5.1337899757614238
 20
16.3498031465550149
 30
0.0
 11
5.4987557275793151
 21
15.8735679105633913
 31
0.0
  0
LINE
  5
153
100
AcDbEntity
100
AcDbLine
  8
0
 62
256
370
-1
  6
ByLayer
 10
5.0684687976248259
 20
16.2992062992094517
 30
0.0
 11
5.4383336378029563
 21
15.8267658267687423
 31
0.0
  0
LINE
  5
154
100
AcDbEntity
100
AcDbLine
  8
0
 62
256
370
-1
  6
ByLayer
 10
5.0040016012812805
 20
16.2481997407253225
 30
0.0
 11
5.3787014811851828
 21
15.7795847601709234
 31
0.0
  0
LINE
  5
155
100
AcDbEntity
100
AcDbLine
  8
0
 62
256
370
-1
  6
ByLayer
 10
4.8775006100537226
 20
16.1449165982948841
 30
0.0
 11
5.2616880642996904
 21
15.6840478534227721
 31
0.0
  0
LINE
  5
156
100
AcDbEntity
100
AcDbLine
  8
0
 62
256
370
-1
  6
ByLayer
 10
4.8154074412737078
 20
16.0926184846911227
 30
0.0
 11
5.2042518831781797
 21
15.6356720983392883
 31
0.0
  0
LINE
  5
157
100
AcDbEntity
100
AcDbLine
  8
0
 62
256
370
-1
  6
ByLayer
 10
4.754049180558396
 20
16.0398675482165949
 30
0.0
 11
5.1474954920165148
 21
15.586877482100352
 31
0.0
  0
LINE
  5
158
100
AcDbEntity
100
AcDbLine
  8
0
 62
256
370
-1
  6
ByLayer
 10
4.693400335431364
 20
15.9866518188383075
 30
0.0
 11
5.0913953102740086
 21
15.5376529324254342
 31
0.0
  0
LINE
  5
159
100
AcDbEntity
100
AcDbLine
  8
0
 62
256
370
-1
  6
ByLayer
 10
4.5741360134997855
 20
15.8787753826796276
 30
0.0
 11
4.9810758124873011
 21
15.4378672289786554
 31
0.0
  0
LINE
  5
15A
100
AcDbEntity
100
AcDbLine
  8
0
 62
256
370
-1
  6
ByLayer
 10
4.5154763196791672
 20
15.8240879114244173
 30
0.0
 11
4.9268155957032302
 21
15.3872813180675863
 31
0.0
  0
LINE
  5
15B
100
AcDbEntity
100
AcDbLine
  8
0
 62
256
370
-1
  6
ByLayer
 10
4.4574374157795873
 20
15.7688820407423798
 30
0.0
 11
4.8731296095961216
 21
15.3362158876867039
 31
0.0
  0
LINE
  5
15C
100
AcDbEntity
100
AcDbLine
  8
0
 62
256
370
-1
  6
ByLayer
 10
4.4000000000000039
 20
15.7131427428342842
 30
0.0
 11
4.8200000000000038
 21
15.284657037121713
 31
0.0
  0
LINE
  5
15D
100
AcDbEntity
100
AcDbLine
  8
0
 62
256
370
-1
  6
ByLayer
 10
8.2111456180001632
 20
17.7974354758471698
 30
0.0
 11
8.3676703764251492
 21
17.1151598717105422
 31
0.0
  0
LINE
  5
15E
100
AcDbEntity
100
AcDbLine
  8
0
 62
256
370
-1
  6
ByLayer
 10
6.9016133230340753
 20
17.3756355658343118
 30
0.0
 11
7.1727221572685913
 21
16.7302674538238101
 31
0.0
  0
LINE
  5
15F
100
AcDbEntity
100
AcDbLine
  8
0
 62
256
370
-1
  6
ByLayer
 10
6.0000000000000009
 20
16.9282032302755105
 30
0.0
 11
6.3500000000000041
 21
16.3219854476264032
 31
0.0
  0
LINE
  5
160
100
AcDbEntity
100
AcDbLine
  8
0
 62
256
370
-1
  6
ByLayer
 10
5.2671361735203019
 20
16.4498061986388358
 30
0.0
 11
5.6812617583372758
 21
15.8854481562579366
 31
0.0
  0
LINE
  5
161
100
AcDbEntity
100
AcDbLine
  8
0
 62
256
370
-1
  6
ByLayer
 10
4.6334368540005073
 20
15.9329587896765297
 30
0.0
 11
5.1030111292754627
 21
15.413824895579836
 31
0.0
  0
LINE
  5
162
100
AcDbEntity
100
AcDbLine
  8
0
 62
256
370
-1
  6
ByLayer
 10
9.2000000000000046
 20
17.9598994968529588
 30
0.0
 11
9.2599999999999962
 21
17.3629070345889858
 31
0.0
  0
LINE
  5
163
100
AcDbEntity
100
AcDbLine
  8
0
 62
256
370
-1
  6
ByLayer
 10
7.4701778718653049
 20
17.5894663844041119
 30
0.0
 11
7.7231600846787707
 21
16.8305197459637021
 31
0.0
  0
LINE
  5
164
100
AcDbEntity
100
AcDbLine
  8
0
 62
256
370
-1
  6
ByLayer
 10
6.422291236000337
 20
17.155417527999326
 30
0.0
 11
6.7800621124003033
 21
16.4398757751993934
 31
0.0
  0
LINE
  5
165
100
AcDbEntity
100
AcDbLine
  8
0
 62
256
370
-1
  6
ByLayer
 10
5.618219539958675
 20
16.6932802122726045
 30
0.0
 11
6.0563975859628059
 21
16.0239521910453462
 31
0.0
  0
LINE
  5
166
100
AcDbEntity
100
AcDbLine
  8
0
 62
256
370
-1
  6
ByLayer
 10
4.9403557437305885
 20
16.1967733539318637
 30
0.0
 11
5.4463201693575316
 21
15.5770960185386791
 31
0.0
  0
MTEXT
  5
167
100
AcDbEntity
100
AcDbMText
  8
numbers
 62
256
370
-1
  6
ByLayer
 10
3.5489535732565045
 20
12.1503488089144955
 30
0.0
 40
0.3
 41
100.0
 71
5
 72
0
  1
0.1
  7
normal
 50
341.5650999999999726
 73
1
 44
1.0
  0
MTEXT
  5
168
100
AcDbEntity
100
AcDbMText
  8
numbers
 62
256
370
-1
  6
ByLayer
 10
3.3721798455299066
 20
11.5205262246998608
 30
0.0
 40
0.3
 41
100.0
 71
5
 72
0
  1
0.05
  7
normal
 50
347.0790000000000077
 73
1
 44
1.0
  0
MTEXT
  5
169
100
AcDbEntity
100
AcDbMText
  8
numbers
 62
256
370
-1
  6
ByLayer
 10
3.2340854276749837
 20
10.6799999999999997
 30
0.0
 40
0.3
 41
100.0
 71
5
 72
0
  1
0.01
  7
normal
 50
354.2608295227332178
 73
1
 44
1.0
  0
MTEXT
  5
16A
100
AcDbEntity
100
AcDbMText
  8
numbers
 62
256
370
-1
  6
ByLayer
 10
3.9178951012005738
 20
13.0410524493997144
 30
0.0
 40
0.3
 41
100.0
 71
5
 72
0
  1
0.2
  7
normal
 50
333.4349488229220242
 73
1
 44
1.0
  0
MTEXT
  5
16B
100
AcDbEntity
100
AcDbMText
  8
numbers
 62
256
370
-1
  6
ByLayer
 10
4.3107118195682856
 20
13.7245133910351313
 30
0.0
 40
0.3
 41
100.0
 71
5
 72
0
  1
0.3
  7
normal
 50
326.7890892391008606
 73
1
 44
1.0
  0
MTEXT
  5
16C
100
AcDbEntity
100
AcDbMText
  8
numbers
 62
256
370
-1
  6
ByLayer
 10
4.7327426491579168
 20
14.3006976178290017
 30
0.0
 40
0.3
 41
100.0
 71
5
 72
0
  1
0.4
  7
normal
 50
320.7684795164076945
 73
1
 44
1.0
  0
MTEXT
  5
16D
100
AcDbEntity
100
AcDbMText
  8
numbers
 62
256
370
-1
  6
ByLayer
 10
5.1916738879314783
 20
14.8083261120685226
 30
0.0
 40
0.3
 41
100.0
 71
5
 72
0
  1
0.5
  7
normal
 50
315.0
 73
1
 44
1.0
  0
MTEXT
  5
16E
100
AcDbEntity
100
AcDbMText
  8
numbers
 62
256
370
-1
  6
ByLayer
 10
5.6993023821710027
 20
15.2672573508420868
 30
0.0
 40
0.3
 41
100.0
 71
5
 72
0
  1
0.6
  7
normal
 50
309.2315204835921918
 73
1
 44
1.0
  0
MTEXT
  5
16F
100
AcDbEntity
100
AcDbMText
  8
numbers
 62
256
370
-1
  6
ByLayer
 10
6.275486608964874
 20
15.6892881804317135
 30
0.0
 40
0.3
 41
100.0
 71
5
 72
0
  1
0.7
  7
normal
 50
303.2109107608991394
 73
1
 44
1.0
  0
MTEXT
  5
170
100
AcDbEntity
100
AcDbMText
  8
numbers
 62
256
370
-1
  6
ByLayer
 10
6.9589475506002874
 20
16.0821048987994253
 30
0.0
 40
0.3
 41
100.0
 71
5
 72
0
  1
0.8
  7
normal
 50
296.5650511770779758
 73
1
 44
1.0
  0
MTEXT
  5
171
100
AcDbEntity
100
AcDbMText
  8
numbers
 62
256
370
-1
  6
ByLayer
 10
7.8496511910855036
 20
16.4510464267434955
 30
0.0
 40
0.3
 41
100.0
 71
5
 72
0
  1
0.9
  7
normal
 50
288.4349488229220242
 73
1
 44
1.0
  0
MTEXT
  5
172
100
AcDbEntity
100
AcDbMText
  8
numbers
 62
256
370
-1
  6
ByLayer
 10
8.4794737753001392
 20
16.6278201544700934
 30
0.0
 40
0.3
 41
100.0
 71
5
 72
0
  1
0.95
  7
normal
 50
282.9209663815836393
 73
1
 44
1.0
  0
MTEXT
  5
173
100
AcDbEntity
100
AcDbMText
  8
numbers
 62
256
370
-1
  6
ByLayer
 10
9.3199999999999878
 20
16.7659145723250163
 30
0.0
 40
0.3
 41
100.0
 71
5
 72
0
  1
0.99
  7
normal
 50
275.7391704772667822
 73
1
 44
1.0
  0
MTEXT
  5
174
100
AcDbEntity
100
AcDbMText
  8
numbers
 62
256
370
-1
  6
ByLayer
 10
3.1999999999999993
 20
10.0
 30
0.0
 40
0.3
 41
100.0
 71
5
 72
0
  1
0
  7
normal
 50
360.0
 73
1
 44
1.0
  0
MTEXT
  5
175
100
AcDbEntity
100
AcDbMText
  8
numbers
 62
256
370
-1
  6
ByLayer
 10
6.9135980024968866
 20
10.4644873907615601
 30
0.0
 40
0.1
 41
100.0
 71
5
 72
0
  1
decimal\~spread\~protractor\~v1.0\Pcopyright\~2005\~Michael\~Ossmann\Phttp://www.ossmann.com/protractor/
  7
romans
 50
0.0
 73
1
 44
1.0
  0
ENDSEC
  0
SECTION
  2
OBJECTS
  0
DICTIONARY
  5
C
100
AcDbDictionary
280
0
281
1
  3
ACAD_GROUP
350
D
  3
ACAD_LAYOUT
350
1A
  3
ACAD_MLINESTYLE
350
17
  3
ACAD_PLOTSETTINGS
350
19
  3
ACAD_PLOTSTYLENAME
350
E
  3
AcDbVariableDictionary
350
176
  0
DICTIONARY
  5
D
100
AcDbDictionary
280
0
281
1
  0
ACDBDICTIONARYWDFLT
  5
E
100
AcDbDictionary
281
1
  3
Normal
350
F
100
AcDbDictionaryWithDefault
340
F
  0
ACDBPLACEHOLDER
  5
F
  0
DICTIONARY
  5
17
100
AcDbDictionary
280
0
281
1
  3
Standard
350
18
  0
MLINESTYLE
  5
18
100
AcDbMlineStyle
  2
STANDARD
 70
0
  3

 62
256
 51
90.0
 52
90.0
 71
2
 49
0.5
 62
256
  6
BYLAYER
 49
-0.5
 62
256
  6
BYLAYER
  0
DICTIONARY
  5
19
100
AcDbDictionary
280
0
281
1
  0
DICTIONARY
  5
1A
100
AcDbDictionary
281
1
  3
Layout1
350
1E
  3
Layout2
350
26
  3
Model
350
22
  0
LAYOUT
  5
1E
100
AcDbPlotSettings
  1

  2
C:\Program Files\AutoCAD 2002\plotters\DWF ePlot (optimized for plotting).pc3
  4

  6

 40
0.0
 41
0.0
 42
0.0
 43
0.0
 44
0.0
 45
0.0
 46
0.0
 47
0.0
 48
0.0
 49
0.0
140
0.0
141
0.0
142
1.0
143
1.0
 70
688
 72
0
 73
0
 74
5
  7

 75
16
147
1.0
148
0.0
149
0.0
100
AcDbLayout
  1
Layout1
 70
1
 71
1
 10
0.0
 20
0.0
 11
420.0
 21
297.0
 12
0.0
 22
0.0
 32
0.0
 14
100000000000000000000.0
 24
100000000000000000000.0
 34
100000000000000000000.0
 15
-100000000000000000000.0
 25
-100000000000000000000.0
 35
-100000000000000000000.0
146
0.0
 13
0.0
 23
0.0
 33
0.0
 16
1.0
 26
0.0
 36
0.0
 17
0.0
 27
1.0
 37
0.0
 76
0
330
1B
  0
LAYOUT
  5
22
100
AcDbPlotSettings
  1

  2
C:\Program Files\AutoCAD 2002\plotters\DWF ePlot (optimized for plotting).pc3
  4

  6

 40
0.0
 41
0.0
 42
0.0
 43
0.0
 44
0.0
 45
0.0
 46
0.0
 47
0.0
 48
0.0
 49
0.0
140
0.0
141
0.0
142
1.0
143
1.0
 70
1712
 72
0
 73
0
 74
0
  7

 75
0
147
1.0
148
0.0
149
0.0
100
AcDbLayout
  1
Model
 70
1
 71
0
 10
0.0
 20
0.0
 11
12.0
 21
9.0
 12
0.0
 22
0.0
 32
0.0
 14
0.0
 24
0.0
 34
0.0
 15
0.0
 25
0.0
 35
0.0
146
0.0
 13
0.0
 23
0.0
 33
0.0
 16
1.0
 26
0.0
 36
0.0
 17
0.0
 27
1.0
 37
0.0
 76
0
330
1F
  0
LAYOUT
  5
26
100
AcDbPlotSettings
  1

  2
C:\Program Files\AutoCAD 2002\plotters\DWF ePlot (optimized for plotting).pc3
  4

  6

 40
0.0
 41
0.0
 42
0.0
 43
0.0
 44
0.0
 45
0.0
 46
0.0
 47
0.0
 48
0.0
 49
0.0
140
0.0
141
0.0
142
1.0
143
1.0
 70
688
 72
0
 73
0
 74
5
  7

 75
16
147
1.0
148
0.0
149
0.0
100
AcDbLayout
  1
Layout2
 70
1
 71
2
 10
0.0
 20
0.0
 11
12.0
 21
9.0
 12
0.0
 22
0.0
 32
0.0
 14
0.0
 24
0.0
 34
0.0
 15
0.0
 25
0.0
 35
0.0
146
0.0
 13
0.0
 23
0.0
 33
0.0
 16
1.0
 26
0.0
 36
0.0
 17
0.0
 27
1.0
 37
0.0
 76
0
330
23
  0
DICTIONARY
  5
176
100
AcDbDictionary
281
1
  3
DIMASSOC
350
178
  3
HIDETEXT
350
177
  0
DICTIONARYVAR
  5
177
100
DictionaryVariables
280
0
  1
2
  0
DICTIONARYVAR
  5
178
100
DictionaryVariables
280
0
  1
1
  0
ENDSEC
  0
EOF
