999
dxflib 2.0.4.0
  0
SECTION
  2
HEADER
  9
$ACADVER
  1
AC1015
  9
$HANDSEED
  5
FFFF
  9
$DIMASZ
 40
0.25
  9
$DIMGAP
 40
0.0625
  9
$INSUNITS
 70
5
  9
$DIMEXO
 40
0.0625
  9
$DIMTXT
 40
0.25
  9
$DIMSTYLE
  2
Standard
  9
$PLIMMIN
 10
0.0
 20
0.0
  9
$PLIMMAX
 10
21.0
 20
29.6999999999999993
  9
$DIMEXE
 40
0.125
  0
ENDSEC
  0
SECTION
  2
TABLES
  0
TABLE
  2
VPORT
  5
8
100
AcDbSymbolTable
 70
1
  0
VPORT
  5
30
100
AcDbSymbolTableRecord
100
AcDbViewportTableRecord
  2
*Active
 70
0
 10
0.0
 20
0.0
 11
1.0
 21
1.0
 12
286.3055555555554861
 22
148.5
 13
0.0
 23
0.0
 14
10.0
 24
10.0
 15
10.0
 25
10.0
 16
0.0
 26
0.0
 36
1.0
 17
0.0
 27
0.0
 37
0.0
 40
297.0
 41
1.92798353909465
 42
50.0
 43
0.0
 44
0.0
 50
0.0
 51
0.0
 71
0
 72
100
 73
1
 74
3
 75
1
 76
1
 77
0
 78
0
281
0
 65
1
110
0.0
120
0.0
130
0.0
111
1.0
121
0.0
131
0.0
112
0.0
122
1.0
132
0.0
 79
0
146
0.0
  0
ENDTAB
  0
TABLE
  2
LTYPE
  5
5
100
AcDbSymbolTable
 70
21
  0
LTYPE
  5
14
100
AcDbSymbolTableRecord
100
AcDbLinetypeTableRecord
  2
ByBlock
 70
0
  3

 72
65
 73
0
 40
0.0
  0
LTYPE
  5
15
100
AcDbSymbolTableRecord
100
AcDbLinetypeTableRecord
  2
ByLayer
 70
0
  3

 72
65
 73
0
 40
0.0
  0
LTYPE
  5
16
100
AcDbSymbolTableRecord
100
AcDbLinetypeTableRecord
  2
CONTINUOUS
 70
0
  3
Solid line
 72
65
 73
0
 40
0.0
  0
LTYPE
  5
31
100
AcDbSymbolTableRecord
100
AcDbLinetypeTableRecord
  2
DOT
 70
0
  3
Dot . . . . . . . . . . . . . . . . . . . . . .
 72
65
 73
2
 40
6.3499999999999996
 49
0.0
 74
0
 49
-6.3499999999999996
 74
0
  0
LTYPE
  5
32
100
AcDbSymbolTableRecord
100
AcDbLinetypeTableRecord
  2
DOT2
 70
0
  3
Dot (.5x) .....................................
 72
65
 73
2
 40
3.1749999999999998
 49
0.0
 74
0
 49
-3.1749999999999998
 74
0
  0
LTYPE
  5
33
100
AcDbSymbolTableRecord
100
AcDbLinetypeTableRecord
  2
DOTX2
 70
0
  3
Dot (2x) .  .  .  .  .  .  .  .  .  .  .  .  .
 72
65
 73
2
 40
12.6999999999999993
 49
0.0
 74
0
 49
-12.6999999999999993
 74
0
  0
LTYPE
  5
34
100
AcDbSymbolTableRecord
100
AcDbLinetypeTableRecord
  2
DASHED
 70
0
  3
Dashed __ __ __ __ __ __ __ __ __ __ __ __ __ _
 72
65
 73
2
 40
19.0500000000000007
 49
12.6999999999999993
 74
0
 49
-6.3499999999999996
 74
0
  0
LTYPE
  5
35
100
AcDbSymbolTableRecord
100
AcDbLinetypeTableRecord
  2
DASHED2
 70
0
  3
Dashed (.5x) _ _ _ _ _ _ _ _ _ _ _ _ _ _ _ _ _
 72
65
 73
2
 40
9.5250000000000004
 49
6.3499999999999996
 74
0
 49
-3.1749999999999998
 74
0
  0
LTYPE
  5
36
100
AcDbSymbolTableRecord
100
AcDbLinetypeTableRecord
  2
DASHEDX2
 70
0
  3
Dashed (2x) ____  ____  ____  ____  ____  ___
 72
65
 73
2
 40
38.1000000000000014
 49
25.3999999999999986
 74
0
 49
-12.6999999999999993
 74
0
  0
LTYPE
  5
37
100
AcDbSymbolTableRecord
100
AcDbLinetypeTableRecord
  2
DASHDOT
 70
0
  3
Dash dot __ . __ . __ . __ . __ . __ . __ . __
 72
65
 73
4
 40
25.3999999999999986
 49
12.6999999999999993
 74
0
 49
-6.3499999999999996
 74
0
 49
0.0
 74
0
 49
-6.3499999999999996
 74
0
  0
LTYPE
  5
38
100
AcDbSymbolTableRecord
100
AcDbLinetypeTableRecord
  2
DASHDOT2
 70
0
  3
Dash dot (.5x) _._._._._._._._._._._._._._._.
 72
65
 73
4
 40
12.6999999999999993
 49
6.3499999999999996
 74
0
 49
-3.1749999999999998
 74
0
 49
0.0
 74
0
 49
-3.1749999999999998
 74
0
  0
LTYPE
  5
39
100
AcDbSymbolTableRecord
100
AcDbLinetypeTableRecord
  2
DASHDOTX2
 70
0
  3
Dash dot (2x) ____  .  ____  .  ____  .  ___
 72
65
 73
4
 40
50.7999999999999972
 49
25.3999999999999986
 74
0
 49
-12.6999999999999993
 74
0
 49
0.0
 74
0
 49
-12.6999999999999993
 74
0
  0
LTYPE
  5
3A
100
AcDbSymbolTableRecord
100
AcDbLinetypeTableRecord
  2
DIVIDE
 70
0
  3
Divide ____ . . ____ . . ____ . . ____ . . ____
 72
65
 73
6
 40
31.75
 49
12.6999999999999993
 74
0
 49
-6.3499999999999996
 74
0
 49
0.0
 74
0
 49
-6.3499999999999996
 74
0
 49
0.0
 74
0
 49
-6.3499999999999996
 74
0
  0
LTYPE
  5
3B
100
AcDbSymbolTableRecord
100
AcDbLinetypeTableRecord
  2
DIVIDE2
 70
0
  3
Divide (.5x) __..__..__..__..__..__..__..__.._
 72
65
 73
6
 40
15.875
 49
6.3499999999999996
 74
0
 49
-3.1749999999999998
 74
0
 49
0.0
 74
0
 49
-3.1749999999999998
 74
0
 49
0.0
 74
0
 49
-3.1749999999999998
 74
0
  0
LTYPE
  5
3C
100
AcDbSymbolTableRecord
100
AcDbLinetypeTableRecord
  2
DIVIDEX2
 70
0
  3
Divide (2x) ________  .  .  ________  .  .  _
 72
65
 73
6
 40
63.5
 49
25.3999999999999986
 74
0
 49
-12.6999999999999993
 74
0
 49
0.0
 74
0
 49
-12.6999999999999993
 74
0
 49
0.0
 74
0
 49
-12.6999999999999993
 74
0
  0
LTYPE
  5
3D
100
AcDbSymbolTableRecord
100
AcDbLinetypeTableRecord
  2
CENTER
 70
0
  3
Center ____ _ ____ _ ____ _ ____ _ ____ _ ____
 72
65
 73
4
 40
50.7999999999999972
 49
31.75
 74
0
 49
-6.3499999999999996
 74
0
 49
6.3499999999999996
 74
0
 49
-6.3499999999999996
 74
0
  0
LTYPE
  5
3E
100
AcDbSymbolTableRecord
100
AcDbLinetypeTableRecord
  2
CENTER2
 70
0
  3
Center (.5x) ___ _ ___ _ ___ _ ___ _ ___ _ ___
 72
65
 73
4
 40
28.5749999999999993
 49
19.0500000000000007
 74
0
 49
-3.1749999999999998
 74
0
 49
3.1749999999999998
 74
0
 49
-3.1749999999999998
 74
0
  0
LTYPE
  5
3F
100
AcDbSymbolTableRecord
100
AcDbLinetypeTableRecord
  2
CENTERX2
 70
0
  3
Center (2x) ________  __  ________  __  _____
 72
65
 73
4
 40
101.5999999999999943
 49
63.5
 74
0
 49
-12.6999999999999993
 74
0
 49
12.6999999999999993
 74
0
 49
-12.6999999999999993
 74
0
  0
LTYPE
  5
40
100
AcDbSymbolTableRecord
100
AcDbLinetypeTableRecord
  2
BORDER
 70
0
  3
Border __ __ . __ __ . __ __ . __ __ . __ __ .
 72
65
 73
6
 40
44.4500000000000028
 49
12.6999999999999993
 74
0
 49
-6.3499999999999996
 74
0
 49
12.6999999999999993
 74
0
 49
-6.3499999999999996
 74
0
 49
0.0
 74
0
 49
-6.3499999999999996
 74
0
  0
LTYPE
  5
41
100
AcDbSymbolTableRecord
100
AcDbLinetypeTableRecord
  2
BORDER2
 70
0
  3
Border (.5x) __.__.__.__.__.__.__.__.__.__.__.
 72
65
 73
6
 40
22.2250000000000014
 49
6.3499999999999996
 74
0
 49
-3.1749999999999998
 74
0
 49
6.3499999999999996
 74
0
 49
-3.1749999999999998
 74
0
 49
0.0
 74
0
 49
-3.1749999999999998
 74
0
  0
LTYPE
  5
42
100
AcDbSymbolTableRecord
100
AcDbLinetypeTableRecord
  2
BORDERX2
 70
0
  3
Border (2x) ____  ____  .  ____  ____  .  ___
 72
65
 73
6
 40
88.9000000000000057
 49
25.3999999999999986
 74
0
 49
-12.6999999999999993
 74
0
 49
25.3999999999999986
 74
0
 49
-12.6999999999999993
 74
0
 49
0.0
 74
0
 49
-12.6999999999999993
 74
0
  0
ENDTAB
  0
TABLE
  2
LAYER
  5
2
100
AcDbSymbolTable
 70
4
  0
LAYER
  5
10
100
AcDbSymbolTableRecord
100
AcDbLayerTableRecord
  2
0
 70
0
 62
7
  6
CONTINUOUS
370
0
390
F
  0
LAYER
  5
43
100
AcDbSymbolTableRecord
100
AcDbLayerTableRecord
  2
numbers
 70
0
 62
7
  6
CONTINUOUS
370
0
390
F
  0
LAYER
  5
44
100
AcDbSymbolTableRecord
100
AcDbLayerTableRecord
  2
guidelines
 70
1
 62
5
  6
CONTINUOUS
370
0
390
F
  0
LAYER
  5
45
100
AcDbSymbolTableRecord
100
AcDbLayerTableRecord
  2
title
 70
0
 62
7
  6
CONTINUOUS
370
0
390
F
  0
ENDTAB
  0
TABLE
  2
STYLE
  5
3
100
AcDbSymbolTable
 70
1
  0
STYLE
  5
11
100
AcDbSymbolTableRecord
100
AcDbTextStyleTableRecord
  2
Standard
 70
0
 40
0.0
 41
1.0
 50
0.0
 71
0
 42
2.5
  3
txt
  4

  0
ENDTAB
  0
TABLE
  2
VIEW
  5
6
100
AcDbSymbolTable
 70
0
  0
ENDTAB
  0
TABLE
  2
UCS
  5
7
100
AcDbSymbolTable
 70
0
  0
ENDTAB
  0
TABLE
  2
APPID
  5
9
100
AcDbSymbolTable
 70
1
  0
APPID
  5
12
100
AcDbSymbolTableRecord
100
AcDbRegAppTableRecord
  2
ACAD
 70
0
  0
ENDTAB
  0
TABLE
  2
DIMSTYLE
  5
A
100
AcDbSymbolTable
 70
1
100
AcDbDimStyleTable
 71
0
  0
DIMSTYLE
105
27
100
AcDbSymbolTableRecord
100
AcDbDimStyleTableRecord
  2
Standard
 41
2.5
 42
0.625
 43
3.75
 44
1.25
 70
0
 73
0
 74
0
 77
1
 78
8
140
2.5
141
2.5
143
0.03937007874016
147
0.625
171
3
172
1
271
2
272
2
274
3
278
44
283
0
284
8
340
11
  0
ENDTAB
  0
TABLE
  2
BLOCK_RECORD
  5
1
100
AcDbSymbolTable
 70
1
  0
BLOCK_RECORD
  5
1F
100
AcDbSymbolTableRecord
100
AcDbBlockTableRecord
  2
*Model_Space
340
22
  0
BLOCK_RECORD
  5
1B
100
AcDbSymbolTableRecord
100
AcDbBlockTableRecord
  2
*Paper_Space
340
1E
  0
BLOCK_RECORD
  5
23
100
AcDbSymbolTableRecord
100
AcDbBlockTableRecord
  2
*Paper_Space0
340
26
  0
ENDTAB
  0
ENDSEC
  0
SECTION
  2
BLOCKS
  0
BLOCK
  5
20
100
AcDbEntity
  8
0
100
AcDbBlockBegin
  2
*Model_Space
 70
0
 10
0.0
 20
0.0
 30
0.0
  3
*Model_Space
  1

  0
ENDBLK
  5
21
100
AcDbEntity
  8
0
100
AcDbBlockEnd
  0
BLOCK
  5
1C
100
AcDbEntity
 67
1
  8
0
100
AcDbBlockBegin
  2
*Paper_Space
 70
0
 10
0.0
 20
0.0
 30
0.0
  3
*Paper_Space
  1

  0
ENDBLK
  5
1D
100
AcDbEntity
 67
1
  8
0
100
AcDbBlockEnd
  0
BLOCK
  5
24
100
AcDbEntity
  8
0
100
AcDbBlockBegin
  2
*Paper_Space0
 70
0
 10
0.0
 20
0.0
 30
0.0
  3
*Paper_Space0
  1

  0
ENDBLK
  5
25
100
AcDbEntity
  8
0
100
AcDbBlockEnd
  0
ENDSEC
  0
SECTION
  2
ENTITIES
  0
LINE
  5
46
100
AcDbEntity
100
AcDbLine
  8
0
 62
256
370
-1
  6
ByLayer
 10
14.7234732983261409
 20
14.7234732983261409
 30
0.0
 11
15.6568542494923832
 21
15.6568542494923832
 31
0.0
  0
LINE
  5
47
100
AcDbEntity
100
AcDbLine
  8
0
 62
256
370
-1
  6
ByLayer
 10
15.227552005726384
 20
15.066665572881849
 30
0.0
 11
15.7445626436553638
 21
15.56776436580423
 31
0.0
  0
LINE
  5
48
100
AcDbEntity
100
AcDbLine
  8
0
 62
256
370
-1
  6
ByLayer
 10
15.2187019416740128
 20
14.9021168941558244
 30
0.0
 11
15.8309518901385609
 21
15.4772255800623739
 31
0.0
  0
LINE
  5
49
100
AcDbEntity
100
AcDbLine
  8
0
 62
256
370
-1
  6
ByLayer
 10
15.3836326030007449
 20
14.9004999740748403
 30
0.0
 11
15.9160797835173007
 21
15.3851648066756432
 31
0.0
  0
LINE
  5
4A
100
AcDbEntity
100
AcDbLine
  8
0
 62
256
370
-1
  6
ByLayer
 10
15.2800000007534607
 20
14.656522306619344
 30
0.0
 11
16.000000000856204
 21
15.2915026211583402
 31
0.0
  0
LINE
  5
4B
100
AcDbEntity
100
AcDbLine
  8
0
 62
256
370
-1
  6
ByLayer
 10
15.5353139048341831
 20
14.7284987020141394
 30
0.0
 11
16.082762532784816
 21
15.1961524197957587
 31
0.0
  0
LINE
  5
4C
100
AcDbEntity
100
AcDbLine
  8
0
 62
256
370
-1
  6
ByLayer
 10
15.5171505296759165
 20
14.5636224682697843
 30
0.0
 11
16.1644139996378939
 21
15.0990195176198725
 31
0.0
  0
LINE
  5
4D
100
AcDbEntity
100
AcDbLine
  8
0
 62
256
370
-1
  6
ByLayer
 10
15.6829481748490274
 20
14.5500000046132065
 30
0.0
 11
16.2449979943395881
 21
15.000000005069456
 31
0.0
  0
LINE
  5
4E
100
AcDbEntity
100
AcDbLine
  8
0
 62
256
370
-1
  6
ByLayer
 10
15.4707403526116138
 20
14.2376172543431743
 30
0.0
 11
16.3245553209382805
 21
14.8989794847897983
 31
0.0
  0
LINE
  5
4F
100
AcDbEntity
100
AcDbLine
  8
0
 62
256
370
-1
  6
ByLayer
 10
15.8268430567994685
 20
14.3642066852324817
 30
0.0
 11
16.4031242382411726
 21
14.7958315222334988
 31
0.0
  0
LINE
  5
50
100
AcDbEntity
100
AcDbLine
  8
0
 62
256
370
-1
  6
ByLayer
 10
15.8002629227201083
 20
14.1979221082957743
 30
0.0
 11
16.4807406957766567
 21
14.6904157634589652
 31
0.0
  0
LINE
  5
51
100
AcDbEntity
100
AcDbLine
  8
0
 62
256
370
-1
  6
ByLayer
 10
15.9672690575545779
 20
14.1701438817805503
 30
0.0
 11
16.5574385247852476
 21
14.5825756942643423
 31
0.0
  0
LINE
  5
52
100
AcDbEntity
100
AcDbLine
  8
0
 62
256
370
-1
  6
ByLayer
 10
15.8372596297533477
 20
13.9354796422865483
 30
0.0
 11
16.6332495792651684
 21
14.4721359571438057
 31
0.0
  0
LINE
  5
53
100
AcDbEntity
100
AcDbLine
  8
0
 62
256
370
-1
  6
ByLayer
 10
16.1044655814211879
 20
13.966598034240949
 30
0.0
 11
16.7082039356276759
 21
14.3588989387263197
 31
0.0
  0
LINE
  5
54
100
AcDbEntity
100
AcDbLine
  8
0
 62
256
370
-1
  6
ByLayer
 10
16.0701853358126812
 20
13.7971634135081374
 30
0.0
 11
16.7823299841482445
 21
14.242640685483952
 31
0.0
  0
LINE
  5
55
100
AcDbEntity
100
AcDbLine
  8
0
 62
256
370
-1
  6
ByLayer
 10
16.2386456836348358
 20
13.7520261238515502
 30
0.0
 11
16.8556545974009211
 21
14.1231056306060978
 31
0.0
  0
LINE
  5
56
100
AcDbEntity
100
AcDbLine
  8
0
 62
256
370
-1
  6
ByLayer
 10
15.8889727457341863
 20
13.4000000000000021
 30
0.0
 11
16.9282032302755141
 21
14.0
 31
0.0
  0
LINE
  5
57
100
AcDbEntity
100
AcDbLine
  8
0
 62
256
370
-1
  6
ByLayer
 10
16.3699999982690265
 20
13.524414848177301
 30
0.0
 11
16.9999999980978345
 21
13.8729833496453878
 31
0.0
  0
LINE
  5
58
100
AcDbEntity
100
AcDbLine
  8
0
 62
256
370
-1
  6
ByLayer
 10
16.3286056937291839
 20
13.3487833571759467
 30
0.0
 11
17.0710678142225518
 21
13.7416573823194952
 31
0.0
  0
LINE
  5
59
100
AcDbEntity
100
AcDbLine
  8
0
 62
256
370
-1
  6
ByLayer
 10
16.4986998687619462
 20
13.2810516630729083
 30
0.0
 11
17.1414284272109292
 21
13.605551278102098
 31
0.0
  0
LINE
  5
5A
100
AcDbEntity
100
AcDbLine
  8
0
 62
256
370
-1
  6
ByLayer
 10
16.3457702433936802
 20
13.0484094242833244
 30
0.0
 11
17.211102549310997
 21
13.4641016185037792
 31
0.0
  0
LINE
  5
5B
100
AcDbEntity
100
AcDbLine
  8
0
 62
256
370
-1
  6
ByLayer
 10
16.6248999975140563
 20
13.0181285630235024
 30
0.0
 11
17.2801098873780816
 21
13.3166247945313216
 31
0.0
  0
LINE
  5
5C
100
AcDbEntity
100
AcDbLine
  8
0
 62
256
370
-1
  6
ByLayer
 10
16.5768799604153649
 20
12.8302385034280846
 30
0.0
 11
17.3484692295143752
 21
13.1622776574615443
 31
0.0
  0
LINE
  5
5D
100
AcDbEntity
100
AcDbLine
  8
0
 62
256
370
-1
  6
ByLayer
 10
16.7487406250220232
 20
12.7299999956368914
 30
0.0
 11
17.4161984890351889
 21
12.9999999952053713
 31
0.0
  0
LINE
  5
5E
100
AcDbEntity
100
AcDbLine
  8
0
 62
256
370
-1
  6
ByLayer
 10
16.4730672771818085
 20
12.4465894680305773
 30
0.0
 11
17.4833147713084465
 21
12.8284271306711872
 31
0.0
  0
LINE
  5
5F
100
AcDbEntity
100
AcDbLine
  8
0
 62
256
370
-1
  6
ByLayer
 10
16.9528995734496775
 20
12.5332168327096163
 30
0.0
 11
17.5166481875131659
 21
12.7386127921185057
 31
0.0
  0
LINE
  5
60
100
AcDbEntity
100
AcDbLine
  8
0
 62
256
370
-1
  6
ByLayer
 10
16.8703493376312714
 20
12.4076336886888825
 30
0.0
 11
17.5498344369574362
 21
12.6457513062515154
 31
0.0
  0
LINE
  5
61
100
AcDbEntity
100
AcDbLine
  8
0
 62
256
370
-1
  6
ByLayer
 10
17.0141597870087082
 20
12.3582965212860785
 30
0.0
 11
17.5828754454148211
 21
12.5495097527417059
 31
0.0
  0
LINE
  5
62
100
AcDbEntity
100
AcDbLine
  8
0
 62
256
370
-1
  6
ByLayer
 10
16.8161169315874659
 20
12.1922933140724368
 30
0.0
 11
17.6157731079189581
 21
12.4494897363937831
 31
0.0
  0
LINE
  5
63
100
AcDbEntity
100
AcDbLine
  8
0
 62
256
370
-1
  6
ByLayer
 10
17.0748895753251908
 20
12.1693172882165079
 30
0.0
 11
17.6485292706218253
 21
12.34520787915298
 31
0.0
  0
LINE
  5
64
100
AcDbEntity
100
AcDbLine
  8
0
 62
256
370
-1
  6
ByLayer
 10
16.9898426299787531
 20
12.034821861522957
 30
0.0
 11
17.6811457472293974
 21
12.2360679796955552
 31
0.0
  0
LINE
  5
65
100
AcDbEntity
100
AcDbLine
  8
0
 62
256
370
-1
  6
ByLayer
 10
17.1351024871392248
 20
11.9622213172880656
 30
0.0
 11
17.7136243104207836
 21
12.1213203430141263
 31
0.0
  0
LINE
  5
66
100
AcDbEntity
100
AcDbLine
  8
0
 62
256
370
-1
  6
ByLayer
 10
16.8164506888928571
 20
11.7600000016739124
 30
0.0
 11
17.745966691923698
 21
12.0000000019021726
 31
0.0
  0
LINE
  5
67
100
AcDbEntity
100
AcDbLine
  8
0
 62
256
370
-1
  6
ByLayer
 10
17.1948114977629878
 20
11.730516544751179
 30
0.0
 11
17.7781745921762031
 21
11.8708286970283012
 31
0.0
  0
LINE
  5
68
100
AcDbEntity
100
AcDbLine
  8
0
 62
256
370
-1
  6
ByLayer
 10
17.1073272055521421
 20
11.5761662327364014
 30
0.0
 11
17.8102496764309244
 21
11.7320508052048353
 31
0.0
  0
LINE
  5
69
100
AcDbEntity
100
AcDbLine
  8
0
 62
256
370
-1
  6
ByLayer
 10
17.2540290541509052
 20
11.4625534115151382
 30
0.0
 11
17.8421935720550344
 21
11.5811388232596073
 31
0.0
  0
LINE
  5
6A
100
AcDbEntity
100
AcDbLine
  8
0
 62
256
370
-1
  6
ByLayer
 10
17.0472370473103609
 20
11.2657211379353832
 30
0.0
 11
17.8740078740897843
 21
11.4142135619389755
 31
0.0
  0
LINE
  5
6B
100
AcDbEntity
100
AcDbLine
  8
0
 62
256
370
-1
  6
ByLayer
 10
17.4164749039576527
 20
11.243503115784744
 30
0.0
 11
17.8898669191038877
 21
11.3228756550901508
 31
0.0
  0
LINE
  5
6C
100
AcDbEntity
100
AcDbLine
  8
0
 62
256
370
-1
  6
ByLayer
 10
17.3127670890439838
 20
11.1328890066530199
 30
0.0
 11
17.9056941503178173
 21
11.2247448720573217
 31
0.0
  0
LINE
  5
6D
100
AcDbEntity
100
AcDbLine
  8
0
 62
256
370
-1
  6
ByLayer
 10
17.4462003732908713
 20
11.0509519498069118
 30
0.0
 11
17.9214897588200728
 21
11.118033989156288
 31
0.0
  0
LINE
  5
6E
100
AcDbEntity
100
AcDbLine
  8
0
 62
256
370
-1
  6
ByLayer
 10
17.2229010792294979
 20
10.909999999816165
 30
0.0
 11
17.9372539332192247
 21
10.999999999797982
 31
0.0
  0
LINE
  5
6F
100
AcDbEntity
100
AcDbLine
  8
0
 62
256
370
-1
  6
ByLayer
 10
17.4758076486227125
 20
10.8140638800451896
 30
0.0
 11
17.9529868602369262
 21
10.866025404303393
 31
0.0
  0
LINE
  5
70
100
AcDbEntity
100
AcDbLine
  8
0
 62
256
370
-1
  6
ByLayer
 10
17.3710370708929425
 20
10.6540737722322021
 30
0.0
 11
17.9686887252896668
 21
10.7071067807915732
 31
0.0
  0
LINE
  5
71
100
AcDbEntity
100
AcDbLine
  8
0
 62
256
370
-1
  6
ByLayer
 10
17.6175843037876447
 20
10.584815675822874
 30
0.0
 11
17.976528066793346
 21
10.6123724354166207
 31
0.0
  0
LINE
  5
72
100
AcDbEntity
100
AcDbLine
  8
0
 62
256
370
-1
  6
ByLayer
 10
17.5052981286429841
 20
10.4700000002001623
 30
0.0
 11
17.9843597113223232
 21
10.500000000212939
 31
0.0
  0
LINE
  5
73
100
AcDbEntity
100
AcDbLine
  8
0
 62
256
370
-1
  6
ByLayer
 10
17.6325354158944023
 20
10.3376434881908672
 30
0.0
 11
17.9921836815648213
 21
10.3535533907757795
 31
0.0
  0
LINE
  5
74
100
AcDbEntity
100
AcDbLine
  8
0
 62
256
370
-1
  6
ByLayer
 10
17.7562100119811106
 20
10.2425000000908426
 30
0.0
 11
17.9960927958568142
 21
10.2500000000936531
 31
0.0
  0
LINE
  5
75
100
AcDbEntity
100
AcDbLine
  8
0
 62
256
370
-1
  6
ByLayer
 10
17.8780759369609683
 20
10.1741250455179291
 30
0.0
 11
17.9980466365085974
 21
10.1767766959572903
 31
0.0
  0
LINE
  5
76
100
AcDbEntity
100
AcDbLine
  8
0
 62
256
370
-1
  6
ByLayer
 10
15.066665572881849
 20
15.227552005726384
 30
0.0
 11
15.56776436580423
 21
15.7445626436553638
 31
0.0
  0
LINE
  5
77
100
AcDbEntity
100
AcDbLine
  8
0
 62
256
370
-1
  6
ByLayer
 10
14.9021168941558244
 20
15.2187019416740128
 30
0.0
 11
15.4772255800623739
 21
15.8309518901385609
 31
0.0
  0
LINE
  5
78
100
AcDbEntity
100
AcDbLine
  8
0
 62
256
370
-1
  6
ByLayer
 10
14.9004999740748403
 20
15.3836326030007449
 30
0.0
 11
15.3851648066756468
 21
15.9160797835173007
 31
0.0
  0
LINE
  5
79
100
AcDbEntity
100
AcDbLine
  8
0
 62
256
370
-1
  6
ByLayer
 10
14.656522306619344
 20
15.2800000007534607
 30
0.0
 11
15.2915026211583402
 21
16.000000000856204
 31
0.0
  0
LINE
  5
7A
100
AcDbEntity
100
AcDbLine
  8
0
 62
256
370
-1
  6
ByLayer
 10
14.7284987020141394
 20
15.5353139048341831
 30
0.0
 11
15.1961524197957587
 21
16.082762532784816
 31
0.0
  0
LINE
  5
7B
100
AcDbEntity
100
AcDbLine
  8
0
 62
256
370
-1
  6
ByLayer
 10
14.5636224682697843
 20
15.5171505296759165
 30
0.0
 11
15.0990195176198725
 21
16.1644139996378939
 31
0.0
  0
LINE
  5
7C
100
AcDbEntity
100
AcDbLine
  8
0
 62
256
370
-1
  6
ByLayer
 10
14.5500000046132065
 20
15.6829481748490274
 30
0.0
 11
15.000000005069456
 21
16.2449979943395881
 31
0.0
  0
LINE
  5
7D
100
AcDbEntity
100
AcDbLine
  8
0
 62
256
370
-1
  6
ByLayer
 10
14.2376172543431743
 20
15.4707403526116138
 30
0.0
 11
14.8989794847897983
 21
16.3245553209382805
 31
0.0
  0
LINE
  5
7E
100
AcDbEntity
100
AcDbLine
  8
0
 62
256
370
-1
  6
ByLayer
 10
14.3642066852324852
 20
15.8268430567994685
 30
0.0
 11
14.7958315222334988
 21
16.4031242382411726
 31
0.0
  0
LINE
  5
7F
100
AcDbEntity
100
AcDbLine
  8
0
 62
256
370
-1
  6
ByLayer
 10
14.1979221082957707
 20
15.8002629227201083
 30
0.0
 11
14.6904157634589652
 21
16.4807406957766567
 31
0.0
  0
LINE
  5
80
100
AcDbEntity
100
AcDbLine
  8
0
 62
256
370
-1
  6
ByLayer
 10
14.1701438817805503
 20
15.9672690575545779
 30
0.0
 11
14.5825756942643423
 21
16.5574385247852476
 31
0.0
  0
LINE
  5
81
100
AcDbEntity
100
AcDbLine
  8
0
 62
256
370
-1
  6
ByLayer
 10
13.9354796422865483
 20
15.8372596297533477
 30
0.0
 11
14.4721359571438057
 21
16.6332495792651684
 31
0.0
  0
LINE
  5
82
100
AcDbEntity
100
AcDbLine
  8
0
 62
256
370
-1
  6
ByLayer
 10
13.966598034240949
 20
16.1044655814211879
 30
0.0
 11
14.3588989387263197
 21
16.7082039356276759
 31
0.0
  0
LINE
  5
83
100
AcDbEntity
100
AcDbLine
  8
0
 62
256
370
-1
  6
ByLayer
 10
13.7971634135081374
 20
16.0701853358126812
 30
0.0
 11
14.242640685483952
 21
16.7823299841482445
 31
0.0
  0
LINE
  5
84
100
AcDbEntity
100
AcDbLine
  8
0
 62
256
370
-1
  6
ByLayer
 10
13.7520261238515502
 20
16.2386456836348358
 30
0.0
 11
14.1231056306060943
 21
16.8556545974009211
 31
0.0
  0
LINE
  5
85
100
AcDbEntity
100
AcDbLine
  8
0
 62
256
370
-1
  6
ByLayer
 10
13.4000000000000021
 20
15.8889727457341863
 30
0.0
 11
14.0
 21
16.9282032302755141
 31
0.0
  0
LINE
  5
86
100
AcDbEntity
100
AcDbLine
  8
0
 62
256
370
-1
  6
ByLayer
 10
13.524414848177301
 20
16.3699999982690265
 30
0.0
 11
13.8729833496453878
 21
16.9999999980978345
 31
0.0
  0
LINE
  5
87
100
AcDbEntity
100
AcDbLine
  8
0
 62
256
370
-1
  6
ByLayer
 10
13.3487833571759502
 20
16.3286056937291839
 30
0.0
 11
13.7416573823194952
 21
17.0710678142225518
 31
0.0
  0
LINE
  5
88
100
AcDbEntity
100
AcDbLine
  8
0
 62
256
370
-1
  6
ByLayer
 10
13.2810516630729119
 20
16.4986998687619462
 30
0.0
 11
13.605551278102098
 21
17.1414284272109292
 31
0.0
  0
LINE
  5
89
100
AcDbEntity
100
AcDbLine
  8
0
 62
256
370
-1
  6
ByLayer
 10
13.048409424283328
 20
16.3457702433936802
 30
0.0
 11
13.4641016185037792
 21
17.211102549310997
 31
0.0
  0
LINE
  5
8A
100
AcDbEntity
100
AcDbLine
  8
0
 62
256
370
-1
  6
ByLayer
 10
13.018128563023506
 20
16.6248999975140563
 30
0.0
 11
13.3166247945313216
 21
17.2801098873780816
 31
0.0
  0
LINE
  5
8B
100
AcDbEntity
100
AcDbLine
  8
0
 62
256
370
-1
  6
ByLayer
 10
12.8302385034280846
 20
16.5768799604153649
 30
0.0
 11
13.1622776574615443
 21
17.3484692295143752
 31
0.0
  0
LINE
  5
8C
100
AcDbEntity
100
AcDbLine
  8
0
 62
256
370
-1
  6
ByLayer
 10
12.7299999956368914
 20
16.7487406250220232
 30
0.0
 11
12.9999999952053713
 21
17.4161984890351889
 31
0.0
  0
LINE
  5
8D
100
AcDbEntity
100
AcDbLine
  8
0
 62
256
370
-1
  6
ByLayer
 10
12.4465894680305809
 20
16.4730672771818085
 30
0.0
 11
12.8284271306711872
 21
17.4833147713084465
 31
0.0
  0
LINE
  5
8E
100
AcDbEntity
100
AcDbLine
  8
0
 62
256
370
-1
  6
ByLayer
 10
12.5332168327096198
 20
16.9528995734496775
 30
0.0
 11
12.7386127921185057
 21
17.5166481875131659
 31
0.0
  0
LINE
  5
8F
100
AcDbEntity
100
AcDbLine
  8
0
 62
256
370
-1
  6
ByLayer
 10
12.4076336886888825
 20
16.8703493376312714
 30
0.0
 11
12.6457513062515154
 21
17.5498344369574362
 31
0.0
  0
LINE
  5
90
100
AcDbEntity
100
AcDbLine
  8
0
 62
256
370
-1
  6
ByLayer
 10
12.3582965212860749
 20
17.0141597870087082
 30
0.0
 11
12.5495097527417059
 21
17.5828754454148211
 31
0.0
  0
LINE
  5
91
100
AcDbEntity
100
AcDbLine
  8
0
 62
256
370
-1
  6
ByLayer
 10
12.1922933140724368
 20
16.8161169315874659
 30
0.0
 11
12.4494897363937831
 21
17.6157731079189581
 31
0.0
  0
LINE
  5
92
100
AcDbEntity
100
AcDbLine
  8
0
 62
256
370
-1
  6
ByLayer
 10
12.1693172882165115
 20
17.0748895753251908
 30
0.0
 11
12.3452078791529836
 21
17.6485292706218253
 31
0.0
  0
LINE
  5
93
100
AcDbEntity
100
AcDbLine
  8
0
 62
256
370
-1
  6
ByLayer
 10
12.0348218615229605
 20
16.9898426299787531
 30
0.0
 11
12.2360679796955552
 21
17.6811457472293974
 31
0.0
  0
LINE
  5
94
100
AcDbEntity
100
AcDbLine
  8
0
 62
256
370
-1
  6
ByLayer
 10
11.9622213172880656
 20
17.1351024871392248
 30
0.0
 11
12.1213203430141228
 21
17.7136243104207836
 31
0.0
  0
LINE
  5
95
100
AcDbEntity
100
AcDbLine
  8
0
 62
256
370
-1
  6
ByLayer
 10
11.7600000016739124
 20
16.8164506888928571
 30
0.0
 11
12.0000000019021691
 21
17.745966691923698
 31
0.0
  0
LINE
  5
96
100
AcDbEntity
100
AcDbLine
  8
0
 62
256
370
-1
  6
ByLayer
 10
11.7305165447511826
 20
17.1948114977629878
 30
0.0
 11
11.8708286970283048
 21
17.7781745921762031
 31
0.0
  0
LINE
  5
97
100
AcDbEntity
100
AcDbLine
  8
0
 62
256
370
-1
  6
ByLayer
 10
11.5761662327364014
 20
17.1073272055521421
 30
0.0
 11
11.7320508052048318
 21
17.8102496764309244
 31
0.0
  0
LINE
  5
98
100
AcDbEntity
100
AcDbLine
  8
0
 62
256
370
-1
  6
ByLayer
 10
11.4625534115151417
 20
17.2540290541509052
 30
0.0
 11
11.5811388232596038
 21
17.8421935720550344
 31
0.0
  0
LINE
  5
99
100
AcDbEntity
100
AcDbLine
  8
0
 62
256
370
-1
  6
ByLayer
 10
11.2657211379353832
 20
17.0472370473103609
 30
0.0
 11
11.414213561938972
 21
17.8740078740897843
 31
0.0
  0
LINE
  5
9A
100
AcDbEntity
100
AcDbLine
  8
0
 62
256
370
-1
  6
ByLayer
 10
11.243503115784744
 20
17.4164749039576527
 30
0.0
 11
11.3228756550901508
 21
17.8898669191038877
 31
0.0
  0
LINE
  5
9B
100
AcDbEntity
100
AcDbLine
  8
0
 62
256
370
-1
  6
ByLayer
 10
11.1328890066530235
 20
17.3127670890439838
 30
0.0
 11
11.2247448720573217
 21
17.9056941503178173
 31
0.0
  0
LINE
  5
9C
100
AcDbEntity
100
AcDbLine
  8
0
 62
256
370
-1
  6
ByLayer
 10
11.0509519498069118
 20
17.4462003732908713
 30
0.0
 11
11.118033989156288
 21
17.9214897588200728
 31
0.0
  0
LINE
  5
9D
100
AcDbEntity
100
AcDbLine
  8
0
 62
256
370
-1
  6
ByLayer
 10
10.9099999998161721
 20
17.2229010792294979
 30
0.0
 11
10.999999999797982
 21
17.9372539332192247
 31
0.0
  0
LINE
  5
9E
100
AcDbEntity
100
AcDbLine
  8
0
 62
256
370
-1
  6
ByLayer
 10
10.8140638800451896
 20
17.4758076486227125
 30
0.0
 11
10.866025404303393
 21
17.9529868602369262
 31
0.0
  0
LINE
  5
9F
100
AcDbEntity
100
AcDbLine
  8
0
 62
256
370
-1
  6
ByLayer
 10
10.6540737722322056
 20
17.3710370708929425
 30
0.0
 11
10.707106780791559
 21
17.9686887252896668
 31
0.0
  0
LINE
  5
A0
100
AcDbEntity
100
AcDbLine
  8
0
 62
256
370
-1
  6
ByLayer
 10
10.5848156758228811
 20
17.6175843037876447
 30
0.0
 11
10.6123724354166065
 21
17.976528066793346
 31
0.0
  0
LINE
  5
A1
100
AcDbEntity
100
AcDbLine
  8
0
 62
256
370
-1
  6
ByLayer
 10
10.4700000002001623
 20
17.5052981286429841
 30
0.0
 11
10.500000000212939
 21
17.9843597113223232
 31
0.0
  0
LINE
  5
A2
100
AcDbEntity
100
AcDbLine
  8
0
 62
256
370
-1
  6
ByLayer
 10
10.3376434881908708
 20
17.6325354158944023
 30
0.0
 11
10.3535533907757618
 21
17.9921836815648213
 31
0.0
  0
LINE
  5
A3
100
AcDbEntity
100
AcDbLine
  8
0
 62
256
370
-1
  6
ByLayer
 10
10.2425000000908462
 20
17.7562100119811106
 30
0.0
 11
10.2500000000936282
 21
17.9960927958568142
 31
0.0
  0
LINE
  5
A4
100
AcDbEntity
100
AcDbLine
  8
0
 62
256
370
-1
  6
ByLayer
 10
10.1741250455179539
 20
17.8780759369609683
 30
0.0
 11
10.1767766959572725
 21
17.9980466365085974
 31
0.0
  0
LINE
  5
A5
100
AcDbEntity
100
AcDbLine
  8
guidelines
 62
256
370
-1
  6
ByLayer
 10
15.227552005726384
 20
15.066665572881849
 30
0.0
 11
15.7445626436553638
 21
15.56776436580423
 31
0.0
  0
LINE
  5
A6
100
AcDbEntity
100
AcDbLine
  8
guidelines
 62
256
370
-1
  6
ByLayer
 10
15.2187019416740128
 20
14.9021168941558244
 30
0.0
 11
15.8309518901385609
 21
15.4772255800623739
 31
0.0
  0
LINE
  5
A7
100
AcDbEntity
100
AcDbLine
  8
guidelines
 62
256
370
-1
  6
ByLayer
 10
15.3836326030007449
 20
14.9004999740748403
 30
0.0
 11
15.9160797835173007
 21
15.3851648066756432
 31
0.0
  0
LINE
  5
A8
100
AcDbEntity
100
AcDbLine
  8
guidelines
 62
256
370
-1
  6
ByLayer
 10
15.5353139048341831
 20
14.7284987020141394
 30
0.0
 11
16.082762532784816
 21
15.1961524197957587
 31
0.0
  0
LINE
  5
A9
100
AcDbEntity
100
AcDbLine
  8
guidelines
 62
256
370
-1
  6
ByLayer
 10
15.5171505296759165
 20
14.5636224682697843
 30
0.0
 11
16.1644139996378939
 21
15.0990195176198725
 31
0.0
  0
LINE
  5
AA
100
AcDbEntity
100
AcDbLine
  8
guidelines
 62
256
370
-1
  6
ByLayer
 10
15.6829481748490274
 20
14.5500000046132065
 30
0.0
 11
16.2449979943395881
 21
15.000000005069456
 31
0.0
  0
LINE
  5
AB
100
AcDbEntity
100
AcDbLine
  8
guidelines
 62
256
370
-1
  6
ByLayer
 10
15.8268430567994685
 20
14.3642066852324817
 30
0.0
 11
16.4031242382411726
 21
14.7958315222334988
 31
0.0
  0
LINE
  5
AC
100
AcDbEntity
100
AcDbLine
  8
guidelines
 62
256
370
-1
  6
ByLayer
 10
15.8002629227201083
 20
14.1979221082957743
 30
0.0
 11
16.4807406957766567
 21
14.6904157634589652
 31
0.0
  0
LINE
  5
AD
100
AcDbEntity
100
AcDbLine
  8
guidelines
 62
256
370
-1
  6
ByLayer
 10
15.9672690575545779
 20
14.1701438817805503
 30
0.0
 11
16.5574385247852476
 21
14.5825756942643423
 31
0.0
  0
LINE
  5
AE
100
AcDbEntity
100
AcDbLine
  8
guidelines
 62
256
370
-1
  6
ByLayer
 10
16.1044655814211879
 20
13.966598034240949
 30
0.0
 11
16.7082039356276759
 21
14.3588989387263197
 31
0.0
  0
LINE
  5
AF
100
AcDbEntity
100
AcDbLine
  8
guidelines
 62
256
370
-1
  6
ByLayer
 10
16.0701853358126812
 20
13.7971634135081374
 30
0.0
 11
16.7823299841482445
 21
14.242640685483952
 31
0.0
  0
LINE
  5
B0
100
AcDbEntity
100
AcDbLine
  8
guidelines
 62
256
370
-1
  6
ByLayer
 10
16.2386456836348358
 20
13.7520261238515502
 30
0.0
 11
16.8556545974009211
 21
14.1231056306060978
 31
0.0
  0
LINE
  5
B1
100
AcDbEntity
100
AcDbLine
  8
guidelines
 62
256
370
-1
  6
ByLayer
 10
16.3699999982690265
 20
13.524414848177301
 30
0.0
 11
16.9999999980978345
 21
13.8729833496453878
 31
0.0
  0
LINE
  5
B2
100
AcDbEntity
100
AcDbLine
  8
guidelines
 62
256
370
-1
  6
ByLayer
 10
16.3286056937291839
 20
13.3487833571759467
 30
0.0
 11
17.0710678142225518
 21
13.7416573823194952
 31
0.0
  0
LINE
  5
B3
100
AcDbEntity
100
AcDbLine
  8
guidelines
 62
256
370
-1
  6
ByLayer
 10
16.4986998687619462
 20
13.2810516630729083
 30
0.0
 11
17.1414284272109292
 21
13.605551278102098
 31
0.0
  0
LINE
  5
B4
100
AcDbEntity
100
AcDbLine
  8
guidelines
 62
256
370
-1
  6
ByLayer
 10
16.6248999975140563
 20
13.0181285630235024
 30
0.0
 11
17.2801098873780816
 21
13.3166247945313216
 31
0.0
  0
LINE
  5
B5
100
AcDbEntity
100
AcDbLine
  8
guidelines
 62
256
370
-1
  6
ByLayer
 10
16.5768799604153649
 20
12.8302385034280846
 30
0.0
 11
17.3484692295143752
 21
13.1622776574615443
 31
0.0
  0
LINE
  5
B6
100
AcDbEntity
100
AcDbLine
  8
guidelines
 62
256
370
-1
  6
ByLayer
 10
16.7487406250220232
 20
12.7299999956368914
 30
0.0
 11
17.4161984890351889
 21
12.9999999952053713
 31
0.0
  0
LINE
  5
B7
100
AcDbEntity
100
AcDbLine
  8
guidelines
 62
256
370
-1
  6
ByLayer
 10
16.9528995734496775
 20
12.5332168327096163
 30
0.0
 11
17.5166481875131659
 21
12.7386127921185057
 31
0.0
  0
LINE
  5
B8
100
AcDbEntity
100
AcDbLine
  8
guidelines
 62
256
370
-1
  6
ByLayer
 10
16.8703493376312714
 20
12.4076336886888825
 30
0.0
 11
17.5498344369574362
 21
12.6457513062515154
 31
0.0
  0
LINE
  5
B9
100
AcDbEntity
100
AcDbLine
  8
guidelines
 62
256
370
-1
  6
ByLayer
 10
17.0141597870087082
 20
12.3582965212860785
 30
0.0
 11
17.5828754454148211
 21
12.5495097527417059
 31
0.0
  0
LINE
  5
BA
100
AcDbEntity
100
AcDbLine
  8
guidelines
 62
256
370
-1
  6
ByLayer
 10
17.0748895753251908
 20
12.1693172882165079
 30
0.0
 11
17.6485292706218253
 21
12.34520787915298
 31
0.0
  0
LINE
  5
BB
100
AcDbEntity
100
AcDbLine
  8
guidelines
 62
256
370
-1
  6
ByLayer
 10
16.9898426299787531
 20
12.034821861522957
 30
0.0
 11
17.6811457472293974
 21
12.2360679796955552
 31
0.0
  0
LINE
  5
BC
100
AcDbEntity
100
AcDbLine
  8
guidelines
 62
256
370
-1
  6
ByLayer
 10
17.1351024871392248
 20
11.9622213172880656
 30
0.0
 11
17.7136243104207836
 21
12.1213203430141263
 31
0.0
  0
LINE
  5
BD
100
AcDbEntity
100
AcDbLine
  8
guidelines
 62
256
370
-1
  6
ByLayer
 10
17.1948114977629878
 20
11.730516544751179
 30
0.0
 11
17.7781745921762031
 21
11.8708286970283012
 31
0.0
  0
LINE
  5
BE
100
AcDbEntity
100
AcDbLine
  8
guidelines
 62
256
370
-1
  6
ByLayer
 10
17.1073272055521421
 20
11.5761662327364014
 30
0.0
 11
17.8102496764309244
 21
11.7320508052048353
 31
0.0
  0
LINE
  5
BF
100
AcDbEntity
100
AcDbLine
  8
guidelines
 62
256
370
-1
  6
ByLayer
 10
17.2540290541509052
 20
11.4625534115151382
 30
0.0
 11
17.8421935720550344
 21
11.5811388232596073
 31
0.0
  0
LINE
  5
C0
100
AcDbEntity
100
AcDbLine
  8
guidelines
 62
256
370
-1
  6
ByLayer
 10
17.4164749039576527
 20
11.243503115784744
 30
0.0
 11
17.8898669191038877
 21
11.3228756550901508
 31
0.0
  0
LINE
  5
C1
100
AcDbEntity
100
AcDbLine
  8
guidelines
 62
256
370
-1
  6
ByLayer
 10
17.3127670890439838
 20
11.1328890066530199
 30
0.0
 11
17.9056941503178173
 21
11.2247448720573217
 31
0.0
  0
LINE
  5
C2
100
AcDbEntity
100
AcDbLine
  8
guidelines
 62
256
370
-1
  6
ByLayer
 10
17.4462003732908713
 20
11.0509519498069118
 30
0.0
 11
17.9214897588200728
 21
11.118033989156288
 31
0.0
  0
LINE
  5
C3
100
AcDbEntity
100
AcDbLine
  8
guidelines
 62
256
370
-1
  6
ByLayer
 10
17.4758076486227125
 20
10.8140638800451896
 30
0.0
 11
17.9529868602369262
 21
10.866025404303393
 31
0.0
  0
LINE
  5
C4
100
AcDbEntity
100
AcDbLine
  8
guidelines
 62
256
370
-1
  6
ByLayer
 10
17.6175843037876447
 20
10.584815675822874
 30
0.0
 11
17.976528066793346
 21
10.6123724354166207
 31
0.0
  0
LINE
  5
C5
100
AcDbEntity
100
AcDbLine
  8
guidelines
 62
256
370
-1
  6
ByLayer
 10
17.6325354158944023
 20
10.3376434881908672
 30
0.0
 11
17.9921836815648213
 21
10.3535533907757795
 31
0.0
  0
LINE
  5
C6
100
AcDbEntity
100
AcDbLine
  8
guidelines
 62
256
370
-1
  6
ByLayer
 10
17.7562100119811106
 20
10.2425000000908426
 30
0.0
 11
17.9960927958568142
 21
10.2500000000936531
 31
0.0
  0
LINE
  5
C7
100
AcDbEntity
100
AcDbLine
  8
guidelines
 62
256
370
-1
  6
ByLayer
 10
17.8780759369609683
 20
10.1741250455179291
 30
0.0
 11
17.9980466365085974
 21
10.1767766959572903
 31
0.0
  0
LINE
  5
C8
100
AcDbEntity
100
AcDbLine
  8
guidelines
 62
256
370
-1
  6
ByLayer
 10
15.066665572881849
 20
15.227552005726384
 30
0.0
 11
15.56776436580423
 21
15.7445626436553638
 31
0.0
  0
LINE
  5
C9
100
AcDbEntity
100
AcDbLine
  8
guidelines
 62
256
370
-1
  6
ByLayer
 10
14.9021168941558244
 20
15.2187019416740128
 30
0.0
 11
15.4772255800623739
 21
15.8309518901385609
 31
0.0
  0
LINE
  5
CA
100
AcDbEntity
100
AcDbLine
  8
guidelines
 62
256
370
-1
  6
ByLayer
 10
14.9004999740748403
 20
15.3836326030007449
 30
0.0
 11
15.3851648066756468
 21
15.9160797835173007
 31
0.0
  0
LINE
  5
CB
100
AcDbEntity
100
AcDbLine
  8
guidelines
 62
256
370
-1
  6
ByLayer
 10
14.7284987020141394
 20
15.5353139048341831
 30
0.0
 11
15.1961524197957587
 21
16.082762532784816
 31
0.0
  0
LINE
  5
CC
100
AcDbEntity
100
AcDbLine
  8
guidelines
 62
256
370
-1
  6
ByLayer
 10
14.5636224682697843
 20
15.5171505296759165
 30
0.0
 11
15.0990195176198725
 21
16.1644139996378939
 31
0.0
  0
LINE
  5
CD
100
AcDbEntity
100
AcDbLine
  8
guidelines
 62
256
370
-1
  6
ByLayer
 10
14.5500000046132065
 20
15.6829481748490274
 30
0.0
 11
15.000000005069456
 21
16.2449979943395881
 31
0.0
  0
LINE
  5
CE
100
AcDbEntity
100
AcDbLine
  8
guidelines
 62
256
370
-1
  6
ByLayer
 10
14.3642066852324852
 20
15.8268430567994685
 30
0.0
 11
14.7958315222334988
 21
16.4031242382411726
 31
0.0
  0
LINE
  5
CF
100
AcDbEntity
100
AcDbLine
  8
guidelines
 62
256
370
-1
  6
ByLayer
 10
14.1979221082957707
 20
15.8002629227201083
 30
0.0
 11
14.6904157634589652
 21
16.4807406957766567
 31
0.0
  0
LINE
  5
D0
100
AcDbEntity
100
AcDbLine
  8
guidelines
 62
256
370
-1
  6
ByLayer
 10
14.1701438817805503
 20
15.9672690575545779
 30
0.0
 11
14.5825756942643423
 21
16.5574385247852476
 31
0.0
  0
LINE
  5
D1
100
AcDbEntity
100
AcDbLine
  8
guidelines
 62
256
370
-1
  6
ByLayer
 10
13.966598034240949
 20
16.1044655814211879
 30
0.0
 11
14.3588989387263197
 21
16.7082039356276759
 31
0.0
  0
LINE
  5
D2
100
AcDbEntity
100
AcDbLine
  8
guidelines
 62
256
370
-1
  6
ByLayer
 10
13.7971634135081374
 20
16.0701853358126812
 30
0.0
 11
14.242640685483952
 21
16.7823299841482445
 31
0.0
  0
LINE
  5
D3
100
AcDbEntity
100
AcDbLine
  8
guidelines
 62
256
370
-1
  6
ByLayer
 10
13.7520261238515502
 20
16.2386456836348358
 30
0.0
 11
14.1231056306060943
 21
16.8556545974009211
 31
0.0
  0
LINE
  5
D4
100
AcDbEntity
100
AcDbLine
  8
guidelines
 62
256
370
-1
  6
ByLayer
 10
13.524414848177301
 20
16.3699999982690265
 30
0.0
 11
13.8729833496453878
 21
16.9999999980978345
 31
0.0
  0
LINE
  5
D5
100
AcDbEntity
100
AcDbLine
  8
guidelines
 62
256
370
-1
  6
ByLayer
 10
13.3487833571759502
 20
16.3286056937291839
 30
0.0
 11
13.7416573823194952
 21
17.0710678142225518
 31
0.0
  0
LINE
  5
D6
100
AcDbEntity
100
AcDbLine
  8
guidelines
 62
256
370
-1
  6
ByLayer
 10
13.2810516630729119
 20
16.4986998687619462
 30
0.0
 11
13.605551278102098
 21
17.1414284272109292
 31
0.0
  0
LINE
  5
D7
100
AcDbEntity
100
AcDbLine
  8
guidelines
 62
256
370
-1
  6
ByLayer
 10
13.018128563023506
 20
16.6248999975140563
 30
0.0
 11
13.3166247945313216
 21
17.2801098873780816
 31
0.0
  0
LINE
  5
D8
100
AcDbEntity
100
AcDbLine
  8
guidelines
 62
256
370
-1
  6
ByLayer
 10
12.8302385034280846
 20
16.5768799604153649
 30
0.0
 11
13.1622776574615443
 21
17.3484692295143752
 31
0.0
  0
LINE
  5
D9
100
AcDbEntity
100
AcDbLine
  8
guidelines
 62
256
370
-1
  6
ByLayer
 10
12.7299999956368914
 20
16.7487406250220232
 30
0.0
 11
12.9999999952053713
 21
17.4161984890351889
 31
0.0
  0
LINE
  5
DA
100
AcDbEntity
100
AcDbLine
  8
guidelines
 62
256
370
-1
  6
ByLayer
 10
12.5332168327096198
 20
16.9528995734496775
 30
0.0
 11
12.7386127921185057
 21
17.5166481875131659
 31
0.0
  0
LINE
  5
DB
100
AcDbEntity
100
AcDbLine
  8
guidelines
 62
256
370
-1
  6
ByLayer
 10
12.4076336886888825
 20
16.8703493376312714
 30
0.0
 11
12.6457513062515154
 21
17.5498344369574362
 31
0.0
  0
LINE
  5
DC
100
AcDbEntity
100
AcDbLine
  8
guidelines
 62
256
370
-1
  6
ByLayer
 10
12.3582965212860749
 20
17.0141597870087082
 30
0.0
 11
12.5495097527417059
 21
17.5828754454148211
 31
0.0
  0
LINE
  5
DD
100
AcDbEntity
100
AcDbLine
  8
guidelines
 62
256
370
-1
  6
ByLayer
 10
12.1693172882165115
 20
17.0748895753251908
 30
0.0
 11
12.3452078791529836
 21
17.6485292706218253
 31
0.0
  0
LINE
  5
DE
100
AcDbEntity
100
AcDbLine
  8
guidelines
 62
256
370
-1
  6
ByLayer
 10
12.0348218615229605
 20
16.9898426299787531
 30
0.0
 11
12.2360679796955552
 21
17.6811457472293974
 31
0.0
  0
LINE
  5
DF
100
AcDbEntity
100
AcDbLine
  8
guidelines
 62
256
370
-1
  6
ByLayer
 10
11.9622213172880656
 20
17.1351024871392248
 30
0.0
 11
12.1213203430141228
 21
17.7136243104207836
 31
0.0
  0
LINE
  5
E0
100
AcDbEntity
100
AcDbLine
  8
guidelines
 62
256
370
-1
  6
ByLayer
 10
11.7305165447511826
 20
17.1948114977629878
 30
0.0
 11
11.8708286970283048
 21
17.7781745921762031
 31
0.0
  0
LINE
  5
E1
100
AcDbEntity
100
AcDbLine
  8
guidelines
 62
256
370
-1
  6
ByLayer
 10
11.5761662327364014
 20
17.1073272055521421
 30
0.0
 11
11.7320508052048318
 21
17.8102496764309244
 31
0.0
  0
LINE
  5
E2
100
AcDbEntity
100
AcDbLine
  8
guidelines
 62
256
370
-1
  6
ByLayer
 10
11.4625534115151417
 20
17.2540290541509052
 30
0.0
 11
11.5811388232596038
 21
17.8421935720550344
 31
0.0
  0
LINE
  5
E3
100
AcDbEntity
100
AcDbLine
  8
guidelines
 62
256
370
-1
  6
ByLayer
 10
11.243503115784744
 20
17.4164749039576527
 30
0.0
 11
11.3228756550901508
 21
17.8898669191038877
 31
0.0
  0
LINE
  5
E4
100
AcDbEntity
100
AcDbLine
  8
guidelines
 62
256
370
-1
  6
ByLayer
 10
11.1328890066530235
 20
17.3127670890439838
 30
0.0
 11
11.2247448720573217
 21
17.9056941503178173
 31
0.0
  0
LINE
  5
E5
100
AcDbEntity
100
AcDbLine
  8
guidelines
 62
256
370
-1
  6
ByLayer
 10
11.0509519498069118
 20
17.4462003732908713
 30
0.0
 11
11.118033989156288
 21
17.9214897588200728
 31
0.0
  0
LINE
  5
E6
100
AcDbEntity
100
AcDbLine
  8
guidelines
 62
256
370
-1
  6
ByLayer
 10
10.8140638800451896
 20
17.4758076486227125
 30
0.0
 11
10.866025404303393
 21
17.9529868602369262
 31
0.0
  0
LINE
  5
E7
100
AcDbEntity
100
AcDbLine
  8
guidelines
 62
256
370
-1
  6
ByLayer
 10
10.5848156758228811
 20
17.6175843037876447
 30
0.0
 11
10.6123724354166065
 21
17.976528066793346
 31
0.0
  0
LINE
  5
E8
100
AcDbEntity
100
AcDbLine
  8
guidelines
 62
256
370
-1
  6
ByLayer
 10
10.2425000000908462
 20
17.7562100119811106
 30
0.0
 11
10.2500000000936282
 21
17.9960927958568142
 31
0.0
  0
LINE
  5
E9
100
AcDbEntity
100
AcDbLine
  8
guidelines
 62
256
370
-1
  6
ByLayer
 10
10.1741250455179539
 20
17.8780759369609683
 30
0.0
 11
10.1767766959572725
 21
17.9980466365085974
 31
0.0
  0
CIRCLE
  5
EA
100
AcDbEntity
100
AcDbCircle
  8
guidelines
 62
256
370
-1
  6
ByLayer
 10
10.0
 20
10.0
 30
0.0
 40
6.4800000000000004
  0
LINE
  5
EB
100
AcDbEntity
100
AcDbLine
  8
guidelines
 62
256
370
-1
  6
ByLayer
 10
14.5820519420888282
 20
14.5820519420888282
 30
0.0
 11
15.6568542494923832
 21
15.6568542494923832
 31
0.0
  0
LINE
  5
EC
100
AcDbEntity
100
AcDbLine
  8
guidelines
 62
256
370
-1
  6
ByLayer
 10
15.6118446165231646
 20
13.240000000000002
 30
0.0
 11
16.9282032302755141
 21
14.0
 31
0.0
  0
LINE
  5
ED
100
AcDbEntity
100
AcDbLine
  8
guidelines
 62
256
370
-1
  6
ByLayer
 10
16.0614849647598419
 20
12.2910259758436595
 30
0.0
 11
17.4833147713084465
 21
12.8284271306711872
 31
0.0
  0
LINE
  5
EE
100
AcDbEntity
100
AcDbLine
  8
guidelines
 62
256
370
-1
  6
ByLayer
 10
15.1228898099600109
 20
13.9681733826797334
 30
0.0
 11
16.3245553209382805
 21
14.8989794847897983
 31
0.0
  0
LINE
  5
EF
100
AcDbEntity
100
AcDbLine
  8
guidelines
 62
256
370
-1
  6
ByLayer
 10
13.9681733826797334
 20
15.1228898099600073
 30
0.0
 11
14.8989794847897983
 21
16.3245553209382805
 31
0.0
  0
LINE
  5
F0
100
AcDbEntity
100
AcDbLine
  8
guidelines
 62
256
370
-1
  6
ByLayer
 10
13.240000000000002
 20
15.6118446165231646
 30
0.0
 11
14.0
 21
16.9282032302755141
 31
0.0
  0
LINE
  5
F1
100
AcDbEntity
100
AcDbLine
  8
guidelines
 62
256
370
-1
  6
ByLayer
 10
12.2910259758436666
 20
16.0614849647598383
 30
0.0
 11
12.8284271306711872
 21
17.4833147713084465
 31
0.0
  0
LINE
  5
F2
100
AcDbEntity
100
AcDbLine
  8
guidelines
 62
256
370
-1
  6
ByLayer
 10
11.6200000015407632
 20
16.274233020458194
 30
0.0
 11
12.0000000019021691
 21
17.745966691923698
 31
0.0
  0
LINE
  5
F3
100
AcDbEntity
100
AcDbLine
  8
guidelines
 62
256
370
-1
  6
ByLayer
 10
11.1455129851705728
 20
16.377946378012723
 30
0.0
 11
11.414213561938972
 21
17.8740078740897843
 31
0.0
  0
LINE
  5
F4
100
AcDbEntity
100
AcDbLine
  8
guidelines
 62
256
370
-1
  6
ByLayer
 10
10.5727564924411972
 20
16.4546378674846245
 30
0.0
 11
10.707106780791559
 21
17.9686887252896668
 31
0.0
  0
LINE
  5
F5
100
AcDbEntity
100
AcDbLine
  8
guidelines
 62
256
370
-1
  6
ByLayer
 10
10.809999999836382
 20
16.4291756859075697
 30
0.0
 11
10.999999999797982
 21
17.9372539332192247
 31
0.0
  0
LINE
  5
F6
100
AcDbEntity
100
AcDbLine
  8
guidelines
 62
256
370
-1
  6
ByLayer
 10
11.9840866864789675
 20
16.1687762174143543
 30
0.0
 11
12.4494897363937831
 21
17.6157731079189581
 31
0.0
  0
LINE
  5
F7
100
AcDbEntity
100
AcDbLine
  8
guidelines
 62
256
370
-1
  6
ByLayer
 10
12.8059223109880627
 20
15.8409930649419053
 30
0.0
 11
13.4641016185037792
 21
17.211102549310997
 31
0.0
  0
LINE
  5
F8
100
AcDbEntity
100
AcDbLine
  8
guidelines
 62
256
370
-1
  6
ByLayer
 10
13.6224301252864812
 20
15.3729321592047867
 30
0.0
 11
14.4721359571438057
 21
16.6332495792651684
 31
0.0
  0
LINE
  5
F9
100
AcDbEntity
100
AcDbLine
  8
guidelines
 62
256
370
-1
  6
ByLayer
 10
14.2861171231382578
 20
14.8600000006935211
 30
0.0
 11
15.2915026211583402
 21
16.000000000856204
 31
0.0
  0
LINE
  5
FA
100
AcDbEntity
100
AcDbLine
  8
guidelines
 62
256
370
-1
  6
ByLayer
 10
14.8600000006935247
 20
14.2861171231382578
 30
0.0
 11
16.000000000856204
 21
15.2915026211583402
 31
0.0
  0
LINE
  5
FB
100
AcDbEntity
100
AcDbLine
  8
guidelines
 62
256
370
-1
  6
ByLayer
 10
15.3729321592047832
 20
13.6224301252864812
 30
0.0
 11
16.6332495792651684
 21
14.4721359571438057
 31
0.0
  0
LINE
  5
FC
100
AcDbEntity
100
AcDbLine
  8
guidelines
 62
256
370
-1
  6
ByLayer
 10
15.8409930649419053
 20
12.8059223109880591
 30
0.0
 11
17.211102549310997
 21
13.4641016185037792
 31
0.0
  0
LINE
  5
FD
100
AcDbEntity
100
AcDbLine
  8
guidelines
 62
256
370
-1
  6
ByLayer
 10
16.274233020458194
 20
11.6200000015407561
 30
0.0
 11
17.745966691923698
 21
12.0000000019021726
 31
0.0
  0
LINE
  5
FE
100
AcDbEntity
100
AcDbLine
  8
guidelines
 62
256
370
-1
  6
ByLayer
 10
16.377946378012723
 20
11.1455129851705692
 30
0.0
 11
17.8740078740897843
 21
11.4142135619389755
 31
0.0
  0
LINE
  5
FF
100
AcDbEntity
100
AcDbLine
  8
guidelines
 62
256
370
-1
  6
ByLayer
 10
16.4291756859075733
 20
10.8099999998363643
 30
0.0
 11
17.9372539332192247
 21
10.999999999797982
 31
0.0
  0
LINE
  5
100
100
AcDbEntity
100
AcDbLine
  8
guidelines
 62
256
370
-1
  6
ByLayer
 10
16.4546378674846281
 20
10.5727564924411723
 30
0.0
 11
17.9686887252896668
 21
10.7071067807915732
 31
0.0
  0
LINE
  5
101
100
AcDbEntity
100
AcDbLine
  8
guidelines
 62
256
370
-1
  6
ByLayer
 10
16.4673313661710807
 20
10.4050000001724783
 30
0.0
 11
17.9843597113223232
 21
10.500000000212939
 31
0.0
  0
LINE
  5
102
100
AcDbEntity
100
AcDbLine
  8
guidelines
 62
256
370
-1
  6
ByLayer
 10
16.1687762174143543
 20
11.9840866864789639
 30
0.0
 11
17.6157731079189581
 21
12.4494897363937831
 31
0.0
  0
MTEXT
  5
103
100
AcDbEntity
100
AcDbMText
  8
numbers
 62
256
370
-1
  6
ByLayer
 10
14.5820519420888282
 20
14.5820519420888282
 30
0.0
 40
0.16
 41
800.0
 71
5
 72
2
  1
1/2
  7
normal
 50
45.0
 73
0
 44
1.0
  0
MTEXT
  5
104
100
AcDbEntity
100
AcDbMText
  8
numbers
 62
256
370
-1
  6
ByLayer
 10
15.6118446165231646
 20
13.2399999999999984
 30
0.0
 40
0.16
 41
800.0
 71
5
 72
2
  1
1/4
  7
normal
 50
29.9999999999999964
 73
0
 44
1.0
  0
MTEXT
  5
105
100
AcDbEntity
100
AcDbMText
  8
numbers
 62
256
370
-1
  6
ByLayer
 10
13.240000000000002
 20
15.6118446165231646
 30
0.0
 40
0.16
 41
800.0
 71
5
 72
2
  1
3/4
  7
normal
 50
59.9999999999999929
 73
0
 44
1.0
  0
MTEXT
  5
106
100
AcDbEntity
100
AcDbMText
  8
numbers
 62
256
370
-1
  6
ByLayer
 10
16.0614849647598419
 20
12.2910259758436595
 30
0.0
 40
0.16
 41
800.0
 71
5
 72
2
  1
1/8
  7
normal
 50
20.7047999999999988
 73
0
 44
1.0
  0
MTEXT
  5
107
100
AcDbEntity
100
AcDbMText
  8
numbers
 62
256
370
-1
  6
ByLayer
 10
15.1228898099600109
 20
13.9681733826797334
 30
0.0
 40
0.16
 41
800.0
 71
5
 72
2
  1
3/8
  7
normal
 50
37.7612000000000023
 73
0
 44
1.0
  0
MTEXT
  5
108
100
AcDbEntity
100
AcDbMText
  8
numbers
 62
256
370
-1
  6
ByLayer
 10
13.9681733826797334
 20
15.1228898099600073
 30
0.0
 40
0.16
 41
800.0
 71
5
 72
2
  1
5/8
  7
normal
 50
52.2387999999999977
 73
0
 44
1.0
  0
MTEXT
  5
109
100
AcDbEntity
100
AcDbMText
  8
numbers
 62
256
370
-1
  6
ByLayer
 10
12.2910259758436666
 20
16.0614849647598383
 30
0.0
 40
0.16
 41
800.0
 71
5
 72
2
  1
7/8
  7
normal
 50
69.2951888999999994
 73
0
 44
1.0
  0
CIRCLE
  5
10A
100
AcDbEntity
100
AcDbCircle
  8
guidelines
 62
256
370
-1
  6
ByLayer
 10
10.0
 20
10.0
 30
0.0
 40
6.7999999999999998
  0
MTEXT
  5
10B
100
AcDbEntity
100
AcDbMText
  8
numbers
 62
256
370
-1
  6
ByLayer
 10
16.5840716881351398
 20
11.7000000016168428
 30
0.0
 40
0.12
 41
800.0
 71
5
 72
2
  1
1/16
  7
normal
 50
14.4774999999999991
 73
0
 44
1.0
  0
MTEXT
  5
10C
100
AcDbEntity
100
AcDbMText
  8
numbers
 62
256
370
-1
  6
ByLayer
 10
16.1294371669143466
 20
12.9444863757282107
 30
0.0
 40
0.12
 41
800.0
 71
5
 72
2
  1
3/16
  7
normal
 50
25.6589063000000017
 73
0
 44
1.0
  0
MTEXT
  5
10D
100
AcDbEntity
100
AcDbMText
  8
numbers
 62
256
370
-1
  6
ByLayer
 10
15.6382621423753889
 20
13.8013155635722313
 30
0.0
 40
0.12
 41
800.0
 71
5
 72
2
  1
5/16
  7
normal
 50
33.9878435999999979
 73
0
 44
1.0
  0
MTEXT
  5
10E
100
AcDbEntity
100
AcDbMText
  8
numbers
 62
256
370
-1
  6
ByLayer
 10
15.1000000007277713
 20
14.4977772279845887
 30
0.0
 40
0.12
 41
800.0
 71
5
 72
2
  1
7/16
  7
normal
 50
41.4095999999999975
 73
0
 44
1.0
  0
MTEXT
  5
10F
100
AcDbEntity
100
AcDbMText
  8
numbers
 62
256
370
-1
  6
ByLayer
 10
14.4977772279845887
 20
15.1000000007277677
 30
0.0
 40
0.12
 41
800.0
 71
5
 72
2
  1
9/16
  7
normal
 50
48.5904000000000025
 73
0
 44
1.0
  0
MTEXT
  5
110
100
AcDbEntity
100
AcDbMText
  8
numbers
 62
256
370
-1
  6
ByLayer
 10
13.8013155635722313
 20
15.6382621423753889
 30
0.0
 40
0.12
 41
800.0
 71
5
 72
2
  1
11/16
  7
normal
 50
56.0121564000000021
 73
0
 44
1.0
  0
MTEXT
  5
111
100
AcDbEntity
100
AcDbMText
  8
numbers
 62
256
370
-1
  6
ByLayer
 10
12.9444863757282143
 20
16.129437166914343
 30
0.0
 40
0.12
 41
800.0
 71
5
 72
2
  1
13/16
  7
normal
 50
64.3410937000000018
 73
0
 44
1.0
  0
MTEXT
  5
112
100
AcDbEntity
100
AcDbMText
  8
numbers
 62
256
370
-1
  6
ByLayer
 10
11.7000000016168464
 20
16.5840716881351398
 30
0.0
 40
0.12
 41
800.0
 71
5
 72
2
  1
15/16
  7
normal
 50
75.5224999999999937
 73
0
 44
1.0
  0
MTEXT
  5
113
100
AcDbEntity
100
AcDbMText
  8
numbers
 62
256
370
-1
  6
ByLayer
 10
16.6929066929763152
 20
11.2020815276481294
 30
0.0
 40
0.12
 41
800.0
 71
5
 72
2
  1
1/32
  7
normal
 50
10.1821000000000002
 73
0
 44
1.0
  0
MTEXT
  5
114
100
AcDbEntity
100
AcDbMText
  8
numbers
 62
256
370
-1
  6
ByLayer
 10
16.4734071417311121
 20
12.0820662759347144
 30
0.0
 40
0.12
 41
800.0
 71
5
 72
2
  1
3/32
  7
normal
 50
17.8295437999999997
 73
0
 44
1.0
  0
MTEXT
  5
115
100
AcDbEntity
100
AcDbMText
  8
numbers
 62
256
370
-1
  6
ByLayer
 10
11.2020815276481294
 20
16.6929066929763152
 30
0.0
 40
0.12
 41
800.0
 71
5
 72
2
  1
31/32
  7
normal
 50
79.8178999999999945
 73
0
 44
1.0
  0
MTEXT
  5
116
100
AcDbEntity
100
AcDbMText
  8
numbers
 62
256
370
-1
  6
ByLayer
 10
12.0820662759347179
 20
16.4734071417311085
 30
0.0
 40
0.12
 41
800.0
 71
5
 72
2
  1
29/32
  7
normal
 50
72.1705000000000041
 73
0
 44
1.0
  0
MTEXT
  5
117
100
AcDbEntity
100
AcDbMText
  8
numbers
 62
256
370
-1
  6
ByLayer
 10
16.7466658432363396
 20
10.8499999998282846
 30
0.0
 40
0.12
 41
800.0
 71
5
 72
2
  1
1/64
  7
normal
 50
7.1807557800000001
 73
0
 44
1.0
  0
MTEXT
  5
118
100
AcDbEntity
100
AcDbMText
  8
numbers
 62
256
370
-1
  6
ByLayer
 10
10.8499999998282988
 20
16.7466658432363396
 30
0.0
 40
0.12
 41
800.0
 71
5
 72
2
  1
63/64
  7
normal
 50
82.8192442
 73
0
 44
1.0
  0
MTEXT
  5
119
100
AcDbEntity
100
AcDbMText
  8
numbers
 62
256
370
-1
  6
ByLayer
 10
16.7867057546239735
 20
10.4250000001809973
 30
0.0
 40
0.12
 41
800.0
 71
5
 72
2
  1
1/256
  7
normal
 50
3.5833200000000005
 73
0
 44
1.0
  0
LINE
  5
11A
100
AcDbEntity
100
AcDbLine
  8
0
 62
256
370
-1
  6
ByLayer
 10
5.2765267016738626
 20
14.7234732983261374
 30
0.0
 11
4.3431457505076168
 21
15.6568542494923761
 31
0.0
  0
LINE
  5
11B
100
AcDbEntity
100
AcDbLine
  8
0
 62
256
370
-1
  6
ByLayer
 10
4.7724479942736195
 20
15.0666655728818455
 30
0.0
 11
4.2554373563446397
 21
15.5677643658042228
 31
0.0
  0
LINE
  5
11C
100
AcDbEntity
100
AcDbLine
  8
0
 62
256
370
-1
  6
ByLayer
 10
4.7812980583259908
 20
14.9021168941558209
 30
0.0
 11
4.1690481098614427
 21
15.4772255800623704
 31
0.0
  0
LINE
  5
11D
100
AcDbEntity
100
AcDbLine
  8
0
 62
256
370
-1
  6
ByLayer
 10
4.6163673969992587
 20
14.9004999740748332
 30
0.0
 11
4.0839202164827029
 21
15.3851648066756397
 31
0.0
  0
LINE
  5
11E
100
AcDbEntity
100
AcDbLine
  8
0
 62
256
370
-1
  6
ByLayer
 10
4.7199999992465429
 20
14.6565223066193404
 30
0.0
 11
3.9999999991437996
 21
15.2915026211583367
 31
0.0
  0
LINE
  5
11F
100
AcDbEntity
100
AcDbLine
  8
0
 62
256
370
-1
  6
ByLayer
 10
4.4646860951658205
 20
14.7284987020141358
 30
0.0
 11
3.9172374672151875
 21
15.1961524197957552
 31
0.0
  0
LINE
  5
120
100
AcDbEntity
100
AcDbLine
  8
0
 62
256
370
-1
  6
ByLayer
 10
4.4828494703240871
 20
14.5636224682697772
 30
0.0
 11
3.8355860003621096
 21
15.0990195176198689
 31
0.0
  0
LINE
  5
121
100
AcDbEntity
100
AcDbLine
  8
0
 62
256
370
-1
  6
ByLayer
 10
4.3170518251509762
 20
14.550000004613203
 30
0.0
 11
3.7550020056604154
 21
15.0000000050694489
 31
0.0
  0
LINE
  5
122
100
AcDbEntity
100
AcDbLine
  8
0
 62
256
370
-1
  6
ByLayer
 10
4.5292596473883897
 20
14.2376172543431707
 30
0.0
 11
3.675444679061723
 21
14.8989794847897947
 31
0.0
  0
LINE
  5
123
100
AcDbEntity
100
AcDbLine
  8
0
 62
256
370
-1
  6
ByLayer
 10
4.1731569432005351
 20
14.3642066852324781
 30
0.0
 11
3.5968757617588309
 21
14.7958315222334917
 31
0.0
  0
LINE
  5
124
100
AcDbEntity
100
AcDbLine
  8
0
 62
256
370
-1
  6
ByLayer
 10
4.1997370772798952
 20
14.1979221082957672
 30
0.0
 11
3.5192593042233469
 21
14.6904157634589616
 31
0.0
  0
LINE
  5
125
100
AcDbEntity
100
AcDbLine
  8
0
 62
256
370
-1
  6
ByLayer
 10
4.0327309424454256
 20
14.1701438817805467
 30
0.0
 11
3.442561475214756
 21
14.5825756942643388
 31
0.0
  0
LINE
  5
126
100
AcDbEntity
100
AcDbLine
  8
0
 62
256
370
-1
  6
ByLayer
 10
4.1627403702466559
 20
13.9354796422865448
 30
0.0
 11
3.3667504207348351
 21
14.4721359571438022
 31
0.0
  0
LINE
  5
127
100
AcDbEntity
100
AcDbLine
  8
0
 62
256
370
-1
  6
ByLayer
 10
3.8955344185788157
 20
13.9665980342409455
 30
0.0
 11
3.2917960643723276
 21
14.3588989387263126
 31
0.0
  0
LINE
  5
128
100
AcDbEntity
100
AcDbLine
  8
0
 62
256
370
-1
  6
ByLayer
 10
3.9298146641873224
 20
13.7971634135081302
 30
0.0
 11
3.217670015851759
 21
14.2426406854839449
 31
0.0
  0
LINE
  5
129
100
AcDbEntity
100
AcDbLine
  8
0
 62
256
370
-1
  6
ByLayer
 10
3.7613543163651677
 20
13.7520261238515431
 30
0.0
 11
3.1443454025990825
 21
14.1231056306060907
 31
0.0
  0
LINE
  5
12A
100
AcDbEntity
100
AcDbLine
  8
0
 62
256
370
-1
  6
ByLayer
 10
4.1110272542658173
 20
13.3999999999999986
 30
0.0
 11
3.0717967697244895
 21
13.9999999999999929
 31
0.0
  0
LINE
  5
12B
100
AcDbEntity
100
AcDbLine
  8
0
 62
256
370
-1
  6
ByLayer
 10
3.630000001730977
 20
13.5244148481772974
 30
0.0
 11
3.0000000019021726
 21
13.8729833496453843
 31
0.0
  0
LINE
  5
12C
100
AcDbEntity
100
AcDbLine
  8
0
 62
256
370
-1
  6
ByLayer
 10
3.6713943062708196
 20
13.3487833571759431
 30
0.0
 11
2.9289321857774553
 21
13.7416573823194881
 31
0.0
  0
LINE
  5
12D
100
AcDbEntity
100
AcDbLine
  8
0
 62
256
370
-1
  6
ByLayer
 10
3.5013001312380574
 20
13.2810516630729047
 30
0.0
 11
2.8585715727890744
 21
13.6055512781020909
 31
0.0
  0
LINE
  5
12E
100
AcDbEntity
100
AcDbLine
  8
0
 62
256
370
-1
  6
ByLayer
 10
3.6542297566063269
 20
13.0484094242833208
 30
0.0
 11
2.7888974506890065
 21
13.4641016185037756
 31
0.0
  0
LINE
  5
12F
100
AcDbEntity
100
AcDbLine
  8
0
 62
256
370
-1
  6
ByLayer
 10
3.3751000024859472
 20
13.0181285630234953
 30
0.0
 11
2.7198901126219219
 21
13.3166247945313145
 31
0.0
  0
LINE
  5
130
100
AcDbEntity
100
AcDbLine
  8
0
 62
256
370
-1
  6
ByLayer
 10
3.4231200395846386
 20
12.8302385034280775
 30
0.0
 11
2.6515307704856284
 21
13.1622776574615408
 31
0.0
  0
LINE
  5
131
100
AcDbEntity
100
AcDbLine
  8
0
 62
256
370
-1
  6
ByLayer
 10
3.2512593749779839
 20
12.7299999956368879
 30
0.0
 11
2.5838015109648182
 21
12.9999999952053678
 31
0.0
  0
LINE
  5
132
100
AcDbEntity
100
AcDbLine
  8
0
 62
256
370
-1
  6
ByLayer
 10
3.5269327228181986
 20
12.4465894680305773
 30
0.0
 11
2.5166852286915571
 21
12.8284271306711801
 31
0.0
  0
LINE
  5
133
100
AcDbEntity
100
AcDbLine
  8
0
 62
256
370
-1
  6
ByLayer
 10
3.0471004265503296
 20
12.5332168327096127
 30
0.0
 11
2.4833518124868377
 21
12.7386127921184951
 31
0.0
  0
LINE
  5
134
100
AcDbEntity
100
AcDbLine
  8
0
 62
256
370
-1
  6
ByLayer
 10
3.1296506623687321
 20
12.4076336886888789
 30
0.0
 11
2.4501655630425674
 21
12.6457513062515048
 31
0.0
  0
LINE
  5
135
100
AcDbEntity
100
AcDbLine
  8
0
 62
256
370
-1
  6
ByLayer
 10
2.9858402129912989
 20
12.3582965212860714
 30
0.0
 11
2.417124554585186
 21
12.5495097527416988
 31
0.0
  0
LINE
  5
136
100
AcDbEntity
100
AcDbLine
  8
0
 62
256
370
-1
  6
ByLayer
 10
3.1838830684125412
 20
12.1922933140724332
 30
0.0
 11
2.3842268920810454
 21
12.449489736393776
 31
0.0
  0
LINE
  5
137
100
AcDbEntity
100
AcDbLine
  8
0
 62
256
370
-1
  6
ByLayer
 10
2.9251104246748127
 20
12.1693172882165044
 30
0.0
 11
2.3514707293781782
 21
12.3452078791529765
 31
0.0
  0
LINE
  5
138
100
AcDbEntity
100
AcDbLine
  8
0
 62
256
370
-1
  6
ByLayer
 10
3.0101573700212541
 20
12.0348218615229534
 30
0.0
 11
2.3188542527706097
 21
12.2360679796955516
 31
0.0
  0
LINE
  5
139
100
AcDbEntity
100
AcDbLine
  8
0
 62
256
370
-1
  6
ByLayer
 10
2.8648975128607823
 20
11.962221317288062
 30
0.0
 11
2.2863756895792235
 21
12.1213203430141157
 31
0.0
  0
LINE
  5
13A
100
AcDbEntity
100
AcDbLine
  8
0
 62
256
370
-1
  6
ByLayer
 10
3.18354931110715
 20
11.7600000016739088
 30
0.0
 11
2.2540333080763091
 21
12.0000000019021655
 31
0.0
  0
LINE
  5
13B
100
AcDbEntity
100
AcDbLine
  8
0
 62
256
370
-1
  6
ByLayer
 10
2.8051885022370193
 20
11.7305165447511754
 30
0.0
 11
2.221825407823804
 21
11.8708286970282977
 31
0.0
  0
LINE
  5
13C
100
AcDbEntity
100
AcDbLine
  8
0
 62
256
370
-1
  6
ByLayer
 10
2.892672794447865
 20
11.5761662327363979
 30
0.0
 11
2.1897503235690827
 21
11.7320508052048282
 31
0.0
  0
LINE
  5
13D
100
AcDbEntity
100
AcDbLine
  8
0
 62
256
370
-1
  6
ByLayer
 10
2.745970945849102
 20
11.4625534115151346
 30
0.0
 11
2.1578064279449691
 21
11.5811388232595966
 31
0.0
  0
LINE
  5
13E
100
AcDbEntity
100
AcDbLine
  8
0
 62
256
370
-1
  6
ByLayer
 10
2.9527629526896462
 20
11.2657211379353797
 30
0.0
 11
2.1259921259102228
 21
11.414213561938972
 31
0.0
  0
LINE
  5
13F
100
AcDbEntity
100
AcDbLine
  8
0
 62
256
370
-1
  6
ByLayer
 10
2.5835250960423544
 20
11.2435031157847369
 30
0.0
 11
2.1101330808961194
 21
11.3228756550901402
 31
0.0
  0
LINE
  5
140
100
AcDbEntity
100
AcDbLine
  8
0
 62
256
370
-1
  6
ByLayer
 10
2.6872329109560233
 20
11.1328890066530164
 30
0.0
 11
2.0943058496821898
 21
11.2247448720573146
 31
0.0
  0
LINE
  5
141
100
AcDbEntity
100
AcDbLine
  8
0
 62
256
370
-1
  6
ByLayer
 10
2.5537996267091359
 20
11.0509519498069047
 30
0.0
 11
2.0785102411799343
 21
11.1180339891562809
 31
0.0
  0
LINE
  5
142
100
AcDbEntity
100
AcDbLine
  8
0
 62
256
370
-1
  6
ByLayer
 10
2.7770989207705092
 20
10.909999999816165
 30
0.0
 11
2.0627460667807824
 21
10.9999999997979749
 31
0.0
  0
LINE
  5
143
100
AcDbEntity
100
AcDbLine
  8
0
 62
256
370
-1
  6
ByLayer
 10
2.5241923513772946
 20
10.814063880045186
 30
0.0
 11
2.0470131397630809
 21
10.8660254043033895
 31
0.0
  0
LINE
  5
144
100
AcDbEntity
100
AcDbLine
  8
0
 62
256
370
-1
  6
ByLayer
 10
2.6289629291070646
 20
10.6540737722321985
 30
0.0
 11
2.0313112747103403
 21
10.707106780791559
 31
0.0
  0
LINE
  5
145
100
AcDbEntity
100
AcDbLine
  8
0
 62
256
370
-1
  6
ByLayer
 10
2.3824156962123624
 20
10.584815675822874
 30
0.0
 11
2.0234719332066611
 21
10.6123724354165994
 31
0.0
  0
LINE
  5
146
100
AcDbEntity
100
AcDbLine
  8
0
 62
256
370
-1
  6
ByLayer
 10
2.494701871357023
 20
10.4700000002001552
 30
0.0
 11
2.0156402886776839
 21
10.5000000002129319
 31
0.0
  0
LINE
  5
147
100
AcDbEntity
100
AcDbLine
  8
0
 62
256
370
-1
  6
ByLayer
 10
2.3674645841056048
 20
10.3376434881908636
 30
0.0
 11
2.0078163184351858
 21
10.3535533907757547
 31
0.0
  0
LINE
  5
148
100
AcDbEntity
100
AcDbLine
  8
0
 62
256
370
-1
  6
ByLayer
 10
2.2437899880188965
 20
10.2425000000908426
 30
0.0
 11
2.0039072041431929
 21
10.2500000000936247
 31
0.0
  0
LINE
  5
149
100
AcDbEntity
100
AcDbLine
  8
0
 62
256
370
-1
  6
ByLayer
 10
2.1219240630390388
 20
10.1741250455179468
 30
0.0
 11
2.0019533634914097
 21
10.176776695957269
 31
0.0
  0
LINE
  5
14A
100
AcDbEntity
100
AcDbLine
  8
0
 62
256
370
-1
  6
ByLayer
 10
4.9333344271181545
 20
15.2275520057263805
 30
0.0
 11
4.4322356341957736
 21
15.7445626436553567
 31
0.0
  0
LINE
  5
14B
100
AcDbEntity
100
AcDbLine
  8
0
 62
256
370
-1
  6
ByLayer
 10
5.0978831058441756
 20
15.2187019416740057
 30
0.0
 11
4.5227744199376296
 21
15.8309518901385538
 31
0.0
  0
LINE
  5
14C
100
AcDbEntity
100
AcDbLine
  8
0
 62
256
370
-1
  6
ByLayer
 10
5.0995000259251633
 20
15.3836326030007413
 30
0.0
 11
4.6148351933243568
 21
15.9160797835172971
 31
0.0
  0
LINE
  5
14D
100
AcDbEntity
100
AcDbLine
  8
0
 62
256
370
-1
  6
ByLayer
 10
5.3434776933806596
 20
15.2800000007534571
 30
0.0
 11
4.7084973788416633
 21
16.0000000008561969
 31
0.0
  0
LINE
  5
14E
100
AcDbEntity
100
AcDbLine
  8
0
 62
256
370
-1
  6
ByLayer
 10
5.2715012979858642
 20
15.535313904834176
 30
0.0
 11
4.8038475802042413
 21
16.0827625327848125
 31
0.0
  0
LINE
  5
14F
100
AcDbEntity
100
AcDbLine
  8
0
 62
256
370
-1
  6
ByLayer
 10
5.4363775317302192
 20
15.5171505296759129
 30
0.0
 11
4.9009804823801311
 21
16.1644139996378904
 31
0.0
  0
LINE
  5
150
100
AcDbEntity
100
AcDbLine
  8
0
 62
256
370
-1
  6
ByLayer
 10
5.449999995386797
 20
15.6829481748490238
 30
0.0
 11
4.9999999949305476
 21
16.244997994339581
 31
0.0
  0
LINE
  5
151
100
AcDbEntity
100
AcDbLine
  8
0
 62
256
370
-1
  6
ByLayer
 10
5.7623827456568293
 20
15.4707403526116103
 30
0.0
 11
5.1010205152102053
 21
16.324555320938277
 31
0.0
  0
LINE
  5
152
100
AcDbEntity
100
AcDbLine
  8
0
 62
256
370
-1
  6
ByLayer
 10
5.6357933147675183
 20
15.8268430567994649
 30
0.0
 11
5.2041684777665047
 21
16.4031242382411691
 31
0.0
  0
LINE
  5
153
100
AcDbEntity
100
AcDbLine
  8
0
 62
256
370
-1
  6
ByLayer
 10
5.8020778917042293
 20
15.8002629227201048
 30
0.0
 11
5.3095842365410384
 21
16.4807406957766531
 31
0.0
  0
LINE
  5
154
100
AcDbEntity
100
AcDbLine
  8
0
 62
256
370
-1
  6
ByLayer
 10
5.8298561182194533
 20
15.9672690575545744
 30
0.0
 11
5.4174243057356612
 21
16.557438524785244
 31
0.0
  0
LINE
  5
155
100
AcDbEntity
100
AcDbLine
  8
0
 62
256
370
-1
  6
ByLayer
 10
6.0645203577134552
 20
15.8372596297533441
 30
0.0
 11
5.5278640428561943
 21
16.6332495792651613
 31
0.0
  0
LINE
  5
156
100
AcDbEntity
100
AcDbLine
  8
0
 62
256
370
-1
  6
ByLayer
 10
6.0334019657590545
 20
16.1044655814211843
 30
0.0
 11
5.6411010612736838
 21
16.7082039356276724
 31
0.0
  0
LINE
  5
157
100
AcDbEntity
100
AcDbLine
  8
0
 62
256
370
-1
  6
ByLayer
 10
6.2028365864918662
 20
16.0701853358126776
 30
0.0
 11
5.7573593145160515
 21
16.782329984148241
 31
0.0
  0
LINE
  5
158
100
AcDbEntity
100
AcDbLine
  8
0
 62
256
370
-1
  6
ByLayer
 10
6.2479738761484498
 20
16.2386456836348323
 30
0.0
 11
5.8768943693939093
 21
16.8556545974009175
 31
0.0
  0
LINE
  5
159
100
AcDbEntity
100
AcDbLine
  8
0
 62
256
370
-1
  6
ByLayer
 10
6.6000000000000014
 20
15.8889727457341827
 30
0.0
 11
6.0
 21
16.9282032302755105
 31
0.0
  0
LINE
  5
15A
100
AcDbEntity
100
AcDbLine
  8
0
 62
256
370
-1
  6
ByLayer
 10
6.475585151822699
 20
16.369999998269023
 30
0.0
 11
6.1270166503546122
 21
16.9999999980978309
 31
0.0
  0
LINE
  5
15B
100
AcDbEntity
100
AcDbLine
  8
0
 62
256
370
-1
  6
ByLayer
 10
6.6512166428240533
 20
16.3286056937291804
 30
0.0
 11
6.2583426176805048
 21
17.0710678142225483
 31
0.0
  0
LINE
  5
15C
100
AcDbEntity
100
AcDbLine
  8
0
 62
256
370
-1
  6
ByLayer
 10
6.7189483369270917
 20
16.4986998687619426
 30
0.0
 11
6.394448721897902
 21
17.1414284272109256
 31
0.0
  0
LINE
  5
15D
100
AcDbEntity
100
AcDbLine
  8
0
 62
256
370
-1
  6
ByLayer
 10
6.9515905757166756
 20
16.3457702433936767
 30
0.0
 11
6.5358983814962244
 21
17.2111025493109935
 31
0.0
  0
LINE
  5
15E
100
AcDbEntity
100
AcDbLine
  8
0
 62
256
370
-1
  6
ByLayer
 10
6.9818714369764976
 20
16.6248999975140528
 30
0.0
 11
6.6833752054686784
 21
17.2801098873780781
 31
0.0
  0
LINE
  5
15F
100
AcDbEntity
100
AcDbLine
  8
0
 62
256
370
-1
  6
ByLayer
 10
7.169761496571919
 20
16.5768799604153614
 30
0.0
 11
6.8377223425384557
 21
17.3484692295143716
 31
0.0
  0
LINE
  5
160
100
AcDbEntity
100
AcDbLine
  8
0
 62
256
370
-1
  6
ByLayer
 10
7.2700000043631121
 20
16.7487406250220197
 30
0.0
 11
7.0000000047946287
 21
17.4161984890351853
 31
0.0
  0
LINE
  5
161
100
AcDbEntity
100
AcDbLine
  8
0
 62
256
370
-1
  6
ByLayer
 10
7.5534105319694191
 20
16.473067277181805
 30
0.0
 11
7.1715728693288128
 21
17.4833147713084429
 31
0.0
  0
LINE
  5
162
100
AcDbEntity
100
AcDbLine
  8
0
 62
256
370
-1
  6
ByLayer
 10
7.4667831672903802
 20
16.9528995734496739
 30
0.0
 11
7.2613872078814943
 21
17.5166481875131623
 31
0.0
  0
LINE
  5
163
100
AcDbEntity
100
AcDbLine
  8
0
 62
256
370
-1
  6
ByLayer
 10
7.5923663113111175
 20
16.8703493376312679
 30
0.0
 11
7.3542486937484846
 21
17.5498344369574326
 31
0.0
  0
LINE
  5
164
100
AcDbEntity
100
AcDbLine
  8
0
 62
256
370
-1
  6
ByLayer
 10
7.6417034787139286
 20
17.0141597870087047
 30
0.0
 11
7.4504902472582941
 21
17.5828754454148175
 31
0.0
  0
LINE
  5
165
100
AcDbEntity
100
AcDbLine
  8
0
 62
256
370
-1
  6
ByLayer
 10
7.8077066859275668
 20
16.8161169315874623
 30
0.0
 11
7.5505102636062169
 21
17.6157731079189546
 31
0.0
  0
LINE
  5
166
100
AcDbEntity
100
AcDbLine
  8
0
 62
256
370
-1
  6
ByLayer
 10
7.8306827117834885
 20
17.0748895753251873
 30
0.0
 11
7.65479212084702
 21
17.6485292706218218
 31
0.0
  0
LINE
  5
167
100
AcDbEntity
100
AcDbLine
  8
0
 62
256
370
-1
  6
ByLayer
 10
7.965178138477043
 20
16.9898426299787495
 30
0.0
 11
7.7639320203044448
 21
17.6811457472293938
 31
0.0
  0
LINE
  5
168
100
AcDbEntity
100
AcDbLine
  8
0
 62
256
370
-1
  6
ByLayer
 10
8.037778682711938
 20
17.1351024871392212
 30
0.0
 11
7.8786796569858772
 21
17.71362431042078
 31
0.0
  0
LINE
  5
169
100
AcDbEntity
100
AcDbLine
  8
0
 62
256
370
-1
  6
ByLayer
 10
8.2399999983260912
 20
16.8164506888928535
 30
0.0
 11
7.9999999980978309
 21
17.7459666919236945
 31
0.0
  0
LINE
  5
16A
100
AcDbEntity
100
AcDbLine
  8
0
 62
256
370
-1
  6
ByLayer
 10
8.2694834552488174
 20
17.1948114977629842
 30
0.0
 11
8.1291713029716952
 21
17.7781745921761996
 31
0.0
  0
LINE
  5
16B
100
AcDbEntity
100
AcDbLine
  8
0
 62
256
370
-1
  6
ByLayer
 10
8.4238337672636021
 20
17.1073272055521386
 30
0.0
 11
8.2679491947951682
 21
17.8102496764309208
 31
0.0
  0
LINE
  5
16C
100
AcDbEntity
100
AcDbLine
  8
0
 62
256
370
-1
  6
ByLayer
 10
8.5374465884848618
 20
17.2540290541509016
 30
0.0
 11
8.4188611767403962
 21
17.8421935720550309
 31
0.0
  0
LINE
  5
16D
100
AcDbEntity
100
AcDbLine
  8
0
 62
256
370
-1
  6
ByLayer
 10
8.7342788620646203
 20
17.0472370473103574
 30
0.0
 11
8.585786438061028
 21
17.8740078740897808
 31
0.0
  0
LINE
  5
16E
100
AcDbEntity
100
AcDbLine
  8
0
 62
256
370
-1
  6
ByLayer
 10
8.756496884215256
 20
17.4164749039576492
 30
0.0
 11
8.6771243449098492
 21
17.8898669191038842
 31
0.0
  0
LINE
  5
16F
100
AcDbEntity
100
AcDbLine
  8
0
 62
256
370
-1
  6
ByLayer
 10
8.8671109933469765
 20
17.3127670890439838
 30
0.0
 11
8.7752551279426783
 21
17.9056941503178138
 31
0.0
  0
LINE
  5
170
100
AcDbEntity
100
AcDbLine
  8
0
 62
256
370
-1
  6
ByLayer
 10
8.9490480501930918
 20
17.4462003732908713
 30
0.0
 11
8.881966010843712
 21
17.9214897588200692
 31
0.0
  0
LINE
  5
171
100
AcDbEntity
100
AcDbLine
  8
0
 62
256
370
-1
  6
ByLayer
 10
9.0900000001838315
 20
17.2229010792294943
 30
0.0
 11
9.000000000202018
 21
17.9372539332192211
 31
0.0
  0
LINE
  5
172
100
AcDbEntity
100
AcDbLine
  8
0
 62
256
370
-1
  6
ByLayer
 10
9.1859361199548104
 20
17.475807648622709
 30
0.0
 11
9.133974595696607
 21
17.9529868602369262
 31
0.0
  0
LINE
  5
173
100
AcDbEntity
100
AcDbLine
  8
0
 62
256
370
-1
  6
ByLayer
 10
9.3459262277677979
 20
17.3710370708929389
 30
0.0
 11
9.292893219208441
 21
17.9686887252896668
 31
0.0
  0
LINE
  5
174
100
AcDbEntity
100
AcDbLine
  8
0
 62
256
370
-1
  6
ByLayer
 10
9.4151843241771189
 20
17.6175843037876412
 30
0.0
 11
9.3876275645833971
 21
17.976528066793346
 31
0.0
  0
LINE
  5
175
100
AcDbEntity
100
AcDbLine
  8
0
 62
256
370
-1
  6
ByLayer
 10
9.5299999997998377
 20
17.5052981286429841
 30
0.0
 11
9.499999999787061
 21
17.9843597113223232
 31
0.0
  0
LINE
  5
176
100
AcDbEntity
100
AcDbLine
  8
0
 62
256
370
-1
  6
ByLayer
 10
9.6623565118091292
 20
17.6325354158944023
 30
0.0
 11
9.6464466092242382
 21
17.9921836815648213
 31
0.0
  0
LINE
  5
177
100
AcDbEntity
100
AcDbLine
  8
0
 62
256
370
-1
  6
ByLayer
 10
9.7574999999091538
 20
17.7562100119811106
 30
0.0
 11
9.7499999999063718
 21
17.9960927958568142
 31
0.0
  0
LINE
  5
178
100
AcDbEntity
100
AcDbLine
  8
0
 62
256
370
-1
  6
ByLayer
 10
9.8258749544820496
 20
17.8780759369609683
 30
0.0
 11
9.8232233040427275
 21
17.9980466365085974
 31
0.0
  0
MTEXT
  5
179
100
AcDbEntity
100
AcDbMText
  8
numbers
 62
256
370
-1
  6
ByLayer
 10
5.4179480579111754
 20
14.5820519420888246
 30
0.0
 40
0.16
 41
800.0
 71
5
 72
2
  1
1/2
  7
normal
 50
315.0000000000000568
 73
0
 44
1.0
  0
MTEXT
  5
17A
100
AcDbEntity
100
AcDbMText
  8
numbers
 62
256
370
-1
  6
ByLayer
 10
4.388155383476839
 20
13.2399999999999949
 30
0.0
 40
0.16
 41
800.0
 71
5
 72
2
  1
1/4
  7
normal
 50
330.0000000000000568
 73
0
 44
1.0
  0
MTEXT
  5
17B
100
AcDbEntity
100
AcDbMText
  8
numbers
 62
256
370
-1
  6
ByLayer
 10
6.7600000000000016
 20
15.611844616523161
 30
0.0
 40
0.16
 41
800.0
 71
5
 72
2
  1
3/4
  7
normal
 50
300.0000000000000568
 73
0
 44
1.0
  0
MTEXT
  5
17C
100
AcDbEntity
100
AcDbMText
  8
numbers
 62
256
370
-1
  6
ByLayer
 10
3.9385150352401652
 20
12.291025975843656
 30
0.0
 40
0.16
 41
800.0
 71
5
 72
2
  1
1/8
  7
normal
 50
339.2952000000000226
 73
0
 44
1.0
  0
MTEXT
  5
17D
100
AcDbEntity
100
AcDbMText
  8
numbers
 62
256
370
-1
  6
ByLayer
 10
4.8771101900399927
 20
13.9681733826797299
 30
0.0
 40
0.16
 41
800.0
 71
5
 72
2
  1
3/8
  7
normal
 50
322.2388000000000261
 73
0
 44
1.0
  0
MTEXT
  5
17E
100
AcDbEntity
100
AcDbMText
  8
numbers
 62
256
370
-1
  6
ByLayer
 10
6.0318266173202701
 20
15.1228898099600073
 30
0.0
 40
0.16
 41
800.0
 71
5
 72
2
  1
5/8
  7
normal
 50
307.7612000000000307
 73
0
 44
1.0
  0
MTEXT
  5
17F
100
AcDbEntity
100
AcDbMText
  8
numbers
 62
256
370
-1
  6
ByLayer
 10
7.7089740241563369
 20
16.0614849647598383
 30
0.0
 40
0.16
 41
800.0
 71
5
 72
2
  1
7/8
  7
normal
 50
290.704811100000029
 73
0
 44
1.0
  0
MTEXT
  5
180
100
AcDbEntity
100
AcDbMText
  8
numbers
 62
256
370
-1
  6
ByLayer
 10
3.4159283118648673
 20
11.7000000016168393
 30
0.0
 40
0.12
 41
800.0
 71
5
 72
2
  1
1/16
  7
normal
 50
345.5225000000000364
 73
0
 44
1.0
  0
MTEXT
  5
181
100
AcDbEntity
100
AcDbMText
  8
numbers
 62
256
370
-1
  6
ByLayer
 10
3.870562833085657
 20
12.9444863757282036
 30
0.0
 40
0.12
 41
800.0
 71
5
 72
2
  1
3/16
  7
normal
 50
334.3410937000001013
 73
0
 44
1.0
  0
MTEXT
  5
182
100
AcDbEntity
100
AcDbMText
  8
numbers
 62
256
370
-1
  6
ByLayer
 10
4.3617378576246146
 20
13.8013155635722278
 30
0.0
 40
0.12
 41
800.0
 71
5
 72
2
  1
5/16
  7
normal
 50
326.0121564000000376
 73
0
 44
1.0
  0
MTEXT
  5
183
100
AcDbEntity
100
AcDbMText
  8
numbers
 62
256
370
-1
  6
ByLayer
 10
4.8999999992722323
 20
14.4977772279845851
 30
0.0
 40
0.12
 41
800.0
 71
5
 72
2
  1
7/16
  7
normal
 50
318.5904000000000451
 73
0
 44
1.0
  0
MTEXT
  5
184
100
AcDbEntity
100
AcDbMText
  8
numbers
 62
256
370
-1
  6
ByLayer
 10
5.5022227720154149
 20
15.1000000007277677
 30
0.0
 40
0.12
 41
800.0
 71
5
 72
2
  1
9/16
  7
normal
 50
311.4096000000000686
 73
0
 44
1.0
  0
MTEXT
  5
185
100
AcDbEntity
100
AcDbMText
  8
numbers
 62
256
370
-1
  6
ByLayer
 10
6.1986844364277722
 20
15.6382621423753854
 30
0.0
 40
0.12
 41
800.0
 71
5
 72
2
  1
11/16
  7
normal
 50
303.9878436000000761
 73
0
 44
1.0
  0
MTEXT
  5
186
100
AcDbEntity
100
AcDbMText
  8
numbers
 62
256
370
-1
  6
ByLayer
 10
7.0555136242717893
 20
16.129437166914343
 30
0.0
 40
0.12
 41
800.0
 71
5
 72
2
  1
13/16
  7
normal
 50
295.6589063000000124
 73
0
 44
1.0
  0
MTEXT
  5
187
100
AcDbEntity
100
AcDbMText
  8
numbers
 62
256
370
-1
  6
ByLayer
 10
8.2999999983831572
 20
16.5840716881351398
 30
0.0
 40
0.12
 41
800.0
 71
5
 72
2
  1
15/16
  7
normal
 50
284.4775000000000773
 73
0
 44
1.0
  0
MTEXT
  5
188
100
AcDbEntity
100
AcDbMText
  8
numbers
 62
256
370
-1
  6
ByLayer
 10
3.3070933070236919
 20
11.2020815276481258
 30
0.0
 40
0.12
 41
800.0
 71
5
 72
2
  1
1/32
  7
normal
 50
349.8179000000000656
 73
0
 44
1.0
  0
MTEXT
  5
189
100
AcDbEntity
100
AcDbMText
  8
numbers
 62
256
370
-1
  6
ByLayer
 10
3.5265928582688915
 20
12.0820662759347073
 30
0.0
 40
0.12
 41
800.0
 71
5
 72
2
  1
3/32
  7
normal
 50
342.1704562000000465
 73
0
 44
1.0
  0
MTEXT
  5
18A
100
AcDbEntity
100
AcDbMText
  8
numbers
 62
256
370
-1
  6
ByLayer
 10
8.7979184723518742
 20
16.6929066929763117
 30
0.0
 40
0.12
 41
800.0
 71
5
 72
2
  1
31/32
  7
normal
 50
280.1821000000000481
 73
0
 44
1.0
  0
MTEXT
  5
18B
100
AcDbEntity
100
AcDbMText
  8
numbers
 62
256
370
-1
  6
ByLayer
 10
7.9179337240652856
 20
16.4734071417311085
 30
0.0
 40
0.12
 41
800.0
 71
5
 72
2
  1
29/32
  7
normal
 50
287.8294999999999959
 73
0
 44
1.0
  0
MTEXT
  5
18C
100
AcDbEntity
100
AcDbMText
  8
numbers
 62
256
370
-1
  6
ByLayer
 10
3.2533341567636676
 20
10.8499999998282846
 30
0.0
 40
0.12
 41
800.0
 71
5
 72
2
  1
1/64
  7
normal
 50
352.8192442200000301
 73
0
 44
1.0
  0
MTEXT
  5
18D
100
AcDbEntity
100
AcDbMText
  8
numbers
 62
256
370
-1
  6
ByLayer
 10
9.1500000001717012
 20
16.746665843236336
 30
0.0
 40
0.12
 41
800.0
 71
5
 72
2
  1
63/64
  7
normal
 50
277.1807558000000427
 73
0
 44
1.0
  0
MTEXT
  5
18E
100
AcDbEntity
100
AcDbMText
  8
numbers
 62
256
370
-1
  6
ByLayer
 10
3.2132942453760336
 20
10.4250000001809795
 30
0.0
 40
0.12
 41
800.0
 71
5
 72
2
  1
1/256
  7
normal
 50
356.4166799999999853
 73
0
 44
1.0
  0
LINE
  5
18F
100
AcDbEntity
100
AcDbLine
  8
0
 62
256
370
-1
  6
ByLayer
 10
10.0
 20
16.480000000000004
 30
0.0
 11
10.0
 21
18.0000000000000036
 31
0.0
  0
CIRCLE
  5
190
100
AcDbEntity
100
AcDbCircle
  8
guidelines
 62
256
370
-1
  6
ByLayer
 10
10.0
 20
10.0
 30
0.0
 40
6.2400000000000002
  0
CIRCLE
  5
191
100
AcDbEntity
100
AcDbCircle
  8
guidelines
 62
256
370
-1
  6
ByLayer
 10
10.0000000000000036
 20
10.0
 30
0.0
 40
6.3600000000000003
  0
LINE
  5
192
100
AcDbEntity
100
AcDbLine
  8
guidelines
 62
256
370
-1
  6
ByLayer
 10
10.0
 20
16.3599999999999994
 30
0.0
 11
10.0
 21
18.0000000000000036
 31
0.0
  0
MTEXT
  5
193
100
AcDbEntity
100
AcDbMText
  8
numbers
 62
256
370
-1
  6
ByLayer
 10
10.0
 20
16.360000000000003
 30
0.0
 40
0.16
 41
800.0
 71
5
 72
2
  1
1
  7
normal
 50
90.0
 73
0
 44
1.0
  0
LINE
  5
194
100
AcDbEntity
100
AcDbLine
  8
0
 62
256
370
-1
  6
ByLayer
 10
18.0
 20
10.0
 30
0.0
 11
16.4800000000000004
 21
10.0
 31
0.0
  0
LINE
  5
195
100
AcDbEntity
100
AcDbLine
  8
guidelines
 62
256
370
-1
  6
ByLayer
 10
18.0
 20
10.0
 30
0.0
 11
16.0000000000000036
 21
10.0
 31
0.0
  0
MTEXT
  5
196
100
AcDbEntity
100
AcDbMText
  8
numbers
 62
256
370
-1
  6
ByLayer
 10
16.360000000000003
 20
10.0
 30
0.0
 40
0.16
 41
800.0
 71
5
 72
2
  1
0
  7
normal
 50
0.0
 73
0
 44
1.0
  0
LINE
  5
197
100
AcDbEntity
100
AcDbLine
  8
0
 62
256
370
-1
  6
ByLayer
 10
2.0
 20
10.0
 30
0.0
 11
3.5199999999999996
 21
10.0
 31
0.0
  0
MTEXT
  5
198
100
AcDbEntity
100
AcDbMText
  8
numbers
 62
256
370
-1
  6
ByLayer
 10
3.639999999999997
 20
10.0
 30
0.0
 40
0.16
 41
800.0
 71
5
 72
2
  1
0
  7
normal
 50
360.0
 73
0
 44
1.0
  0
ARC
  5
199
100
AcDbEntity
  8
0
 62
256
370
-1
  6
ByLayer
100
AcDbCircle
 10
10.0000000000000036
 20
10.0000000000000036
 30
0.0
 40
8.0
100
AcDbArc
 50
353.5405502226449244
 51
186.4594497773550472
  0
LINE
  5
19A
100
AcDbEntity
100
AcDbLine
  8
0
 62
256
370
-1
  6
ByLayer
 10
2.0507862023971235
 20
9.1000000000000014
 30
0.0
 11
17.9492137976028836
 21
9.1000000000000014
 31
0.0
  0
ARC
  5
19B
100
AcDbEntity
  8
0
 62
256
370
-1
  6
ByLayer
100
AcDbCircle
 10
10.0
 20
10.0
 30
0.0
 40
6.2000000000000002
100
AcDbArc
 50
8.3466192632206084
 51
171.6533807367794111
  0
LINE
  5
19C
100
AcDbEntity
100
AcDbLine
  8
0
 62
256
370
-1
  6
ByLayer
 10
3.8656703707739979
 20
10.9000000000000021
 30
0.0
 11
16.1343296292260021
 21
10.9000000000000021
 31
0.0
  0
CIRCLE
  5
19D
100
AcDbEntity
100
AcDbCircle
  8
guidelines
 62
256
370
-1
  6
ByLayer
 10
10.0
 20
10.0
 30
0.0
 40
7.1600000000000046
  0
CIRCLE
  5
19E
100
AcDbEntity
100
AcDbCircle
  8
guidelines
 62
256
370
-1
  6
ByLayer
 10
10.0
 20
10.0
 30
0.0
 40
7.2800000000000038
  0
LINE
  5
19F
100
AcDbEntity
100
AcDbLine
  8
0
 62
256
370
-1
  6
ByLayer
 10
17.2657673373033163
 20
10.455000000193774
 30
0.0
 11
17.1460019416334823
 21
10.4475000001905798
 31
0.0
  0
LINE
  5
1A0
100
AcDbEntity
100
AcDbLine
  8
0
 62
256
370
-1
  6
ByLayer
 10
2.7342326626966837
 20
10.4550000001937704
 30
0.0
 11
2.8539980583665177
 21
10.4475000001905762
 31
0.0
  0
LINE
  5
1A1
100
AcDbEntity
100
AcDbLine
  8
guidelines
 62
256
370
-1
  6
ByLayer
 10
10.3217335856059798
 20
17.2728871502239869
 30
0.0
 11
10.3535533907757618
 21
17.9921836815648213
 31
0.0
  0
LINE
  5
1A2
100
AcDbEntity
100
AcDbLine
  8
guidelines
 62
256
370
-1
  6
ByLayer
 10
10.4050000001724783
 20
16.4673313661710807
 30
0.0
 11
10.500000000212939
 21
17.9843597113223232
 31
0.0
  0
MTEXT
  5
1A3
100
AcDbEntity
100
AcDbMText
  8
numbers
 62
256
370
-1
  6
ByLayer
 10
10.4250000001809973
 20
16.7867057546239735
 30
0.0
 40
0.12
 41
800.0
 71
5
 72
2
  1
255/256
  7
normal
 50
86.4166783000000009
 73
0
 44
1.0
  0
LINE
  5
1A4
100
AcDbEntity
100
AcDbLine
  8
0
 62
256
370
-1
  6
ByLayer
 10
10.455000000193774
 20
17.2657673373033163
 30
0.0
 11
10.4475000001905798
 21
17.1460019416334823
 31
0.0
  0
MTEXT
  5
1A5
100
AcDbEntity
100
AcDbMText
  8
numbers
 62
256
370
-1
  6
ByLayer
 10
9.5749999998190027
 20
16.7867057546239735
 30
0.0
 40
0.12
 41
800.0
 71
5
 72
2
  1
255/256
  7
normal
 50
273.5833216999999991
 73
0
 44
1.0
  0
LINE
  5
1A6
100
AcDbEntity
100
AcDbLine
  8
0
 62
256
370
-1
  6
ByLayer
 10
9.544999999806226
 20
17.2657673373033163
 30
0.0
 11
9.5524999998094202
 21
17.1460019416334823
 31
0.0
  0
CIRCLE
  5
1A7
100
AcDbEntity
100
AcDbCircle
  8
guidelines
 62
256
370
-1
  6
ByLayer
 10
10.0
 20
10.0
 30
0.0
 40
0.16
  0
CIRCLE
  5
1A8
100
AcDbEntity
100
AcDbCircle
  8
guidelines
 62
256
370
-1
  6
ByLayer
 10
10.0
 20
10.0
 30
0.0
 40
0.9
  0
LINE
  5
1A9
100
AcDbEntity
100
AcDbLine
  8
0
 62
256
370
-1
  6
ByLayer
 10
10.0
 20
10.1600000000000001
 30
0.0
 11
10.0
 21
10.9000000000000021
 31
0.0
  0
LINE
  5
1AA
100
AcDbEntity
100
AcDbLine
  8
0
 62
256
370
-1
  6
ByLayer
 10
10.0
 20
9.1000000000000014
 30
0.0
 11
10.0
 21
9.8399999999999999
 31
0.0
  0
LINE
  5
1AB
100
AcDbEntity
100
AcDbLine
  8
0
 62
256
370
-1
  6
ByLayer
 10
9.1000000000000014
 20
10.0
 30
0.0
 11
9.8399999999999999
 21
10.0
 31
0.0
  0
LINE
  5
1AC
100
AcDbEntity
100
AcDbLine
  8
0
 62
256
370
-1
  6
ByLayer
 10
10.1600000000000001
 20
10.0
 30
0.0
 11
10.8999999999999986
 21
10.0
 31
0.0
  0
LINE
  5
1AD
100
AcDbEntity
100
AcDbLine
  8
0
 62
256
370
-1
  6
ByLayer
 10
11.6000000000000014
 20
10.0
 30
0.0
 11
15.6000000000000014
 21
10.0
 31
0.0
  0
LINE
  5
1AE
100
AcDbEntity
100
AcDbLine
  8
0
 62
256
370
-1
  6
ByLayer
 10
8.3999999999999986
 20
10.0
 30
0.0
 11
4.3999999999999986
 21
10.0
 31
0.0
  0
CIRCLE
  5
1AF
100
AcDbEntity
100
AcDbCircle
  8
0
 62
256
370
-1
  6
ByLayer
 10
10.0
 20
10.0
 30
0.0
 40
0.5
  0
MTEXT
  5
1B0
100
AcDbEntity
100
AcDbMText
  8
title
 62
256
370
-1
  6
ByLayer
 10
6.7810532833957753
 20
10.4661237453183826
 30
0.0
 40
0.1
 41
100.0
 71
5
 72
0
  1
fractional\~spread\~protractor\~v1.0\Pcopyright\~2005\~Michael\~Ossmann\Phttp://www.ossmann.com/protractor/
  7
romans
 50
0.0
 73
1
 44
1.0
  0
ENDSEC
  0
SECTION
  2
OBJECTS
  0
DICTIONARY
  5
C
100
AcDbDictionary
280
0
281
1
  3
ACAD_GROUP
350
D
  3
ACAD_LAYOUT
350
1A
  3
ACAD_MLINESTYLE
350
17
  3
ACAD_PLOTSETTINGS
350
19
  3
ACAD_PLOTSTYLENAME
350
E
  3
AcDbVariableDictionary
350
1B1
  0
DICTIONARY
  5
D
100
AcDbDictionary
280
0
281
1
  0
ACDBDICTIONARYWDFLT
  5
E
100
AcDbDictionary
281
1
  3
Normal
350
F
100
AcDbDictionaryWithDefault
340
F
  0
ACDBPLACEHOLDER
  5
F
  0
DICTIONARY
  5
17
100
AcDbDictionary
280
0
281
1
  3
Standard
350
18
  0
MLINESTYLE
  5
18
100
AcDbMlineStyle
  2
STANDARD
 70
0
  3

 62
256
 51
90.0
 52
90.0
 71
2
 49
0.5
 62
256
  6
BYLAYER
 49
-0.5
 62
256
  6
BYLAYER
  0
DICTIONARY
  5
19
100
AcDbDictionary
280
0
281
1
  0
DICTIONARY
  5
1A
100
AcDbDictionary
281
1
  3
Layout1
350
1E
  3
Layout2
350
26
  3
Model
350
22
  0
LAYOUT
  5
1E
100
AcDbPlotSettings
  1

  2
C:\Program Files\AutoCAD 2002\plotters\DWF ePlot (optimized for plotting).pc3
  4

  6

 40
0.0
 41
0.0
 42
0.0
 43
0.0
 44
0.0
 45
0.0
 46
0.0
 47
0.0
 48
0.0
 49
0.0
140
0.0
141
0.0
142
1.0
143
1.0
 70
688
 72
0
 73
0
 74
5
  7

 75
16
147
1.0
148
0.0
149
0.0
100
AcDbLayout
  1
Layout1
 70
1
 71
1
 10
0.0
 20
0.0
 11
420.0
 21
297.0
 12
0.0
 22
0.0
 32
0.0
 14
100000000000000000000.0
 24
100000000000000000000.0
 34
100000000000000000000.0
 15
-100000000000000000000.0
 25
-100000000000000000000.0
 35
-100000000000000000000.0
146
0.0
 13
0.0
 23
0.0
 33
0.0
 16
1.0
 26
0.0
 36
0.0
 17
0.0
 27
1.0
 37
0.0
 76
0
330
1B
  0
LAYOUT
  5
22
100
AcDbPlotSettings
  1

  2
C:\Program Files\AutoCAD 2002\plotters\DWF ePlot (optimized for plotting).pc3
  4

  6

 40
0.0
 41
0.0
 42
0.0
 43
0.0
 44
0.0
 45
0.0
 46
0.0
 47
0.0
 48
0.0
 49
0.0
140
0.0
141
0.0
142
1.0
143
1.0
 70
1712
 72
0
 73
0
 74
0
  7

 75
0
147
1.0
148
0.0
149
0.0
100
AcDbLayout
  1
Model
 70
1
 71
0
 10
0.0
 20
0.0
 11
12.0
 21
9.0
 12
0.0
 22
0.0
 32
0.0
 14
0.0
 24
0.0
 34
0.0
 15
0.0
 25
0.0
 35
0.0
146
0.0
 13
0.0
 23
0.0
 33
0.0
 16
1.0
 26
0.0
 36
0.0
 17
0.0
 27
1.0
 37
0.0
 76
0
330
1F
  0
LAYOUT
  5
26
100
AcDbPlotSettings
  1

  2
C:\Program Files\AutoCAD 2002\plotters\DWF ePlot (optimized for plotting).pc3
  4

  6

 40
0.0
 41
0.0
 42
0.0
 43
0.0
 44
0.0
 45
0.0
 46
0.0
 47
0.0
 48
0.0
 49
0.0
140
0.0
141
0.0
142
1.0
143
1.0
 70
688
 72
0
 73
0
 74
5
  7

 75
16
147
1.0
148
0.0
149
0.0
100
AcDbLayout
  1
Layout2
 70
1
 71
2
 10
0.0
 20
0.0
 11
12.0
 21
9.0
 12
0.0
 22
0.0
 32
0.0
 14
0.0
 24
0.0
 34
0.0
 15
0.0
 25
0.0
 35
0.0
146
0.0
 13
0.0
 23
0.0
 33
0.0
 16
1.0
 26
0.0
 36
0.0
 17
0.0
 27
1.0
 37
0.0
 76
0
330
23
  0
DICTIONARY
  5
1B1
100
AcDbDictionary
281
1
  3
DIMASSOC
350
1B3
  3
HIDETEXT
350
1B2
  0
DICTIONARYVAR
  5
1B2
100
DictionaryVariables
280
0
  1
2
  0
DICTIONARYVAR
  5
1B3
100
DictionaryVariables
280
0
  1
1
  0
ENDSEC
  0
EOF
